M48
METRIC,LZ,000.000
;FILE_FORMAT=3:3
;TYPE=PLATED
;Layer: PTH_Through_Via
;EasyEDA v6.5.22, 2022-12-16 12:01:04
;ffafb82dc5884e098cccb4057f462f53,5f1b69652c614dc78b77d9171f06c583,10
;Gerber Generator version 0.2
;Holesize 1 = 0.305 mm
T01C0.305
%
G05
G90
T01
X030607Y043434
X026797Y043434
X022225Y043434
X010160Y043434
X034671Y043434
X038513Y043434
X042355Y043434
X046482Y043434
X050419Y043434
X054356Y043434
X058166Y043434
X062230Y043434
X066294Y043434
X070231Y043434
X074168Y043434
X078232Y043434
X082169Y043434
X086106Y043434
X090043Y043434
X094107Y043434
X098679Y043434
X014732Y047244
M30
