M48
METRIC,LZ,000.000
;FILE_FORMAT=3:3
;TYPE=PLATED
;Layer: PTH_Through
;EasyEDA v6.5.22, 2022-12-16 12:01:04
;ffafb82dc5884e098cccb4057f462f53,5f1b69652c614dc78b77d9171f06c583,10
;Gerber Generator version 0.2
;Holesize 1 = 0.600 mm
T01C0.600
;Holesize 2 = 1.200 mm
T02C1.200
;Holesize 3 = 1.800 mm
T03C1.800
%
G05
G90
T01
X034671Y047227
X034671Y041927
X042355Y054339
X042355Y049039
X038513Y054339
X038513Y049039
X034671Y054339
X034671Y049039
X042355Y047227
X042355Y041927
X038513Y047227
X038513Y041927
T02
X019685Y044577
X014605Y044577
T03
X012700Y059944
X016660Y059944
X020620Y059944
X032639Y059944
X028679Y059944
X024719Y059944
X048387Y059944
X052347Y059944
X056307Y059944
X044407Y059944
X040447Y059944
X036576Y059944
X084087Y059944
X088047Y059944
X092007Y059944
X095987Y059944
X072167Y059944
X076127Y059944
X080087Y059944
X068187Y059944
X064227Y059944
X060267Y059944
X060267Y064262
X064227Y064262
X068187Y064262
X080087Y064262
X076127Y064262
X072167Y064262
X095987Y064262
X092007Y064262
X088047Y064262
X084087Y064262
X036487Y064262
X040447Y064262
X044407Y064262
X056307Y064262
X052347Y064262
X048387Y064262
X024719Y064262
X028679Y064262
X032639Y064262
X020620Y064262
X016660Y064262
X012700Y064262
M30
