G04 Layer: BottomLayer*
G04 EasyEDA v6.5.22, 2022-12-16 12:01:04*
G04 ffafb82dc5884e098cccb4057f462f53,5f1b69652c614dc78b77d9171f06c583,10*
G04 Gerber Generator version 0.2*
G04 Scale: 100 percent, Rotated: No, Reflected: No *
G04 Dimensions in millimeters *
G04 leading zeros omitted , absolute positions ,4 integer and 5 decimal *
%FSLAX45Y45*%
%MOMM*%

%AMMACRO1*21,1,$1,$2,0,0,$3*%
%ADD10C,2.0000*%
%ADD11C,0.4500*%
%ADD12C,0.5000*%
%ADD13R,2.4000X9.5000*%
%ADD14MACRO1,2.3978X9.4996X0.0000*%
%ADD15C,1.0000*%
%ADD16C,1.8000*%
%ADD17C,3.0000*%
%ADD18C,0.6096*%
%ADD19C,0.0165*%

%LPD*%
G36*
X3008579Y4038600D02*
G01*
X3004972Y4039260D01*
X3001822Y4041190D01*
X2999587Y4044086D01*
X2998317Y4049420D01*
X2996387Y4054906D01*
X2993288Y4059783D01*
X2989224Y4063898D01*
X2984296Y4066946D01*
X2978861Y4068876D01*
X2972562Y4069587D01*
X2916072Y4069587D01*
X2912160Y4070350D01*
X2908909Y4072534D01*
X2906674Y4075836D01*
X2905912Y4079748D01*
X2905912Y5496509D01*
X2905048Y5505805D01*
X2902305Y5515305D01*
X2898190Y5523179D01*
X2892399Y5530596D01*
X2718155Y5715508D01*
X2716123Y5718759D01*
X2715412Y5722518D01*
X2715412Y5874613D01*
X2716225Y5878576D01*
X2718460Y5881878D01*
X2721864Y5884062D01*
X2725826Y5884773D01*
X2729738Y5883859D01*
X2733040Y5881522D01*
X2745130Y5868416D01*
X2758744Y5856478D01*
X2773476Y5845962D01*
X2789224Y5837072D01*
X2805836Y5829808D01*
X2823108Y5824321D01*
X2840837Y5820613D01*
X2858820Y5818733D01*
X2876956Y5818733D01*
X2894939Y5820613D01*
X2912668Y5824321D01*
X2929940Y5829808D01*
X2946552Y5837072D01*
X2962300Y5845962D01*
X2977032Y5856478D01*
X2990646Y5868416D01*
X2994660Y5872784D01*
X2997962Y5875121D01*
X3001873Y5876036D01*
X3005836Y5875324D01*
X3009239Y5873140D01*
X3011474Y5869838D01*
X3012287Y5865876D01*
X3012338Y5685688D01*
X3013608Y5676493D01*
X3016453Y5668010D01*
X3020822Y5660237D01*
X3026816Y5653024D01*
X3199790Y5479999D01*
X3202025Y5476697D01*
X3202787Y5472785D01*
X3202787Y4079748D01*
X3202025Y4075836D01*
X3199790Y4072534D01*
X3196539Y4070350D01*
X3192627Y4069587D01*
X3129635Y4069587D01*
X3123336Y4068876D01*
X3117900Y4066946D01*
X3112973Y4063898D01*
X3108909Y4059783D01*
X3105810Y4054906D01*
X3103880Y4049420D01*
X3102610Y4044086D01*
X3100374Y4041190D01*
X3097225Y4039260D01*
X3093618Y4038600D01*
G37*

%LPD*%
G36*
X8552637Y4038600D02*
G01*
X8549030Y4039260D01*
X8545880Y4041190D01*
X8543645Y4044086D01*
X8542375Y4049420D01*
X8540445Y4054906D01*
X8537346Y4059783D01*
X8533282Y4063898D01*
X8528354Y4066946D01*
X8522919Y4068876D01*
X8516620Y4069587D01*
X8465972Y4069587D01*
X8462060Y4070350D01*
X8458809Y4072534D01*
X8456574Y4075836D01*
X8455812Y4079748D01*
X8455761Y5486247D01*
X8454491Y5495442D01*
X8451646Y5503926D01*
X8447278Y5511698D01*
X8441283Y5518912D01*
X8255609Y5704636D01*
X8253374Y5707938D01*
X8252612Y5711850D01*
X8252612Y5879287D01*
X8253475Y5883351D01*
X8255914Y5886805D01*
X8259572Y5888888D01*
X8263737Y5889396D01*
X8267750Y5888126D01*
X8270900Y5885383D01*
X8273643Y5881725D01*
X8285937Y5868416D01*
X8299551Y5856478D01*
X8314283Y5845962D01*
X8330031Y5837072D01*
X8346643Y5829808D01*
X8363915Y5824321D01*
X8381644Y5820613D01*
X8399627Y5818733D01*
X8417763Y5818733D01*
X8435746Y5820613D01*
X8453475Y5824321D01*
X8470747Y5829808D01*
X8487359Y5837072D01*
X8503107Y5845962D01*
X8517839Y5856478D01*
X8531453Y5868416D01*
X8543899Y5881928D01*
X8547049Y5884672D01*
X8551062Y5885942D01*
X8555228Y5885434D01*
X8558885Y5883351D01*
X8561324Y5879947D01*
X8562187Y5875832D01*
X8562187Y5687009D01*
X8563051Y5677662D01*
X8565489Y5669076D01*
X8569452Y5661152D01*
X8575700Y5652973D01*
X8749944Y5468112D01*
X8751976Y5464860D01*
X8752687Y5461101D01*
X8752687Y4079748D01*
X8751925Y4075836D01*
X8749690Y4072534D01*
X8746439Y4070350D01*
X8742527Y4069587D01*
X8673693Y4069587D01*
X8667394Y4068876D01*
X8661958Y4066946D01*
X8657031Y4063898D01*
X8652967Y4059783D01*
X8649868Y4054906D01*
X8647938Y4049420D01*
X8646668Y4044086D01*
X8644432Y4041190D01*
X8641283Y4039260D01*
X8637676Y4038600D01*
G37*

%LPD*%
G36*
X8948623Y4038600D02*
G01*
X8945016Y4039260D01*
X8941866Y4041190D01*
X8939631Y4044086D01*
X8938361Y4049420D01*
X8936431Y4054906D01*
X8933332Y4059783D01*
X8929268Y4063898D01*
X8924340Y4066946D01*
X8918905Y4068876D01*
X8912606Y4069587D01*
X8859672Y4069587D01*
X8855760Y4070350D01*
X8852509Y4072534D01*
X8850274Y4075836D01*
X8849512Y4079748D01*
X8849512Y5483809D01*
X8848648Y5493105D01*
X8845905Y5502605D01*
X8841790Y5510479D01*
X8835999Y5517896D01*
X8661755Y5702808D01*
X8659723Y5706059D01*
X8659012Y5709818D01*
X8659012Y5867247D01*
X8659825Y5871210D01*
X8662060Y5874512D01*
X8665464Y5876696D01*
X8669426Y5877407D01*
X8673338Y5876493D01*
X8676640Y5874156D01*
X8681923Y5868416D01*
X8695537Y5856478D01*
X8710269Y5845962D01*
X8726017Y5837072D01*
X8742629Y5829808D01*
X8759901Y5824321D01*
X8777630Y5820613D01*
X8795613Y5818733D01*
X8813749Y5818733D01*
X8831732Y5820613D01*
X8849461Y5824321D01*
X8866733Y5829808D01*
X8883345Y5837072D01*
X8899093Y5845962D01*
X8913825Y5856478D01*
X8927439Y5868416D01*
X8938260Y5880150D01*
X8941562Y5882487D01*
X8945473Y5883402D01*
X8949436Y5882690D01*
X8952839Y5880506D01*
X8955074Y5877204D01*
X8955887Y5873242D01*
X8955887Y5700725D01*
X8956751Y5691378D01*
X8959189Y5682792D01*
X8963152Y5674868D01*
X8969400Y5666689D01*
X9143644Y5481828D01*
X9145676Y5478576D01*
X9146387Y5474817D01*
X9146387Y4079748D01*
X9145625Y4075836D01*
X9143390Y4072534D01*
X9140139Y4070350D01*
X9136227Y4069587D01*
X9069679Y4069587D01*
X9063380Y4068876D01*
X9057944Y4066946D01*
X9053017Y4063898D01*
X9048953Y4059783D01*
X9045854Y4054906D01*
X9043924Y4049420D01*
X9042654Y4044086D01*
X9040418Y4041190D01*
X9037269Y4039260D01*
X9033662Y4038600D01*
G37*

%LPD*%
G36*
X4592523Y4038600D02*
G01*
X4588916Y4039260D01*
X4585766Y4041190D01*
X4583531Y4044086D01*
X4582261Y4049420D01*
X4580331Y4054906D01*
X4577232Y4059783D01*
X4573168Y4063898D01*
X4568240Y4066946D01*
X4562805Y4068876D01*
X4556506Y4069587D01*
X4490872Y4069587D01*
X4486960Y4070350D01*
X4483709Y4072534D01*
X4481474Y4075836D01*
X4480712Y4079748D01*
X4480712Y5496509D01*
X4479848Y5505805D01*
X4477105Y5515305D01*
X4472990Y5523179D01*
X4467199Y5530596D01*
X4292955Y5715508D01*
X4290923Y5718759D01*
X4290212Y5722518D01*
X4290212Y5872480D01*
X4291025Y5876391D01*
X4293260Y5879744D01*
X4296664Y5881928D01*
X4300626Y5882589D01*
X4304538Y5881725D01*
X4307840Y5879338D01*
X4317949Y5868416D01*
X4331563Y5856478D01*
X4346295Y5845962D01*
X4362043Y5837072D01*
X4378655Y5829808D01*
X4395927Y5824321D01*
X4413656Y5820613D01*
X4431639Y5818733D01*
X4449775Y5818733D01*
X4467758Y5820613D01*
X4485487Y5824321D01*
X4502759Y5829808D01*
X4519320Y5837072D01*
X4535119Y5845962D01*
X4549851Y5856478D01*
X4563465Y5868416D01*
X4569460Y5874918D01*
X4572762Y5877306D01*
X4576673Y5878169D01*
X4580636Y5877509D01*
X4584039Y5875324D01*
X4586274Y5871972D01*
X4587087Y5868009D01*
X4587087Y5687009D01*
X4587951Y5677662D01*
X4590389Y5669076D01*
X4594352Y5661152D01*
X4600600Y5652973D01*
X4774844Y5468112D01*
X4776876Y5464860D01*
X4777587Y5461101D01*
X4777587Y4079748D01*
X4776825Y4075836D01*
X4774590Y4072534D01*
X4771339Y4070350D01*
X4767427Y4069587D01*
X4713579Y4069587D01*
X4707280Y4068876D01*
X4701844Y4066946D01*
X4696917Y4063898D01*
X4692853Y4059783D01*
X4689754Y4054906D01*
X4687824Y4049420D01*
X4686554Y4044086D01*
X4684318Y4041190D01*
X4681169Y4039260D01*
X4677562Y4038600D01*
G37*

%LPD*%
G36*
X3404565Y4038600D02*
G01*
X3400958Y4039260D01*
X3397808Y4041190D01*
X3395573Y4044086D01*
X3394303Y4049420D01*
X3392373Y4054906D01*
X3389274Y4059783D01*
X3385210Y4063898D01*
X3380282Y4066946D01*
X3374847Y4068876D01*
X3368548Y4069587D01*
X3309772Y4069587D01*
X3305860Y4070350D01*
X3302609Y4072534D01*
X3300374Y4075836D01*
X3299612Y4079748D01*
X3299561Y5498947D01*
X3298291Y5508142D01*
X3295446Y5516626D01*
X3291078Y5524398D01*
X3285083Y5531612D01*
X3112109Y5704636D01*
X3109874Y5707938D01*
X3109112Y5711850D01*
X3109112Y5877560D01*
X3109976Y5881674D01*
X3112414Y5885078D01*
X3116072Y5887161D01*
X3120237Y5887669D01*
X3124250Y5886399D01*
X3127400Y5883656D01*
X3128822Y5881725D01*
X3141116Y5868416D01*
X3154730Y5856478D01*
X3169513Y5845962D01*
X3185261Y5837072D01*
X3201873Y5829808D01*
X3219094Y5824321D01*
X3236823Y5820613D01*
X3254857Y5818733D01*
X3272942Y5818733D01*
X3290976Y5820613D01*
X3308705Y5824321D01*
X3325926Y5829808D01*
X3342538Y5837072D01*
X3358286Y5845962D01*
X3373069Y5856478D01*
X3386683Y5868416D01*
X3388360Y5870295D01*
X3391662Y5872632D01*
X3395573Y5873546D01*
X3399536Y5872835D01*
X3402939Y5870651D01*
X3405174Y5867349D01*
X3405987Y5863386D01*
X3406038Y5685688D01*
X3407308Y5676493D01*
X3410153Y5668010D01*
X3414522Y5660237D01*
X3420516Y5653024D01*
X3606190Y5467299D01*
X3608425Y5463997D01*
X3609187Y5460085D01*
X3609187Y4962448D01*
X3608425Y4958588D01*
X3606190Y4955286D01*
X3602939Y4953101D01*
X3599027Y4952288D01*
X3529990Y4952288D01*
X3526180Y4953050D01*
X3522929Y4955133D01*
X3515360Y4962448D01*
X3505860Y4969103D01*
X3495446Y4974285D01*
X3484372Y4977790D01*
X3472891Y4979568D01*
X3461308Y4979568D01*
X3449828Y4977790D01*
X3438753Y4974285D01*
X3428339Y4969103D01*
X3418840Y4962448D01*
X3410458Y4954371D01*
X3403396Y4945126D01*
X3397859Y4934915D01*
X3393948Y4923993D01*
X3391712Y4912614D01*
X3391255Y4900980D01*
X3392627Y4889449D01*
X3395675Y4878222D01*
X3400450Y4867656D01*
X3406749Y4857902D01*
X3414471Y4849215D01*
X3423462Y4841849D01*
X3433419Y4835906D01*
X3444189Y4831537D01*
X3455517Y4828895D01*
X3467100Y4828032D01*
X3478682Y4828895D01*
X3490010Y4831537D01*
X3500780Y4835906D01*
X3510737Y4841849D01*
X3519728Y4849215D01*
X3522268Y4852111D01*
X3525723Y4854600D01*
X3529837Y4855514D01*
X3599027Y4855514D01*
X3602939Y4854702D01*
X3606190Y4852517D01*
X3608425Y4849215D01*
X3609187Y4845354D01*
X3609187Y4079748D01*
X3608425Y4075836D01*
X3606190Y4072534D01*
X3602939Y4070350D01*
X3599027Y4069587D01*
X3525621Y4069587D01*
X3519322Y4068876D01*
X3513886Y4066946D01*
X3508959Y4063898D01*
X3504895Y4059783D01*
X3501796Y4054906D01*
X3499865Y4049420D01*
X3498596Y4044086D01*
X3496360Y4041190D01*
X3493211Y4039260D01*
X3489604Y4038600D01*
G37*

%LPC*%
G36*
X3398012Y4754067D02*
G01*
X3435756Y4754067D01*
X3435756Y4791608D01*
X3428339Y4787900D01*
X3418840Y4781245D01*
X3410458Y4773168D01*
X3403396Y4763922D01*
G37*
G36*
X3435756Y5364937D02*
G01*
X3435756Y5402529D01*
X3398265Y5402529D01*
X3400450Y5397652D01*
X3406749Y5387898D01*
X3414471Y5379212D01*
X3423462Y5371846D01*
X3433419Y5365902D01*
G37*
G36*
X3498443Y5364937D02*
G01*
X3500780Y5365902D01*
X3510737Y5371846D01*
X3519728Y5379212D01*
X3527450Y5387898D01*
X3533749Y5397652D01*
X3535934Y5402529D01*
X3498443Y5402529D01*
G37*
G36*
X3498443Y4653737D02*
G01*
X3500780Y4654702D01*
X3510737Y4660646D01*
X3519728Y4668012D01*
X3527450Y4676698D01*
X3533749Y4686452D01*
X3535934Y4691329D01*
X3498443Y4691329D01*
G37*
G36*
X3467100Y4116832D02*
G01*
X3478682Y4117695D01*
X3490010Y4120337D01*
X3500780Y4124706D01*
X3510737Y4130649D01*
X3519728Y4138015D01*
X3527450Y4146702D01*
X3533749Y4156456D01*
X3538524Y4167022D01*
X3541572Y4178249D01*
X3542944Y4189780D01*
X3542487Y4201414D01*
X3540251Y4212793D01*
X3536340Y4223715D01*
X3530803Y4233926D01*
X3523742Y4243171D01*
X3515360Y4251248D01*
X3505860Y4257903D01*
X3495446Y4263085D01*
X3484372Y4266590D01*
X3472891Y4268368D01*
X3461308Y4268368D01*
X3449828Y4266590D01*
X3438753Y4263085D01*
X3428339Y4257903D01*
X3418840Y4251248D01*
X3410458Y4243171D01*
X3403396Y4233926D01*
X3397859Y4223715D01*
X3393948Y4212793D01*
X3391712Y4201414D01*
X3391255Y4189780D01*
X3392627Y4178249D01*
X3395675Y4167022D01*
X3400450Y4156456D01*
X3406749Y4146702D01*
X3414471Y4138015D01*
X3423462Y4130649D01*
X3433419Y4124706D01*
X3444189Y4120337D01*
X3455517Y4117695D01*
G37*
G36*
X3498443Y4754067D02*
G01*
X3536187Y4754067D01*
X3530803Y4763922D01*
X3523742Y4773168D01*
X3515360Y4781245D01*
X3505860Y4787900D01*
X3498443Y4791608D01*
G37*
G36*
X3435756Y4653737D02*
G01*
X3435756Y4691329D01*
X3398265Y4691329D01*
X3400450Y4686452D01*
X3406749Y4676698D01*
X3414471Y4668012D01*
X3423462Y4660646D01*
X3433419Y4654702D01*
G37*
G36*
X3498443Y5465267D02*
G01*
X3536187Y5465267D01*
X3530803Y5475122D01*
X3523742Y5484368D01*
X3515360Y5492445D01*
X3505860Y5499100D01*
X3498443Y5502808D01*
G37*
G36*
X3398012Y5465267D02*
G01*
X3435756Y5465267D01*
X3435756Y5502808D01*
X3428339Y5499100D01*
X3418840Y5492445D01*
X3410458Y5484368D01*
X3403396Y5475122D01*
G37*

%LPD*%
G36*
X6572707Y4038600D02*
G01*
X6569100Y4039260D01*
X6565950Y4041190D01*
X6563715Y4044086D01*
X6562445Y4049420D01*
X6560515Y4054906D01*
X6557416Y4059783D01*
X6553352Y4063898D01*
X6548424Y4066946D01*
X6542989Y4068876D01*
X6536690Y4069587D01*
X6484772Y4069587D01*
X6480860Y4070350D01*
X6477609Y4072534D01*
X6475374Y4075836D01*
X6474612Y4079748D01*
X6474561Y5486247D01*
X6473291Y5495442D01*
X6470446Y5503926D01*
X6466078Y5511698D01*
X6460083Y5518912D01*
X6274409Y5704636D01*
X6272174Y5707938D01*
X6271412Y5711850D01*
X6271412Y5873292D01*
X6272225Y5877255D01*
X6274460Y5880557D01*
X6277864Y5882741D01*
X6281826Y5883452D01*
X6285738Y5882538D01*
X6289040Y5880201D01*
X6299911Y5868416D01*
X6313525Y5856478D01*
X6328308Y5845962D01*
X6344056Y5837072D01*
X6360617Y5829808D01*
X6377889Y5824321D01*
X6395618Y5820613D01*
X6413652Y5818733D01*
X6431737Y5818733D01*
X6449771Y5820613D01*
X6467500Y5824321D01*
X6484721Y5829808D01*
X6501333Y5837072D01*
X6517081Y5845962D01*
X6531864Y5856478D01*
X6545427Y5868416D01*
X6550659Y5874054D01*
X6553962Y5876442D01*
X6557873Y5877356D01*
X6561836Y5876645D01*
X6565239Y5874461D01*
X6567474Y5871108D01*
X6568287Y5867196D01*
X6568287Y5687009D01*
X6569151Y5677662D01*
X6571589Y5669076D01*
X6575552Y5661152D01*
X6581800Y5652973D01*
X6756044Y5468112D01*
X6758076Y5464860D01*
X6758787Y5461101D01*
X6758787Y4079748D01*
X6758025Y4075836D01*
X6755790Y4072534D01*
X6752539Y4070350D01*
X6748627Y4069587D01*
X6693763Y4069587D01*
X6687464Y4068876D01*
X6682028Y4066946D01*
X6677101Y4063898D01*
X6673037Y4059783D01*
X6669938Y4054906D01*
X6668008Y4049420D01*
X6666738Y4044086D01*
X6664502Y4041190D01*
X6661353Y4039260D01*
X6657746Y4038600D01*
G37*

%LPD*%
G36*
X5780481Y4038600D02*
G01*
X5776874Y4039260D01*
X5773724Y4041190D01*
X5771489Y4044086D01*
X5770219Y4049420D01*
X5768289Y4054906D01*
X5765190Y4059783D01*
X5761126Y4063898D01*
X5756198Y4066946D01*
X5750763Y4068876D01*
X5744464Y4069587D01*
X5684672Y4069587D01*
X5680760Y4070350D01*
X5677509Y4072534D01*
X5675274Y4075836D01*
X5674512Y4079748D01*
X5674512Y5483809D01*
X5673648Y5493105D01*
X5670905Y5502605D01*
X5666790Y5510479D01*
X5660999Y5517896D01*
X5486755Y5702808D01*
X5484723Y5706059D01*
X5484012Y5709818D01*
X5484012Y5868365D01*
X5484825Y5872276D01*
X5487060Y5875629D01*
X5490464Y5877814D01*
X5494426Y5878525D01*
X5498338Y5877610D01*
X5501640Y5875223D01*
X5507939Y5868416D01*
X5521553Y5856478D01*
X5536285Y5845962D01*
X5552033Y5837072D01*
X5568645Y5829808D01*
X5585917Y5824321D01*
X5603646Y5820613D01*
X5621629Y5818733D01*
X5639765Y5818733D01*
X5657748Y5820613D01*
X5675477Y5824321D01*
X5692749Y5829808D01*
X5709361Y5837072D01*
X5725109Y5845962D01*
X5739841Y5856478D01*
X5753455Y5868416D01*
X5763260Y5879033D01*
X5766562Y5881370D01*
X5770473Y5882284D01*
X5774436Y5881573D01*
X5777839Y5879388D01*
X5780074Y5876086D01*
X5780887Y5872124D01*
X5780887Y5687009D01*
X5781751Y5677662D01*
X5784189Y5669076D01*
X5788152Y5661152D01*
X5794400Y5652973D01*
X5968644Y5468112D01*
X5970676Y5464860D01*
X5971387Y5461101D01*
X5971387Y4079748D01*
X5970625Y4075836D01*
X5968390Y4072534D01*
X5965139Y4070350D01*
X5961227Y4069587D01*
X5901537Y4069587D01*
X5895238Y4068876D01*
X5889802Y4066946D01*
X5884875Y4063898D01*
X5880811Y4059783D01*
X5877712Y4054906D01*
X5875782Y4049420D01*
X5874512Y4044086D01*
X5872276Y4041190D01*
X5869127Y4039260D01*
X5865520Y4038600D01*
G37*

%LPD*%
G36*
X6968693Y4038600D02*
G01*
X6965086Y4039260D01*
X6961936Y4041190D01*
X6959701Y4044086D01*
X6958431Y4049420D01*
X6956501Y4054906D01*
X6953402Y4059783D01*
X6949338Y4063898D01*
X6944410Y4066946D01*
X6938975Y4068876D01*
X6932675Y4069587D01*
X6865772Y4069587D01*
X6861860Y4070350D01*
X6858609Y4072534D01*
X6856374Y4075836D01*
X6855612Y4079748D01*
X6855612Y5483809D01*
X6854748Y5493105D01*
X6852005Y5502605D01*
X6847890Y5510479D01*
X6842099Y5517896D01*
X6667855Y5702808D01*
X6665823Y5706059D01*
X6665112Y5709818D01*
X6665112Y5875934D01*
X6665975Y5880049D01*
X6668414Y5883452D01*
X6672072Y5885586D01*
X6676237Y5886043D01*
X6680250Y5884824D01*
X6683654Y5881725D01*
X6695948Y5868416D01*
X6709511Y5856478D01*
X6724294Y5845962D01*
X6740042Y5837072D01*
X6756653Y5829808D01*
X6773925Y5824321D01*
X6791604Y5820613D01*
X6809638Y5818733D01*
X6827774Y5818733D01*
X6845757Y5820613D01*
X6863486Y5824321D01*
X6880758Y5829808D01*
X6897319Y5837072D01*
X6913118Y5845962D01*
X6927850Y5856478D01*
X6941464Y5868416D01*
X6953758Y5881725D01*
X6956399Y5885230D01*
X6959549Y5888024D01*
X6963562Y5889244D01*
X6967728Y5888786D01*
X6971385Y5886653D01*
X6973824Y5883249D01*
X6974687Y5879134D01*
X6974738Y5685688D01*
X6976008Y5676493D01*
X6978853Y5668010D01*
X6983222Y5660237D01*
X6989216Y5653024D01*
X7162190Y5479999D01*
X7164425Y5476697D01*
X7165187Y5472785D01*
X7165187Y4079748D01*
X7164425Y4075836D01*
X7162190Y4072534D01*
X7158939Y4070350D01*
X7155027Y4069587D01*
X7089648Y4069587D01*
X7083348Y4068876D01*
X7077862Y4066946D01*
X7072985Y4063898D01*
X7068870Y4059783D01*
X7065772Y4054906D01*
X7063892Y4049420D01*
X7062622Y4044086D01*
X7060336Y4041190D01*
X7057186Y4039260D01*
X7053580Y4038600D01*
G37*

%LPD*%
G36*
X7364577Y4038600D02*
G01*
X7360970Y4039260D01*
X7357821Y4041190D01*
X7355535Y4044086D01*
X7354265Y4049420D01*
X7352385Y4054906D01*
X7349286Y4059783D01*
X7345172Y4063898D01*
X7340295Y4066946D01*
X7334808Y4068876D01*
X7328509Y4069587D01*
X7272172Y4069587D01*
X7268260Y4070350D01*
X7265009Y4072534D01*
X7262774Y4075836D01*
X7262012Y4079748D01*
X7261961Y5498947D01*
X7260691Y5508142D01*
X7257846Y5516626D01*
X7253478Y5524398D01*
X7247483Y5531612D01*
X7074509Y5704636D01*
X7072274Y5707938D01*
X7071512Y5711850D01*
X7071512Y5866739D01*
X7072325Y5870651D01*
X7074560Y5874004D01*
X7077964Y5876188D01*
X7081926Y5876899D01*
X7085838Y5875985D01*
X7089140Y5873648D01*
X7093915Y5868416D01*
X7107529Y5856478D01*
X7122312Y5845962D01*
X7138060Y5837072D01*
X7154672Y5829808D01*
X7171893Y5824321D01*
X7189622Y5820613D01*
X7207656Y5818733D01*
X7225741Y5818733D01*
X7243775Y5820613D01*
X7261504Y5824321D01*
X7278725Y5829808D01*
X7295337Y5837072D01*
X7311085Y5845962D01*
X7325868Y5856478D01*
X7339482Y5868416D01*
X7350759Y5880658D01*
X7354062Y5882995D01*
X7357973Y5883910D01*
X7361936Y5883198D01*
X7365339Y5881014D01*
X7367574Y5877712D01*
X7368387Y5873750D01*
X7368438Y5685688D01*
X7369708Y5676493D01*
X7372553Y5668010D01*
X7376922Y5660237D01*
X7382916Y5653024D01*
X7555890Y5479999D01*
X7558125Y5476697D01*
X7558887Y5472785D01*
X7558887Y4079748D01*
X7558125Y4075836D01*
X7555890Y4072534D01*
X7552639Y4070350D01*
X7548727Y4069587D01*
X7485481Y4069587D01*
X7479182Y4068876D01*
X7473746Y4066946D01*
X7468819Y4063898D01*
X7464755Y4059783D01*
X7461656Y4054906D01*
X7459725Y4049420D01*
X7458456Y4044086D01*
X7456220Y4041190D01*
X7453071Y4039260D01*
X7449464Y4038600D01*
G37*

%LPD*%
G36*
X5384495Y4038600D02*
G01*
X5380888Y4039260D01*
X5377738Y4041190D01*
X5375503Y4044086D01*
X5374233Y4049420D01*
X5372303Y4054906D01*
X5369204Y4059783D01*
X5365140Y4063898D01*
X5360212Y4066946D01*
X5354777Y4068876D01*
X5348478Y4069587D01*
X5290972Y4069587D01*
X5287060Y4070350D01*
X5283809Y4072534D01*
X5281574Y4075836D01*
X5280812Y4079748D01*
X5280761Y5498947D01*
X5279491Y5508142D01*
X5276646Y5516626D01*
X5272278Y5524398D01*
X5266283Y5531612D01*
X5093309Y5704636D01*
X5091074Y5707938D01*
X5090312Y5711850D01*
X5090312Y5865825D01*
X5091125Y5869787D01*
X5093360Y5873140D01*
X5096764Y5875324D01*
X5100726Y5875985D01*
X5104638Y5875121D01*
X5107940Y5872734D01*
X5111902Y5868416D01*
X5125516Y5856478D01*
X5140299Y5845962D01*
X5156047Y5837072D01*
X5172659Y5829808D01*
X5189880Y5824321D01*
X5207609Y5820613D01*
X5225643Y5818733D01*
X5243728Y5818733D01*
X5261762Y5820613D01*
X5279491Y5824321D01*
X5296712Y5829808D01*
X5313324Y5837072D01*
X5329072Y5845962D01*
X5343855Y5856478D01*
X5357469Y5868416D01*
X5369560Y5881522D01*
X5372862Y5883910D01*
X5376773Y5884773D01*
X5380736Y5884113D01*
X5384139Y5881928D01*
X5386374Y5878576D01*
X5387187Y5874613D01*
X5387187Y5687009D01*
X5388051Y5677662D01*
X5390489Y5669076D01*
X5394452Y5661152D01*
X5400700Y5652973D01*
X5574944Y5468112D01*
X5576976Y5464860D01*
X5577687Y5461101D01*
X5577687Y4079748D01*
X5576925Y4075836D01*
X5574690Y4072534D01*
X5571439Y4070350D01*
X5567527Y4069587D01*
X5505551Y4069587D01*
X5499252Y4068876D01*
X5493816Y4066946D01*
X5488889Y4063898D01*
X5484825Y4059783D01*
X5481726Y4054906D01*
X5479796Y4049420D01*
X5478526Y4044086D01*
X5476290Y4041190D01*
X5473141Y4039260D01*
X5469534Y4038600D01*
G37*

%LPD*%
G36*
X1425549Y4038600D02*
G01*
X1421942Y4039260D01*
X1418793Y4041190D01*
X1416507Y4044086D01*
X1415237Y4049420D01*
X1413357Y4054906D01*
X1410258Y4059783D01*
X1406144Y4063898D01*
X1401267Y4066946D01*
X1395780Y4068876D01*
X1392224Y4069283D01*
X1388719Y4070350D01*
X1385773Y4072585D01*
X1383893Y4075734D01*
X1383233Y4079392D01*
X1383233Y4321606D01*
X1383995Y4325518D01*
X1386179Y4328820D01*
X1389481Y4331004D01*
X1393393Y4331766D01*
X1460195Y4331766D01*
X1475689Y4332732D01*
X1490624Y4335475D01*
X1505153Y4339996D01*
X1519021Y4346244D01*
X1532026Y4354118D01*
X1543964Y4363466D01*
X1554734Y4374235D01*
X1564081Y4386173D01*
X1571955Y4399178D01*
X1578203Y4413046D01*
X1582724Y4427575D01*
X1585468Y4442510D01*
X1586382Y4457700D01*
X1585468Y4472889D01*
X1582724Y4487824D01*
X1578203Y4502353D01*
X1571955Y4516221D01*
X1564081Y4529226D01*
X1554734Y4541164D01*
X1543964Y4551934D01*
X1532026Y4561281D01*
X1519021Y4569155D01*
X1505153Y4575403D01*
X1490624Y4579924D01*
X1475689Y4582668D01*
X1460195Y4583582D01*
X1393393Y4583582D01*
X1389481Y4584395D01*
X1386179Y4586579D01*
X1383995Y4589881D01*
X1383233Y4593742D01*
X1383233Y5484114D01*
X1382979Y5491988D01*
X1382268Y5499455D01*
X1381150Y5507075D01*
X1379524Y5514390D01*
X1377492Y5521807D01*
X1375003Y5528919D01*
X1372108Y5536031D01*
X1368806Y5542788D01*
X1365046Y5549493D01*
X1360932Y5555792D01*
X1356410Y5561990D01*
X1351534Y5567781D01*
X1346200Y5573522D01*
X1106779Y5812942D01*
X1104595Y5816244D01*
X1103833Y5820105D01*
X1103833Y5893308D01*
X1104747Y5897575D01*
X1107389Y5901029D01*
X1111250Y5903061D01*
X1115618Y5903315D01*
X1119682Y5901690D01*
X1122680Y5898540D01*
X1124051Y5896203D01*
X1134922Y5881725D01*
X1147216Y5868416D01*
X1160830Y5856478D01*
X1175613Y5845962D01*
X1191361Y5837072D01*
X1207973Y5829808D01*
X1225194Y5824321D01*
X1242923Y5820613D01*
X1260957Y5818733D01*
X1279042Y5818733D01*
X1297076Y5820613D01*
X1314805Y5824321D01*
X1332026Y5829808D01*
X1348638Y5837072D01*
X1364386Y5845962D01*
X1379169Y5856478D01*
X1392783Y5868416D01*
X1405077Y5881725D01*
X1406499Y5883656D01*
X1409649Y5886399D01*
X1413662Y5887669D01*
X1417828Y5887161D01*
X1421485Y5885078D01*
X1423924Y5881674D01*
X1424787Y5877560D01*
X1424838Y5672988D01*
X1426108Y5663793D01*
X1428953Y5655310D01*
X1433322Y5647537D01*
X1439316Y5640324D01*
X1612290Y5467299D01*
X1614525Y5463997D01*
X1615287Y5460085D01*
X1615287Y4079748D01*
X1614525Y4075836D01*
X1612290Y4072534D01*
X1609039Y4070350D01*
X1605127Y4069587D01*
X1557020Y4069587D01*
X1550720Y4068876D01*
X1545234Y4066946D01*
X1540357Y4063898D01*
X1536242Y4059783D01*
X1533144Y4054906D01*
X1531264Y4049420D01*
X1529994Y4044086D01*
X1527708Y4041190D01*
X1524558Y4039260D01*
X1520952Y4038600D01*
G37*

%LPD*%
G36*
X7760411Y4038600D02*
G01*
X7756804Y4039260D01*
X7753654Y4041190D01*
X7751419Y4044086D01*
X7750149Y4049420D01*
X7748219Y4054906D01*
X7745120Y4059783D01*
X7741056Y4063898D01*
X7736128Y4066946D01*
X7730693Y4068876D01*
X7724394Y4069587D01*
X7665872Y4069587D01*
X7661960Y4070350D01*
X7658709Y4072534D01*
X7656474Y4075836D01*
X7655712Y4079748D01*
X7655661Y5498947D01*
X7654391Y5508142D01*
X7651546Y5516626D01*
X7647178Y5524398D01*
X7641183Y5531612D01*
X7468209Y5704636D01*
X7465974Y5707938D01*
X7465212Y5711850D01*
X7465212Y5869178D01*
X7466025Y5873140D01*
X7468260Y5876493D01*
X7471664Y5878677D01*
X7475626Y5879338D01*
X7479538Y5878474D01*
X7482840Y5876086D01*
X7489901Y5868416D01*
X7503515Y5856478D01*
X7518298Y5845962D01*
X7534046Y5837072D01*
X7550658Y5829808D01*
X7567879Y5824321D01*
X7585608Y5820613D01*
X7603642Y5818733D01*
X7621727Y5818733D01*
X7639761Y5820613D01*
X7657490Y5824321D01*
X7674711Y5829808D01*
X7691323Y5837072D01*
X7707071Y5845962D01*
X7721853Y5856478D01*
X7735468Y5868416D01*
X7744459Y5878169D01*
X7747762Y5880557D01*
X7751673Y5881420D01*
X7755636Y5880760D01*
X7759039Y5878576D01*
X7761274Y5875223D01*
X7762087Y5871260D01*
X7762087Y5687009D01*
X7762951Y5677662D01*
X7765389Y5669076D01*
X7769352Y5661152D01*
X7775600Y5652973D01*
X7949844Y5468112D01*
X7951876Y5464860D01*
X7952587Y5461101D01*
X7952587Y4079748D01*
X7951825Y4075836D01*
X7949590Y4072534D01*
X7946339Y4070350D01*
X7942427Y4069587D01*
X7881467Y4069587D01*
X7875168Y4068876D01*
X7869732Y4066946D01*
X7864805Y4063898D01*
X7860741Y4059783D01*
X7857642Y4054906D01*
X7855712Y4049420D01*
X7854442Y4044086D01*
X7852206Y4041190D01*
X7849057Y4039260D01*
X7845450Y4038600D01*
G37*

%LPD*%
G36*
X4988509Y4038600D02*
G01*
X4984902Y4039260D01*
X4981752Y4041190D01*
X4979517Y4044086D01*
X4978247Y4049420D01*
X4976317Y4054906D01*
X4973218Y4059783D01*
X4969154Y4063898D01*
X4964226Y4066946D01*
X4958791Y4068876D01*
X4952492Y4069587D01*
X4884572Y4069587D01*
X4880660Y4070350D01*
X4877409Y4072534D01*
X4875174Y4075836D01*
X4874412Y4079748D01*
X4874412Y5483809D01*
X4873548Y5493105D01*
X4870805Y5502605D01*
X4866690Y5510479D01*
X4860899Y5517896D01*
X4686655Y5702808D01*
X4684623Y5706059D01*
X4683912Y5709818D01*
X4683912Y5877560D01*
X4684776Y5881674D01*
X4687214Y5885078D01*
X4690872Y5887161D01*
X4695037Y5887669D01*
X4699050Y5886399D01*
X4702200Y5883656D01*
X4703622Y5881725D01*
X4715916Y5868416D01*
X4729530Y5856478D01*
X4744313Y5845962D01*
X4760061Y5837072D01*
X4776673Y5829808D01*
X4793894Y5824321D01*
X4811623Y5820613D01*
X4829657Y5818733D01*
X4847742Y5818733D01*
X4865776Y5820613D01*
X4883505Y5824321D01*
X4900726Y5829808D01*
X4917338Y5837072D01*
X4933086Y5845962D01*
X4947869Y5856478D01*
X4961483Y5868416D01*
X4973777Y5881725D01*
X4975199Y5883656D01*
X4978349Y5886399D01*
X4982362Y5887669D01*
X4986528Y5887161D01*
X4990185Y5885078D01*
X4992624Y5881674D01*
X4993487Y5877560D01*
X4993538Y5685688D01*
X4994808Y5676493D01*
X4997653Y5668010D01*
X5002022Y5660237D01*
X5008016Y5653024D01*
X5180990Y5479999D01*
X5183225Y5476697D01*
X5183987Y5472785D01*
X5183987Y4079748D01*
X5183225Y4075836D01*
X5180990Y4072534D01*
X5177739Y4070350D01*
X5173827Y4069587D01*
X5109565Y4069587D01*
X5103266Y4068876D01*
X5097830Y4066946D01*
X5092903Y4063898D01*
X5088839Y4059783D01*
X5085740Y4054906D01*
X5083810Y4049420D01*
X5082540Y4044086D01*
X5080304Y4041190D01*
X5077155Y4039260D01*
X5073548Y4038600D01*
G37*

%LPD*%
G36*
X8156397Y4038600D02*
G01*
X8152790Y4039260D01*
X8149640Y4041190D01*
X8147405Y4044086D01*
X8146135Y4049420D01*
X8144205Y4054906D01*
X8141106Y4059783D01*
X8137042Y4063898D01*
X8132114Y4066946D01*
X8126679Y4068876D01*
X8120380Y4069587D01*
X8059572Y4069587D01*
X8055660Y4070350D01*
X8052409Y4072534D01*
X8050174Y4075836D01*
X8049412Y4079748D01*
X8049412Y5483809D01*
X8048548Y5493105D01*
X8045805Y5502605D01*
X8041690Y5510479D01*
X8035899Y5517896D01*
X7861655Y5702808D01*
X7859623Y5706059D01*
X7858912Y5709818D01*
X7858912Y5871667D01*
X7859725Y5875629D01*
X7861960Y5878982D01*
X7865364Y5881166D01*
X7869326Y5881827D01*
X7873238Y5880963D01*
X7876540Y5878576D01*
X7885938Y5868416D01*
X7899552Y5856478D01*
X7914284Y5845962D01*
X7930032Y5837072D01*
X7946644Y5829808D01*
X7963916Y5824321D01*
X7981645Y5820613D01*
X7999628Y5818733D01*
X8017764Y5818733D01*
X8035747Y5820613D01*
X8053476Y5824321D01*
X8070748Y5829808D01*
X8087359Y5837072D01*
X8103108Y5845962D01*
X8117840Y5856478D01*
X8131454Y5868416D01*
X8138159Y5875680D01*
X8141462Y5878068D01*
X8145373Y5878931D01*
X8149336Y5878271D01*
X8152739Y5876086D01*
X8154974Y5872734D01*
X8155787Y5868771D01*
X8155838Y5685688D01*
X8157108Y5676493D01*
X8159953Y5668010D01*
X8164322Y5660237D01*
X8170316Y5653024D01*
X8355990Y5467299D01*
X8358225Y5463997D01*
X8358987Y5460085D01*
X8358987Y4079748D01*
X8358225Y4075836D01*
X8355990Y4072534D01*
X8352739Y4070350D01*
X8348827Y4069587D01*
X8277707Y4069587D01*
X8271408Y4068876D01*
X8265972Y4066946D01*
X8261045Y4063898D01*
X8256981Y4059783D01*
X8253882Y4054906D01*
X8251952Y4049420D01*
X8250681Y4044086D01*
X8248446Y4041190D01*
X8245297Y4039260D01*
X8241690Y4038600D01*
G37*

%LPD*%
G36*
X3800551Y4038600D02*
G01*
X3796944Y4039260D01*
X3793794Y4041190D01*
X3791559Y4044086D01*
X3790289Y4049420D01*
X3788359Y4054906D01*
X3785260Y4059783D01*
X3781196Y4063898D01*
X3776268Y4066946D01*
X3770833Y4068876D01*
X3764534Y4069587D01*
X3716172Y4069587D01*
X3712260Y4070350D01*
X3709009Y4072534D01*
X3706774Y4075836D01*
X3706012Y4079748D01*
X3705961Y5486247D01*
X3704691Y5495442D01*
X3701846Y5503926D01*
X3697478Y5511698D01*
X3691483Y5518912D01*
X3505809Y5704636D01*
X3503574Y5707938D01*
X3502812Y5711850D01*
X3502812Y5877560D01*
X3503676Y5881674D01*
X3506114Y5885078D01*
X3509772Y5887161D01*
X3513937Y5887669D01*
X3517950Y5886399D01*
X3521100Y5883656D01*
X3522522Y5881725D01*
X3534816Y5868416D01*
X3548430Y5856478D01*
X3563213Y5845962D01*
X3578961Y5837072D01*
X3595573Y5829808D01*
X3612794Y5824321D01*
X3630523Y5820613D01*
X3648557Y5818733D01*
X3666642Y5818733D01*
X3684676Y5820613D01*
X3702405Y5824321D01*
X3719626Y5829808D01*
X3736238Y5837072D01*
X3751986Y5845962D01*
X3766769Y5856478D01*
X3780383Y5868416D01*
X3782060Y5870295D01*
X3785362Y5872632D01*
X3789273Y5873546D01*
X3793236Y5872835D01*
X3796639Y5870651D01*
X3798874Y5867349D01*
X3799687Y5863386D01*
X3799687Y5699709D01*
X3800551Y5690362D01*
X3802989Y5681776D01*
X3806951Y5673852D01*
X3813200Y5665673D01*
X3987444Y5480812D01*
X3989476Y5477560D01*
X3990187Y5473801D01*
X3990187Y4962448D01*
X3989425Y4958588D01*
X3987190Y4955286D01*
X3983939Y4953101D01*
X3980027Y4952288D01*
X3914140Y4952288D01*
X3910380Y4953050D01*
X3907129Y4955133D01*
X3899560Y4962448D01*
X3890060Y4969103D01*
X3879646Y4974285D01*
X3868572Y4977790D01*
X3857091Y4979568D01*
X3845458Y4979568D01*
X3833977Y4977790D01*
X3822903Y4974285D01*
X3812489Y4969103D01*
X3802989Y4962448D01*
X3794607Y4954371D01*
X3787597Y4945126D01*
X3782009Y4934915D01*
X3778097Y4923993D01*
X3775913Y4912614D01*
X3775456Y4900980D01*
X3776776Y4889449D01*
X3779875Y4878222D01*
X3784600Y4867656D01*
X3790950Y4857902D01*
X3798671Y4849215D01*
X3807612Y4841849D01*
X3817620Y4835906D01*
X3828389Y4831537D01*
X3839667Y4828895D01*
X3851249Y4828032D01*
X3862832Y4828895D01*
X3874160Y4831537D01*
X3884929Y4835906D01*
X3894937Y4841849D01*
X3903878Y4849215D01*
X3906469Y4852111D01*
X3909872Y4854600D01*
X3914038Y4855514D01*
X3980027Y4855514D01*
X3983939Y4854702D01*
X3987190Y4852517D01*
X3989425Y4849215D01*
X3990187Y4845354D01*
X3990187Y4079748D01*
X3989425Y4075836D01*
X3987190Y4072534D01*
X3983939Y4070350D01*
X3980027Y4069587D01*
X3921506Y4069587D01*
X3915206Y4068876D01*
X3909720Y4066946D01*
X3904843Y4063898D01*
X3900728Y4059783D01*
X3897629Y4054906D01*
X3895750Y4049420D01*
X3894480Y4044086D01*
X3892194Y4041190D01*
X3889044Y4039260D01*
X3885437Y4038600D01*
G37*

%LPC*%
G36*
X3882644Y4754067D02*
G01*
X3920337Y4754067D01*
X3914952Y4763922D01*
X3907942Y4773168D01*
X3899560Y4781245D01*
X3890060Y4787900D01*
X3882644Y4791608D01*
G37*
G36*
X3851249Y4116832D02*
G01*
X3862832Y4117695D01*
X3874160Y4120337D01*
X3884929Y4124706D01*
X3894937Y4130649D01*
X3903878Y4138015D01*
X3911600Y4146702D01*
X3917950Y4156456D01*
X3922674Y4167022D01*
X3925773Y4178249D01*
X3927094Y4189780D01*
X3926636Y4201414D01*
X3924452Y4212793D01*
X3920490Y4223715D01*
X3914952Y4233926D01*
X3907942Y4243171D01*
X3899560Y4251248D01*
X3890060Y4257903D01*
X3879646Y4263085D01*
X3868572Y4266590D01*
X3857091Y4268368D01*
X3845458Y4268368D01*
X3833977Y4266590D01*
X3822903Y4263085D01*
X3812489Y4257903D01*
X3802989Y4251248D01*
X3794607Y4243171D01*
X3787597Y4233926D01*
X3782009Y4223715D01*
X3778097Y4212793D01*
X3775913Y4201414D01*
X3775456Y4189780D01*
X3776776Y4178249D01*
X3779875Y4167022D01*
X3784600Y4156456D01*
X3790950Y4146702D01*
X3798671Y4138015D01*
X3807612Y4130649D01*
X3817620Y4124706D01*
X3828389Y4120337D01*
X3839667Y4117695D01*
G37*
G36*
X3882644Y5364937D02*
G01*
X3884929Y5365902D01*
X3894937Y5371846D01*
X3903878Y5379212D01*
X3911600Y5387898D01*
X3917950Y5397652D01*
X3920134Y5402529D01*
X3882644Y5402529D01*
G37*
G36*
X3819906Y5364937D02*
G01*
X3819906Y5402529D01*
X3782415Y5402529D01*
X3784600Y5397652D01*
X3790950Y5387898D01*
X3798671Y5379212D01*
X3807612Y5371846D01*
X3817620Y5365902D01*
G37*
G36*
X3819906Y4653737D02*
G01*
X3819906Y4691329D01*
X3782415Y4691329D01*
X3784600Y4686452D01*
X3790950Y4676698D01*
X3798671Y4668012D01*
X3807612Y4660646D01*
X3817620Y4654702D01*
G37*
G36*
X3882644Y4653737D02*
G01*
X3884929Y4654702D01*
X3894937Y4660646D01*
X3903878Y4668012D01*
X3911600Y4676698D01*
X3917950Y4686452D01*
X3920134Y4691329D01*
X3882644Y4691329D01*
G37*
G36*
X3882644Y5465267D02*
G01*
X3920337Y5465267D01*
X3914952Y5475122D01*
X3907942Y5484368D01*
X3899560Y5492445D01*
X3890060Y5499100D01*
X3882644Y5502808D01*
G37*
G36*
X3782212Y5465267D02*
G01*
X3819906Y5465267D01*
X3819906Y5502808D01*
X3812489Y5499100D01*
X3802989Y5492445D01*
X3794607Y5484368D01*
X3787597Y5475122D01*
G37*
G36*
X3782212Y4754067D02*
G01*
X3819906Y4754067D01*
X3819906Y4791608D01*
X3812489Y4787900D01*
X3802989Y4781245D01*
X3794607Y4773168D01*
X3787597Y4763922D01*
G37*

%LPD*%
G36*
X2212949Y4038600D02*
G01*
X2209342Y4039260D01*
X2206193Y4041190D01*
X2203907Y4044086D01*
X2202637Y4049420D01*
X2200757Y4054906D01*
X2197658Y4059783D01*
X2193544Y4063898D01*
X2188667Y4066946D01*
X2183180Y4068876D01*
X2176881Y4069587D01*
X2116023Y4069587D01*
X2112111Y4070350D01*
X2108860Y4072534D01*
X2106625Y4075836D01*
X2105863Y4079748D01*
X2105863Y4335068D01*
X2106574Y4338777D01*
X2108606Y4342028D01*
X2111705Y4344263D01*
X2115870Y4346194D01*
X2128977Y4354118D01*
X2140915Y4363466D01*
X2151684Y4374235D01*
X2161032Y4386173D01*
X2168906Y4399178D01*
X2175154Y4413046D01*
X2179675Y4427575D01*
X2182418Y4442510D01*
X2183333Y4457700D01*
X2182418Y4472889D01*
X2179675Y4487824D01*
X2175154Y4502353D01*
X2168906Y4516221D01*
X2161032Y4529226D01*
X2151684Y4541164D01*
X2140915Y4551934D01*
X2128926Y4561332D01*
X2117750Y4568190D01*
X2111654Y4571085D01*
X2108606Y4573320D01*
X2106574Y4576521D01*
X2105863Y4580280D01*
X2105863Y5827115D01*
X2106523Y5830722D01*
X2108403Y5833872D01*
X2111298Y5836158D01*
X2122576Y5842050D01*
X2127402Y5845403D01*
X2131314Y5846978D01*
X2135479Y5846927D01*
X2139289Y5845149D01*
X2142083Y5841949D01*
X2143150Y5838494D01*
X2156409Y5845962D01*
X2171141Y5856478D01*
X2184755Y5868416D01*
X2194560Y5879033D01*
X2197862Y5881370D01*
X2201773Y5882284D01*
X2205736Y5881573D01*
X2209139Y5879388D01*
X2211374Y5876086D01*
X2212187Y5872124D01*
X2212238Y5685688D01*
X2213508Y5676493D01*
X2216353Y5668010D01*
X2220722Y5660237D01*
X2226716Y5653024D01*
X2412390Y5467299D01*
X2414625Y5463997D01*
X2415387Y5460085D01*
X2415387Y4079748D01*
X2414625Y4075836D01*
X2412390Y4072534D01*
X2409139Y4070350D01*
X2405227Y4069587D01*
X2344420Y4069587D01*
X2338120Y4068876D01*
X2332634Y4066946D01*
X2327757Y4063898D01*
X2323642Y4059783D01*
X2320544Y4054906D01*
X2318664Y4049420D01*
X2317394Y4044086D01*
X2315108Y4041190D01*
X2311958Y4039260D01*
X2308352Y4038600D01*
G37*

%LPD*%
G36*
X9344609Y4038600D02*
G01*
X9341002Y4039260D01*
X9337852Y4041190D01*
X9335617Y4044086D01*
X9334347Y4049420D01*
X9332417Y4054906D01*
X9329318Y4059783D01*
X9325254Y4063898D01*
X9320326Y4066946D01*
X9314891Y4068876D01*
X9308592Y4069587D01*
X9253372Y4069587D01*
X9249460Y4070350D01*
X9246209Y4072534D01*
X9243974Y4075836D01*
X9243212Y4079748D01*
X9243212Y5497576D01*
X9242348Y5506923D01*
X9239910Y5515457D01*
X9235440Y5524246D01*
X9229699Y5531612D01*
X9055455Y5716524D01*
X9053423Y5719775D01*
X9052712Y5723534D01*
X9052712Y5869736D01*
X9053525Y5873699D01*
X9055760Y5877001D01*
X9059164Y5879185D01*
X9063126Y5879896D01*
X9067038Y5878982D01*
X9070340Y5876645D01*
X9077909Y5868416D01*
X9091523Y5856478D01*
X9106306Y5845962D01*
X9122054Y5837072D01*
X9138666Y5829808D01*
X9155887Y5824321D01*
X9173616Y5820613D01*
X9191650Y5818733D01*
X9209735Y5818733D01*
X9227769Y5820613D01*
X9245498Y5824321D01*
X9262719Y5829808D01*
X9279331Y5837072D01*
X9295079Y5845962D01*
X9309862Y5856478D01*
X9323476Y5868416D01*
X9329470Y5874918D01*
X9332722Y5877306D01*
X9336684Y5878169D01*
X9340646Y5877509D01*
X9343999Y5875324D01*
X9346285Y5871972D01*
X9347098Y5868060D01*
X9347200Y5721858D01*
X9347911Y5715660D01*
X9348419Y5713069D01*
X9350197Y5707126D01*
X9351213Y5704636D01*
X9354007Y5699048D01*
X9355378Y5696813D01*
X9359087Y5691835D01*
X9534804Y5505196D01*
X9536887Y5501995D01*
X9537598Y5498236D01*
X9537598Y4079748D01*
X9536836Y4075836D01*
X9534601Y4072534D01*
X9531299Y4070350D01*
X9527438Y4069587D01*
X9465665Y4069587D01*
X9459366Y4068876D01*
X9453930Y4066946D01*
X9449003Y4063898D01*
X9444939Y4059783D01*
X9441840Y4054906D01*
X9439910Y4049420D01*
X9438640Y4044086D01*
X9436404Y4041190D01*
X9433255Y4039260D01*
X9429648Y4038600D01*
G37*

%LPD*%
G36*
X6176467Y4038600D02*
G01*
X6172860Y4039260D01*
X6169710Y4041190D01*
X6167475Y4044086D01*
X6166205Y4049420D01*
X6164275Y4054906D01*
X6161176Y4059783D01*
X6157112Y4063898D01*
X6152184Y4066946D01*
X6146749Y4068876D01*
X6140450Y4069587D01*
X6078372Y4069587D01*
X6074460Y4070350D01*
X6071209Y4072534D01*
X6068974Y4075836D01*
X6068212Y4079748D01*
X6068212Y5483809D01*
X6067348Y5493105D01*
X6064605Y5502605D01*
X6060490Y5510479D01*
X6054699Y5517896D01*
X5880455Y5702808D01*
X5878423Y5706059D01*
X5877712Y5709818D01*
X5877712Y5870854D01*
X5878525Y5874766D01*
X5880760Y5878118D01*
X5884164Y5880303D01*
X5888126Y5881014D01*
X5892038Y5880100D01*
X5895340Y5877712D01*
X5903925Y5868416D01*
X5917539Y5856478D01*
X5932322Y5845962D01*
X5948070Y5837072D01*
X5964631Y5829808D01*
X5981903Y5824321D01*
X5999632Y5820613D01*
X6017666Y5818733D01*
X6035751Y5818733D01*
X6053785Y5820613D01*
X6071514Y5824321D01*
X6088735Y5829808D01*
X6105347Y5837072D01*
X6121095Y5845962D01*
X6135878Y5856478D01*
X6149441Y5868416D01*
X6156960Y5876544D01*
X6160262Y5878880D01*
X6164173Y5879795D01*
X6168136Y5879084D01*
X6171539Y5876899D01*
X6173774Y5873597D01*
X6174587Y5869635D01*
X6174638Y5685688D01*
X6175908Y5676493D01*
X6178753Y5668010D01*
X6183122Y5660237D01*
X6189116Y5653024D01*
X6374790Y5467299D01*
X6377025Y5463997D01*
X6377787Y5460085D01*
X6377787Y4079748D01*
X6377025Y4075836D01*
X6374790Y4072534D01*
X6371539Y4070350D01*
X6367627Y4069587D01*
X6297777Y4069587D01*
X6291478Y4068876D01*
X6286042Y4066946D01*
X6281115Y4063898D01*
X6277051Y4059783D01*
X6273952Y4054906D01*
X6272022Y4049420D01*
X6270752Y4044086D01*
X6268516Y4041190D01*
X6265367Y4039260D01*
X6261760Y4038600D01*
G37*

%LPD*%
G36*
X2619349Y4038600D02*
G01*
X2615742Y4039260D01*
X2612593Y4041190D01*
X2610307Y4044086D01*
X2609037Y4049420D01*
X2607157Y4054906D01*
X2604058Y4059783D01*
X2599944Y4063898D01*
X2595067Y4066946D01*
X2589580Y4068876D01*
X2583281Y4069587D01*
X2522372Y4069587D01*
X2518460Y4070350D01*
X2515209Y4072534D01*
X2512974Y4075836D01*
X2512212Y4079748D01*
X2512161Y5486247D01*
X2510891Y5495442D01*
X2508046Y5503926D01*
X2503678Y5511698D01*
X2497683Y5518912D01*
X2312009Y5704636D01*
X2309774Y5707938D01*
X2309012Y5711850D01*
X2309012Y5888329D01*
X2309876Y5892444D01*
X2312314Y5895848D01*
X2315972Y5897981D01*
X2320137Y5898438D01*
X2324150Y5897219D01*
X2327300Y5894425D01*
X2336850Y5881725D01*
X2349144Y5868416D01*
X2362758Y5856478D01*
X2377490Y5845962D01*
X2393238Y5837072D01*
X2409850Y5829808D01*
X2427122Y5824321D01*
X2444851Y5820613D01*
X2462834Y5818733D01*
X2480970Y5818733D01*
X2498953Y5820613D01*
X2516682Y5824321D01*
X2533954Y5829808D01*
X2550566Y5837072D01*
X2566314Y5845962D01*
X2581046Y5856478D01*
X2594660Y5868416D01*
X2600960Y5875223D01*
X2604262Y5877610D01*
X2608173Y5878525D01*
X2612136Y5877814D01*
X2615539Y5875629D01*
X2617774Y5872276D01*
X2618587Y5868365D01*
X2618587Y5699709D01*
X2619451Y5690362D01*
X2621889Y5681776D01*
X2625852Y5673852D01*
X2632100Y5665673D01*
X2806344Y5480812D01*
X2808376Y5477560D01*
X2809087Y5473801D01*
X2809087Y4079748D01*
X2808325Y4075836D01*
X2806090Y4072534D01*
X2802839Y4070350D01*
X2798927Y4069587D01*
X2733649Y4069587D01*
X2727350Y4068876D01*
X2721914Y4066946D01*
X2716987Y4063898D01*
X2712923Y4059783D01*
X2709824Y4054906D01*
X2707894Y4049420D01*
X2706624Y4044086D01*
X2704388Y4041190D01*
X2701239Y4039260D01*
X2697632Y4038600D01*
G37*

%LPD*%
G36*
X4196435Y4038600D02*
G01*
X4192828Y4039260D01*
X4189679Y4041190D01*
X4187393Y4044086D01*
X4186123Y4049420D01*
X4184243Y4054906D01*
X4181144Y4059783D01*
X4177029Y4063898D01*
X4172153Y4066946D01*
X4166666Y4068876D01*
X4160367Y4069587D01*
X4097172Y4069587D01*
X4093260Y4070350D01*
X4090009Y4072534D01*
X4087774Y4075836D01*
X4087012Y4079748D01*
X4087012Y5496509D01*
X4086148Y5505805D01*
X4083405Y5515305D01*
X4079290Y5523179D01*
X4073499Y5530596D01*
X3899255Y5715508D01*
X3897223Y5718759D01*
X3896512Y5722518D01*
X3896512Y5869940D01*
X3897325Y5873902D01*
X3899560Y5877255D01*
X3902964Y5879439D01*
X3906926Y5880100D01*
X3910837Y5879236D01*
X3914140Y5876848D01*
X3921912Y5868416D01*
X3935526Y5856478D01*
X3950309Y5845962D01*
X3966057Y5837072D01*
X3982618Y5829808D01*
X3999890Y5824321D01*
X4017619Y5820613D01*
X4035653Y5818733D01*
X4053738Y5818733D01*
X4071772Y5820613D01*
X4089501Y5824321D01*
X4106722Y5829808D01*
X4123334Y5837072D01*
X4139082Y5845962D01*
X4153865Y5856478D01*
X4167428Y5868416D01*
X4175760Y5877407D01*
X4179062Y5879795D01*
X4182973Y5880658D01*
X4186936Y5879998D01*
X4190339Y5877814D01*
X4192574Y5874461D01*
X4193387Y5870498D01*
X4193387Y5699709D01*
X4194251Y5690362D01*
X4196689Y5681776D01*
X4200652Y5673852D01*
X4206900Y5665673D01*
X4381144Y5480812D01*
X4383176Y5477560D01*
X4383887Y5473801D01*
X4383887Y4962448D01*
X4383125Y4958588D01*
X4380890Y4955286D01*
X4377639Y4953101D01*
X4373727Y4952288D01*
X4298340Y4952288D01*
X4294530Y4953050D01*
X4291279Y4955133D01*
X4283710Y4962448D01*
X4274210Y4969103D01*
X4263796Y4974285D01*
X4252722Y4977790D01*
X4241241Y4979568D01*
X4229658Y4979568D01*
X4218178Y4977790D01*
X4207103Y4974285D01*
X4196689Y4969103D01*
X4187190Y4962448D01*
X4178808Y4954371D01*
X4171746Y4945126D01*
X4166209Y4934915D01*
X4162298Y4923993D01*
X4160062Y4912614D01*
X4159656Y4900980D01*
X4160977Y4889449D01*
X4164025Y4878222D01*
X4168800Y4867656D01*
X4175099Y4857902D01*
X4182821Y4849215D01*
X4191812Y4841849D01*
X4201769Y4835906D01*
X4212539Y4831537D01*
X4223867Y4828895D01*
X4235450Y4828032D01*
X4247032Y4828895D01*
X4258360Y4831537D01*
X4269130Y4835906D01*
X4279087Y4841849D01*
X4288078Y4849215D01*
X4290618Y4852111D01*
X4294073Y4854600D01*
X4298238Y4855514D01*
X4373727Y4855514D01*
X4377639Y4854702D01*
X4380890Y4852517D01*
X4383125Y4849215D01*
X4383887Y4845354D01*
X4383887Y4079748D01*
X4383125Y4075836D01*
X4380890Y4072534D01*
X4377639Y4070350D01*
X4373727Y4069587D01*
X4317593Y4069587D01*
X4311294Y4068876D01*
X4305858Y4066946D01*
X4300931Y4063898D01*
X4296867Y4059783D01*
X4293768Y4054906D01*
X4291838Y4049420D01*
X4290568Y4044086D01*
X4288332Y4041190D01*
X4285183Y4039260D01*
X4281576Y4038600D01*
G37*

%LPC*%
G36*
X4235450Y4116832D02*
G01*
X4247032Y4117695D01*
X4258360Y4120337D01*
X4269130Y4124706D01*
X4279087Y4130649D01*
X4288078Y4138015D01*
X4295800Y4146702D01*
X4302099Y4156456D01*
X4306874Y4167022D01*
X4309922Y4178249D01*
X4311294Y4189780D01*
X4310837Y4201414D01*
X4308602Y4212793D01*
X4304690Y4223715D01*
X4299153Y4233926D01*
X4292092Y4243171D01*
X4283710Y4251248D01*
X4274210Y4257903D01*
X4263796Y4263085D01*
X4252722Y4266590D01*
X4241241Y4268368D01*
X4229658Y4268368D01*
X4218178Y4266590D01*
X4207103Y4263085D01*
X4196689Y4257903D01*
X4187190Y4251248D01*
X4178808Y4243171D01*
X4171746Y4233926D01*
X4166209Y4223715D01*
X4162298Y4212793D01*
X4160062Y4201414D01*
X4159605Y4189780D01*
X4160977Y4178249D01*
X4164025Y4167022D01*
X4168800Y4156456D01*
X4175099Y4146702D01*
X4182821Y4138015D01*
X4191812Y4130649D01*
X4201769Y4124706D01*
X4212539Y4120337D01*
X4223867Y4117695D01*
G37*
G36*
X4204106Y4653737D02*
G01*
X4204106Y4691329D01*
X4166615Y4691329D01*
X4168800Y4686452D01*
X4175099Y4676698D01*
X4182821Y4668012D01*
X4191812Y4660646D01*
X4201769Y4654702D01*
G37*
G36*
X4166362Y5465267D02*
G01*
X4204106Y5465267D01*
X4204106Y5502808D01*
X4196689Y5499100D01*
X4187190Y5492445D01*
X4178808Y5484368D01*
X4171746Y5475122D01*
G37*
G36*
X4266793Y5465267D02*
G01*
X4304538Y5465267D01*
X4299153Y5475122D01*
X4292092Y5484368D01*
X4283710Y5492445D01*
X4274210Y5499100D01*
X4266793Y5502808D01*
G37*
G36*
X4266793Y5364937D02*
G01*
X4269130Y5365902D01*
X4279087Y5371846D01*
X4288078Y5379212D01*
X4295800Y5387898D01*
X4302099Y5397652D01*
X4304334Y5402529D01*
X4266793Y5402529D01*
G37*
G36*
X4266793Y4653737D02*
G01*
X4269130Y4654702D01*
X4279087Y4660646D01*
X4288078Y4668012D01*
X4295800Y4676698D01*
X4302099Y4686452D01*
X4304284Y4691329D01*
X4266793Y4691329D01*
G37*
G36*
X4166362Y4754067D02*
G01*
X4204106Y4754067D01*
X4204106Y4791608D01*
X4196689Y4787900D01*
X4187190Y4781245D01*
X4178808Y4773168D01*
X4171746Y4763922D01*
G37*
G36*
X4266793Y4754067D02*
G01*
X4304538Y4754067D01*
X4299153Y4763922D01*
X4292092Y4773168D01*
X4283710Y4781245D01*
X4274210Y4787900D01*
X4266793Y4791608D01*
G37*
G36*
X4204106Y5364937D02*
G01*
X4204106Y5402529D01*
X4166615Y5402529D01*
X4168800Y5397652D01*
X4175099Y5387898D01*
X4182821Y5379212D01*
X4191812Y5371846D01*
X4201769Y5365902D01*
G37*

%LPD*%
G36*
X918921Y4038600D02*
G01*
X913841Y4039108D01*
X759968Y4039108D01*
X756056Y4039870D01*
X752805Y4042105D01*
X750570Y4045356D01*
X749808Y4049268D01*
X749808Y7075931D01*
X750570Y7079843D01*
X752805Y7083094D01*
X756056Y7085330D01*
X759968Y7086092D01*
X10098532Y7086092D01*
X10102443Y7085330D01*
X10105694Y7083094D01*
X10107930Y7079843D01*
X10108692Y7075931D01*
X10108692Y4061968D01*
X10107930Y4058056D01*
X10105694Y4054805D01*
X10102443Y4052570D01*
X10098532Y4051808D01*
X9932009Y4051808D01*
X9925507Y4050995D01*
X9919970Y4048912D01*
X9914890Y4045407D01*
X9911181Y4041648D01*
X9907879Y4039412D01*
X9903917Y4038600D01*
X9740595Y4038600D01*
X9736988Y4039260D01*
X9733838Y4041190D01*
X9731603Y4044086D01*
X9730333Y4049420D01*
X9728403Y4054906D01*
X9725304Y4059783D01*
X9721240Y4063898D01*
X9716312Y4066946D01*
X9710877Y4068876D01*
X9704578Y4069587D01*
X9649561Y4069587D01*
X9645700Y4070350D01*
X9642398Y4072534D01*
X9640163Y4075836D01*
X9639401Y4079748D01*
X9639300Y5525262D01*
X9638080Y5533898D01*
X9635236Y5542584D01*
X9631019Y5550408D01*
X9625228Y5557723D01*
X9451695Y5741924D01*
X9449612Y5745124D01*
X9448901Y5748883D01*
X9448901Y5871667D01*
X9449714Y5875629D01*
X9452000Y5878982D01*
X9455353Y5881166D01*
X9459315Y5881827D01*
X9463278Y5880963D01*
X9466529Y5878576D01*
X9475927Y5868416D01*
X9489541Y5856478D01*
X9504273Y5845962D01*
X9520072Y5837072D01*
X9536633Y5829808D01*
X9553905Y5824321D01*
X9571634Y5820613D01*
X9589617Y5818733D01*
X9607753Y5818733D01*
X9625736Y5820613D01*
X9643465Y5824321D01*
X9660737Y5829808D01*
X9677349Y5837072D01*
X9693097Y5845962D01*
X9707829Y5856478D01*
X9721443Y5868416D01*
X9733737Y5881725D01*
X9744608Y5896203D01*
X9753955Y5911748D01*
X9761626Y5928156D01*
X9767570Y5945225D01*
X9771735Y5962853D01*
X9774072Y5980836D01*
X9774529Y5998921D01*
X9773107Y6017006D01*
X9769906Y6034786D01*
X9764826Y6052210D01*
X9758019Y6068974D01*
X9749485Y6084925D01*
X9739376Y6099962D01*
X9727793Y6113881D01*
X9714788Y6126530D01*
X9700615Y6137757D01*
X9685324Y6147460D01*
X9669119Y6155588D01*
X9652203Y6161938D01*
X9634677Y6166561D01*
X9616795Y6169355D01*
X9598710Y6170269D01*
X9580626Y6169355D01*
X9562693Y6166561D01*
X9545218Y6161938D01*
X9528251Y6155588D01*
X9512046Y6147460D01*
X9496755Y6137757D01*
X9482582Y6126530D01*
X9469628Y6113881D01*
X9466884Y6110579D01*
X9463633Y6108039D01*
X9459671Y6106972D01*
X9455607Y6107582D01*
X9452102Y6109716D01*
X9449765Y6113068D01*
X9448901Y6117132D01*
X9448901Y6210401D01*
X9449663Y6214313D01*
X9451898Y6217564D01*
X9503816Y6269482D01*
X9507474Y6271869D01*
X9511792Y6272428D01*
X9516008Y6271158D01*
X9520072Y6268872D01*
X9536633Y6261608D01*
X9553905Y6256121D01*
X9571634Y6252413D01*
X9589617Y6250533D01*
X9607753Y6250533D01*
X9625736Y6252413D01*
X9643465Y6256121D01*
X9660737Y6261608D01*
X9677349Y6268872D01*
X9693097Y6277762D01*
X9707829Y6288278D01*
X9721443Y6300216D01*
X9733737Y6313525D01*
X9744608Y6328003D01*
X9753955Y6343548D01*
X9761626Y6359906D01*
X9767570Y6377025D01*
X9771735Y6394653D01*
X9774072Y6412636D01*
X9774529Y6430721D01*
X9773107Y6448755D01*
X9769906Y6466586D01*
X9764826Y6483959D01*
X9758019Y6500774D01*
X9749485Y6516725D01*
X9739376Y6531762D01*
X9727793Y6545681D01*
X9714788Y6558330D01*
X9700615Y6569557D01*
X9685324Y6579260D01*
X9669119Y6587388D01*
X9652203Y6593738D01*
X9634677Y6598361D01*
X9616795Y6601155D01*
X9598710Y6602069D01*
X9580626Y6601155D01*
X9562693Y6598361D01*
X9545218Y6593738D01*
X9528251Y6587388D01*
X9512046Y6579260D01*
X9496755Y6569557D01*
X9482582Y6558330D01*
X9469628Y6545681D01*
X9457994Y6531762D01*
X9447885Y6516725D01*
X9439402Y6500774D01*
X9432544Y6483959D01*
X9427514Y6466586D01*
X9424263Y6448755D01*
X9422841Y6430721D01*
X9423298Y6412636D01*
X9425635Y6394653D01*
X9429800Y6377025D01*
X9435744Y6359906D01*
X9437370Y6356502D01*
X9438284Y6352540D01*
X9437573Y6348476D01*
X9435338Y6345021D01*
X9362135Y6271869D01*
X9358985Y6268415D01*
X9356293Y6264910D01*
X9353905Y6261150D01*
X9351873Y6257188D01*
X9350146Y6253124D01*
X9348825Y6248857D01*
X9347860Y6244539D01*
X9347301Y6240119D01*
X9347098Y6235496D01*
X9347098Y6121095D01*
X9346336Y6117234D01*
X9344152Y6113932D01*
X9340900Y6111748D01*
X9337040Y6110935D01*
X9333128Y6111646D01*
X9329826Y6113830D01*
X9316821Y6126530D01*
X9302597Y6137757D01*
X9287306Y6147460D01*
X9271152Y6155588D01*
X9254185Y6161938D01*
X9236659Y6166561D01*
X9218777Y6169355D01*
X9200692Y6170269D01*
X9182608Y6169355D01*
X9164726Y6166561D01*
X9147200Y6161938D01*
X9130233Y6155588D01*
X9114078Y6147460D01*
X9098788Y6137757D01*
X9084564Y6126530D01*
X9071610Y6113881D01*
X9067444Y6110224D01*
X9063482Y6109106D01*
X9059418Y6109716D01*
X9055912Y6111849D01*
X9053525Y6115253D01*
X9052712Y6119266D01*
X9052712Y6211417D01*
X9053474Y6215329D01*
X9055709Y6218631D01*
X9106306Y6269228D01*
X9109964Y6271564D01*
X9114282Y6272174D01*
X9118447Y6270904D01*
X9122054Y6268872D01*
X9138666Y6261608D01*
X9155887Y6256121D01*
X9173616Y6252413D01*
X9191650Y6250533D01*
X9209735Y6250533D01*
X9227769Y6252413D01*
X9245498Y6256121D01*
X9262719Y6261608D01*
X9279331Y6268872D01*
X9295079Y6277762D01*
X9309862Y6288278D01*
X9323476Y6300216D01*
X9335770Y6313525D01*
X9346641Y6328003D01*
X9355937Y6343548D01*
X9363608Y6359906D01*
X9369552Y6377025D01*
X9373717Y6394653D01*
X9376054Y6412636D01*
X9376511Y6430721D01*
X9375140Y6448755D01*
X9371888Y6466586D01*
X9366808Y6483959D01*
X9360001Y6500774D01*
X9351467Y6516725D01*
X9341358Y6531762D01*
X9329775Y6545681D01*
X9316821Y6558330D01*
X9302597Y6569557D01*
X9287306Y6579260D01*
X9271152Y6587388D01*
X9254185Y6593738D01*
X9236659Y6598361D01*
X9218777Y6601155D01*
X9200692Y6602069D01*
X9182608Y6601155D01*
X9164726Y6598361D01*
X9147200Y6593738D01*
X9130233Y6587388D01*
X9114078Y6579260D01*
X9098788Y6569557D01*
X9084564Y6558330D01*
X9071610Y6545681D01*
X9060027Y6531762D01*
X9049918Y6516725D01*
X9041384Y6500774D01*
X9034576Y6483959D01*
X9029496Y6466586D01*
X9026245Y6448755D01*
X9024874Y6430721D01*
X9025331Y6412636D01*
X9027668Y6394653D01*
X9031782Y6377025D01*
X9037777Y6359906D01*
X9041841Y6351168D01*
X9042806Y6347155D01*
X9042095Y6343142D01*
X9039809Y6339687D01*
X8968790Y6268567D01*
X8963202Y6261150D01*
X8959189Y6253175D01*
X8956751Y6244590D01*
X8955887Y6235242D01*
X8955887Y6115405D01*
X8955074Y6111392D01*
X8952687Y6107988D01*
X8949182Y6105855D01*
X8945118Y6105245D01*
X8941155Y6106312D01*
X8937955Y6108903D01*
X8933789Y6113881D01*
X8920784Y6126530D01*
X8906611Y6137757D01*
X8891320Y6147460D01*
X8875115Y6155588D01*
X8858148Y6161938D01*
X8840673Y6166561D01*
X8822740Y6169355D01*
X8804656Y6170269D01*
X8786571Y6169355D01*
X8768689Y6166561D01*
X8751163Y6161938D01*
X8734247Y6155588D01*
X8718042Y6147460D01*
X8702751Y6137757D01*
X8688578Y6126530D01*
X8676284Y6114542D01*
X8672931Y6112357D01*
X8669070Y6111646D01*
X8665210Y6112459D01*
X8661958Y6114643D01*
X8659774Y6117945D01*
X8659012Y6121806D01*
X8659012Y6211417D01*
X8659774Y6215329D01*
X8662009Y6218631D01*
X8711742Y6268364D01*
X8715451Y6270752D01*
X8719769Y6271310D01*
X8723934Y6270040D01*
X8726017Y6268872D01*
X8742629Y6261608D01*
X8759901Y6256121D01*
X8777630Y6252413D01*
X8795613Y6250533D01*
X8813749Y6250533D01*
X8831732Y6252413D01*
X8849461Y6256121D01*
X8866733Y6261608D01*
X8883345Y6268872D01*
X8899093Y6277762D01*
X8913825Y6288278D01*
X8927439Y6300216D01*
X8939733Y6313525D01*
X8950604Y6328003D01*
X8959951Y6343548D01*
X8967622Y6359906D01*
X8973566Y6377025D01*
X8977731Y6394653D01*
X8980068Y6412636D01*
X8980525Y6430721D01*
X8979103Y6448755D01*
X8975852Y6466586D01*
X8970822Y6483959D01*
X8963964Y6500774D01*
X8955481Y6516725D01*
X8945372Y6531762D01*
X8933789Y6545681D01*
X8920784Y6558330D01*
X8906611Y6569557D01*
X8891320Y6579260D01*
X8875115Y6587388D01*
X8858148Y6593738D01*
X8840673Y6598361D01*
X8822740Y6601155D01*
X8804656Y6602069D01*
X8786571Y6601155D01*
X8768689Y6598361D01*
X8751163Y6593738D01*
X8734247Y6587388D01*
X8718042Y6579260D01*
X8702751Y6569557D01*
X8688578Y6558330D01*
X8675573Y6545681D01*
X8663990Y6531762D01*
X8653881Y6516725D01*
X8645347Y6500774D01*
X8638540Y6483959D01*
X8633510Y6466586D01*
X8630259Y6448755D01*
X8628837Y6430721D01*
X8629294Y6412636D01*
X8631631Y6394653D01*
X8635796Y6377025D01*
X8641740Y6359906D01*
X8646566Y6349593D01*
X8647531Y6345631D01*
X8646820Y6341567D01*
X8644534Y6338112D01*
X8575090Y6268567D01*
X8569502Y6261150D01*
X8565489Y6253175D01*
X8563051Y6244590D01*
X8562187Y6235242D01*
X8562187Y6112662D01*
X8561374Y6108649D01*
X8558987Y6105245D01*
X8555482Y6103112D01*
X8551418Y6102502D01*
X8547455Y6103569D01*
X8544255Y6106160D01*
X8537803Y6113881D01*
X8524798Y6126530D01*
X8510625Y6137757D01*
X8495334Y6147460D01*
X8479129Y6155588D01*
X8462162Y6161938D01*
X8444687Y6166561D01*
X8426754Y6169355D01*
X8408670Y6170269D01*
X8390585Y6169355D01*
X8372703Y6166561D01*
X8355177Y6161938D01*
X8338261Y6155588D01*
X8322056Y6147460D01*
X8306765Y6137757D01*
X8292592Y6126530D01*
X8279587Y6113881D01*
X8270595Y6103061D01*
X8267344Y6100470D01*
X8263381Y6099403D01*
X8259318Y6100013D01*
X8255812Y6102146D01*
X8253425Y6105550D01*
X8252612Y6109563D01*
X8252612Y6186068D01*
X8253374Y6189929D01*
X8255558Y6193231D01*
X8325866Y6263640D01*
X8329218Y6265875D01*
X8333181Y6266586D01*
X8337143Y6265773D01*
X8346643Y6261608D01*
X8363915Y6256121D01*
X8381644Y6252413D01*
X8399627Y6250533D01*
X8417763Y6250533D01*
X8435746Y6252413D01*
X8453475Y6256121D01*
X8470747Y6261608D01*
X8487359Y6268872D01*
X8503107Y6277762D01*
X8517839Y6288278D01*
X8531453Y6300216D01*
X8543747Y6313525D01*
X8554618Y6328003D01*
X8563965Y6343548D01*
X8571636Y6359906D01*
X8577580Y6377025D01*
X8581745Y6394653D01*
X8584082Y6412636D01*
X8584539Y6430721D01*
X8583117Y6448755D01*
X8579866Y6466586D01*
X8574836Y6483959D01*
X8567978Y6500774D01*
X8559495Y6516725D01*
X8549386Y6531762D01*
X8537803Y6545681D01*
X8524798Y6558330D01*
X8510625Y6569557D01*
X8495334Y6579260D01*
X8479129Y6587388D01*
X8462162Y6593738D01*
X8444687Y6598361D01*
X8426754Y6601155D01*
X8408670Y6602069D01*
X8390585Y6601155D01*
X8372703Y6598361D01*
X8355177Y6593738D01*
X8338261Y6587388D01*
X8322056Y6579260D01*
X8306765Y6569557D01*
X8292592Y6558330D01*
X8279587Y6545681D01*
X8268004Y6531762D01*
X8257895Y6516725D01*
X8249361Y6500774D01*
X8242553Y6483959D01*
X8237524Y6466586D01*
X8234273Y6448755D01*
X8232851Y6430721D01*
X8233308Y6412636D01*
X8235645Y6394653D01*
X8239810Y6377025D01*
X8245754Y6359906D01*
X8253425Y6343548D01*
X8255152Y6340703D01*
X8256524Y6336487D01*
X8256016Y6332067D01*
X8253628Y6328257D01*
X8168690Y6243167D01*
X8163102Y6235750D01*
X8159089Y6227775D01*
X8156651Y6219190D01*
X8155787Y6209842D01*
X8155787Y6120333D01*
X8155025Y6116472D01*
X8152841Y6113170D01*
X8149590Y6110986D01*
X8145678Y6110173D01*
X8141817Y6110935D01*
X8138515Y6113068D01*
X8124799Y6126530D01*
X8110626Y6137757D01*
X8095335Y6147460D01*
X8079130Y6155588D01*
X8062163Y6161938D01*
X8044688Y6166561D01*
X8026755Y6169355D01*
X8008670Y6170269D01*
X7990586Y6169355D01*
X7972704Y6166561D01*
X7955178Y6161938D01*
X7938262Y6155588D01*
X7922056Y6147460D01*
X7906766Y6137757D01*
X7892592Y6126530D01*
X7879588Y6113881D01*
X7876895Y6110579D01*
X7873644Y6108039D01*
X7869681Y6106972D01*
X7865618Y6107531D01*
X7862112Y6109716D01*
X7859725Y6113068D01*
X7858912Y6117132D01*
X7858912Y6211417D01*
X7859674Y6215329D01*
X7861909Y6218631D01*
X7913116Y6269888D01*
X7916824Y6272225D01*
X7921142Y6272834D01*
X7925308Y6271514D01*
X7930032Y6268872D01*
X7946644Y6261608D01*
X7963916Y6256121D01*
X7981645Y6252413D01*
X7999628Y6250533D01*
X8017764Y6250533D01*
X8035747Y6252413D01*
X8053476Y6256121D01*
X8070748Y6261608D01*
X8087359Y6268872D01*
X8103108Y6277762D01*
X8117840Y6288278D01*
X8131454Y6300216D01*
X8143748Y6313525D01*
X8154619Y6328003D01*
X8163966Y6343548D01*
X8171637Y6359906D01*
X8177580Y6377025D01*
X8181746Y6394653D01*
X8184083Y6412636D01*
X8184540Y6430721D01*
X8183118Y6448755D01*
X8179866Y6466586D01*
X8174837Y6483959D01*
X8167979Y6500774D01*
X8159496Y6516725D01*
X8149386Y6531762D01*
X8137804Y6545681D01*
X8124799Y6558330D01*
X8110626Y6569557D01*
X8095335Y6579260D01*
X8079130Y6587388D01*
X8062163Y6593738D01*
X8044688Y6598361D01*
X8026755Y6601155D01*
X8008670Y6602069D01*
X7990586Y6601155D01*
X7972704Y6598361D01*
X7955178Y6593738D01*
X7938262Y6587388D01*
X7922056Y6579260D01*
X7906766Y6569557D01*
X7892592Y6558330D01*
X7879588Y6545681D01*
X7868005Y6531762D01*
X7857896Y6516725D01*
X7849362Y6500774D01*
X7842554Y6483959D01*
X7837525Y6466586D01*
X7834274Y6448755D01*
X7832852Y6430721D01*
X7833309Y6412636D01*
X7835646Y6394653D01*
X7839811Y6377025D01*
X7845755Y6359906D01*
X7849260Y6352387D01*
X7850225Y6348425D01*
X7849514Y6344361D01*
X7847279Y6340906D01*
X7774990Y6268567D01*
X7769402Y6261150D01*
X7765389Y6253175D01*
X7762951Y6244590D01*
X7762087Y6235242D01*
X7762087Y6117539D01*
X7761274Y6113526D01*
X7758887Y6110173D01*
X7755381Y6107988D01*
X7751318Y6107430D01*
X7747355Y6108496D01*
X7744155Y6111036D01*
X7741767Y6113881D01*
X7728813Y6126530D01*
X7714589Y6137757D01*
X7699298Y6147460D01*
X7683144Y6155588D01*
X7666177Y6161938D01*
X7648651Y6166561D01*
X7630769Y6169355D01*
X7612684Y6170269D01*
X7594600Y6169355D01*
X7576718Y6166561D01*
X7559192Y6161938D01*
X7542225Y6155588D01*
X7526070Y6147460D01*
X7510780Y6137757D01*
X7496556Y6126530D01*
X7483195Y6113373D01*
X7479944Y6110833D01*
X7475981Y6109716D01*
X7471918Y6110325D01*
X7468412Y6112459D01*
X7466025Y6115862D01*
X7465212Y6119876D01*
X7465212Y6211468D01*
X7465974Y6215329D01*
X7468158Y6218631D01*
X7518552Y6269075D01*
X7522209Y6271412D01*
X7526528Y6272022D01*
X7530744Y6270752D01*
X7534046Y6268872D01*
X7550658Y6261608D01*
X7567879Y6256121D01*
X7585608Y6252413D01*
X7603642Y6250533D01*
X7621727Y6250533D01*
X7639761Y6252413D01*
X7657490Y6256121D01*
X7674711Y6261608D01*
X7691323Y6268872D01*
X7707071Y6277762D01*
X7721853Y6288278D01*
X7735468Y6300216D01*
X7747762Y6313525D01*
X7758633Y6328003D01*
X7767929Y6343548D01*
X7775600Y6359906D01*
X7781544Y6377025D01*
X7785709Y6394653D01*
X7788046Y6412636D01*
X7788503Y6430721D01*
X7787131Y6448755D01*
X7783880Y6466586D01*
X7778800Y6483959D01*
X7771993Y6500774D01*
X7763459Y6516725D01*
X7753350Y6531762D01*
X7741767Y6545681D01*
X7728813Y6558330D01*
X7714589Y6569557D01*
X7699298Y6579260D01*
X7683144Y6587388D01*
X7666177Y6593738D01*
X7648651Y6598361D01*
X7630769Y6601155D01*
X7612684Y6602069D01*
X7594600Y6601155D01*
X7576718Y6598361D01*
X7559192Y6593738D01*
X7542225Y6587388D01*
X7526070Y6579260D01*
X7510780Y6569557D01*
X7496556Y6558330D01*
X7483602Y6545681D01*
X7472019Y6531762D01*
X7461910Y6516725D01*
X7453375Y6500774D01*
X7446568Y6483959D01*
X7441488Y6466586D01*
X7438237Y6448755D01*
X7436866Y6430721D01*
X7437323Y6412636D01*
X7439659Y6394653D01*
X7443774Y6377025D01*
X7449769Y6359906D01*
X7453985Y6350914D01*
X7454950Y6346901D01*
X7454239Y6342837D01*
X7451953Y6339433D01*
X7381290Y6268567D01*
X7375702Y6261150D01*
X7371689Y6253175D01*
X7369251Y6244590D01*
X7368387Y6235242D01*
X7368387Y6114796D01*
X7367574Y6110782D01*
X7365187Y6107430D01*
X7361681Y6105245D01*
X7357618Y6104686D01*
X7353655Y6105753D01*
X7350455Y6108293D01*
X7345781Y6113881D01*
X7332827Y6126530D01*
X7318603Y6137757D01*
X7303312Y6147460D01*
X7287158Y6155588D01*
X7270191Y6161938D01*
X7252665Y6166561D01*
X7234783Y6169355D01*
X7216698Y6170269D01*
X7198614Y6169355D01*
X7180732Y6166561D01*
X7163206Y6161938D01*
X7146239Y6155588D01*
X7130084Y6147460D01*
X7114794Y6137757D01*
X7100570Y6126530D01*
X7088784Y6114999D01*
X7085431Y6112865D01*
X7081570Y6112103D01*
X7077709Y6112916D01*
X7074458Y6115100D01*
X7072274Y6118402D01*
X7071512Y6122263D01*
X7071512Y6198768D01*
X7072274Y6202629D01*
X7074458Y6205931D01*
X7132624Y6264198D01*
X7135977Y6266383D01*
X7139940Y6267145D01*
X7143902Y6266281D01*
X7154672Y6261608D01*
X7171893Y6256121D01*
X7189622Y6252413D01*
X7207656Y6250533D01*
X7225741Y6250533D01*
X7243775Y6252413D01*
X7261504Y6256121D01*
X7278725Y6261608D01*
X7295337Y6268872D01*
X7311085Y6277762D01*
X7325868Y6288278D01*
X7339482Y6300216D01*
X7351775Y6313525D01*
X7362647Y6328003D01*
X7371943Y6343548D01*
X7379614Y6359906D01*
X7385558Y6377025D01*
X7389723Y6394653D01*
X7392060Y6412636D01*
X7392517Y6430721D01*
X7391146Y6448755D01*
X7387894Y6466586D01*
X7382814Y6483959D01*
X7376007Y6500774D01*
X7367473Y6516725D01*
X7357364Y6531762D01*
X7345781Y6545681D01*
X7332827Y6558330D01*
X7318603Y6569557D01*
X7303312Y6579260D01*
X7287158Y6587388D01*
X7270191Y6593738D01*
X7252665Y6598361D01*
X7234783Y6601155D01*
X7216698Y6602069D01*
X7198614Y6601155D01*
X7180732Y6598361D01*
X7163206Y6593738D01*
X7146239Y6587388D01*
X7130084Y6579260D01*
X7114794Y6569557D01*
X7100570Y6558330D01*
X7087616Y6545681D01*
X7076033Y6531762D01*
X7065924Y6516725D01*
X7057390Y6500774D01*
X7050582Y6483959D01*
X7045502Y6466586D01*
X7042251Y6448755D01*
X7040880Y6430721D01*
X7041337Y6412636D01*
X7043674Y6394653D01*
X7047788Y6377025D01*
X7053783Y6359906D01*
X7061453Y6343548D01*
X7062470Y6341821D01*
X7063892Y6337604D01*
X7063333Y6333185D01*
X7060946Y6329426D01*
X6987590Y6255867D01*
X6982002Y6248450D01*
X6977989Y6240475D01*
X6975551Y6231890D01*
X6974687Y6222542D01*
X6974687Y6109665D01*
X6973874Y6105652D01*
X6971487Y6102248D01*
X6967981Y6100114D01*
X6963918Y6099505D01*
X6959955Y6100572D01*
X6956755Y6103162D01*
X6947763Y6113881D01*
X6934809Y6126530D01*
X6920636Y6137757D01*
X6905345Y6147460D01*
X6889140Y6155588D01*
X6872173Y6161938D01*
X6854698Y6166561D01*
X6836765Y6169355D01*
X6818680Y6170269D01*
X6800596Y6169355D01*
X6782714Y6166561D01*
X6765188Y6161938D01*
X6748272Y6155588D01*
X6732066Y6147460D01*
X6716775Y6137757D01*
X6702602Y6126530D01*
X6689598Y6113881D01*
X6683095Y6106058D01*
X6679844Y6103467D01*
X6675881Y6102400D01*
X6671818Y6103010D01*
X6668312Y6105144D01*
X6665925Y6108496D01*
X6665112Y6112560D01*
X6665112Y6198717D01*
X6665874Y6202629D01*
X6668109Y6205931D01*
X6728866Y6266688D01*
X6732219Y6268923D01*
X6736181Y6269685D01*
X6740093Y6268821D01*
X6756653Y6261608D01*
X6773925Y6256121D01*
X6791604Y6252413D01*
X6809638Y6250533D01*
X6827774Y6250533D01*
X6845757Y6252413D01*
X6863486Y6256121D01*
X6880758Y6261608D01*
X6897319Y6268872D01*
X6913118Y6277762D01*
X6927850Y6288278D01*
X6941464Y6300216D01*
X6953758Y6313525D01*
X6964629Y6328003D01*
X6973976Y6343548D01*
X6981647Y6359906D01*
X6987590Y6377025D01*
X6991756Y6394653D01*
X6994042Y6412636D01*
X6994550Y6430721D01*
X6993128Y6448755D01*
X6989876Y6466586D01*
X6984847Y6483959D01*
X6977989Y6500774D01*
X6969506Y6516725D01*
X6959396Y6531762D01*
X6947763Y6545681D01*
X6934809Y6558330D01*
X6920636Y6569557D01*
X6905345Y6579260D01*
X6889140Y6587388D01*
X6872173Y6593738D01*
X6854698Y6598361D01*
X6836765Y6601155D01*
X6818680Y6602069D01*
X6800596Y6601155D01*
X6782714Y6598361D01*
X6765188Y6593738D01*
X6748272Y6587388D01*
X6732066Y6579260D01*
X6716775Y6569557D01*
X6702602Y6558330D01*
X6689598Y6545681D01*
X6678015Y6531762D01*
X6667906Y6516725D01*
X6659372Y6500774D01*
X6652564Y6483959D01*
X6647484Y6466586D01*
X6644233Y6448755D01*
X6642862Y6430721D01*
X6643319Y6412636D01*
X6645656Y6394653D01*
X6649821Y6377025D01*
X6655765Y6359906D01*
X6662115Y6346342D01*
X6663080Y6342329D01*
X6662369Y6338316D01*
X6660083Y6334861D01*
X6581190Y6255867D01*
X6575602Y6248450D01*
X6571589Y6240475D01*
X6569151Y6231890D01*
X6568287Y6222542D01*
X6568287Y6121857D01*
X6567525Y6117996D01*
X6565341Y6114694D01*
X6562090Y6112510D01*
X6558229Y6111697D01*
X6554368Y6112459D01*
X6551015Y6114592D01*
X6538823Y6126530D01*
X6524599Y6137757D01*
X6509308Y6147460D01*
X6493103Y6155588D01*
X6476187Y6161938D01*
X6458661Y6166561D01*
X6440779Y6169355D01*
X6422694Y6170269D01*
X6404610Y6169355D01*
X6386728Y6166561D01*
X6369202Y6161938D01*
X6352235Y6155588D01*
X6336030Y6147460D01*
X6320790Y6137757D01*
X6306566Y6126530D01*
X6293612Y6113881D01*
X6289395Y6108801D01*
X6286144Y6106261D01*
X6282182Y6105194D01*
X6278118Y6105753D01*
X6274612Y6107938D01*
X6272225Y6111290D01*
X6271412Y6115304D01*
X6271412Y6186068D01*
X6272174Y6189929D01*
X6274358Y6193231D01*
X6343243Y6262166D01*
X6346596Y6264402D01*
X6350558Y6265164D01*
X6354470Y6264300D01*
X6360617Y6261608D01*
X6377889Y6256121D01*
X6395618Y6252413D01*
X6413652Y6250533D01*
X6431737Y6250533D01*
X6449771Y6252413D01*
X6467500Y6256121D01*
X6484721Y6261608D01*
X6501333Y6268872D01*
X6517081Y6277762D01*
X6531864Y6288278D01*
X6545427Y6300216D01*
X6557772Y6313525D01*
X6568643Y6328003D01*
X6577939Y6343548D01*
X6585610Y6359906D01*
X6591553Y6377025D01*
X6595719Y6394653D01*
X6598056Y6412636D01*
X6598513Y6430721D01*
X6597142Y6448755D01*
X6593890Y6466586D01*
X6588810Y6483959D01*
X6582003Y6500774D01*
X6573469Y6516725D01*
X6563359Y6531762D01*
X6551777Y6545681D01*
X6538823Y6558330D01*
X6524599Y6569557D01*
X6509308Y6579260D01*
X6493103Y6587388D01*
X6476187Y6593738D01*
X6458661Y6598361D01*
X6440779Y6601155D01*
X6422694Y6602069D01*
X6404610Y6601155D01*
X6386728Y6598361D01*
X6369202Y6593738D01*
X6352235Y6587388D01*
X6336030Y6579260D01*
X6320790Y6569557D01*
X6306566Y6558330D01*
X6293612Y6545681D01*
X6281978Y6531762D01*
X6271869Y6516725D01*
X6263386Y6500774D01*
X6256578Y6483959D01*
X6251498Y6466586D01*
X6248247Y6448755D01*
X6246825Y6430721D01*
X6247333Y6412636D01*
X6249619Y6394653D01*
X6253784Y6377025D01*
X6259728Y6359906D01*
X6267450Y6343548D01*
X6270955Y6337706D01*
X6272326Y6333439D01*
X6271768Y6329019D01*
X6269431Y6325260D01*
X6187490Y6243167D01*
X6181902Y6235750D01*
X6177889Y6227775D01*
X6175451Y6219190D01*
X6174587Y6209842D01*
X6174587Y6119368D01*
X6173774Y6115354D01*
X6171387Y6112002D01*
X6167882Y6109817D01*
X6163818Y6109258D01*
X6159855Y6110325D01*
X6155791Y6113881D01*
X6142837Y6126530D01*
X6128613Y6137757D01*
X6113322Y6147460D01*
X6097117Y6155588D01*
X6080201Y6161938D01*
X6062675Y6166561D01*
X6044793Y6169355D01*
X6026708Y6170269D01*
X6008624Y6169355D01*
X5990742Y6166561D01*
X5973216Y6161938D01*
X5956249Y6155588D01*
X5940044Y6147460D01*
X5924804Y6137757D01*
X5910580Y6126530D01*
X5897626Y6113881D01*
X5895695Y6111544D01*
X5892444Y6109004D01*
X5888482Y6107938D01*
X5884418Y6108496D01*
X5880912Y6110681D01*
X5878525Y6114034D01*
X5877712Y6118047D01*
X5877712Y6198717D01*
X5878474Y6202629D01*
X5880709Y6205931D01*
X5940044Y6265316D01*
X5943447Y6267551D01*
X5947359Y6268262D01*
X5951321Y6267450D01*
X5964631Y6261608D01*
X5981903Y6256121D01*
X5999632Y6252413D01*
X6017666Y6250533D01*
X6035751Y6250533D01*
X6053785Y6252413D01*
X6071514Y6256121D01*
X6088735Y6261608D01*
X6105347Y6268872D01*
X6121095Y6277762D01*
X6135878Y6288278D01*
X6149441Y6300216D01*
X6161786Y6313525D01*
X6172657Y6328003D01*
X6181953Y6343548D01*
X6189624Y6359906D01*
X6195568Y6377025D01*
X6199733Y6394653D01*
X6202070Y6412636D01*
X6202527Y6430721D01*
X6201156Y6448755D01*
X6197904Y6466586D01*
X6192824Y6483959D01*
X6186017Y6500774D01*
X6177483Y6516725D01*
X6167374Y6531762D01*
X6155791Y6545681D01*
X6142837Y6558330D01*
X6128613Y6569557D01*
X6113322Y6579260D01*
X6097117Y6587388D01*
X6080201Y6593738D01*
X6062675Y6598361D01*
X6044793Y6601155D01*
X6026708Y6602069D01*
X6008624Y6601155D01*
X5990742Y6598361D01*
X5973216Y6593738D01*
X5956249Y6587388D01*
X5940044Y6579260D01*
X5924804Y6569557D01*
X5910580Y6558330D01*
X5897626Y6545681D01*
X5885992Y6531762D01*
X5875883Y6516725D01*
X5867400Y6500774D01*
X5860592Y6483959D01*
X5855512Y6466586D01*
X5852261Y6448755D01*
X5850839Y6430721D01*
X5851347Y6412636D01*
X5853633Y6394653D01*
X5857798Y6377025D01*
X5863742Y6359906D01*
X5871565Y6343192D01*
X5872530Y6339230D01*
X5871819Y6335166D01*
X5869584Y6331712D01*
X5793790Y6255867D01*
X5788202Y6248450D01*
X5784189Y6240475D01*
X5781751Y6231890D01*
X5780887Y6222542D01*
X5780887Y6116624D01*
X5780074Y6112611D01*
X5777687Y6109208D01*
X5774182Y6107074D01*
X5770118Y6106464D01*
X5766155Y6107531D01*
X5762955Y6110122D01*
X5759805Y6113881D01*
X5746800Y6126530D01*
X5732627Y6137757D01*
X5717336Y6147460D01*
X5701131Y6155588D01*
X5684164Y6161938D01*
X5666689Y6166561D01*
X5648807Y6169355D01*
X5630722Y6170269D01*
X5612587Y6169355D01*
X5594705Y6166561D01*
X5577230Y6161938D01*
X5560263Y6155588D01*
X5544058Y6147460D01*
X5528767Y6137757D01*
X5514594Y6126530D01*
X5501284Y6113526D01*
X5497931Y6111392D01*
X5494070Y6110630D01*
X5490210Y6111443D01*
X5486958Y6113678D01*
X5484774Y6116929D01*
X5484012Y6120790D01*
X5484012Y6198717D01*
X5484774Y6202629D01*
X5487009Y6205931D01*
X5545683Y6264605D01*
X5549036Y6266840D01*
X5552998Y6267602D01*
X5556910Y6266738D01*
X5568645Y6261608D01*
X5585917Y6256121D01*
X5603646Y6252413D01*
X5621629Y6250533D01*
X5639765Y6250533D01*
X5657748Y6252413D01*
X5675477Y6256121D01*
X5692749Y6261608D01*
X5709361Y6268872D01*
X5725109Y6277762D01*
X5739841Y6288278D01*
X5753455Y6300216D01*
X5765749Y6313525D01*
X5776620Y6328003D01*
X5785967Y6343548D01*
X5793638Y6359906D01*
X5799582Y6377025D01*
X5803747Y6394653D01*
X5806084Y6412636D01*
X5806541Y6430721D01*
X5805119Y6448755D01*
X5801868Y6466586D01*
X5796838Y6483959D01*
X5789980Y6500774D01*
X5781497Y6516725D01*
X5771388Y6531762D01*
X5759805Y6545681D01*
X5746800Y6558330D01*
X5732627Y6569557D01*
X5717336Y6579260D01*
X5701131Y6587388D01*
X5684164Y6593738D01*
X5666689Y6598361D01*
X5648807Y6601155D01*
X5630722Y6602069D01*
X5612587Y6601155D01*
X5594705Y6598361D01*
X5577230Y6593738D01*
X5560263Y6587388D01*
X5544058Y6579260D01*
X5528767Y6569557D01*
X5514594Y6558330D01*
X5501589Y6545681D01*
X5490006Y6531762D01*
X5479897Y6516725D01*
X5471414Y6500774D01*
X5464556Y6483959D01*
X5459526Y6466586D01*
X5456275Y6448755D01*
X5454853Y6430721D01*
X5455310Y6412636D01*
X5457647Y6394653D01*
X5461812Y6377025D01*
X5467756Y6359906D01*
X5475427Y6343548D01*
X5477357Y6338468D01*
X5476798Y6334048D01*
X5474411Y6330289D01*
X5400090Y6255867D01*
X5394502Y6248450D01*
X5390489Y6240475D01*
X5388051Y6231890D01*
X5387187Y6222542D01*
X5387187Y6113830D01*
X5386374Y6109817D01*
X5383987Y6106464D01*
X5380482Y6104280D01*
X5376418Y6103721D01*
X5372455Y6104788D01*
X5369255Y6107328D01*
X5363768Y6113881D01*
X5350814Y6126530D01*
X5336590Y6137757D01*
X5321300Y6147460D01*
X5305145Y6155588D01*
X5288178Y6161938D01*
X5270652Y6166561D01*
X5252770Y6169355D01*
X5234686Y6170269D01*
X5216601Y6169355D01*
X5198719Y6166561D01*
X5181193Y6161938D01*
X5164226Y6155588D01*
X5148072Y6147460D01*
X5132781Y6137757D01*
X5118557Y6126530D01*
X5107584Y6115812D01*
X5104231Y6113627D01*
X5100370Y6112916D01*
X5096510Y6113729D01*
X5093258Y6115913D01*
X5091074Y6119215D01*
X5090312Y6123076D01*
X5090312Y6198768D01*
X5091074Y6202629D01*
X5093258Y6205931D01*
X5151170Y6263944D01*
X5154523Y6266180D01*
X5158486Y6266891D01*
X5162448Y6266078D01*
X5172659Y6261608D01*
X5189880Y6256121D01*
X5207609Y6252413D01*
X5225643Y6250533D01*
X5243728Y6250533D01*
X5261762Y6252413D01*
X5279491Y6256121D01*
X5296712Y6261608D01*
X5313324Y6268872D01*
X5329072Y6277762D01*
X5343855Y6288278D01*
X5357469Y6300216D01*
X5369763Y6313525D01*
X5380634Y6328003D01*
X5389930Y6343548D01*
X5397601Y6359906D01*
X5403596Y6377025D01*
X5407710Y6394653D01*
X5410047Y6412636D01*
X5410504Y6430721D01*
X5409133Y6448755D01*
X5405882Y6466586D01*
X5400802Y6483959D01*
X5393994Y6500774D01*
X5385460Y6516725D01*
X5375351Y6531762D01*
X5363768Y6545681D01*
X5350814Y6558330D01*
X5336590Y6569557D01*
X5321300Y6579260D01*
X5305145Y6587388D01*
X5288178Y6593738D01*
X5270652Y6598361D01*
X5252770Y6601155D01*
X5234686Y6602069D01*
X5216601Y6601155D01*
X5198719Y6598361D01*
X5181193Y6593738D01*
X5164226Y6587388D01*
X5148072Y6579260D01*
X5132781Y6569557D01*
X5118557Y6558330D01*
X5105603Y6545681D01*
X5094020Y6531762D01*
X5083911Y6516725D01*
X5075377Y6500774D01*
X5068570Y6483959D01*
X5063490Y6466586D01*
X5060238Y6448755D01*
X5058867Y6430721D01*
X5059324Y6412636D01*
X5061661Y6394653D01*
X5065776Y6377025D01*
X5071770Y6359906D01*
X5079441Y6343548D01*
X5080762Y6341313D01*
X5082184Y6337096D01*
X5081625Y6332677D01*
X5079238Y6328918D01*
X5006390Y6255867D01*
X5000802Y6248450D01*
X4996789Y6240475D01*
X4994351Y6231890D01*
X4993487Y6222542D01*
X4993487Y6111087D01*
X4992674Y6107074D01*
X4990287Y6103721D01*
X4986782Y6101537D01*
X4982718Y6100978D01*
X4978755Y6102045D01*
X4975555Y6104585D01*
X4967782Y6113881D01*
X4954828Y6126530D01*
X4940604Y6137757D01*
X4925314Y6147460D01*
X4909159Y6155588D01*
X4892192Y6161938D01*
X4874666Y6166561D01*
X4856784Y6169355D01*
X4838700Y6170269D01*
X4820615Y6169355D01*
X4802733Y6166561D01*
X4785207Y6161938D01*
X4768240Y6155588D01*
X4752086Y6147460D01*
X4736795Y6137757D01*
X4722571Y6126530D01*
X4709617Y6113881D01*
X4701895Y6104585D01*
X4698644Y6102045D01*
X4694682Y6100978D01*
X4690618Y6101537D01*
X4687112Y6103721D01*
X4684725Y6107074D01*
X4683912Y6111087D01*
X4683912Y6198717D01*
X4684674Y6202629D01*
X4686909Y6205931D01*
X4748072Y6267094D01*
X4751425Y6269329D01*
X4755388Y6270091D01*
X4759299Y6269228D01*
X4776673Y6261608D01*
X4793894Y6256121D01*
X4811623Y6252413D01*
X4829657Y6250533D01*
X4847742Y6250533D01*
X4865776Y6252413D01*
X4883505Y6256121D01*
X4900726Y6261608D01*
X4917338Y6268872D01*
X4933086Y6277762D01*
X4947869Y6288278D01*
X4961483Y6300216D01*
X4973777Y6313525D01*
X4984648Y6328003D01*
X4993944Y6343548D01*
X5001615Y6359906D01*
X5007610Y6377025D01*
X5011724Y6394653D01*
X5014061Y6412636D01*
X5014518Y6430721D01*
X5013147Y6448755D01*
X5009896Y6466586D01*
X5004816Y6483959D01*
X4998008Y6500774D01*
X4989474Y6516725D01*
X4979365Y6531762D01*
X4967782Y6545681D01*
X4954828Y6558330D01*
X4940604Y6569557D01*
X4925314Y6579260D01*
X4909159Y6587388D01*
X4892192Y6593738D01*
X4874666Y6598361D01*
X4856784Y6601155D01*
X4838700Y6602069D01*
X4820615Y6601155D01*
X4802733Y6598361D01*
X4785207Y6593738D01*
X4768240Y6587388D01*
X4752086Y6579260D01*
X4736795Y6569557D01*
X4722571Y6558330D01*
X4709617Y6545681D01*
X4698034Y6531762D01*
X4687925Y6516725D01*
X4679391Y6500774D01*
X4672584Y6483959D01*
X4667504Y6466586D01*
X4664252Y6448755D01*
X4662881Y6430721D01*
X4663338Y6412636D01*
X4665675Y6394653D01*
X4669790Y6377025D01*
X4675784Y6359906D01*
X4681728Y6347155D01*
X4682693Y6343192D01*
X4681982Y6339128D01*
X4679696Y6335674D01*
X4599990Y6255867D01*
X4594402Y6248450D01*
X4590389Y6240475D01*
X4587951Y6231890D01*
X4587087Y6222542D01*
X4587087Y6121095D01*
X4586325Y6117234D01*
X4584141Y6113932D01*
X4580890Y6111748D01*
X4577029Y6110935D01*
X4573168Y6111697D01*
X4569815Y6113830D01*
X4556810Y6126530D01*
X4542637Y6137757D01*
X4527346Y6147460D01*
X4511141Y6155588D01*
X4494174Y6161938D01*
X4476699Y6166561D01*
X4458766Y6169355D01*
X4440682Y6170269D01*
X4422597Y6169355D01*
X4404715Y6166561D01*
X4387189Y6161938D01*
X4370273Y6155588D01*
X4354068Y6147460D01*
X4338777Y6137757D01*
X4324604Y6126530D01*
X4311599Y6113881D01*
X4308195Y6109766D01*
X4304944Y6107176D01*
X4300982Y6106109D01*
X4296918Y6106718D01*
X4293412Y6108852D01*
X4291025Y6112256D01*
X4290212Y6116269D01*
X4290212Y6211417D01*
X4290974Y6215329D01*
X4293209Y6218631D01*
X4344670Y6270142D01*
X4348378Y6272479D01*
X4352696Y6273088D01*
X4356862Y6271768D01*
X4362043Y6268872D01*
X4378655Y6261608D01*
X4395927Y6256121D01*
X4413656Y6252413D01*
X4431639Y6250533D01*
X4449775Y6250533D01*
X4467758Y6252413D01*
X4485487Y6256121D01*
X4502759Y6261608D01*
X4519320Y6268872D01*
X4535119Y6277762D01*
X4549851Y6288278D01*
X4563465Y6300216D01*
X4575759Y6313525D01*
X4586630Y6328003D01*
X4595977Y6343548D01*
X4603648Y6359906D01*
X4609592Y6377025D01*
X4613757Y6394653D01*
X4616094Y6412636D01*
X4616551Y6430721D01*
X4615129Y6448755D01*
X4611878Y6466586D01*
X4606848Y6483959D01*
X4599990Y6500774D01*
X4591507Y6516725D01*
X4581398Y6531762D01*
X4569764Y6545681D01*
X4556810Y6558330D01*
X4542637Y6569557D01*
X4527346Y6579260D01*
X4511141Y6587388D01*
X4494174Y6593738D01*
X4476699Y6598361D01*
X4458766Y6601155D01*
X4440682Y6602069D01*
X4422597Y6601155D01*
X4404715Y6598361D01*
X4387189Y6593738D01*
X4370273Y6587388D01*
X4354068Y6579260D01*
X4338777Y6569557D01*
X4324604Y6558330D01*
X4311599Y6545681D01*
X4300016Y6531762D01*
X4289907Y6516725D01*
X4281373Y6500774D01*
X4274566Y6483959D01*
X4269486Y6466586D01*
X4266285Y6448755D01*
X4264863Y6430721D01*
X4265320Y6412636D01*
X4267657Y6394653D01*
X4271822Y6377025D01*
X4277766Y6359906D01*
X4281068Y6352895D01*
X4282033Y6348882D01*
X4281322Y6344818D01*
X4279036Y6341414D01*
X4206290Y6268567D01*
X4200702Y6261150D01*
X4196689Y6253175D01*
X4194251Y6244590D01*
X4193387Y6235242D01*
X4193387Y6118402D01*
X4192574Y6114389D01*
X4190187Y6110986D01*
X4186682Y6108852D01*
X4182618Y6108242D01*
X4178655Y6109360D01*
X4175455Y6111900D01*
X4173778Y6113881D01*
X4160824Y6126530D01*
X4146600Y6137757D01*
X4131310Y6147460D01*
X4115104Y6155588D01*
X4098188Y6161938D01*
X4080662Y6166561D01*
X4062780Y6169355D01*
X4044696Y6170269D01*
X4026611Y6169355D01*
X4008729Y6166561D01*
X3991203Y6161938D01*
X3974236Y6155588D01*
X3958031Y6147460D01*
X3942791Y6137757D01*
X3928567Y6126530D01*
X3915613Y6113881D01*
X3914495Y6112510D01*
X3911244Y6109970D01*
X3907282Y6108903D01*
X3903218Y6109462D01*
X3899712Y6111646D01*
X3897325Y6114999D01*
X3896512Y6119012D01*
X3896512Y6211417D01*
X3897274Y6215329D01*
X3899509Y6218631D01*
X3950157Y6269278D01*
X3953814Y6271666D01*
X3958183Y6272225D01*
X3962349Y6270955D01*
X3966057Y6268872D01*
X3982618Y6261608D01*
X3999890Y6256121D01*
X4017619Y6252413D01*
X4035653Y6250533D01*
X4053738Y6250533D01*
X4071772Y6252413D01*
X4089501Y6256121D01*
X4106722Y6261608D01*
X4123334Y6268872D01*
X4139082Y6277762D01*
X4153865Y6288278D01*
X4167428Y6300216D01*
X4179773Y6313525D01*
X4190644Y6328003D01*
X4199940Y6343548D01*
X4207611Y6359906D01*
X4213555Y6377025D01*
X4217720Y6394653D01*
X4220057Y6412636D01*
X4220514Y6430721D01*
X4219143Y6448755D01*
X4215892Y6466586D01*
X4210812Y6483959D01*
X4204004Y6500774D01*
X4195470Y6516725D01*
X4185361Y6531762D01*
X4173778Y6545681D01*
X4160824Y6558330D01*
X4146600Y6569557D01*
X4131310Y6579260D01*
X4115104Y6587388D01*
X4098188Y6593738D01*
X4080662Y6598361D01*
X4062780Y6601155D01*
X4044696Y6602069D01*
X4026611Y6601155D01*
X4008729Y6598361D01*
X3991203Y6593738D01*
X3974236Y6587388D01*
X3958031Y6579260D01*
X3942791Y6569557D01*
X3928567Y6558330D01*
X3915613Y6545681D01*
X3903979Y6531762D01*
X3893870Y6516725D01*
X3885387Y6500774D01*
X3878579Y6483959D01*
X3873500Y6466586D01*
X3870248Y6448755D01*
X3868877Y6430721D01*
X3869334Y6412636D01*
X3871620Y6394653D01*
X3875786Y6377025D01*
X3881729Y6359906D01*
X3885793Y6351320D01*
X3886758Y6347307D01*
X3886047Y6343243D01*
X3883761Y6339840D01*
X3812590Y6268567D01*
X3807002Y6261150D01*
X3802989Y6253175D01*
X3800551Y6244590D01*
X3799687Y6235242D01*
X3799687Y6125311D01*
X3798925Y6121450D01*
X3796741Y6118148D01*
X3793490Y6115913D01*
X3789629Y6115151D01*
X3785768Y6115862D01*
X3782415Y6117996D01*
X3773728Y6126530D01*
X3759504Y6137757D01*
X3744214Y6147460D01*
X3728059Y6155588D01*
X3711092Y6161938D01*
X3693566Y6166561D01*
X3675684Y6169355D01*
X3657600Y6170269D01*
X3639515Y6169355D01*
X3621633Y6166561D01*
X3604107Y6161938D01*
X3587140Y6155588D01*
X3570986Y6147460D01*
X3555695Y6137757D01*
X3541471Y6126530D01*
X3528517Y6113881D01*
X3520795Y6104585D01*
X3517544Y6102045D01*
X3513582Y6100978D01*
X3509518Y6101537D01*
X3506012Y6103721D01*
X3503625Y6107074D01*
X3502812Y6111087D01*
X3502812Y6198717D01*
X3503574Y6202629D01*
X3505809Y6205931D01*
X3564229Y6264351D01*
X3567582Y6266586D01*
X3571544Y6267348D01*
X3575456Y6266484D01*
X3586632Y6261608D01*
X3603904Y6256121D01*
X3621633Y6252413D01*
X3639667Y6250533D01*
X3657752Y6250533D01*
X3675786Y6252413D01*
X3693515Y6256121D01*
X3710736Y6261608D01*
X3727348Y6268872D01*
X3743096Y6277762D01*
X3757879Y6288278D01*
X3771442Y6300216D01*
X3783787Y6313525D01*
X3794658Y6328003D01*
X3803954Y6343548D01*
X3811625Y6359906D01*
X3817569Y6377025D01*
X3821734Y6394653D01*
X3824071Y6412636D01*
X3824528Y6430721D01*
X3823157Y6448755D01*
X3819906Y6466586D01*
X3814826Y6483959D01*
X3808018Y6500774D01*
X3799484Y6516725D01*
X3789375Y6531762D01*
X3777792Y6545681D01*
X3764838Y6558330D01*
X3750614Y6569557D01*
X3735324Y6579260D01*
X3719118Y6587388D01*
X3702202Y6593738D01*
X3684676Y6598361D01*
X3666794Y6601155D01*
X3648710Y6602069D01*
X3630625Y6601155D01*
X3612743Y6598361D01*
X3595217Y6593738D01*
X3578250Y6587388D01*
X3562045Y6579260D01*
X3546805Y6569557D01*
X3532581Y6558330D01*
X3519627Y6545681D01*
X3507994Y6531762D01*
X3497884Y6516725D01*
X3489401Y6500774D01*
X3482594Y6483959D01*
X3477514Y6466586D01*
X3474262Y6448755D01*
X3472891Y6430721D01*
X3473348Y6412636D01*
X3475634Y6394653D01*
X3479800Y6377025D01*
X3485743Y6359906D01*
X3494227Y6342176D01*
X3495649Y6337960D01*
X3495090Y6333540D01*
X3492703Y6329781D01*
X3418890Y6255867D01*
X3413302Y6248450D01*
X3409289Y6240475D01*
X3406851Y6231890D01*
X3405987Y6222542D01*
X3405987Y6125311D01*
X3405225Y6121450D01*
X3403041Y6118148D01*
X3399790Y6115913D01*
X3395929Y6115151D01*
X3392068Y6115862D01*
X3388715Y6117996D01*
X3380028Y6126530D01*
X3365804Y6137757D01*
X3350514Y6147460D01*
X3334359Y6155588D01*
X3317392Y6161938D01*
X3299866Y6166561D01*
X3281984Y6169355D01*
X3263900Y6170269D01*
X3245815Y6169355D01*
X3227933Y6166561D01*
X3210407Y6161938D01*
X3193440Y6155588D01*
X3177286Y6147460D01*
X3161995Y6137757D01*
X3147771Y6126530D01*
X3134817Y6113881D01*
X3127095Y6104585D01*
X3123844Y6102045D01*
X3119882Y6100978D01*
X3115818Y6101537D01*
X3112312Y6103721D01*
X3109925Y6107074D01*
X3109112Y6111087D01*
X3109112Y6198768D01*
X3109874Y6202629D01*
X3112058Y6205931D01*
X3173171Y6267145D01*
X3176524Y6269380D01*
X3180537Y6270091D01*
X3184448Y6269228D01*
X3201873Y6261608D01*
X3219094Y6256121D01*
X3236823Y6252413D01*
X3254857Y6250533D01*
X3272942Y6250533D01*
X3290976Y6252413D01*
X3308705Y6256121D01*
X3325926Y6261608D01*
X3342538Y6268872D01*
X3358286Y6277762D01*
X3373069Y6288278D01*
X3386683Y6300216D01*
X3398977Y6313525D01*
X3409848Y6328003D01*
X3419144Y6343548D01*
X3426815Y6359906D01*
X3432810Y6377025D01*
X3436924Y6394653D01*
X3439261Y6412636D01*
X3439718Y6430721D01*
X3438347Y6448755D01*
X3435096Y6466586D01*
X3430015Y6483959D01*
X3423208Y6500774D01*
X3414674Y6516725D01*
X3404565Y6531762D01*
X3392982Y6545681D01*
X3380028Y6558330D01*
X3365804Y6569557D01*
X3350514Y6579260D01*
X3334359Y6587388D01*
X3317392Y6593738D01*
X3299866Y6598361D01*
X3281984Y6601155D01*
X3263900Y6602069D01*
X3245815Y6601155D01*
X3227933Y6598361D01*
X3210407Y6593738D01*
X3193440Y6587388D01*
X3177286Y6579260D01*
X3161995Y6569557D01*
X3147771Y6558330D01*
X3134817Y6545681D01*
X3123234Y6531762D01*
X3113125Y6516725D01*
X3104591Y6500774D01*
X3097784Y6483959D01*
X3092704Y6466586D01*
X3089452Y6448755D01*
X3088081Y6430721D01*
X3088538Y6412636D01*
X3090875Y6394653D01*
X3094990Y6377025D01*
X3100984Y6359906D01*
X3106928Y6347256D01*
X3107842Y6343243D01*
X3107131Y6339179D01*
X3104896Y6335776D01*
X3025190Y6255867D01*
X3019602Y6248450D01*
X3015589Y6240475D01*
X3013151Y6231890D01*
X3012287Y6222542D01*
X3012287Y6123025D01*
X3011525Y6119164D01*
X3009341Y6115913D01*
X3006090Y6113678D01*
X3002229Y6112865D01*
X2998368Y6113627D01*
X2995015Y6115761D01*
X2983992Y6126530D01*
X2969818Y6137757D01*
X2954528Y6147460D01*
X2938322Y6155588D01*
X2921355Y6161938D01*
X2903880Y6166561D01*
X2885998Y6169355D01*
X2867863Y6170269D01*
X2849778Y6169355D01*
X2831896Y6166561D01*
X2814421Y6161938D01*
X2797454Y6155588D01*
X2781249Y6147460D01*
X2765958Y6137757D01*
X2751785Y6126530D01*
X2738780Y6113881D01*
X2733395Y6107379D01*
X2730144Y6104788D01*
X2726182Y6103721D01*
X2722118Y6104331D01*
X2718612Y6106464D01*
X2716225Y6109868D01*
X2715412Y6113881D01*
X2715412Y6198717D01*
X2716174Y6202629D01*
X2718409Y6205931D01*
X2778810Y6266383D01*
X2782163Y6268618D01*
X2786126Y6269329D01*
X2790088Y6268516D01*
X2805836Y6261608D01*
X2823108Y6256121D01*
X2840837Y6252413D01*
X2858820Y6250533D01*
X2876956Y6250533D01*
X2894939Y6252413D01*
X2912668Y6256121D01*
X2929940Y6261608D01*
X2946552Y6268872D01*
X2962300Y6277762D01*
X2977032Y6288278D01*
X2990646Y6300216D01*
X3002940Y6313525D01*
X3013811Y6328003D01*
X3023158Y6343548D01*
X3030829Y6359906D01*
X3036773Y6377025D01*
X3040938Y6394653D01*
X3043275Y6412636D01*
X3043732Y6430721D01*
X3042310Y6448755D01*
X3039059Y6466586D01*
X3034030Y6483959D01*
X3027172Y6500774D01*
X3018688Y6516725D01*
X3008579Y6531762D01*
X2996996Y6545681D01*
X2983992Y6558330D01*
X2969818Y6569557D01*
X2954528Y6579260D01*
X2938322Y6587388D01*
X2921355Y6593738D01*
X2903880Y6598361D01*
X2885998Y6601155D01*
X2867863Y6602069D01*
X2849778Y6601155D01*
X2831896Y6598361D01*
X2814421Y6593738D01*
X2797454Y6587388D01*
X2781249Y6579260D01*
X2765958Y6569557D01*
X2751785Y6558330D01*
X2738780Y6545681D01*
X2727198Y6531762D01*
X2717088Y6516725D01*
X2708605Y6500774D01*
X2701747Y6483959D01*
X2696718Y6466586D01*
X2693466Y6448755D01*
X2692044Y6430721D01*
X2692501Y6412636D01*
X2694838Y6394653D01*
X2699004Y6377025D01*
X2704947Y6359906D01*
X2711653Y6345580D01*
X2712618Y6341618D01*
X2711907Y6337554D01*
X2709621Y6334099D01*
X2631490Y6255867D01*
X2625902Y6248450D01*
X2621889Y6240475D01*
X2619451Y6231890D01*
X2618587Y6222542D01*
X2618587Y6120790D01*
X2617825Y6116929D01*
X2615641Y6113678D01*
X2612390Y6111443D01*
X2608529Y6110630D01*
X2604668Y6111392D01*
X2601315Y6113526D01*
X2588006Y6126530D01*
X2573832Y6137757D01*
X2558542Y6147460D01*
X2542336Y6155588D01*
X2525369Y6161938D01*
X2507894Y6166561D01*
X2490012Y6169355D01*
X2471928Y6170269D01*
X2453792Y6169355D01*
X2435910Y6166561D01*
X2418435Y6161938D01*
X2401468Y6155588D01*
X2385263Y6147460D01*
X2369972Y6137757D01*
X2355799Y6126530D01*
X2342794Y6113881D01*
X2331212Y6099962D01*
X2327605Y6094577D01*
X2324506Y6091631D01*
X2320493Y6090208D01*
X2316226Y6090564D01*
X2312466Y6092647D01*
X2309926Y6096101D01*
X2309012Y6100267D01*
X2309012Y6186017D01*
X2309774Y6189929D01*
X2312009Y6193231D01*
X2384450Y6265672D01*
X2387803Y6267907D01*
X2391765Y6268669D01*
X2395677Y6267805D01*
X2409850Y6261608D01*
X2427122Y6256121D01*
X2444851Y6252413D01*
X2462834Y6250533D01*
X2480970Y6250533D01*
X2498953Y6252413D01*
X2516682Y6256121D01*
X2533954Y6261608D01*
X2550566Y6268872D01*
X2566314Y6277762D01*
X2581046Y6288278D01*
X2594660Y6300216D01*
X2606954Y6313525D01*
X2617825Y6328003D01*
X2627172Y6343548D01*
X2634843Y6359906D01*
X2640787Y6377025D01*
X2644952Y6394653D01*
X2647289Y6412636D01*
X2647746Y6430721D01*
X2646324Y6448755D01*
X2643073Y6466586D01*
X2638044Y6483959D01*
X2631186Y6500774D01*
X2622702Y6516725D01*
X2612593Y6531762D01*
X2601010Y6545681D01*
X2588006Y6558330D01*
X2573832Y6569557D01*
X2558542Y6579260D01*
X2542336Y6587388D01*
X2525369Y6593738D01*
X2507894Y6598361D01*
X2490012Y6601155D01*
X2471928Y6602069D01*
X2453792Y6601155D01*
X2435910Y6598361D01*
X2418435Y6593738D01*
X2401468Y6587388D01*
X2385263Y6579260D01*
X2369972Y6569557D01*
X2355799Y6558330D01*
X2342794Y6545681D01*
X2331212Y6531762D01*
X2321102Y6516725D01*
X2312619Y6500774D01*
X2305761Y6483959D01*
X2300732Y6466586D01*
X2297480Y6448755D01*
X2296058Y6430721D01*
X2296515Y6412636D01*
X2298852Y6394653D01*
X2303018Y6377025D01*
X2308961Y6359906D01*
X2316429Y6344056D01*
X2317343Y6340043D01*
X2316632Y6335979D01*
X2314397Y6332524D01*
X2225090Y6243167D01*
X2219502Y6235750D01*
X2215489Y6227775D01*
X2213051Y6219190D01*
X2212187Y6209842D01*
X2212187Y6116624D01*
X2211374Y6112611D01*
X2208987Y6109208D01*
X2205482Y6107074D01*
X2201418Y6106464D01*
X2197455Y6107531D01*
X2194204Y6110122D01*
X2191105Y6113881D01*
X2178100Y6126530D01*
X2163927Y6137757D01*
X2148636Y6147460D01*
X2143353Y6150102D01*
X2143353Y6075730D01*
X2202027Y6075730D01*
X2205939Y6074968D01*
X2209190Y6072784D01*
X2211425Y6069482D01*
X2212187Y6065570D01*
X2212187Y5923229D01*
X2211425Y5919317D01*
X2209190Y5916015D01*
X2205939Y5913831D01*
X2202027Y5913069D01*
X2194204Y5913069D01*
X2190597Y5913729D01*
X2187498Y5915609D01*
X2185212Y5918504D01*
X2184146Y5922010D01*
X2184349Y5925667D01*
X2185822Y5931509D01*
X2187651Y5946597D01*
X2187651Y5961837D01*
X2185822Y5976924D01*
X2182215Y5991656D01*
X2176830Y6005880D01*
X2169769Y6019342D01*
X2161133Y6031890D01*
X2151075Y6043269D01*
X2139696Y6053328D01*
X2134057Y6057239D01*
X2131212Y6060287D01*
X2127199Y6061964D01*
X2113737Y6069076D01*
X2099513Y6074460D01*
X2084781Y6078118D01*
X2069642Y6079947D01*
X2054453Y6079947D01*
X2039366Y6078118D01*
X2024634Y6074511D01*
X2010410Y6069126D01*
X1996592Y6061811D01*
X1992782Y6060287D01*
X1989937Y6057239D01*
X1984400Y6053429D01*
X1972818Y6043168D01*
X1968754Y6039104D01*
X1958492Y6027521D01*
X1949805Y6015024D01*
X1942744Y6001562D01*
X1937359Y5987338D01*
X1933702Y5972606D01*
X1931873Y5957519D01*
X1931873Y5942279D01*
X1934311Y5921959D01*
X1933193Y5918504D01*
X1930958Y5915609D01*
X1927809Y5913729D01*
X1924202Y5913069D01*
X1906117Y5913069D01*
X1906727Y5911748D01*
X1916074Y5896203D01*
X1926945Y5881725D01*
X1939239Y5868416D01*
X1952853Y5856478D01*
X1967585Y5845962D01*
X1982622Y5837478D01*
X1985213Y5839968D01*
X1988515Y5841339D01*
X1992122Y5841542D01*
X1995525Y5840425D01*
X2003602Y5836208D01*
X2006498Y5833922D01*
X2008378Y5830824D01*
X2009038Y5827217D01*
X2009038Y4593742D01*
X2008276Y4589881D01*
X2006041Y4586579D01*
X2002789Y4584395D01*
X1998878Y4583582D01*
X1968804Y4583582D01*
X1953310Y4582668D01*
X1938375Y4579924D01*
X1923846Y4575403D01*
X1909978Y4569155D01*
X1896973Y4561281D01*
X1885035Y4551934D01*
X1874266Y4541164D01*
X1864918Y4529226D01*
X1857044Y4516221D01*
X1850796Y4502353D01*
X1846275Y4487824D01*
X1843532Y4472889D01*
X1842617Y4457700D01*
X1843532Y4442510D01*
X1846275Y4427575D01*
X1850796Y4413046D01*
X1857044Y4399178D01*
X1864918Y4386173D01*
X1874266Y4374235D01*
X1885035Y4363466D01*
X1896973Y4354118D01*
X1909978Y4346244D01*
X1923846Y4339996D01*
X1938375Y4335475D01*
X1953310Y4332732D01*
X1968804Y4331766D01*
X1998878Y4331766D01*
X2002789Y4331004D01*
X2006041Y4328820D01*
X2008276Y4325518D01*
X2009038Y4321606D01*
X2009038Y4079748D01*
X2008276Y4075836D01*
X2006041Y4072534D01*
X2002789Y4070350D01*
X1998878Y4069587D01*
X1938020Y4069587D01*
X1931720Y4068876D01*
X1926234Y4066946D01*
X1921357Y4063898D01*
X1917242Y4059783D01*
X1914143Y4054906D01*
X1912264Y4049420D01*
X1910994Y4044086D01*
X1908708Y4041190D01*
X1905558Y4039260D01*
X1901952Y4038600D01*
X1831949Y4038600D01*
X1828342Y4039260D01*
X1825193Y4041190D01*
X1822907Y4044086D01*
X1821637Y4049420D01*
X1819757Y4054906D01*
X1816658Y4059783D01*
X1812543Y4063898D01*
X1807667Y4066946D01*
X1802180Y4068876D01*
X1795881Y4069587D01*
X1722272Y4069587D01*
X1718360Y4070350D01*
X1715109Y4072534D01*
X1712874Y4075836D01*
X1712112Y4079748D01*
X1712061Y5486247D01*
X1710791Y5495442D01*
X1707946Y5503926D01*
X1703578Y5511698D01*
X1697583Y5518912D01*
X1524609Y5691936D01*
X1522374Y5695238D01*
X1521612Y5699150D01*
X1521612Y5865825D01*
X1522425Y5869787D01*
X1524660Y5873140D01*
X1528064Y5875324D01*
X1532026Y5875985D01*
X1535938Y5875121D01*
X1539240Y5872734D01*
X1543202Y5868416D01*
X1556816Y5856478D01*
X1571599Y5845962D01*
X1587347Y5837072D01*
X1603959Y5829808D01*
X1621180Y5824321D01*
X1638909Y5820613D01*
X1656943Y5818733D01*
X1675028Y5818733D01*
X1693062Y5820613D01*
X1710791Y5824321D01*
X1728012Y5829808D01*
X1744624Y5837072D01*
X1760372Y5845962D01*
X1775155Y5856478D01*
X1788769Y5868416D01*
X1801063Y5881725D01*
X1811934Y5896203D01*
X1821230Y5911748D01*
X1828901Y5928156D01*
X1834896Y5945225D01*
X1839010Y5962853D01*
X1841347Y5980836D01*
X1841804Y5998921D01*
X1840433Y6017006D01*
X1837182Y6034786D01*
X1832102Y6052210D01*
X1825294Y6068974D01*
X1816760Y6084925D01*
X1806651Y6099962D01*
X1795068Y6113881D01*
X1782114Y6126530D01*
X1767890Y6137757D01*
X1752600Y6147460D01*
X1736445Y6155588D01*
X1719478Y6161938D01*
X1701952Y6166561D01*
X1684070Y6169355D01*
X1665986Y6170269D01*
X1647901Y6169355D01*
X1630019Y6166561D01*
X1612493Y6161938D01*
X1595526Y6155588D01*
X1579372Y6147460D01*
X1564081Y6137757D01*
X1549857Y6126530D01*
X1538884Y6115812D01*
X1535531Y6113627D01*
X1531670Y6112916D01*
X1527810Y6113729D01*
X1524558Y6115913D01*
X1522374Y6119215D01*
X1521612Y6123076D01*
X1521612Y6198616D01*
X1522374Y6202476D01*
X1524558Y6205778D01*
X1582369Y6263944D01*
X1585722Y6266180D01*
X1589684Y6266942D01*
X1593646Y6266078D01*
X1603959Y6261608D01*
X1621180Y6256121D01*
X1638909Y6252413D01*
X1656943Y6250533D01*
X1675028Y6250533D01*
X1693062Y6252413D01*
X1710791Y6256121D01*
X1728012Y6261608D01*
X1744624Y6268872D01*
X1760372Y6277762D01*
X1775155Y6288278D01*
X1788769Y6300216D01*
X1801063Y6313525D01*
X1811934Y6328003D01*
X1821230Y6343548D01*
X1828901Y6359906D01*
X1834896Y6377025D01*
X1839010Y6394653D01*
X1841347Y6412636D01*
X1841804Y6430721D01*
X1840433Y6448755D01*
X1837182Y6466586D01*
X1832102Y6483959D01*
X1825294Y6500774D01*
X1816760Y6516725D01*
X1806651Y6531762D01*
X1795068Y6545681D01*
X1782114Y6558330D01*
X1767890Y6569557D01*
X1752600Y6579260D01*
X1736445Y6587388D01*
X1719478Y6593738D01*
X1701952Y6598361D01*
X1684070Y6601155D01*
X1665986Y6602069D01*
X1647901Y6601155D01*
X1630019Y6598361D01*
X1612493Y6593738D01*
X1595526Y6587388D01*
X1579372Y6579260D01*
X1564081Y6569557D01*
X1549857Y6558330D01*
X1536903Y6545681D01*
X1525320Y6531762D01*
X1515211Y6516725D01*
X1506677Y6500774D01*
X1499870Y6483959D01*
X1494790Y6466586D01*
X1491538Y6448755D01*
X1490167Y6430721D01*
X1490624Y6412636D01*
X1492961Y6394653D01*
X1497076Y6377025D01*
X1503070Y6359906D01*
X1510741Y6343548D01*
X1512011Y6341364D01*
X1513433Y6337147D01*
X1512874Y6332728D01*
X1510538Y6328968D01*
X1437690Y6255613D01*
X1432102Y6248196D01*
X1428089Y6240221D01*
X1425651Y6231636D01*
X1424787Y6222288D01*
X1424787Y6111087D01*
X1423974Y6107074D01*
X1421587Y6103721D01*
X1418082Y6101537D01*
X1414018Y6100978D01*
X1410055Y6102045D01*
X1406804Y6104585D01*
X1399082Y6113881D01*
X1386128Y6126530D01*
X1371904Y6137757D01*
X1356614Y6147460D01*
X1340459Y6155588D01*
X1323492Y6161938D01*
X1305966Y6166561D01*
X1288084Y6169355D01*
X1270000Y6170269D01*
X1251915Y6169355D01*
X1234033Y6166561D01*
X1216507Y6161938D01*
X1208125Y6158788D01*
X1204264Y6158128D01*
X1200454Y6158992D01*
X1197203Y6161278D01*
X1195120Y6164529D01*
X1194358Y6168390D01*
X1195171Y6172250D01*
X1197356Y6175502D01*
X1269441Y6247536D01*
X1272692Y6249771D01*
X1276604Y6250533D01*
X1279042Y6250533D01*
X1297076Y6252413D01*
X1314805Y6256121D01*
X1332026Y6261608D01*
X1348638Y6268872D01*
X1364386Y6277762D01*
X1379169Y6288278D01*
X1392783Y6300216D01*
X1405077Y6313525D01*
X1415948Y6328003D01*
X1425244Y6343548D01*
X1432915Y6359906D01*
X1438910Y6377025D01*
X1443024Y6394653D01*
X1445361Y6412636D01*
X1445818Y6430721D01*
X1444447Y6448755D01*
X1441196Y6466586D01*
X1436116Y6483959D01*
X1429308Y6500774D01*
X1420774Y6516725D01*
X1410665Y6531762D01*
X1399082Y6545681D01*
X1386128Y6558330D01*
X1371904Y6569557D01*
X1356614Y6579260D01*
X1340459Y6587388D01*
X1323492Y6593738D01*
X1305966Y6598361D01*
X1288084Y6601155D01*
X1270000Y6602069D01*
X1251915Y6601155D01*
X1234033Y6598361D01*
X1216507Y6593738D01*
X1199540Y6587388D01*
X1183386Y6579260D01*
X1168095Y6569557D01*
X1153871Y6558330D01*
X1140917Y6545681D01*
X1129334Y6531762D01*
X1119225Y6516725D01*
X1110691Y6500774D01*
X1103884Y6483959D01*
X1098804Y6466586D01*
X1095552Y6448755D01*
X1094282Y6431991D01*
X1093368Y6428536D01*
X1091336Y6425590D01*
X889000Y6223254D01*
X883666Y6217564D01*
X878789Y6211722D01*
X874268Y6205626D01*
X870153Y6199225D01*
X866394Y6192621D01*
X863092Y6185763D01*
X860196Y6178753D01*
X857707Y6171539D01*
X855675Y6164224D01*
X854049Y6156807D01*
X852932Y6149289D01*
X852220Y6141720D01*
X851966Y6133947D01*
X851966Y5763920D01*
X852220Y5756148D01*
X852932Y5748578D01*
X854049Y5741060D01*
X855675Y5733643D01*
X857707Y5726328D01*
X860196Y5719114D01*
X863092Y5712104D01*
X866394Y5705246D01*
X870153Y5698642D01*
X874268Y5692241D01*
X878789Y5686145D01*
X883666Y5680303D01*
X889000Y5674614D01*
X1128420Y5435193D01*
X1130604Y5431891D01*
X1131366Y5428030D01*
X1131366Y4065168D01*
X1131011Y4062374D01*
X1129842Y4059783D01*
X1126744Y4054906D01*
X1124864Y4049420D01*
X1123594Y4044086D01*
X1121308Y4041190D01*
X1118158Y4039260D01*
X1114552Y4038600D01*
G37*

%LPC*%
G36*
X2143353Y6507530D02*
G01*
X2217674Y6507530D01*
X2212797Y6516725D01*
X2202688Y6531762D01*
X2191105Y6545681D01*
X2178100Y6558330D01*
X2163927Y6569557D01*
X2148636Y6579260D01*
X2143353Y6581902D01*
G37*
G36*
X1906320Y6507530D02*
G01*
X1980641Y6507530D01*
X1980641Y6581902D01*
X1975357Y6579260D01*
X1960067Y6569557D01*
X1945893Y6558330D01*
X1932889Y6545681D01*
X1921306Y6531762D01*
X1911197Y6516725D01*
G37*
G36*
X2143353Y6270396D02*
G01*
X2156409Y6277762D01*
X2171141Y6288278D01*
X2184755Y6300216D01*
X2197049Y6313525D01*
X2207920Y6328003D01*
X2217877Y6344818D01*
X2143353Y6344818D01*
G37*
G36*
X1980641Y6270396D02*
G01*
X1980641Y6344818D01*
X1906117Y6344818D01*
X1916074Y6328003D01*
X1926945Y6313525D01*
X1939239Y6300216D01*
X1952853Y6288278D01*
X1967585Y6277762D01*
G37*
G36*
X1906320Y6075730D02*
G01*
X1980641Y6075730D01*
X1980641Y6150102D01*
X1975357Y6147460D01*
X1960067Y6137757D01*
X1945893Y6126530D01*
X1932889Y6113881D01*
X1921306Y6099962D01*
X1911197Y6084925D01*
G37*

%LPD*%
G36*
X2057450Y4673600D02*
G01*
X2057450Y4292600D01*
X2070150Y4279900D01*
X2336800Y4279900D01*
X2298700Y4318000D01*
X2298700Y4572000D01*
G37*
D10*
X2061997Y5954293D02*
G01*
X2057450Y5949746D01*
X2057450Y3568674D01*
X2061997Y6426200D02*
G01*
X2061997Y5994400D01*
D11*
X2061997Y5954293D02*
G01*
X2057450Y5949746D01*
X2057450Y3568674D01*
D10*
X1968500Y4457700D02*
G01*
X2057443Y4457700D01*
X2057450Y4457705D01*
X1257300Y3556000D02*
G01*
X1257300Y5484266D01*
D11*
X4038600Y3568700D02*
G01*
X4038600Y5496966D01*
X4235450Y4903901D02*
G01*
X4432300Y4903901D01*
X4432300Y3568700D02*
G01*
X4432300Y5496966D01*
X3851275Y4903901D02*
G01*
X4038600Y4903901D01*
X3467100Y4903901D02*
G01*
X3657600Y4903901D01*
D10*
X2057524Y5949825D02*
G01*
X2061994Y5954290D01*
D11*
X2857500Y3568700D02*
G01*
X2857500Y5496966D01*
X3251200Y3568700D02*
G01*
X3251200Y5496966D01*
X4826000Y3556000D02*
G01*
X4826000Y5484266D01*
X5232400Y3568700D02*
G01*
X5232400Y5496966D01*
X5626100Y3556000D02*
G01*
X5626100Y5484266D01*
X6019800Y3556000D02*
G01*
X6019800Y5484266D01*
X6426200Y3556000D02*
G01*
X6426200Y5484266D01*
X6807200Y3556000D02*
G01*
X6807200Y5484266D01*
X7213600Y3568700D02*
G01*
X7213600Y5496966D01*
X7607300Y3568700D02*
G01*
X7607300Y5496966D01*
X8001000Y3556000D02*
G01*
X8001000Y5484266D01*
X8407400Y3556000D02*
G01*
X8407400Y5484266D01*
X1246634Y6477025D02*
G01*
X1295400Y6477025D01*
X9194800Y3569766D02*
G01*
X9194800Y5498033D01*
D12*
X9588500Y3594100D02*
G01*
X9588500Y5522366D01*
D11*
X2463800Y3556000D02*
G01*
X2463800Y5484266D01*
D10*
X1460500Y4457700D02*
G01*
X1257300Y4457700D01*
D11*
X1663700Y3556000D02*
G01*
X1663700Y5484266D01*
X3657600Y3556000D02*
G01*
X3657600Y5484266D01*
X9194800Y5498084D02*
G01*
X9004300Y5700268D01*
X9004300Y6235700D01*
X9196831Y6428231D01*
X9196831Y6489700D01*
X8801100Y5484368D02*
G01*
X8610600Y5686552D01*
X8610600Y6235700D01*
X8803131Y6428231D01*
X8803131Y6475984D01*
D12*
X9588500Y5522468D02*
G01*
X9398000Y5724652D01*
X9398000Y6235700D01*
X9590531Y6428231D01*
X9590531Y6514084D01*
D11*
X8407400Y5484368D02*
G01*
X8204200Y5687568D01*
X8204200Y6210300D01*
X8409431Y6415786D01*
X8409431Y6475984D01*
X8001000Y5484368D02*
G01*
X7810500Y5686552D01*
X7810500Y6235700D01*
X8003031Y6428231D01*
X8003031Y6475984D01*
X7607300Y5497068D02*
G01*
X7416800Y5687568D01*
X7416800Y6235700D01*
X7609331Y6428486D01*
X7609331Y6488684D01*
X7213600Y5497068D02*
G01*
X7023100Y5687568D01*
X7023100Y6223000D01*
X7215631Y6415786D01*
X7215631Y6488684D01*
X6807200Y5484368D02*
G01*
X6616700Y5686552D01*
X6616700Y6223000D01*
X6809231Y6415531D01*
X6809231Y6475984D01*
X6426200Y5484368D02*
G01*
X6223000Y5687568D01*
X6223000Y6210300D01*
X6428231Y6415786D01*
X6428231Y6475984D01*
X6019800Y5484368D02*
G01*
X5829300Y5686552D01*
X5829300Y6223000D01*
X6021831Y6415531D01*
X6021831Y6475984D01*
X5626100Y5484368D02*
G01*
X5435600Y5686552D01*
X5435600Y6223000D01*
X5628131Y6415531D01*
X5628131Y6475984D01*
X5232400Y5497068D02*
G01*
X5041900Y5687568D01*
X5041900Y6223000D01*
X5234431Y6415786D01*
X5234431Y6488684D01*
X4826000Y5484368D02*
G01*
X4635500Y5686552D01*
X4635500Y6223000D01*
X4828031Y6415531D01*
X4828031Y6475984D01*
X4432300Y5497068D02*
G01*
X4241800Y5699252D01*
X4241800Y6235700D01*
X4434331Y6428231D01*
X4434331Y6488684D01*
X4038600Y5497068D02*
G01*
X3848100Y5699252D01*
X3848100Y6235700D01*
X4040631Y6428231D01*
X4040631Y6488684D01*
X3657600Y5484368D02*
G01*
X3454400Y5687568D01*
X3454400Y6223000D01*
X3659631Y6428231D01*
X3659631Y6475984D01*
X3251200Y5497068D02*
G01*
X3060700Y5687568D01*
X3060700Y6223000D01*
X3253231Y6415786D01*
X3253231Y6488684D01*
X2857500Y5497068D02*
G01*
X2667000Y5699252D01*
X2667000Y6223000D01*
X2859531Y6415531D01*
X2859531Y6488684D01*
X2463800Y5484368D02*
G01*
X2260600Y5687568D01*
X2260600Y6210300D01*
X2465831Y6415531D01*
X2465831Y6475984D01*
D10*
X1257300Y5484368D02*
G01*
X977900Y5763768D01*
X977900Y6134100D01*
X1270000Y6426200D01*
D11*
X1663700Y5484368D02*
G01*
X1473200Y5674868D01*
X1473200Y6222745D01*
X1666240Y6417055D01*
X1665986Y6464300D01*
X8801100Y3556000D02*
G01*
X8801100Y5484266D01*
D13*
G01*
X8000923Y3568674D03*
G01*
X7604937Y3568674D03*
G01*
X8397163Y3568674D03*
D14*
G01*
X7209078Y3568674D03*
D13*
G01*
X6813219Y3568674D03*
G01*
X6417233Y3568674D03*
G01*
X6020993Y3568674D03*
G01*
X5625007Y3568674D03*
G01*
X5229021Y3568674D03*
G01*
X4833035Y3568674D03*
G01*
X3645077Y3568674D03*
G01*
X3249091Y3568674D03*
G01*
X4437049Y3568674D03*
D14*
G01*
X4040936Y3568674D03*
D13*
G01*
X2853105Y3568674D03*
G01*
X8793149Y3568674D03*
G01*
X9585121Y3568674D03*
G01*
X9189135Y3568674D03*
G01*
X2463850Y3568674D03*
G01*
X2057450Y3568674D03*
G01*
X1676450Y3568674D03*
G01*
X1270050Y3568674D03*
D15*
G01*
X3467100Y4722698D03*
G01*
X3467100Y4192701D03*
G01*
X4235450Y5433898D03*
G01*
X4235450Y4903901D03*
G01*
X3851275Y5433898D03*
G01*
X3851275Y4903901D03*
G01*
X3467100Y5433898D03*
G01*
X3467100Y4903901D03*
G01*
X4235450Y4722698D03*
G01*
X4235450Y4192701D03*
G01*
X3851275Y4722698D03*
G01*
X3851275Y4192701D03*
D16*
G01*
X1968500Y4457700D03*
G01*
X1460500Y4457700D03*
D17*
G01*
X1270000Y5994400D03*
G01*
X1665986Y5994400D03*
G01*
X2061997Y5994400D03*
G01*
X3263900Y5994400D03*
G01*
X2867888Y5994400D03*
G01*
X2471902Y5994400D03*
G01*
X4838700Y5994400D03*
G01*
X5234686Y5994400D03*
G01*
X5630697Y5994400D03*
G01*
X4440707Y5994400D03*
G01*
X4044695Y5994400D03*
G01*
X3657600Y5994400D03*
G01*
X8408695Y5994400D03*
G01*
X8804681Y5994400D03*
G01*
X9200692Y5994400D03*
G01*
X9598685Y5994400D03*
G01*
X7216698Y5994400D03*
G01*
X7612684Y5994400D03*
G01*
X8008696Y5994400D03*
G01*
X6818706Y5994400D03*
G01*
X6422694Y5994400D03*
G01*
X6026708Y5994400D03*
G01*
X6026708Y6426200D03*
G01*
X6422694Y6426200D03*
G01*
X6818706Y6426200D03*
G01*
X8008696Y6426200D03*
G01*
X7612684Y6426200D03*
G01*
X7216698Y6426200D03*
G01*
X9598685Y6426200D03*
G01*
X9200692Y6426200D03*
G01*
X8804681Y6426200D03*
G01*
X8408695Y6426200D03*
G01*
X3648709Y6426200D03*
G01*
X4044695Y6426200D03*
G01*
X4440707Y6426200D03*
G01*
X5630697Y6426200D03*
G01*
X5234686Y6426200D03*
G01*
X4838700Y6426200D03*
G01*
X2471902Y6426200D03*
G01*
X2867888Y6426200D03*
G01*
X3263900Y6426200D03*
G01*
X2061997Y6426200D03*
G01*
X1665986Y6426200D03*
G01*
X1270000Y6426200D03*
D18*
G01*
X3060700Y4343400D03*
G01*
X2679700Y4343400D03*
G01*
X2222500Y4343400D03*
G01*
X1016000Y4343400D03*
G01*
X3467100Y4343400D03*
G01*
X3851275Y4343400D03*
G01*
X4235450Y4343400D03*
G01*
X4648200Y4343400D03*
G01*
X5041900Y4343400D03*
G01*
X5435600Y4343400D03*
G01*
X5816600Y4343400D03*
G01*
X6223000Y4343400D03*
G01*
X6629400Y4343400D03*
G01*
X7023100Y4343400D03*
G01*
X7416800Y4343400D03*
G01*
X7823200Y4343400D03*
G01*
X8216900Y4343400D03*
G01*
X8610600Y4343400D03*
G01*
X9004300Y4343400D03*
G01*
X9410700Y4343400D03*
G01*
X9867900Y4343400D03*
G01*
X1473200Y4724400D03*
M02*
