M48
; DRILL file {KiCad (6.0.1)} date Sun Oct 16 14:21:32 2022
; FORMAT={-:-/ absolute / metric / decimal}
; #@! TF.CreationDate,2022-10-16T14:21:32-07:00
; #@! TF.GenerationSoftware,Kicad,Pcbnew,(6.0.1)
; #@! TF.FileFunction,Plated,1,2,PTH
FMAT,2
METRIC
; #@! TA.AperFunction,Plated,PTH,ViaDrill
T1C0.400
; #@! TA.AperFunction,Plated,PTH,ComponentDrill
T2C0.800
; #@! TA.AperFunction,Plated,PTH,ViaDrill
T3C0.889
; #@! TA.AperFunction,Plated,PTH,ComponentDrill
T4C1.016
; #@! TA.AperFunction,Plated,PTH,ComponentDrill
T5C1.499
%
G90
G05
T1
X202.64Y-94.794
T2
X140.335Y-75.565
X140.335Y-90.805
X142.875Y-75.565
X142.875Y-90.805
X145.415Y-75.565
X145.415Y-90.805
X147.955Y-75.565
X147.955Y-90.805
X150.495Y-75.565
X150.495Y-90.805
X153.035Y-75.565
X153.035Y-90.805
X155.575Y-75.565
X155.575Y-90.805
X158.115Y-75.565
X158.115Y-90.805
X160.655Y-75.565
X160.655Y-90.805
X163.195Y-75.565
X163.195Y-90.805
X165.735Y-75.565
X165.735Y-90.805
X168.275Y-75.565
X168.275Y-90.805
X170.815Y-75.565
X170.815Y-90.805
X173.355Y-75.565
X173.355Y-90.805
X175.895Y-75.565
X175.895Y-90.805
X178.435Y-75.565
X178.435Y-90.805
X180.975Y-75.565
X180.975Y-90.805
X183.515Y-75.565
X183.515Y-90.805
X186.055Y-75.565
X186.055Y-90.805
X188.595Y-75.565
X188.595Y-90.805
X202.692Y-67.183
X202.692Y-72.263
X214.005Y-83.175
X214.005Y-90.795
X216.545Y-83.175
X216.545Y-90.795
X219.085Y-83.175
X219.085Y-90.795
X221.625Y-83.175
X221.625Y-90.795
X233.045Y-84.582
X233.045Y-89.662
X239.405Y-83.175
X239.405Y-90.795
X241.945Y-83.175
X241.945Y-90.795
X244.485Y-83.175
X244.485Y-90.795
X247.025Y-83.175
X247.025Y-90.795
X257.81Y-84.582
X257.81Y-89.662
T3
X56.515Y-83.693
X56.515Y-85.598
X57.912Y-87.376
X59.055Y-90.678
X64.77Y-76.708
X65.532Y-107.188
X67.564Y-74.676
X68.072Y-113.284
X68.072Y-148.336
X68.58Y-145.288
X70.612Y-117.348
X71.12Y-72.898
X73.152Y-114.808
X74.168Y-71.12
X77.724Y-69.088
X80.772Y-67.564
X83.82Y-67.564
X84.455Y-130.175
X87.884Y-140.716
X88.9Y-101.092
X91.186Y-73.787
X93.091Y-71.247
X93.98Y-115.824
X95.504Y-187.706
X96.52Y-75.184
X96.52Y-101.092
X97.536Y-176.276
X99.568Y-74.168
X99.568Y-101.6
X102.616Y-132.08
X102.87Y-72.898
X103.124Y-128.016
X106.045Y-71.501
X106.68Y-121.412
X108.204Y-146.304
X109.22Y-71.12
X111.76Y-113.792
X112.776Y-110.236
X114.3Y-139.192
X116.332Y-165.608
X120.396Y-102.108
X121.412Y-125.476
X124.46Y-120.904
X129.032Y-72.136
X130.556Y-119.38
X131.572Y-72.644
X133.35Y-73.66
X138.43Y-72.263
X140.716Y-70.739
X141.732Y-66.548
X143.256Y-69.977
X144.78Y-68.453
X149.86Y-102.616
X149.86Y-111.76
X153.924Y-172.593
X154.432Y-186.944
X154.94Y-178.435
X157.607Y-79.375
X160.02Y-79.756
X162.56Y-121.412
X165.735Y-81.915
X166.37Y-72.263
X168.275Y-82.55
X169.545Y-78.74
X170.18Y-84.455
X176.276Y-143.764
X181.864Y-121.412
X182.88Y-157.48
X192.024Y-141.224
X196.088Y-66.548
X196.088Y-69.088
X196.088Y-71.12
X197.104Y-179.324
X206.375Y-81.915
X209.55Y-121.285
X231.14Y-163.068
X234.696Y-139.192
X248.412Y-120.396
X265.684Y-73.787
X265.938Y-68.326
X267.462Y-66.675
X268.224Y-139.192
X270.383Y-66.421
X273.685Y-139.065
X274.066Y-77.851
X277.622Y-78.105
X280.924Y-77.978
X290.703Y-78.74
X298.516Y-79.568
X301.752Y-82.677
X323.215Y-171.069
X326.136Y-173.355
X327.025Y-83.058
X332.105Y-82.55
X332.867Y-85.852
X334.264Y-90.424
X335.026Y-85.217
X335.534Y-93.853
X337.566Y-92.075
X339.725Y-90.043
X341.122Y-88.519
X342.646Y-85.598
X343.916Y-83.947
X344.932Y-82.042
X346.456Y-80.01
T4
X195.58Y-88.265
X195.58Y-92.075
X208.28Y-88.265
X208.28Y-92.075
X226.695Y-78.105
X226.695Y-90.805
X229.235Y-78.105
X229.235Y-90.805
X252.095Y-78.105
X252.095Y-90.805
X254.635Y-78.105
X254.635Y-90.805
T5
X69.85Y-130.81
X74.93Y-149.86
X76.2Y-128.27
X80.01Y-111.76
X81.28Y-147.32
X81.28Y-168.91
X86.36Y-109.22
X87.63Y-166.37
X88.9Y-130.81
X93.98Y-149.86
X95.25Y-128.27
X99.06Y-111.76
X100.33Y-147.32
X100.33Y-168.91
X100.33Y-187.96
X105.41Y-109.22
X106.68Y-166.37
X106.68Y-185.42
X107.95Y-130.81
X113.03Y-149.86
X114.3Y-128.27
X118.11Y-111.76
X119.38Y-147.32
X119.38Y-168.91
X124.46Y-109.22
X125.73Y-166.37
X127.0Y-130.81
X132.08Y-149.86
X133.35Y-128.27
X137.16Y-111.76
X138.43Y-147.32
X138.43Y-168.91
X143.51Y-109.22
X144.78Y-166.37
X146.05Y-130.81
X151.13Y-149.86
X152.4Y-128.27
X156.21Y-111.76
X157.48Y-147.32
X157.48Y-168.91
X162.56Y-109.22
X163.83Y-166.37
X165.1Y-130.81
X170.18Y-149.86
X171.45Y-128.27
X175.26Y-111.76
X176.53Y-147.32
X176.53Y-168.91
X181.61Y-109.22
X182.88Y-166.37
X184.15Y-130.81
X186.055Y-187.96
X189.23Y-149.86
X190.5Y-128.27
X192.405Y-185.42
X194.31Y-111.76
X195.58Y-147.32
X195.58Y-168.91
X200.66Y-109.22
X201.93Y-166.37
X203.2Y-130.81
X208.28Y-149.86
X209.55Y-128.27
X213.36Y-111.76
X214.63Y-147.32
X214.63Y-168.91
X219.71Y-109.22
X220.98Y-166.37
X222.25Y-130.81
X227.33Y-149.86
X228.6Y-128.27
X232.41Y-111.76
X233.68Y-147.32
X233.68Y-168.91
X238.76Y-109.22
X240.03Y-166.37
X241.3Y-130.81
X246.38Y-149.86
X247.65Y-128.27
X251.46Y-111.76
X252.73Y-147.32
X252.73Y-168.91
X257.81Y-109.22
X259.08Y-166.37
X260.35Y-130.81
X265.43Y-149.86
X266.7Y-128.27
X270.51Y-111.76
X271.78Y-147.32
X271.78Y-168.91
X271.78Y-187.96
X276.86Y-109.22
X278.13Y-166.37
X278.13Y-185.42
X279.4Y-130.81
X284.48Y-149.86
X285.75Y-128.27
X289.56Y-111.76
X290.83Y-147.32
X290.83Y-168.91
X295.91Y-109.22
X297.18Y-166.37
X298.458Y-130.832
X303.53Y-149.86
X304.808Y-128.292
X308.61Y-111.76
X309.88Y-147.32
X314.96Y-109.22
X317.5Y-130.81
X322.58Y-149.86
X323.85Y-128.27
X328.93Y-147.32
T0
M30
