M48
; DRILL file {KiCad (6.0.1)} date Sun Oct 16 14:21:32 2022
; FORMAT={-:-/ absolute / metric / decimal}
; #@! TF.CreationDate,2022-10-16T14:21:32-07:00
; #@! TF.GenerationSoftware,Kicad,Pcbnew,(6.0.1)
; #@! TF.FileFunction,NonPlated,1,2,NPTH
FMAT,2
METRIC
; #@! TA.AperFunction,NonPlated,NPTH,ComponentDrill
T1C0.762
; #@! TA.AperFunction,NonPlated,NPTH,ComponentDrill
T2C1.702
; #@! TA.AperFunction,NonPlated,NPTH,ComponentDrill
T3C1.905
; #@! TA.AperFunction,NonPlated,NPTH,ComponentDrill
T4C3.048
; #@! TA.AperFunction,NonPlated,NPTH,ComponentDrill
T5C3.988
%
G90
G05
T1
X61.468Y-90.678
X61.595Y-79.248
X61.595Y-83.058
X61.595Y-86.868
X64.77Y-79.248
X64.77Y-83.058
X64.77Y-86.868
X64.77Y-90.678
X67.945Y-79.248
X67.945Y-83.058
X67.945Y-86.868
X67.945Y-90.678
X71.12Y-79.248
X71.12Y-83.058
X71.12Y-86.868
X71.12Y-90.678
X74.168Y-86.868
X74.168Y-90.678
X74.295Y-79.248
X74.295Y-83.058
X77.47Y-79.248
X77.47Y-83.058
X77.47Y-86.868
X77.47Y-90.678
X80.645Y-79.248
X80.645Y-83.058
X80.645Y-86.868
X80.645Y-90.678
X83.82Y-79.248
X83.82Y-83.058
X83.82Y-86.868
X83.82Y-90.678
X86.995Y-79.248
X86.995Y-83.058
X86.995Y-86.868
X86.995Y-90.678
X90.17Y-79.248
X90.17Y-83.058
X90.17Y-86.868
X90.17Y-90.678
X96.52Y-77.343
X96.52Y-81.153
X96.52Y-84.963
X96.52Y-88.773
X99.695Y-77.343
X99.695Y-81.153
X99.695Y-84.963
X99.695Y-88.773
X102.87Y-77.343
X102.87Y-81.153
X102.87Y-84.963
X102.87Y-88.773
X106.045Y-77.343
X106.045Y-81.153
X106.045Y-84.963
X106.045Y-88.773
X109.22Y-77.343
X109.22Y-81.153
X109.22Y-84.963
X109.22Y-88.773
X112.395Y-77.343
X112.395Y-81.153
X112.395Y-84.963
X112.395Y-88.773
X115.57Y-77.343
X115.57Y-81.153
X115.57Y-84.963
X115.57Y-88.773
X118.745Y-77.343
X118.745Y-81.153
X118.745Y-84.963
X118.745Y-88.773
X121.92Y-77.343
X121.92Y-81.153
X121.92Y-84.963
X121.92Y-88.773
T2
X68.58Y-133.35
X73.66Y-152.4
X78.74Y-114.3
X78.74Y-133.35
X80.01Y-171.45
X83.82Y-152.4
X87.63Y-133.35
X88.9Y-114.3
X90.17Y-171.45
X92.71Y-152.4
X97.79Y-114.3
X97.79Y-133.35
X99.06Y-171.45
X99.06Y-190.5
X102.87Y-152.4
X106.68Y-133.35
X107.95Y-114.3
X109.22Y-171.45
X109.22Y-190.5
X111.76Y-152.4
X116.84Y-114.3
X116.84Y-133.35
X118.11Y-171.45
X121.92Y-152.4
X125.73Y-133.35
X127.0Y-114.3
X128.27Y-171.45
X130.81Y-152.4
X135.89Y-114.3
X135.89Y-133.35
X137.16Y-171.45
X140.97Y-152.4
X144.78Y-133.35
X146.05Y-114.3
X147.32Y-171.45
X149.86Y-152.4
X154.94Y-114.3
X154.94Y-133.35
X156.21Y-171.45
X160.02Y-152.4
X163.83Y-133.35
X165.1Y-114.3
X166.37Y-171.45
X168.91Y-152.4
X173.99Y-114.3
X173.99Y-133.35
X175.26Y-171.45
X179.07Y-152.4
X182.88Y-133.35
X184.15Y-114.3
X184.785Y-190.5
X185.42Y-171.45
X187.96Y-152.4
X193.04Y-114.3
X193.04Y-133.35
X194.31Y-171.45
X194.945Y-190.5
X198.12Y-152.4
X201.93Y-133.35
X203.2Y-114.3
X204.47Y-171.45
X207.01Y-152.4
X212.09Y-114.3
X212.09Y-133.35
X213.36Y-171.45
X217.17Y-152.4
X220.98Y-133.35
X222.25Y-114.3
X223.52Y-171.45
X226.06Y-152.4
X231.14Y-114.3
X231.14Y-133.35
X232.41Y-171.45
X236.22Y-152.4
X240.03Y-133.35
X241.3Y-114.3
X242.57Y-171.45
X245.11Y-152.4
X250.19Y-114.3
X250.19Y-133.35
X251.46Y-171.45
X255.27Y-152.4
X259.08Y-133.35
X260.35Y-114.3
X261.62Y-171.45
X264.16Y-152.4
X269.24Y-114.3
X269.24Y-133.35
X270.51Y-171.45
X270.51Y-190.5
X274.32Y-152.4
X278.13Y-133.35
X279.4Y-114.3
X280.67Y-171.45
X280.67Y-190.5
X283.21Y-152.4
X288.29Y-114.3
X288.29Y-133.35
X289.56Y-171.45
X293.37Y-152.4
X297.188Y-133.372
X298.45Y-114.3
X299.72Y-171.45
X302.26Y-152.4
X307.34Y-114.3
X307.348Y-133.372
X312.42Y-152.4
X316.23Y-133.35
X317.5Y-114.3
X321.31Y-152.4
X326.39Y-133.35
X331.47Y-152.4
T3
X53.594Y-149.098
X54.229Y-110.998
X54.229Y-187.198
X54.229Y-199.898
X54.356Y-98.171
X79.629Y-98.298
X79.629Y-199.898
X127.254Y-98.298
X127.254Y-199.898
X175.641Y-98.298
X175.641Y-199.898
X224.917Y-98.298
X224.917Y-199.898
X273.304Y-98.298
X273.304Y-199.898
X320.929Y-98.298
X320.929Y-199.898
X346.329Y-98.298
X346.329Y-110.998
X346.329Y-149.098
X346.329Y-187.198
X346.329Y-200.025
T4
X123.19Y-183.515
X132.715Y-183.515
X139.827Y-183.515
X149.733Y-183.515
X229.997Y-183.515
X239.903Y-183.515
X247.015Y-183.515
X256.54Y-183.515
T5
X73.66Y-133.35
X78.74Y-152.4
X83.82Y-114.3
X85.09Y-171.45
X92.71Y-133.35
X97.79Y-152.4
X102.87Y-114.3
X104.14Y-171.45
X104.14Y-190.5
X111.76Y-133.35
X116.84Y-152.4
X121.92Y-114.3
X123.19Y-171.45
X123.19Y-198.755
X130.81Y-133.35
X132.715Y-198.755
X135.89Y-152.4
X139.827Y-198.755
X140.97Y-114.3
X142.24Y-171.45
X149.733Y-198.755
X149.86Y-133.35
X154.94Y-152.4
X160.02Y-114.3
X161.29Y-171.45
X168.91Y-133.35
X173.99Y-152.4
X179.07Y-114.3
X180.34Y-171.45
X187.96Y-133.35
X189.865Y-190.5
X193.04Y-152.4
X198.12Y-114.3
X199.39Y-171.45
X207.01Y-133.35
X212.09Y-152.4
X217.17Y-114.3
X218.44Y-171.45
X226.06Y-133.35
X229.997Y-198.755
X231.14Y-152.4
X236.22Y-114.3
X237.49Y-171.45
X239.903Y-198.755
X245.11Y-133.35
X247.015Y-198.755
X250.19Y-152.4
X255.27Y-114.3
X256.54Y-171.45
X256.54Y-198.755
X264.16Y-133.35
X269.24Y-152.4
X274.32Y-114.3
X275.59Y-171.45
X275.59Y-190.5
X283.21Y-133.35
X288.29Y-152.4
X293.37Y-114.3
X294.64Y-171.45
X302.268Y-133.372
X307.34Y-152.4
X312.42Y-114.3
X321.31Y-133.35
X326.39Y-152.4
T0
M30
