%TF.GenerationSoftware,KiCad,Pcbnew,(6.0.1)*%
%TF.CreationDate,2022-10-16T14:21:24-07:00*%
%TF.ProjectId,Apple1Keyb,4170706c-6531-44b6-9579-622e6b696361,rev?*%
%TF.SameCoordinates,Original*%
%TF.FileFunction,Other,Comment*%
%FSLAX46Y46*%
G04 Gerber Fmt 4.6, Leading zero omitted, Abs format (unit mm)*
G04 Created by KiCad (PCBNEW (6.0.1)) date 2022-10-16 14:21:24*
%MOMM*%
%LPD*%
G01*
G04 APERTURE LIST*
%ADD10C,0.150000*%
G04 APERTURE END LIST*
D10*
X93980000Y-76200000D02*
X124460000Y-76200000D01*
X124460000Y-76200000D02*
X124460000Y-91440000D01*
X124460000Y-91440000D02*
X93980000Y-91440000D01*
X93980000Y-91440000D02*
X93980000Y-76200000D01*
X88900000Y-39370000D02*
X110490000Y-76200000D01*
X59690000Y-77470000D02*
X92710000Y-77470000D01*
X92710000Y-77470000D02*
X92710000Y-92710000D01*
X92710000Y-92710000D02*
X59690000Y-92710000D01*
X59690000Y-92710000D02*
X59690000Y-77470000D01*
X76200000Y-77470000D02*
X88900000Y-39370000D01*
X60614285Y-34854761D02*
X60614285Y-32854761D01*
X61757142Y-34854761D01*
X61757142Y-32854761D01*
X63090476Y-32854761D02*
X63471428Y-32854761D01*
X63661904Y-32950000D01*
X63852380Y-33140476D01*
X63947619Y-33521428D01*
X63947619Y-34188095D01*
X63852380Y-34569047D01*
X63661904Y-34759523D01*
X63471428Y-34854761D01*
X63090476Y-34854761D01*
X62900000Y-34759523D01*
X62709523Y-34569047D01*
X62614285Y-34188095D01*
X62614285Y-33521428D01*
X62709523Y-33140476D01*
X62900000Y-32950000D01*
X63090476Y-32854761D01*
X64804761Y-34854761D02*
X64804761Y-32854761D01*
X65947619Y-34854761D01*
X65947619Y-32854761D01*
X66900000Y-34092857D02*
X68423809Y-34092857D01*
X69376190Y-34854761D02*
X69376190Y-32854761D01*
X70138095Y-32854761D01*
X70328571Y-32950000D01*
X70423809Y-33045238D01*
X70519047Y-33235714D01*
X70519047Y-33521428D01*
X70423809Y-33711904D01*
X70328571Y-33807142D01*
X70138095Y-33902380D01*
X69376190Y-33902380D01*
X72328571Y-34854761D02*
X71376190Y-34854761D01*
X71376190Y-32854761D01*
X72900000Y-34283333D02*
X73852380Y-34283333D01*
X72709523Y-34854761D02*
X73376190Y-32854761D01*
X74042857Y-34854761D01*
X74423809Y-32854761D02*
X75566666Y-32854761D01*
X74995238Y-34854761D02*
X74995238Y-32854761D01*
X76233333Y-33807142D02*
X76900000Y-33807142D01*
X77185714Y-34854761D02*
X76233333Y-34854761D01*
X76233333Y-32854761D01*
X77185714Y-32854761D01*
X78042857Y-34854761D02*
X78042857Y-32854761D01*
X78519047Y-32854761D01*
X78804761Y-32950000D01*
X78995238Y-33140476D01*
X79090476Y-33330952D01*
X79185714Y-33711904D01*
X79185714Y-33997619D01*
X79090476Y-34378571D01*
X78995238Y-34569047D01*
X78804761Y-34759523D01*
X78519047Y-34854761D01*
X78042857Y-34854761D01*
X81280952Y-32854761D02*
X82423809Y-32854761D01*
X81852380Y-34854761D02*
X81852380Y-32854761D01*
X83090476Y-34854761D02*
X83090476Y-32854761D01*
X83090476Y-33807142D02*
X84233333Y-33807142D01*
X84233333Y-34854761D02*
X84233333Y-32854761D01*
X86328571Y-34854761D02*
X85661904Y-33902380D01*
X85185714Y-34854761D02*
X85185714Y-32854761D01*
X85947619Y-32854761D01*
X86138095Y-32950000D01*
X86233333Y-33045238D01*
X86328571Y-33235714D01*
X86328571Y-33521428D01*
X86233333Y-33711904D01*
X86138095Y-33807142D01*
X85947619Y-33902380D01*
X85185714Y-33902380D01*
X87566666Y-32854761D02*
X87947619Y-32854761D01*
X88138095Y-32950000D01*
X88328571Y-33140476D01*
X88423809Y-33521428D01*
X88423809Y-34188095D01*
X88328571Y-34569047D01*
X88138095Y-34759523D01*
X87947619Y-34854761D01*
X87566666Y-34854761D01*
X87376190Y-34759523D01*
X87185714Y-34569047D01*
X87090476Y-34188095D01*
X87090476Y-33521428D01*
X87185714Y-33140476D01*
X87376190Y-32950000D01*
X87566666Y-32854761D01*
X89280952Y-32854761D02*
X89280952Y-34473809D01*
X89376190Y-34664285D01*
X89471428Y-34759523D01*
X89661904Y-34854761D01*
X90042857Y-34854761D01*
X90233333Y-34759523D01*
X90328571Y-34664285D01*
X90423809Y-34473809D01*
X90423809Y-32854761D01*
X92423809Y-32950000D02*
X92233333Y-32854761D01*
X91947619Y-32854761D01*
X91661904Y-32950000D01*
X91471428Y-33140476D01*
X91376190Y-33330952D01*
X91280952Y-33711904D01*
X91280952Y-33997619D01*
X91376190Y-34378571D01*
X91471428Y-34569047D01*
X91661904Y-34759523D01*
X91947619Y-34854761D01*
X92138095Y-34854761D01*
X92423809Y-34759523D01*
X92519047Y-34664285D01*
X92519047Y-33997619D01*
X92138095Y-33997619D01*
X93376190Y-34854761D02*
X93376190Y-32854761D01*
X93376190Y-33807142D02*
X94519047Y-33807142D01*
X94519047Y-34854761D02*
X94519047Y-32854761D01*
X96995238Y-34854761D02*
X96995238Y-32854761D01*
X96995238Y-33807142D02*
X98138095Y-33807142D01*
X98138095Y-34854761D02*
X98138095Y-32854761D01*
X99471428Y-32854761D02*
X99852380Y-32854761D01*
X100042857Y-32950000D01*
X100233333Y-33140476D01*
X100328571Y-33521428D01*
X100328571Y-34188095D01*
X100233333Y-34569047D01*
X100042857Y-34759523D01*
X99852380Y-34854761D01*
X99471428Y-34854761D01*
X99280952Y-34759523D01*
X99090476Y-34569047D01*
X98995238Y-34188095D01*
X98995238Y-33521428D01*
X99090476Y-33140476D01*
X99280952Y-32950000D01*
X99471428Y-32854761D01*
X102138095Y-34854761D02*
X101185714Y-34854761D01*
X101185714Y-32854761D01*
X102804761Y-33807142D02*
X103471428Y-33807142D01*
X103757142Y-34854761D02*
X102804761Y-34854761D01*
X102804761Y-32854761D01*
X103757142Y-32854761D01*
X104519047Y-34759523D02*
X104804761Y-34854761D01*
X105280952Y-34854761D01*
X105471428Y-34759523D01*
X105566666Y-34664285D01*
X105661904Y-34473809D01*
X105661904Y-34283333D01*
X105566666Y-34092857D01*
X105471428Y-33997619D01*
X105280952Y-33902380D01*
X104900000Y-33807142D01*
X104709523Y-33711904D01*
X104614285Y-33616666D01*
X104519047Y-33426190D01*
X104519047Y-33235714D01*
X104614285Y-33045238D01*
X104709523Y-32950000D01*
X104900000Y-32854761D01*
X105376190Y-32854761D01*
X105661904Y-32950000D01*
X108614285Y-35616666D02*
X108519047Y-35521428D01*
X108328571Y-35235714D01*
X108233333Y-35045238D01*
X108138095Y-34759523D01*
X108042857Y-34283333D01*
X108042857Y-33902380D01*
X108138095Y-33426190D01*
X108233333Y-33140476D01*
X108328571Y-32950000D01*
X108519047Y-32664285D01*
X108614285Y-32569047D01*
X109185714Y-32854761D02*
X110519047Y-32854761D01*
X109661904Y-34854761D01*
X112138095Y-32854761D02*
X111757142Y-32854761D01*
X111566666Y-32950000D01*
X111471428Y-33045238D01*
X111280952Y-33330952D01*
X111185714Y-33711904D01*
X111185714Y-34473809D01*
X111280952Y-34664285D01*
X111376190Y-34759523D01*
X111566666Y-34854761D01*
X111947619Y-34854761D01*
X112138095Y-34759523D01*
X112233333Y-34664285D01*
X112328571Y-34473809D01*
X112328571Y-33997619D01*
X112233333Y-33807142D01*
X112138095Y-33711904D01*
X111947619Y-33616666D01*
X111566666Y-33616666D01*
X111376190Y-33711904D01*
X111280952Y-33807142D01*
X111185714Y-33997619D01*
X113185714Y-34854761D02*
X113185714Y-32854761D01*
X113947619Y-32854761D01*
X114138095Y-32950000D01*
X114233333Y-33045238D01*
X114328571Y-33235714D01*
X114328571Y-33521428D01*
X114233333Y-33711904D01*
X114138095Y-33807142D01*
X113947619Y-33902380D01*
X113185714Y-33902380D01*
X116138095Y-34854761D02*
X115185714Y-34854761D01*
X115185714Y-32854761D01*
X116614285Y-35616666D02*
X116709523Y-35521428D01*
X116900000Y-35235714D01*
X116995238Y-35045238D01*
X117090476Y-34759523D01*
X117185714Y-34283333D01*
X117185714Y-33902380D01*
X117090476Y-33426190D01*
X116995238Y-33140476D01*
X116900000Y-32950000D01*
X116709523Y-32664285D01*
X116614285Y-32569047D01*
X54614285Y-38836666D02*
X54519047Y-38741428D01*
X54328571Y-38455714D01*
X54233333Y-38265238D01*
X54138095Y-37979523D01*
X54042857Y-37503333D01*
X54042857Y-37122380D01*
X54138095Y-36646190D01*
X54233333Y-36360476D01*
X54328571Y-36170000D01*
X54519047Y-35884285D01*
X54614285Y-35789047D01*
X55376190Y-38074761D02*
X55376190Y-36074761D01*
X55852380Y-36074761D01*
X56138095Y-36170000D01*
X56328571Y-36360476D01*
X56423809Y-36550952D01*
X56519047Y-36931904D01*
X56519047Y-37217619D01*
X56423809Y-37598571D01*
X56328571Y-37789047D01*
X56138095Y-37979523D01*
X55852380Y-38074761D01*
X55376190Y-38074761D01*
X57757142Y-36074761D02*
X58138095Y-36074761D01*
X58328571Y-36170000D01*
X58519047Y-36360476D01*
X58614285Y-36741428D01*
X58614285Y-37408095D01*
X58519047Y-37789047D01*
X58328571Y-37979523D01*
X58138095Y-38074761D01*
X57757142Y-38074761D01*
X57566666Y-37979523D01*
X57376190Y-37789047D01*
X57280952Y-37408095D01*
X57280952Y-36741428D01*
X57376190Y-36360476D01*
X57566666Y-36170000D01*
X57757142Y-36074761D01*
X60995238Y-38074761D02*
X60995238Y-36074761D01*
X62138095Y-38074761D01*
X62138095Y-36074761D01*
X63471428Y-36074761D02*
X63852380Y-36074761D01*
X64042857Y-36170000D01*
X64233333Y-36360476D01*
X64328571Y-36741428D01*
X64328571Y-37408095D01*
X64233333Y-37789047D01*
X64042857Y-37979523D01*
X63852380Y-38074761D01*
X63471428Y-38074761D01*
X63280952Y-37979523D01*
X63090476Y-37789047D01*
X62995238Y-37408095D01*
X62995238Y-36741428D01*
X63090476Y-36360476D01*
X63280952Y-36170000D01*
X63471428Y-36074761D01*
X64899999Y-36074761D02*
X66042857Y-36074761D01*
X65471428Y-38074761D02*
X65471428Y-36074761D01*
X68233333Y-38074761D02*
X68233333Y-36074761D01*
X68995238Y-36074761D01*
X69185714Y-36170000D01*
X69280952Y-36265238D01*
X69376190Y-36455714D01*
X69376190Y-36741428D01*
X69280952Y-36931904D01*
X69185714Y-37027142D01*
X68995238Y-37122380D01*
X68233333Y-37122380D01*
X71185714Y-38074761D02*
X70233333Y-38074761D01*
X70233333Y-36074761D01*
X71757142Y-37503333D02*
X72709523Y-37503333D01*
X71566666Y-38074761D02*
X72233333Y-36074761D01*
X72899999Y-38074761D01*
X73280952Y-36074761D02*
X74423809Y-36074761D01*
X73852380Y-38074761D02*
X73852380Y-36074761D01*
X75090476Y-37027142D02*
X75757142Y-37027142D01*
X76042857Y-38074761D02*
X75090476Y-38074761D01*
X75090476Y-36074761D01*
X76042857Y-36074761D01*
X76899999Y-37884285D02*
X76995238Y-37979523D01*
X76899999Y-38074761D01*
X76804761Y-37979523D01*
X76899999Y-37884285D01*
X76899999Y-38074761D01*
X79376190Y-38074761D02*
X79376190Y-36074761D01*
X80519047Y-38074761D01*
X80519047Y-36074761D01*
X81852380Y-36074761D02*
X82233333Y-36074761D01*
X82423809Y-36170000D01*
X82614285Y-36360476D01*
X82709523Y-36741428D01*
X82709523Y-37408095D01*
X82614285Y-37789047D01*
X82423809Y-37979523D01*
X82233333Y-38074761D01*
X81852380Y-38074761D01*
X81661904Y-37979523D01*
X81471428Y-37789047D01*
X81376190Y-37408095D01*
X81376190Y-36741428D01*
X81471428Y-36360476D01*
X81661904Y-36170000D01*
X81852380Y-36074761D01*
X85090476Y-37027142D02*
X85757142Y-37027142D01*
X86042857Y-38074761D02*
X85090476Y-38074761D01*
X85090476Y-36074761D01*
X86042857Y-36074761D01*
X87852380Y-38074761D02*
X86899999Y-38074761D01*
X86899999Y-36074761D01*
X88519047Y-37027142D02*
X89185714Y-37027142D01*
X89471428Y-38074761D02*
X88519047Y-38074761D01*
X88519047Y-36074761D01*
X89471428Y-36074761D01*
X91471428Y-37884285D02*
X91376190Y-37979523D01*
X91090476Y-38074761D01*
X90899999Y-38074761D01*
X90614285Y-37979523D01*
X90423809Y-37789047D01*
X90328571Y-37598571D01*
X90233333Y-37217619D01*
X90233333Y-36931904D01*
X90328571Y-36550952D01*
X90423809Y-36360476D01*
X90614285Y-36170000D01*
X90899999Y-36074761D01*
X91090476Y-36074761D01*
X91376190Y-36170000D01*
X91471428Y-36265238D01*
X92042857Y-36074761D02*
X93185714Y-36074761D01*
X92614285Y-38074761D02*
X92614285Y-36074761D01*
X94995238Y-38074761D02*
X94328571Y-37122380D01*
X93852380Y-38074761D02*
X93852380Y-36074761D01*
X94614285Y-36074761D01*
X94804761Y-36170000D01*
X94899999Y-36265238D01*
X94995238Y-36455714D01*
X94995238Y-36741428D01*
X94899999Y-36931904D01*
X94804761Y-37027142D01*
X94614285Y-37122380D01*
X93852380Y-37122380D01*
X95852380Y-38074761D02*
X95852380Y-36074761D01*
X97947619Y-37884285D02*
X97852380Y-37979523D01*
X97566666Y-38074761D01*
X97376190Y-38074761D01*
X97090476Y-37979523D01*
X96899999Y-37789047D01*
X96804761Y-37598571D01*
X96709523Y-37217619D01*
X96709523Y-36931904D01*
X96804761Y-36550952D01*
X96899999Y-36360476D01*
X97090476Y-36170000D01*
X97376190Y-36074761D01*
X97566666Y-36074761D01*
X97852380Y-36170000D01*
X97947619Y-36265238D01*
X98709523Y-37503333D02*
X99661904Y-37503333D01*
X98519047Y-38074761D02*
X99185714Y-36074761D01*
X99852380Y-38074761D01*
X101471428Y-38074761D02*
X100519047Y-38074761D01*
X100519047Y-36074761D01*
X104804761Y-37884285D02*
X104709523Y-37979523D01*
X104423809Y-38074761D01*
X104233333Y-38074761D01*
X103947619Y-37979523D01*
X103757142Y-37789047D01*
X103661904Y-37598571D01*
X103566666Y-37217619D01*
X103566666Y-36931904D01*
X103661904Y-36550952D01*
X103757142Y-36360476D01*
X103947619Y-36170000D01*
X104233333Y-36074761D01*
X104423809Y-36074761D01*
X104709523Y-36170000D01*
X104804761Y-36265238D01*
X106042857Y-36074761D02*
X106423809Y-36074761D01*
X106614285Y-36170000D01*
X106804761Y-36360476D01*
X106899999Y-36741428D01*
X106899999Y-37408095D01*
X106804761Y-37789047D01*
X106614285Y-37979523D01*
X106423809Y-38074761D01*
X106042857Y-38074761D01*
X105852380Y-37979523D01*
X105661904Y-37789047D01*
X105566666Y-37408095D01*
X105566666Y-36741428D01*
X105661904Y-36360476D01*
X105852380Y-36170000D01*
X106042857Y-36074761D01*
X107757142Y-38074761D02*
X107757142Y-36074761D01*
X108899999Y-38074761D01*
X108899999Y-36074761D01*
X109852380Y-38074761D02*
X109852380Y-36074761D01*
X110995238Y-38074761D01*
X110995238Y-36074761D01*
X111947619Y-37027142D02*
X112614285Y-37027142D01*
X112899999Y-38074761D02*
X111947619Y-38074761D01*
X111947619Y-36074761D01*
X112899999Y-36074761D01*
X114899999Y-37884285D02*
X114804761Y-37979523D01*
X114519047Y-38074761D01*
X114328571Y-38074761D01*
X114042857Y-37979523D01*
X113852380Y-37789047D01*
X113757142Y-37598571D01*
X113661904Y-37217619D01*
X113661904Y-36931904D01*
X113757142Y-36550952D01*
X113852380Y-36360476D01*
X114042857Y-36170000D01*
X114328571Y-36074761D01*
X114519047Y-36074761D01*
X114804761Y-36170000D01*
X114899999Y-36265238D01*
X115471428Y-36074761D02*
X116614285Y-36074761D01*
X116042857Y-38074761D02*
X116042857Y-36074761D01*
X117280952Y-38074761D02*
X117280952Y-36074761D01*
X118614285Y-36074761D02*
X118995238Y-36074761D01*
X119185714Y-36170000D01*
X119376190Y-36360476D01*
X119471428Y-36741428D01*
X119471428Y-37408095D01*
X119376190Y-37789047D01*
X119185714Y-37979523D01*
X118995238Y-38074761D01*
X118614285Y-38074761D01*
X118423809Y-37979523D01*
X118233333Y-37789047D01*
X118138095Y-37408095D01*
X118138095Y-36741428D01*
X118233333Y-36360476D01*
X118423809Y-36170000D01*
X118614285Y-36074761D01*
X120328571Y-38074761D02*
X120328571Y-36074761D01*
X121471428Y-38074761D01*
X121471428Y-36074761D01*
X122423809Y-37884285D02*
X122519047Y-37979523D01*
X122423809Y-38074761D01*
X122328571Y-37979523D01*
X122423809Y-37884285D01*
X122423809Y-38074761D01*
X123185714Y-38836666D02*
X123280952Y-38741428D01*
X123471428Y-38455714D01*
X123566666Y-38265238D01*
X123661904Y-37979523D01*
X123757142Y-37503333D01*
X123757142Y-37122380D01*
X123661904Y-36646190D01*
X123566666Y-36360476D01*
X123471428Y-36170000D01*
X123280952Y-35884285D01*
X123185714Y-35789047D01*
X194929761Y-55547620D02*
X194977380Y-55500001D01*
X195072619Y-55452381D01*
X195310714Y-55452381D01*
X195405952Y-55500001D01*
X195453571Y-55547620D01*
X195501190Y-55642858D01*
X195501190Y-55738096D01*
X195453571Y-55880953D01*
X194882142Y-56452381D01*
X195501190Y-56452381D01*
X195977380Y-56452381D02*
X196167857Y-56452381D01*
X196263095Y-56404762D01*
X196310714Y-56357143D01*
X196405952Y-56214286D01*
X196453571Y-56023810D01*
X196453571Y-55642858D01*
X196405952Y-55547620D01*
X196358333Y-55500001D01*
X196263095Y-55452381D01*
X196072619Y-55452381D01*
X195977380Y-55500001D01*
X195929761Y-55547620D01*
X195882142Y-55642858D01*
X195882142Y-55880953D01*
X195929761Y-55976191D01*
X195977380Y-56023810D01*
X196072619Y-56071429D01*
X196263095Y-56071429D01*
X196358333Y-56023810D01*
X196405952Y-55976191D01*
X196453571Y-55880953D01*
X197025000Y-55880953D02*
X196929761Y-55833334D01*
X196882142Y-55785715D01*
X196834523Y-55690477D01*
X196834523Y-55642858D01*
X196882142Y-55547620D01*
X196929761Y-55500001D01*
X197025000Y-55452381D01*
X197215476Y-55452381D01*
X197310714Y-55500001D01*
X197358333Y-55547620D01*
X197405952Y-55642858D01*
X197405952Y-55690477D01*
X197358333Y-55785715D01*
X197310714Y-55833334D01*
X197215476Y-55880953D01*
X197025000Y-55880953D01*
X196929761Y-55928572D01*
X196882142Y-55976191D01*
X196834523Y-56071429D01*
X196834523Y-56261905D01*
X196882142Y-56357143D01*
X196929761Y-56404762D01*
X197025000Y-56452381D01*
X197215476Y-56452381D01*
X197310714Y-56404762D01*
X197358333Y-56357143D01*
X197405952Y-56261905D01*
X197405952Y-56071429D01*
X197358333Y-55976191D01*
X197310714Y-55928572D01*
X197215476Y-55880953D01*
X197834523Y-56357143D02*
X197882142Y-56404762D01*
X197834523Y-56452381D01*
X197786904Y-56404762D01*
X197834523Y-56357143D01*
X197834523Y-56452381D01*
X198739285Y-55785715D02*
X198739285Y-56452381D01*
X198501190Y-55404762D02*
X198263095Y-56119048D01*
X198882142Y-56119048D01*
X199739285Y-55452381D02*
X199263095Y-55452381D01*
X199215476Y-55928572D01*
X199263095Y-55880953D01*
X199358333Y-55833334D01*
X199596428Y-55833334D01*
X199691666Y-55880953D01*
X199739285Y-55928572D01*
X199786904Y-56023810D01*
X199786904Y-56261905D01*
X199739285Y-56357143D01*
X199691666Y-56404762D01*
X199596428Y-56452381D01*
X199358333Y-56452381D01*
X199263095Y-56404762D01*
X199215476Y-56357143D01*
X200405952Y-55452381D02*
X200501190Y-55452381D01*
X200596428Y-55500001D01*
X200644047Y-55547620D01*
X200691666Y-55642858D01*
X200739285Y-55833334D01*
X200739285Y-56071429D01*
X200691666Y-56261905D01*
X200644047Y-56357143D01*
X200596428Y-56404762D01*
X200501190Y-56452381D01*
X200405952Y-56452381D01*
X200310714Y-56404762D01*
X200263095Y-56357143D01*
X200215476Y-56261905D01*
X200167857Y-56071429D01*
X200167857Y-55833334D01*
X200215476Y-55642858D01*
X200263095Y-55547620D01*
X200310714Y-55500001D01*
X200405952Y-55452381D01*
X201358333Y-55452381D02*
X201453571Y-55452381D01*
X201548809Y-55500001D01*
X201596428Y-55547620D01*
X201644047Y-55642858D01*
X201691666Y-55833334D01*
X201691666Y-56071429D01*
X201644047Y-56261905D01*
X201596428Y-56357143D01*
X201548809Y-56404762D01*
X201453571Y-56452381D01*
X201358333Y-56452381D01*
X201263095Y-56404762D01*
X201215476Y-56357143D01*
X201167857Y-56261905D01*
X201120238Y-56071429D01*
X201120238Y-55833334D01*
X201167857Y-55642858D01*
X201215476Y-55547620D01*
X201263095Y-55500001D01*
X201358333Y-55452381D01*
X202882142Y-56452381D02*
X202882142Y-55785715D01*
X202882142Y-55880953D02*
X202929761Y-55833334D01*
X203025000Y-55785715D01*
X203167857Y-55785715D01*
X203263095Y-55833334D01*
X203310714Y-55928572D01*
X203310714Y-56452381D01*
X203310714Y-55928572D02*
X203358333Y-55833334D01*
X203453571Y-55785715D01*
X203596428Y-55785715D01*
X203691666Y-55833334D01*
X203739285Y-55928572D01*
X203739285Y-56452381D01*
X204215476Y-56452381D02*
X204215476Y-55785715D01*
X204215476Y-55880953D02*
X204263095Y-55833334D01*
X204358333Y-55785715D01*
X204501190Y-55785715D01*
X204596428Y-55833334D01*
X204644047Y-55928572D01*
X204644047Y-56452381D01*
X204644047Y-55928572D02*
X204691666Y-55833334D01*
X204786904Y-55785715D01*
X204929761Y-55785715D01*
X205025000Y-55833334D01*
X205072619Y-55928572D01*
X205072619Y-56452381D01*
X349250000Y-63000000D02*
X349250000Y-56563581D01*
X50800000Y-63000000D02*
X50800000Y-56563581D01*
X349250000Y-57150001D02*
X50800000Y-57150001D01*
X349250000Y-57150001D02*
X50800000Y-57150001D01*
X349250000Y-57150001D02*
X348123496Y-56563580D01*
X349250000Y-57150001D02*
X348123496Y-57736422D01*
X50800000Y-57150001D02*
X51926504Y-57736422D01*
X50800000Y-57150001D02*
X51926504Y-56563580D01*
X356172380Y-137873809D02*
X356172380Y-138445238D01*
X356172380Y-138159523D02*
X355172380Y-138159523D01*
X355315238Y-138254761D01*
X355410476Y-138350000D01*
X355458095Y-138445238D01*
X355172380Y-137540476D02*
X355172380Y-136921428D01*
X355553333Y-137254761D01*
X355553333Y-137111904D01*
X355600952Y-137016666D01*
X355648571Y-136969047D01*
X355743809Y-136921428D01*
X355981904Y-136921428D01*
X356077142Y-136969047D01*
X356124761Y-137016666D01*
X356172380Y-137111904D01*
X356172380Y-137397619D01*
X356124761Y-137492857D01*
X356077142Y-137540476D01*
X356172380Y-136445238D02*
X356172380Y-136254761D01*
X356124761Y-136159523D01*
X356077142Y-136111904D01*
X355934285Y-136016666D01*
X355743809Y-135969047D01*
X355362857Y-135969047D01*
X355267619Y-136016666D01*
X355220000Y-136064285D01*
X355172380Y-136159523D01*
X355172380Y-136350000D01*
X355220000Y-136445238D01*
X355267619Y-136492857D01*
X355362857Y-136540476D01*
X355600952Y-136540476D01*
X355696190Y-136492857D01*
X355743809Y-136445238D01*
X355791428Y-136350000D01*
X355791428Y-136159523D01*
X355743809Y-136064285D01*
X355696190Y-136016666D01*
X355600952Y-135969047D01*
X356077142Y-135540476D02*
X356124761Y-135492857D01*
X356172380Y-135540476D01*
X356124761Y-135588095D01*
X356077142Y-135540476D01*
X356172380Y-135540476D01*
X355172380Y-135159523D02*
X355172380Y-134492857D01*
X356172380Y-134921428D01*
X355172380Y-133921428D02*
X355172380Y-133826190D01*
X355220000Y-133730952D01*
X355267619Y-133683333D01*
X355362857Y-133635714D01*
X355553333Y-133588095D01*
X355791428Y-133588095D01*
X355981904Y-133635714D01*
X356077142Y-133683333D01*
X356124761Y-133730952D01*
X356172380Y-133826190D01*
X356172380Y-133921428D01*
X356124761Y-134016666D01*
X356077142Y-134064285D01*
X355981904Y-134111904D01*
X355791428Y-134159523D01*
X355553333Y-134159523D01*
X355362857Y-134111904D01*
X355267619Y-134064285D01*
X355220000Y-134016666D01*
X355172380Y-133921428D01*
X355172380Y-132969047D02*
X355172380Y-132873809D01*
X355220000Y-132778571D01*
X355267619Y-132730952D01*
X355362857Y-132683333D01*
X355553333Y-132635714D01*
X355791428Y-132635714D01*
X355981904Y-132683333D01*
X356077142Y-132730952D01*
X356124761Y-132778571D01*
X356172380Y-132873809D01*
X356172380Y-132969047D01*
X356124761Y-133064285D01*
X356077142Y-133111904D01*
X355981904Y-133159523D01*
X355791428Y-133207142D01*
X355553333Y-133207142D01*
X355362857Y-133159523D01*
X355267619Y-133111904D01*
X355220000Y-133064285D01*
X355172380Y-132969047D01*
X355172380Y-132016666D02*
X355172380Y-131921428D01*
X355220000Y-131826190D01*
X355267619Y-131778571D01*
X355362857Y-131730952D01*
X355553333Y-131683333D01*
X355791428Y-131683333D01*
X355981904Y-131730952D01*
X356077142Y-131778571D01*
X356124761Y-131826190D01*
X356172380Y-131921428D01*
X356172380Y-132016666D01*
X356124761Y-132111904D01*
X356077142Y-132159523D01*
X355981904Y-132207142D01*
X355791428Y-132254761D01*
X355553333Y-132254761D01*
X355362857Y-132207142D01*
X355267619Y-132159523D01*
X355220000Y-132111904D01*
X355172380Y-132016666D01*
X356172380Y-130492857D02*
X355505714Y-130492857D01*
X355600952Y-130492857D02*
X355553333Y-130445238D01*
X355505714Y-130350000D01*
X355505714Y-130207142D01*
X355553333Y-130111904D01*
X355648571Y-130064285D01*
X356172380Y-130064285D01*
X355648571Y-130064285D02*
X355553333Y-130016666D01*
X355505714Y-129921428D01*
X355505714Y-129778571D01*
X355553333Y-129683333D01*
X355648571Y-129635714D01*
X356172380Y-129635714D01*
X356172380Y-129159523D02*
X355505714Y-129159523D01*
X355600952Y-129159523D02*
X355553333Y-129111904D01*
X355505714Y-129016666D01*
X355505714Y-128873809D01*
X355553333Y-128778571D01*
X355648571Y-128730952D01*
X356172380Y-128730952D01*
X355648571Y-128730952D02*
X355553333Y-128683333D01*
X355505714Y-128588095D01*
X355505714Y-128445238D01*
X355553333Y-128350000D01*
X355648571Y-128302380D01*
X356172380Y-128302380D01*
X349750000Y-203200000D02*
X357456420Y-203200000D01*
X349750000Y-63500000D02*
X357456420Y-63500000D01*
X356870000Y-203200000D02*
X356870000Y-63500000D01*
X356870000Y-203200000D02*
X356870000Y-63500000D01*
X356870000Y-203200000D02*
X357456421Y-202073496D01*
X356870000Y-203200000D02*
X356283579Y-202073496D01*
X356870000Y-63500000D02*
X356283579Y-64626504D01*
X356870000Y-63500000D02*
X357456421Y-64626504D01*
M02*
