M48
; DRILL file KiCad 10.0.2 date 2026-08-04T15:36:11
; FORMAT={-:-/ absolute / metric / decimal}
; #@! TF.CreationDate,2026-08-04T15:36:11-04:00
; #@! TF.GenerationSoftware,Kicad,Pcbnew,10.0.2
; #@! TF.FileFunction,Plated,1,2,PTH
FMAT,2
METRIC
; #@! TA.AperFunction,Plated,PTH,ComponentDrill
T1C0.889
%
G90
G05
T1
X77.47Y-53.848
X77.47Y-56.388
X77.47Y-58.928
X77.47Y-61.468
X77.47Y-64.008
X77.47Y-66.548
X77.47Y-69.088
X77.47Y-71.628
X77.47Y-74.168
X77.47Y-76.708
X77.47Y-79.248
X77.47Y-81.788
X77.47Y-84.328
X77.47Y-86.868
X77.47Y-89.408
X77.47Y-91.948
X77.47Y-94.488
X77.47Y-97.028
X77.47Y-99.568
X77.47Y-102.108
X77.47Y-104.648
X77.47Y-107.188
X77.47Y-109.728
X77.47Y-112.268
X77.47Y-114.808
X77.47Y-117.348
X80.01Y-53.848
X80.01Y-56.388
X80.01Y-58.928
X80.01Y-61.468
X80.01Y-64.008
X80.01Y-66.548
X80.01Y-69.088
X80.01Y-71.628
X80.01Y-74.168
X80.01Y-76.708
X80.01Y-79.248
X80.01Y-81.788
X80.01Y-84.328
X80.01Y-86.868
X80.01Y-89.408
X80.01Y-91.948
X80.01Y-94.488
X80.01Y-97.028
X80.01Y-99.568
X80.01Y-102.108
X80.01Y-104.648
X80.01Y-107.188
X80.01Y-109.728
X80.01Y-112.268
X80.01Y-114.808
X80.01Y-117.348
X82.55Y-53.848
X82.55Y-56.388
X82.55Y-58.928
X82.55Y-61.468
X82.55Y-64.008
X82.55Y-66.548
X82.55Y-69.088
X82.55Y-71.628
X82.55Y-74.168
X82.55Y-76.708
X82.55Y-79.248
X82.55Y-81.788
X82.55Y-84.328
X82.55Y-86.868
X82.55Y-89.408
X82.55Y-91.948
X82.55Y-94.488
X82.55Y-97.028
X82.55Y-99.568
X82.55Y-102.108
X82.55Y-104.648
X82.55Y-107.188
X82.55Y-109.728
X82.55Y-112.268
X82.55Y-114.808
X82.55Y-117.348
X85.09Y-53.848
X85.09Y-56.388
X85.09Y-58.928
X85.09Y-61.468
X85.09Y-64.008
X85.09Y-66.548
X85.09Y-69.088
X85.09Y-71.628
X85.09Y-74.168
X85.09Y-76.708
X85.09Y-79.248
X85.09Y-81.788
X85.09Y-84.328
X85.09Y-86.868
X85.09Y-89.408
X85.09Y-91.948
X85.09Y-94.488
X85.09Y-97.028
X85.09Y-99.568
X85.09Y-102.108
X85.09Y-104.648
X85.09Y-107.188
X85.09Y-109.728
X85.09Y-112.268
X85.09Y-114.808
X85.09Y-117.348
X87.63Y-53.848
X87.63Y-56.388
X87.63Y-58.928
X87.63Y-61.468
X87.63Y-64.008
X87.63Y-66.548
X87.63Y-69.088
X87.63Y-71.628
X87.63Y-74.168
X87.63Y-76.708
X87.63Y-79.248
X87.63Y-81.788
X87.63Y-84.328
X87.63Y-86.868
X87.63Y-89.408
X87.63Y-91.948
X87.63Y-94.488
X87.63Y-97.028
X87.63Y-99.568
X87.63Y-102.108
X87.63Y-104.648
X87.63Y-107.188
X87.63Y-109.728
X87.63Y-112.268
X87.63Y-114.808
X87.63Y-117.348
X90.17Y-53.848
X90.17Y-56.388
X90.17Y-58.928
X90.17Y-61.468
X90.17Y-64.008
X90.17Y-66.548
X90.17Y-69.088
X90.17Y-71.628
X90.17Y-74.168
X90.17Y-76.708
X90.17Y-79.248
X90.17Y-81.788
X90.17Y-84.328
X90.17Y-86.868
X90.17Y-89.408
X90.17Y-91.948
X90.17Y-94.488
X90.17Y-97.028
X90.17Y-99.568
X90.17Y-102.108
X90.17Y-104.648
X90.17Y-107.188
X90.17Y-109.728
X90.17Y-112.268
X90.17Y-114.808
X90.17Y-117.348
X92.71Y-53.848
X92.71Y-56.388
X92.71Y-58.928
X92.71Y-61.468
X92.71Y-64.008
X92.71Y-66.548
X92.71Y-69.088
X92.71Y-71.628
X92.71Y-74.168
X92.71Y-76.708
X92.71Y-79.248
X92.71Y-81.788
X92.71Y-84.328
X92.71Y-86.868
X92.71Y-89.408
X92.71Y-91.948
X92.71Y-94.488
X92.71Y-97.028
X92.71Y-99.568
X92.71Y-102.108
X92.71Y-104.648
X92.71Y-107.188
X92.71Y-109.728
X92.71Y-112.268
X92.71Y-114.808
X92.71Y-117.348
X95.123Y-125.857
X95.123Y-128.398
X95.25Y-53.848
X95.25Y-56.388
X95.25Y-58.928
X95.25Y-61.468
X95.25Y-64.008
X95.25Y-66.548
X95.25Y-69.088
X95.25Y-71.628
X95.25Y-74.168
X95.25Y-76.708
X95.25Y-79.248
X95.25Y-81.788
X95.25Y-84.328
X95.25Y-86.868
X95.25Y-89.408
X95.25Y-91.948
X95.25Y-94.488
X95.25Y-97.028
X95.25Y-99.568
X95.25Y-102.108
X95.25Y-104.648
X95.25Y-107.188
X95.25Y-109.728
X95.25Y-112.268
X95.25Y-114.808
X95.25Y-117.348
X97.663Y-125.857
X97.663Y-128.398
X97.79Y-53.848
X97.79Y-56.388
X97.79Y-58.928
X97.79Y-61.468
X97.79Y-64.008
X97.79Y-66.548
X97.79Y-69.088
X97.79Y-71.628
X97.79Y-74.168
X97.79Y-76.708
X97.79Y-79.248
X97.79Y-81.788
X97.79Y-84.328
X97.79Y-86.868
X97.79Y-89.408
X97.79Y-91.948
X97.79Y-94.488
X97.79Y-97.028
X97.79Y-99.568
X97.79Y-102.108
X97.79Y-104.648
X97.79Y-107.188
X97.79Y-109.728
X97.79Y-112.268
X97.79Y-114.808
X97.79Y-117.348
X100.203Y-125.857
X100.203Y-128.398
X100.33Y-53.848
X100.33Y-56.388
X100.33Y-58.928
X100.33Y-61.468
X100.33Y-64.008
X100.33Y-66.548
X100.33Y-69.088
X100.33Y-71.628
X100.33Y-74.168
X100.33Y-76.708
X100.33Y-79.248
X100.33Y-81.788
X100.33Y-84.328
X100.33Y-86.868
X100.33Y-89.408
X100.33Y-91.948
X100.33Y-94.488
X100.33Y-97.028
X100.33Y-99.568
X100.33Y-102.108
X100.33Y-104.648
X100.33Y-107.188
X100.33Y-109.728
X100.33Y-112.268
X100.33Y-114.808
X100.33Y-117.348
X102.743Y-125.857
X102.743Y-128.398
X102.87Y-53.848
X102.87Y-56.388
X102.87Y-58.928
X102.87Y-61.468
X102.87Y-64.008
X102.87Y-66.548
X102.87Y-69.088
X102.87Y-71.628
X102.87Y-74.168
X102.87Y-76.708
X102.87Y-79.248
X102.87Y-81.788
X102.87Y-84.328
X102.87Y-86.868
X102.87Y-89.408
X102.87Y-91.948
X102.87Y-94.488
X102.87Y-97.028
X102.87Y-99.568
X102.87Y-102.108
X102.87Y-104.648
X102.87Y-107.188
X102.87Y-109.728
X102.87Y-112.268
X102.87Y-114.808
X102.87Y-117.348
X105.283Y-125.857
X105.283Y-128.398
X105.41Y-53.848
X105.41Y-56.388
X105.41Y-58.928
X105.41Y-61.468
X105.41Y-64.008
X105.41Y-66.548
X105.41Y-69.088
X105.41Y-71.628
X105.41Y-74.168
X105.41Y-76.708
X105.41Y-79.248
X105.41Y-81.788
X105.41Y-84.328
X105.41Y-86.868
X105.41Y-89.408
X105.41Y-91.948
X105.41Y-94.488
X105.41Y-97.028
X105.41Y-99.568
X105.41Y-102.108
X105.41Y-104.648
X105.41Y-107.188
X105.41Y-109.728
X105.41Y-112.268
X105.41Y-114.808
X105.41Y-117.348
X107.823Y-125.857
X107.823Y-128.398
X107.95Y-53.848
X107.95Y-56.388
X107.95Y-58.928
X107.95Y-61.468
X107.95Y-64.008
X107.95Y-66.548
X107.95Y-69.088
X107.95Y-71.628
X107.95Y-74.168
X107.95Y-76.708
X107.95Y-79.248
X107.95Y-81.788
X107.95Y-84.328
X107.95Y-86.868
X107.95Y-89.408
X107.95Y-91.948
X107.95Y-94.488
X107.95Y-97.028
X107.95Y-99.568
X107.95Y-102.108
X107.95Y-104.648
X107.95Y-107.188
X107.95Y-109.728
X107.95Y-112.268
X107.95Y-114.808
X107.95Y-117.348
X110.363Y-125.857
X110.363Y-128.398
X110.49Y-53.848
X110.49Y-56.388
X110.49Y-58.928
X110.49Y-61.468
X110.49Y-64.008
X110.49Y-66.548
X110.49Y-69.088
X110.49Y-71.628
X110.49Y-74.168
X110.49Y-76.708
X110.49Y-79.248
X110.49Y-81.788
X110.49Y-84.328
X110.49Y-86.868
X110.49Y-89.408
X110.49Y-91.948
X110.49Y-94.488
X110.49Y-97.028
X110.49Y-99.568
X110.49Y-102.108
X110.49Y-104.648
X110.49Y-107.188
X110.49Y-109.728
X110.49Y-112.268
X110.49Y-114.808
X110.49Y-117.348
X112.903Y-125.857
X112.903Y-128.398
X113.03Y-53.848
X113.03Y-56.388
X113.03Y-58.928
X113.03Y-61.468
X113.03Y-64.008
X113.03Y-66.548
X113.03Y-69.088
X113.03Y-71.628
X113.03Y-74.168
X113.03Y-76.708
X113.03Y-79.248
X113.03Y-81.788
X113.03Y-84.328
X113.03Y-86.868
X113.03Y-89.408
X113.03Y-91.948
X113.03Y-94.488
X113.03Y-97.028
X113.03Y-99.568
X113.03Y-102.108
X113.03Y-104.648
X113.03Y-107.188
X113.03Y-109.728
X113.03Y-112.268
X113.03Y-114.808
X113.03Y-117.348
X115.443Y-125.857
X115.443Y-128.398
X115.57Y-53.848
X115.57Y-56.388
X115.57Y-58.928
X115.57Y-61.468
X115.57Y-64.008
X115.57Y-66.548
X115.57Y-69.088
X115.57Y-71.628
X115.57Y-74.168
X115.57Y-76.708
X115.57Y-79.248
X115.57Y-81.788
X115.57Y-84.328
X115.57Y-86.868
X115.57Y-89.408
X115.57Y-91.948
X115.57Y-94.488
X115.57Y-97.028
X115.57Y-99.568
X115.57Y-102.108
X115.57Y-104.648
X115.57Y-107.188
X115.57Y-109.728
X115.57Y-112.268
X115.57Y-114.808
X115.57Y-117.348
X117.983Y-125.857
X117.983Y-128.398
X118.11Y-53.848
X118.11Y-56.388
X118.11Y-58.928
X118.11Y-61.468
X118.11Y-64.008
X118.11Y-66.548
X118.11Y-69.088
X118.11Y-71.628
X118.11Y-74.168
X118.11Y-76.708
X118.11Y-79.248
X118.11Y-81.788
X118.11Y-84.328
X118.11Y-86.868
X118.11Y-89.408
X118.11Y-91.948
X118.11Y-94.488
X118.11Y-97.028
X118.11Y-99.568
X118.11Y-102.108
X118.11Y-104.648
X118.11Y-107.188
X118.11Y-109.728
X118.11Y-112.268
X118.11Y-114.808
X118.11Y-117.348
X120.523Y-125.857
X120.523Y-128.398
X120.65Y-53.848
X120.65Y-56.388
X120.65Y-58.928
X120.65Y-61.468
X120.65Y-64.008
X120.65Y-66.548
X120.65Y-69.088
X120.65Y-71.628
X120.65Y-74.168
X120.65Y-76.708
X120.65Y-79.248
X120.65Y-81.788
X120.65Y-84.328
X120.65Y-86.868
X120.65Y-89.408
X120.65Y-91.948
X120.65Y-94.488
X120.65Y-97.028
X120.65Y-99.568
X120.65Y-102.108
X120.65Y-104.648
X120.65Y-107.188
X120.65Y-109.728
X120.65Y-112.268
X120.65Y-114.808
X120.65Y-117.348
X123.063Y-125.857
X123.063Y-128.398
X123.19Y-53.848
X123.19Y-56.388
X123.19Y-58.928
X123.19Y-61.468
X123.19Y-64.008
X123.19Y-66.548
X123.19Y-69.088
X123.19Y-71.628
X123.19Y-74.168
X123.19Y-76.708
X123.19Y-79.248
X123.19Y-81.788
X123.19Y-84.328
X123.19Y-86.868
X123.19Y-89.408
X123.19Y-91.948
X123.19Y-94.488
X123.19Y-97.028
X123.19Y-99.568
X123.19Y-102.108
X123.19Y-104.648
X123.19Y-107.188
X123.19Y-109.728
X123.19Y-112.268
X123.19Y-114.808
X123.19Y-117.348
X125.603Y-125.857
X125.603Y-128.398
X125.73Y-53.848
X125.73Y-56.388
X125.73Y-58.928
X125.73Y-61.468
X125.73Y-64.008
X125.73Y-66.548
X125.73Y-69.088
X125.73Y-71.628
X125.73Y-74.168
X125.73Y-76.708
X125.73Y-79.248
X125.73Y-81.788
X125.73Y-84.328
X125.73Y-86.868
X125.73Y-89.408
X125.73Y-91.948
X125.73Y-94.488
X125.73Y-97.028
X125.73Y-99.568
X125.73Y-102.108
X125.73Y-104.648
X125.73Y-107.188
X125.73Y-109.728
X125.73Y-112.268
X125.73Y-114.808
X125.73Y-117.348
X128.143Y-125.857
X128.143Y-128.398
X128.27Y-53.848
X128.27Y-56.388
X128.27Y-58.928
X128.27Y-61.468
X128.27Y-64.008
X128.27Y-66.548
X128.27Y-69.088
X128.27Y-71.628
X128.27Y-74.168
X128.27Y-76.708
X128.27Y-79.248
X128.27Y-81.788
X128.27Y-84.328
X128.27Y-86.868
X128.27Y-89.408
X128.27Y-91.948
X128.27Y-94.488
X128.27Y-97.028
X128.27Y-99.568
X128.27Y-102.108
X128.27Y-104.648
X128.27Y-107.188
X128.27Y-109.728
X128.27Y-112.268
X128.27Y-114.808
X128.27Y-117.348
X130.683Y-125.857
X130.683Y-128.398
X130.81Y-53.848
X130.81Y-56.388
X130.81Y-58.928
X130.81Y-61.468
X130.81Y-64.008
X130.81Y-66.548
X130.81Y-69.088
X130.81Y-71.628
X130.81Y-74.168
X130.81Y-76.708
X130.81Y-79.248
X130.81Y-81.788
X130.81Y-84.328
X130.81Y-86.868
X130.81Y-89.408
X130.81Y-91.948
X130.81Y-94.488
X130.81Y-97.028
X130.81Y-99.568
X130.81Y-102.108
X130.81Y-104.648
X130.81Y-107.188
X130.81Y-109.728
X130.81Y-112.268
X130.81Y-114.808
X130.81Y-117.348
X133.223Y-125.857
X133.223Y-128.398
X133.35Y-53.848
X133.35Y-56.388
X133.35Y-58.928
X133.35Y-61.468
X133.35Y-64.008
X133.35Y-66.548
X133.35Y-69.088
X133.35Y-71.628
X133.35Y-74.168
X133.35Y-76.708
X133.35Y-79.248
X133.35Y-81.788
X133.35Y-84.328
X133.35Y-86.868
X133.35Y-89.408
X133.35Y-91.948
X133.35Y-94.488
X133.35Y-97.028
X133.35Y-99.568
X133.35Y-102.108
X133.35Y-104.648
X133.35Y-107.188
X133.35Y-109.728
X133.35Y-112.268
X133.35Y-114.808
X133.35Y-117.348
X135.763Y-125.857
X135.763Y-128.398
X135.89Y-53.848
X135.89Y-56.388
X135.89Y-58.928
X135.89Y-61.468
X135.89Y-64.008
X135.89Y-66.548
X135.89Y-69.088
X135.89Y-71.628
X135.89Y-74.168
X135.89Y-76.708
X135.89Y-79.248
X135.89Y-81.788
X135.89Y-84.328
X135.89Y-86.868
X135.89Y-89.408
X135.89Y-91.948
X135.89Y-94.488
X135.89Y-97.028
X135.89Y-99.568
X135.89Y-102.108
X135.89Y-104.648
X135.89Y-107.188
X135.89Y-109.728
X135.89Y-112.268
X135.89Y-114.808
X135.89Y-117.348
X138.303Y-125.857
X138.303Y-128.398
X138.43Y-53.848
X138.43Y-56.388
X138.43Y-58.928
X138.43Y-61.468
X138.43Y-64.008
X138.43Y-66.548
X138.43Y-69.088
X138.43Y-71.628
X138.43Y-74.168
X138.43Y-76.708
X138.43Y-79.248
X138.43Y-81.788
X138.43Y-84.328
X138.43Y-86.868
X138.43Y-89.408
X138.43Y-91.948
X138.43Y-94.488
X138.43Y-97.028
X138.43Y-99.568
X138.43Y-102.108
X138.43Y-104.648
X138.43Y-107.188
X138.43Y-109.728
X138.43Y-112.268
X138.43Y-114.808
X138.43Y-117.348
X140.843Y-125.857
X140.843Y-128.398
X140.97Y-53.848
X140.97Y-56.388
X140.97Y-58.928
X140.97Y-61.468
X140.97Y-64.008
X140.97Y-66.548
X140.97Y-69.088
X140.97Y-71.628
X140.97Y-74.168
X140.97Y-76.708
X140.97Y-79.248
X140.97Y-81.788
X140.97Y-84.328
X140.97Y-86.868
X140.97Y-89.408
X140.97Y-91.948
X140.97Y-94.488
X140.97Y-97.028
X140.97Y-99.568
X140.97Y-102.108
X140.97Y-104.648
X140.97Y-107.188
X140.97Y-109.728
X140.97Y-112.268
X140.97Y-114.808
X140.97Y-117.348
X143.383Y-125.857
X143.383Y-128.398
X143.51Y-53.848
X143.51Y-56.388
X143.51Y-58.928
X143.51Y-61.468
X143.51Y-64.008
X143.51Y-66.548
X143.51Y-69.088
X143.51Y-71.628
X143.51Y-74.168
X143.51Y-76.708
X143.51Y-79.248
X143.51Y-81.788
X143.51Y-84.328
X143.51Y-86.868
X143.51Y-89.408
X143.51Y-91.948
X143.51Y-94.488
X143.51Y-97.028
X143.51Y-99.568
X143.51Y-102.108
X143.51Y-104.648
X143.51Y-107.188
X143.51Y-109.728
X143.51Y-112.268
X143.51Y-114.808
X143.51Y-117.348
X145.923Y-125.857
X145.923Y-128.398
X146.05Y-53.848
X146.05Y-56.388
X146.05Y-58.928
X146.05Y-61.468
X146.05Y-64.008
X146.05Y-66.548
X146.05Y-69.088
X146.05Y-71.628
X146.05Y-74.168
X146.05Y-76.708
X146.05Y-79.248
X146.05Y-81.788
X146.05Y-84.328
X146.05Y-86.868
X146.05Y-89.408
X146.05Y-91.948
X146.05Y-94.488
X146.05Y-97.028
X146.05Y-99.568
X146.05Y-102.108
X146.05Y-104.648
X146.05Y-107.188
X146.05Y-109.728
X146.05Y-112.268
X146.05Y-114.808
X146.05Y-117.348
X148.463Y-125.857
X148.463Y-128.398
X148.59Y-53.848
X148.59Y-56.388
X148.59Y-58.928
X148.59Y-61.468
X148.59Y-64.008
X148.59Y-66.548
X148.59Y-69.088
X148.59Y-71.628
X148.59Y-74.168
X148.59Y-76.708
X148.59Y-79.248
X148.59Y-81.788
X148.59Y-84.328
X148.59Y-86.868
X148.59Y-89.408
X148.59Y-91.948
X148.59Y-94.488
X148.59Y-97.028
X148.59Y-99.568
X148.59Y-102.108
X148.59Y-104.648
X148.59Y-107.188
X148.59Y-109.728
X148.59Y-112.268
X148.59Y-114.808
X148.59Y-117.348
X151.13Y-53.848
X151.13Y-56.388
X151.13Y-58.928
X151.13Y-61.468
X151.13Y-64.008
X151.13Y-66.548
X151.13Y-69.088
X151.13Y-71.628
X151.13Y-74.168
X151.13Y-76.708
X151.13Y-79.248
X151.13Y-81.788
X151.13Y-84.328
X151.13Y-86.868
X151.13Y-89.408
X151.13Y-91.948
X151.13Y-94.488
X151.13Y-97.028
X151.13Y-99.568
X151.13Y-102.108
X151.13Y-104.648
X151.13Y-107.188
X151.13Y-109.728
X151.13Y-112.268
X151.13Y-114.808
X151.13Y-117.348
X153.67Y-53.848
X153.67Y-56.388
X153.67Y-58.928
X153.67Y-61.468
X153.67Y-64.008
X153.67Y-66.548
X153.67Y-69.088
X153.67Y-71.628
X153.67Y-74.168
X153.67Y-76.708
X153.67Y-79.248
X153.67Y-81.788
X153.67Y-84.328
X153.67Y-86.868
X153.67Y-89.408
X153.67Y-91.948
X153.67Y-94.488
X153.67Y-97.028
X153.67Y-99.568
X153.67Y-102.108
X153.67Y-104.648
X153.67Y-107.188
X153.67Y-109.728
X153.67Y-112.268
X153.67Y-114.808
X153.67Y-117.348
X156.21Y-53.848
X156.21Y-56.388
X156.21Y-58.928
X156.21Y-61.468
X156.21Y-64.008
X156.21Y-66.548
X156.21Y-69.088
X156.21Y-71.628
X156.21Y-74.168
X156.21Y-76.708
X156.21Y-79.248
X156.21Y-81.788
X156.21Y-84.328
X156.21Y-86.868
X156.21Y-89.408
X156.21Y-91.948
X156.21Y-94.488
X156.21Y-97.028
X156.21Y-99.568
X156.21Y-102.108
X156.21Y-104.648
X156.21Y-107.188
X156.21Y-109.728
X156.21Y-112.268
X156.21Y-114.808
X156.21Y-117.348
X158.75Y-53.848
X158.75Y-56.388
X158.75Y-58.928
X158.75Y-61.468
X158.75Y-64.008
X158.75Y-66.548
X158.75Y-69.088
X158.75Y-71.628
X158.75Y-74.168
X158.75Y-76.708
X158.75Y-79.248
X158.75Y-81.788
X158.75Y-84.328
X158.75Y-86.868
X158.75Y-89.408
X158.75Y-91.948
X158.75Y-94.488
X158.75Y-97.028
X158.75Y-99.568
X158.75Y-102.108
X158.75Y-104.648
X158.75Y-107.188
X158.75Y-109.728
X158.75Y-112.268
X158.75Y-114.808
X158.75Y-117.348
X161.29Y-53.848
X161.29Y-56.388
X161.29Y-58.928
X161.29Y-61.468
X161.29Y-64.008
X161.29Y-66.548
X161.29Y-69.088
X161.29Y-71.628
X161.29Y-74.168
X161.29Y-76.708
X161.29Y-79.248
X161.29Y-81.788
X161.29Y-84.328
X161.29Y-86.868
X161.29Y-89.408
X161.29Y-91.948
X161.29Y-94.488
X161.29Y-97.028
X161.29Y-99.568
X161.29Y-102.108
X161.29Y-104.648
X161.29Y-107.188
X161.29Y-109.728
X161.29Y-112.268
X161.29Y-114.808
X161.29Y-117.348
X163.83Y-53.848
X163.83Y-56.388
X163.83Y-58.928
X163.83Y-61.468
X163.83Y-64.008
X163.83Y-66.548
X163.83Y-69.088
X163.83Y-71.628
X163.83Y-74.168
X163.83Y-76.708
X163.83Y-79.248
X163.83Y-81.788
X163.83Y-84.328
X163.83Y-86.868
X163.83Y-89.408
X163.83Y-91.948
X163.83Y-94.488
X163.83Y-97.028
X163.83Y-99.568
X163.83Y-102.108
X163.83Y-104.648
X163.83Y-107.188
X163.83Y-109.728
X163.83Y-112.268
X163.83Y-114.808
X163.83Y-117.348
M30
