G04 Layer: BottomSilkLayer*
G04 EasyEDA v6.4.7, 2020-11-30T22:22:46+01:00*
G04 33329d85c06a4245a9eb03819dca2e09,5f1b69652c614dc78b77d9171f06c583,10*
G04 Gerber Generator version 0.2*
G04 Scale: 100 percent, Rotated: No, Reflected: No *
G04 Dimensions in millimeters *
G04 leading zeros omitted , absolute positions ,3 integer and 3 decimal *
%FSLAX33Y33*%
%MOMM*%
G90*
D02*

%ADD19C,0.203200*%

%LPD*%
G54D19*
G01X12177Y88739D02*
G01X10268Y88011D01*
G01X12177Y88739D02*
G01X10268Y89466D01*
G01X10905Y88284D02*
G01X10905Y89193D01*
G01X12177Y6353D02*
G01X10268Y5080D01*
G01X12177Y5080D02*
G01X12177Y6353D01*
G01X10268Y5080D02*
G01X10268Y6353D01*

%LPD*%
G36*
G01X27200Y21105D02*
G01X27172Y21108D01*
G01X27146Y21105D01*
G01X27122Y21098D01*
G01X27100Y21086D01*
G01X27078Y21070D01*
G01X27060Y21049D01*
G01X27048Y21025D01*
G01X27040Y20998D01*
G01X27038Y20968D01*
G01X27040Y20938D01*
G01X27048Y20912D01*
G01X27060Y20888D01*
G01X27078Y20869D01*
G01X27100Y20852D01*
G01X27122Y20840D01*
G01X27146Y20833D01*
G01X27172Y20831D01*
G01X27200Y20833D01*
G01X27226Y20840D01*
G01X27248Y20852D01*
G01X27269Y20869D01*
G01X27286Y20888D01*
G01X27299Y20912D01*
G01X27307Y20938D01*
G01X27309Y20968D01*
G01X27307Y20998D01*
G01X27299Y21025D01*
G01X27286Y21049D01*
G01X27269Y21070D01*
G01X27248Y21086D01*
G01X27226Y21098D01*
G01X27200Y21105D01*
G37*

%LPD*%
G36*
G01X23187Y20996D02*
G01X23040Y20996D01*
G01X23040Y20620D01*
G01X22699Y20620D01*
G01X22699Y20478D01*
G01X23040Y20478D01*
G01X23040Y20102D01*
G01X23187Y20102D01*
G01X23187Y20478D01*
G01X23530Y20478D01*
G01X23530Y20620D01*
G01X23187Y20620D01*
G01X23187Y20996D01*
G37*

%LPD*%
G36*
G01X27233Y20653D02*
G01X27116Y20653D01*
G01X27114Y20623D01*
G01X27111Y20594D01*
G01X27107Y20565D01*
G01X27104Y20536D01*
G01X27093Y20424D01*
G01X27091Y20395D01*
G01X27089Y20365D01*
G01X27087Y20336D01*
G01X27086Y20305D01*
G01X27085Y20273D01*
G01X27084Y20238D01*
G01X27083Y20202D01*
G01X27083Y19825D01*
G01X27264Y19825D01*
G01X27264Y20305D01*
G01X27262Y20336D01*
G01X27261Y20365D01*
G01X27259Y20395D01*
G01X27256Y20424D01*
G01X27250Y20480D01*
G01X27243Y20536D01*
G01X27238Y20593D01*
G01X27233Y20653D01*
G37*

%LPD*%
G36*
G01X26263Y21082D02*
G01X26055Y21082D01*
G01X25994Y20898D01*
G01X25933Y20711D01*
G01X25874Y20526D01*
G01X25821Y20351D01*
G01X25774Y20190D01*
G01X25735Y20043D01*
G01X25718Y19978D01*
G01X25703Y19920D01*
G01X25690Y19869D01*
G01X25679Y19825D01*
G01X25862Y19825D01*
G01X25888Y19959D01*
G01X25922Y20104D01*
G01X25961Y20255D01*
G01X26001Y20407D01*
G01X26044Y20555D01*
G01X26085Y20696D01*
G01X26127Y20825D01*
G01X26166Y20937D01*
G01X26201Y20824D01*
G01X26243Y20694D01*
G01X26286Y20551D01*
G01X26329Y20402D01*
G01X26369Y20252D01*
G01X26408Y20102D01*
G01X26443Y19957D01*
G01X26471Y19825D01*
G01X26644Y19825D01*
G01X26635Y19869D01*
G01X26624Y19920D01*
G01X26609Y19978D01*
G01X26593Y20043D01*
G01X26552Y20189D01*
G01X26504Y20351D01*
G01X26451Y20524D01*
G01X26392Y20709D01*
G01X26360Y20804D01*
G01X26296Y20990D01*
G01X26263Y21082D01*
G37*

%LPD*%
G36*
G01X24510Y21082D02*
G01X23835Y21082D01*
G01X23835Y20940D01*
G01X24106Y20940D01*
G01X24106Y20059D01*
G01X24095Y20069D01*
G01X24081Y20079D01*
G01X24068Y20089D01*
G01X24053Y20099D01*
G01X24037Y20110D01*
G01X24021Y20122D01*
G01X24003Y20132D01*
G01X23984Y20142D01*
G01X23965Y20153D01*
G01X23946Y20162D01*
G01X23926Y20171D01*
G01X23906Y20181D01*
G01X23885Y20189D01*
G01X23866Y20197D01*
G01X23846Y20204D01*
G01X23827Y20211D01*
G01X23774Y20084D01*
G01X23825Y20062D01*
G01X23876Y20038D01*
G01X23926Y20011D01*
G01X23974Y19982D01*
G01X24023Y19949D01*
G01X24069Y19911D01*
G01X24113Y19870D01*
G01X24155Y19825D01*
G01X24274Y19825D01*
G01X24274Y20940D01*
G01X24510Y20940D01*
G01X24510Y21082D01*
G37*

%LPD*%
G36*
G01X25541Y21082D02*
G01X24779Y21082D01*
G01X24777Y21072D01*
G01X24777Y21039D01*
G01X24778Y20998D01*
G01X24784Y20958D01*
G01X24793Y20919D01*
G01X24805Y20882D01*
G01X24821Y20845D01*
G01X24838Y20810D01*
G01X24858Y20775D01*
G01X24879Y20742D01*
G01X24902Y20710D01*
G01X24927Y20679D01*
G01X24953Y20649D01*
G01X24980Y20620D01*
G01X25008Y20591D01*
G01X25036Y20563D01*
G01X25062Y20535D01*
G01X25134Y20463D01*
G01X25176Y20419D01*
G01X25197Y20398D01*
G01X25216Y20377D01*
G01X25233Y20356D01*
G01X25249Y20336D01*
G01X25265Y20314D01*
G01X25278Y20292D01*
G01X25291Y20269D01*
G01X25300Y20247D01*
G01X25309Y20224D01*
G01X25315Y20200D01*
G01X25319Y20176D01*
G01X25321Y20153D01*
G01X25319Y20126D01*
G01X25316Y20101D01*
G01X25310Y20079D01*
G01X25303Y20059D01*
G01X25293Y20040D01*
G01X25282Y20024D01*
G01X25270Y20009D01*
G01X25257Y19995D01*
G01X25241Y19983D01*
G01X25224Y19973D01*
G01X25207Y19964D01*
G01X25188Y19957D01*
G01X25169Y19951D01*
G01X25148Y19947D01*
G01X25127Y19945D01*
G01X25105Y19944D01*
G01X25079Y19945D01*
G01X25054Y19948D01*
G01X25030Y19953D01*
G01X25008Y19960D01*
G01X24987Y19966D01*
G01X24967Y19974D01*
G01X24949Y19983D01*
G01X24915Y20003D01*
G01X24899Y20013D01*
G01X24873Y20033D01*
G01X24862Y20042D01*
G01X24851Y20049D01*
G01X24842Y20057D01*
G01X24835Y20064D01*
G01X24754Y19947D01*
G01X24763Y19937D01*
G01X24774Y19927D01*
G01X24787Y19914D01*
G01X24802Y19901D01*
G01X24820Y19888D01*
G01X24838Y19876D01*
G01X24859Y19865D01*
G01X24881Y19853D01*
G01X24904Y19841D01*
G01X24929Y19830D01*
G01X24955Y19820D01*
G01X24983Y19812D01*
G01X25011Y19806D01*
G01X25041Y19801D01*
G01X25072Y19798D01*
G01X25105Y19797D01*
G01X25277Y19819D01*
G01X25397Y19886D01*
G01X25467Y19996D01*
G01X25491Y20145D01*
G01X25489Y20178D01*
G01X25484Y20210D01*
G01X25476Y20241D01*
G01X25465Y20272D01*
G01X25452Y20302D01*
G01X25436Y20332D01*
G01X25419Y20362D01*
G01X25399Y20391D01*
G01X25377Y20420D01*
G01X25354Y20450D01*
G01X25329Y20479D01*
G01X25303Y20508D01*
G01X25251Y20564D01*
G01X25196Y20620D01*
G01X25125Y20691D01*
G01X25105Y20713D01*
G01X25067Y20757D01*
G01X25049Y20780D01*
G01X25030Y20801D01*
G01X25000Y20845D01*
G01X24988Y20866D01*
G01X24977Y20887D01*
G01X24968Y20906D01*
G01X24964Y20924D01*
G01X24962Y20940D01*
G01X25541Y20940D01*
G01X25541Y21082D01*
G37*

%LPD*%

%LPD*%
G36*
G01X27010Y23645D02*
G01X26982Y23648D01*
G01X26956Y23645D01*
G01X26931Y23638D01*
G01X26909Y23626D01*
G01X26888Y23610D01*
G01X26870Y23589D01*
G01X26857Y23565D01*
G01X26850Y23538D01*
G01X26847Y23508D01*
G01X26850Y23478D01*
G01X26857Y23452D01*
G01X26870Y23428D01*
G01X26888Y23409D01*
G01X26909Y23392D01*
G01X26931Y23380D01*
G01X26956Y23373D01*
G01X26982Y23371D01*
G01X27010Y23373D01*
G01X27035Y23380D01*
G01X27058Y23392D01*
G01X27078Y23409D01*
G01X27096Y23428D01*
G01X27109Y23452D01*
G01X27116Y23478D01*
G01X27119Y23508D01*
G01X27116Y23538D01*
G01X27109Y23565D01*
G01X27096Y23589D01*
G01X27078Y23610D01*
G01X27058Y23626D01*
G01X27035Y23638D01*
G01X27010Y23645D01*
G37*

%LPD*%
G36*
G01X23146Y23185D02*
G01X22699Y23185D01*
G01X22699Y23028D01*
G01X23146Y23028D01*
G01X23146Y23185D01*
G37*

%LPD*%
G36*
G01X27043Y23193D02*
G01X26926Y23193D01*
G01X26923Y23163D01*
G01X26917Y23105D01*
G01X26913Y23076D01*
G01X26903Y22964D01*
G01X26900Y22935D01*
G01X26898Y22905D01*
G01X26897Y22876D01*
G01X26895Y22845D01*
G01X26894Y22813D01*
G01X26893Y22778D01*
G01X26893Y22365D01*
G01X27073Y22365D01*
G01X27073Y22845D01*
G01X27072Y22876D01*
G01X27070Y22905D01*
G01X27068Y22935D01*
G01X27065Y22964D01*
G01X27063Y22992D01*
G01X27060Y23020D01*
G01X27053Y23076D01*
G01X27048Y23133D01*
G01X27043Y23193D01*
G37*

%LPD*%
G36*
G01X26072Y23622D02*
G01X25864Y23622D01*
G01X25803Y23438D01*
G01X25742Y23251D01*
G01X25684Y23066D01*
G01X25630Y22891D01*
G01X25584Y22730D01*
G01X25544Y22583D01*
G01X25527Y22518D01*
G01X25512Y22460D01*
G01X25499Y22409D01*
G01X25488Y22365D01*
G01X25671Y22365D01*
G01X25698Y22499D01*
G01X25732Y22644D01*
G01X25771Y22795D01*
G01X25811Y22947D01*
G01X25853Y23095D01*
G01X25895Y23236D01*
G01X25937Y23365D01*
G01X25976Y23477D01*
G01X26010Y23364D01*
G01X26052Y23234D01*
G01X26095Y23091D01*
G01X26138Y22942D01*
G01X26179Y22792D01*
G01X26217Y22642D01*
G01X26252Y22497D01*
G01X26281Y22365D01*
G01X26453Y22365D01*
G01X26445Y22409D01*
G01X26433Y22460D01*
G01X26419Y22518D01*
G01X26403Y22583D01*
G01X26361Y22729D01*
G01X26314Y22891D01*
G01X26260Y23064D01*
G01X26202Y23249D01*
G01X26170Y23344D01*
G01X26138Y23437D01*
G01X26105Y23530D01*
G01X26072Y23622D01*
G37*

%LPD*%
G36*
G01X24320Y23622D02*
G01X23644Y23622D01*
G01X23644Y23480D01*
G01X23916Y23480D01*
G01X23916Y22599D01*
G01X23904Y22609D01*
G01X23891Y22619D01*
G01X23863Y22639D01*
G01X23847Y22650D01*
G01X23830Y22662D01*
G01X23813Y22672D01*
G01X23794Y22682D01*
G01X23775Y22693D01*
G01X23755Y22702D01*
G01X23736Y22711D01*
G01X23715Y22721D01*
G01X23675Y22737D01*
G01X23656Y22744D01*
G01X23636Y22751D01*
G01X23583Y22624D01*
G01X23635Y22602D01*
G01X23685Y22578D01*
G01X23735Y22551D01*
G01X23784Y22522D01*
G01X23832Y22489D01*
G01X23878Y22451D01*
G01X23922Y22410D01*
G01X23964Y22365D01*
G01X24084Y22365D01*
G01X24084Y23480D01*
G01X24320Y23480D01*
G01X24320Y23622D01*
G37*

%LPD*%
G36*
G01X25351Y23622D02*
G01X24589Y23622D01*
G01X24586Y23607D01*
G01X24586Y23579D01*
G01X24588Y23538D01*
G01X24594Y23498D01*
G01X24602Y23459D01*
G01X24614Y23422D01*
G01X24631Y23385D01*
G01X24648Y23350D01*
G01X24667Y23315D01*
G01X24688Y23282D01*
G01X24711Y23250D01*
G01X24736Y23219D01*
G01X24762Y23189D01*
G01X24818Y23131D01*
G01X24872Y23075D01*
G01X24899Y23048D01*
G01X24921Y23025D01*
G01X24944Y23003D01*
G01X24985Y22959D01*
G01X25006Y22938D01*
G01X25025Y22917D01*
G01X25043Y22896D01*
G01X25059Y22876D01*
G01X25075Y22854D01*
G01X25088Y22832D01*
G01X25100Y22809D01*
G01X25110Y22787D01*
G01X25118Y22764D01*
G01X25125Y22740D01*
G01X25128Y22716D01*
G01X25130Y22693D01*
G01X25129Y22666D01*
G01X25125Y22641D01*
G01X25120Y22619D01*
G01X25112Y22599D01*
G01X25103Y22580D01*
G01X25092Y22564D01*
G01X25080Y22549D01*
G01X25067Y22535D01*
G01X25051Y22523D01*
G01X25034Y22513D01*
G01X25017Y22504D01*
G01X24998Y22497D01*
G01X24979Y22491D01*
G01X24958Y22487D01*
G01X24936Y22485D01*
G01X24914Y22484D01*
G01X24888Y22485D01*
G01X24863Y22488D01*
G01X24840Y22493D01*
G01X24818Y22500D01*
G01X24797Y22506D01*
G01X24777Y22514D01*
G01X24759Y22523D01*
G01X24741Y22533D01*
G01X24709Y22553D01*
G01X24695Y22563D01*
G01X24683Y22573D01*
G01X24671Y22582D01*
G01X24661Y22589D01*
G01X24652Y22597D01*
G01X24645Y22604D01*
G01X24564Y22487D01*
G01X24572Y22477D01*
G01X24583Y22467D01*
G01X24597Y22454D01*
G01X24612Y22441D01*
G01X24629Y22428D01*
G01X24648Y22416D01*
G01X24669Y22405D01*
G01X24691Y22393D01*
G01X24714Y22381D01*
G01X24739Y22370D01*
G01X24765Y22360D01*
G01X24792Y22352D01*
G01X24821Y22346D01*
G01X24851Y22341D01*
G01X24882Y22338D01*
G01X24914Y22337D01*
G01X25086Y22359D01*
G01X25206Y22426D01*
G01X25277Y22536D01*
G01X25300Y22685D01*
G01X25299Y22718D01*
G01X25294Y22750D01*
G01X25286Y22781D01*
G01X25275Y22812D01*
G01X25261Y22842D01*
G01X25246Y22872D01*
G01X25228Y22902D01*
G01X25209Y22931D01*
G01X25186Y22960D01*
G01X25163Y22990D01*
G01X25138Y23019D01*
G01X25112Y23048D01*
G01X25060Y23104D01*
G01X25006Y23160D01*
G01X24934Y23231D01*
G01X24915Y23253D01*
G01X24895Y23275D01*
G01X24877Y23297D01*
G01X24858Y23320D01*
G01X24840Y23341D01*
G01X24824Y23363D01*
G01X24809Y23385D01*
G01X24797Y23406D01*
G01X24786Y23427D01*
G01X24778Y23446D01*
G01X24773Y23464D01*
G01X24772Y23480D01*
G01X25351Y23480D01*
G01X25351Y23622D01*
G37*

%LPD*%

%LPD*%
G36*
G01X23885Y26162D02*
G01X23733Y26162D01*
G01X23733Y24905D01*
G01X23903Y24905D01*
G01X23981Y25048D01*
G01X24048Y25172D01*
G01X24079Y25227D01*
G01X24108Y25282D01*
G01X24136Y25336D01*
G01X24162Y25390D01*
G01X24189Y25444D01*
G01X24215Y25499D01*
G01X24239Y25554D01*
G01X24264Y25611D01*
G01X24315Y25732D01*
G01X24373Y25873D01*
G01X24373Y24905D01*
G01X24525Y24905D01*
G01X24525Y26162D01*
G01X24355Y26162D01*
G01X24289Y26002D01*
G01X24226Y25857D01*
G01X24166Y25724D01*
G01X24109Y25598D01*
G01X24081Y25539D01*
G01X24053Y25482D01*
G01X23997Y25372D01*
G01X23885Y25159D01*
G01X23885Y26162D01*
G37*

%LPD*%
G36*
G01X25060Y26170D02*
G01X25000Y26172D01*
G01X24875Y26165D01*
G01X24746Y26142D01*
G01X24746Y24923D01*
G01X24875Y24900D01*
G01X25000Y24892D01*
G01X25060Y24894D01*
G01X25118Y24901D01*
G01X25173Y24912D01*
G01X25227Y24928D01*
G01X25278Y24947D01*
G01X25326Y24972D01*
G01X25369Y25003D01*
G01X25409Y25040D01*
G01X25445Y25081D01*
G01X25477Y25127D01*
G01X25505Y25180D01*
G01X25529Y25238D01*
G01X25561Y25372D01*
G01X25572Y25532D01*
G01X25561Y25694D01*
G01X25529Y25830D01*
G01X25505Y25887D01*
G01X25477Y25940D01*
G01X25445Y25986D01*
G01X25409Y26028D01*
G01X25369Y26063D01*
G01X25326Y26093D01*
G01X25278Y26118D01*
G01X25227Y26137D01*
G01X25173Y26153D01*
G01X25118Y26163D01*
G01X25060Y26170D01*
G37*

%LPC*%
G36*
G01X25063Y26026D02*
G01X25018Y26028D01*
G01X24992Y26027D01*
G01X24965Y26026D01*
G01X24940Y26025D01*
G01X24914Y26023D01*
G01X24914Y25042D01*
G01X24936Y25040D01*
G01X24948Y25038D01*
G01X24960Y25037D01*
G01X25011Y25037D01*
G01X25180Y25067D01*
G01X25303Y25156D01*
G01X25346Y25224D01*
G01X25377Y25310D01*
G01X25396Y25412D01*
G01X25402Y25532D01*
G01X25400Y25596D01*
G01X25395Y25655D01*
G01X25386Y25709D01*
G01X25374Y25758D01*
G01X25360Y25803D01*
G01X25343Y25844D01*
G01X25323Y25881D01*
G01X25300Y25913D01*
G01X25275Y25942D01*
G01X25246Y25966D01*
G01X25215Y25985D01*
G01X25181Y26000D01*
G01X25144Y26012D01*
G01X25105Y26021D01*
G01X25063Y26026D01*
G37*

%LPD*%
G36*
G01X23261Y26186D02*
G01X23205Y26188D01*
G01X23149Y26185D01*
G01X23095Y26177D01*
G01X23045Y26163D01*
G01X22996Y26144D01*
G01X22952Y26120D01*
G01X22912Y26091D01*
G01X22873Y26057D01*
G01X22839Y26017D01*
G01X22808Y25973D01*
G01X22780Y25924D01*
G01X22756Y25870D01*
G01X22735Y25812D01*
G01X22708Y25681D01*
G01X22699Y25532D01*
G01X22709Y25383D01*
G01X22740Y25253D01*
G01X22762Y25195D01*
G01X22788Y25141D01*
G01X22817Y25091D01*
G01X22849Y25047D01*
G01X22886Y25008D01*
G01X22926Y24974D01*
G01X22968Y24944D01*
G01X23014Y24920D01*
G01X23062Y24901D01*
G01X23111Y24888D01*
G01X23163Y24880D01*
G01X23215Y24877D01*
G01X23248Y24878D01*
G01X23280Y24880D01*
G01X23309Y24883D01*
G01X23337Y24887D01*
G01X23363Y24892D01*
G01X23387Y24898D01*
G01X23408Y24904D01*
G01X23428Y24910D01*
G01X23445Y24918D01*
G01X23461Y24925D01*
G01X23476Y24933D01*
G01X23489Y24941D01*
G01X23501Y24948D01*
G01X23511Y24954D01*
G01X23519Y24959D01*
G01X23525Y24963D01*
G01X23471Y25103D01*
G01X23446Y25086D01*
G01X23420Y25071D01*
G01X23391Y25057D01*
G01X23360Y25045D01*
G01X23328Y25033D01*
G01X23294Y25025D01*
G01X23260Y25021D01*
G01X23225Y25019D01*
G01X23187Y25022D01*
G01X23151Y25029D01*
G01X23116Y25041D01*
G01X23083Y25057D01*
G01X23051Y25077D01*
G01X23021Y25101D01*
G01X22994Y25129D01*
G01X22968Y25162D01*
G01X22947Y25196D01*
G01X22927Y25235D01*
G01X22910Y25276D01*
G01X22895Y25322D01*
G01X22884Y25370D01*
G01X22876Y25421D01*
G01X22871Y25475D01*
G01X22869Y25532D01*
G01X22871Y25588D01*
G01X22875Y25642D01*
G01X22882Y25692D01*
G01X22892Y25741D01*
G01X22905Y25785D01*
G01X22921Y25826D01*
G01X22940Y25865D01*
G01X22961Y25901D01*
G01X22985Y25932D01*
G01X23012Y25960D01*
G01X23041Y25984D01*
G01X23073Y26005D01*
G01X23107Y26022D01*
G01X23143Y26033D01*
G01X23182Y26040D01*
G01X23222Y26043D01*
G01X23250Y26042D01*
G01X23275Y26041D01*
G01X23296Y26039D01*
G01X23314Y26035D01*
G01X23329Y26030D01*
G01X23342Y26026D01*
G01X23354Y26022D01*
G01X23362Y26017D01*
G01X23362Y25543D01*
G01X23530Y25543D01*
G01X23530Y26132D01*
G01X23508Y26140D01*
G01X23445Y26158D01*
G01X23405Y26167D01*
G01X23362Y26176D01*
G01X23313Y26183D01*
G01X23261Y26186D01*
G37*

%LPD*%

%LPD*%
G36*
G01X22869Y28702D02*
G01X22699Y28702D01*
G01X22737Y28563D01*
G01X22778Y28413D01*
G01X22821Y28253D01*
G01X22869Y28090D01*
G01X22921Y27925D01*
G01X22974Y27760D01*
G01X23031Y27598D01*
G01X23090Y27445D01*
G01X23296Y27445D01*
G01X23355Y27598D01*
G01X23410Y27760D01*
G01X23463Y27925D01*
G01X23512Y28090D01*
G01X23558Y28253D01*
G01X23601Y28413D01*
G01X23642Y28563D01*
G01X23680Y28702D01*
G01X23502Y28702D01*
G01X23428Y28372D01*
G01X22943Y28372D01*
G01X22869Y28702D01*
G37*

%LPC*%
G36*
G01X23388Y28235D02*
G01X22981Y28235D01*
G01X23032Y28059D01*
G01X23085Y27887D01*
G01X23139Y27729D01*
G01X23187Y27590D01*
G01X23237Y27724D01*
G01X23289Y27882D01*
G01X23340Y28055D01*
G01X23388Y28235D01*
G37*

%LPD*%
G36*
G01X24299Y28717D02*
G01X24205Y28728D01*
G01X24112Y28717D01*
G01X24030Y28685D01*
G01X23960Y28633D01*
G01X23901Y28560D01*
G01X23853Y28466D01*
G01X23819Y28353D01*
G01X23798Y28222D01*
G01X23791Y28072D01*
G01X23798Y27923D01*
G01X23819Y27791D01*
G01X23853Y27679D01*
G01X23901Y27585D01*
G01X23960Y27512D01*
G01X24030Y27459D01*
G01X24112Y27428D01*
G01X24205Y27417D01*
G01X24299Y27428D01*
G01X24381Y27459D01*
G01X24453Y27512D01*
G01X24513Y27585D01*
G01X24560Y27679D01*
G01X24593Y27791D01*
G01X24613Y27923D01*
G01X24619Y28072D01*
G01X24613Y28222D01*
G01X24593Y28353D01*
G01X24560Y28466D01*
G01X24513Y28560D01*
G01X24453Y28633D01*
G01X24381Y28685D01*
G01X24299Y28717D01*
G37*

%LPC*%
G36*
G01X24238Y28578D02*
G01X24205Y28580D01*
G01X24172Y28578D01*
G01X24142Y28570D01*
G01X24114Y28557D01*
G01X24089Y28540D01*
G01X24067Y28518D01*
G01X24047Y28492D01*
G01X24030Y28463D01*
G01X24015Y28430D01*
G01X24002Y28394D01*
G01X23991Y28355D01*
G01X23981Y28313D01*
G01X23974Y28268D01*
G01X23969Y28221D01*
G01X23965Y28173D01*
G01X23963Y28124D01*
G01X23962Y28072D01*
G01X23963Y28021D01*
G01X23965Y27971D01*
G01X23969Y27923D01*
G01X23974Y27877D01*
G01X23981Y27832D01*
G01X23991Y27789D01*
G01X24002Y27750D01*
G01X24015Y27714D01*
G01X24030Y27682D01*
G01X24047Y27653D01*
G01X24067Y27627D01*
G01X24089Y27605D01*
G01X24114Y27587D01*
G01X24142Y27575D01*
G01X24172Y27567D01*
G01X24205Y27564D01*
G01X24238Y27567D01*
G01X24269Y27575D01*
G01X24297Y27587D01*
G01X24322Y27605D01*
G01X24344Y27627D01*
G01X24363Y27653D01*
G01X24381Y27682D01*
G01X24396Y27714D01*
G01X24409Y27750D01*
G01X24420Y27789D01*
G01X24429Y27832D01*
G01X24437Y27877D01*
G01X24442Y27923D01*
G01X24446Y27971D01*
G01X24448Y28021D01*
G01X24449Y28072D01*
G01X24448Y28124D01*
G01X24446Y28173D01*
G01X24442Y28221D01*
G01X24437Y28268D01*
G01X24429Y28313D01*
G01X24420Y28355D01*
G01X24409Y28394D01*
G01X24396Y28430D01*
G01X24381Y28463D01*
G01X24363Y28492D01*
G01X24344Y28518D01*
G01X24322Y28540D01*
G01X24297Y28557D01*
G01X24269Y28570D01*
G01X24238Y28578D01*
G37*

%LPD*%
G36*
G01X24235Y28176D02*
G01X24211Y28179D01*
G01X24185Y28176D01*
G01X24162Y28169D01*
G01X24142Y28158D01*
G01X24124Y28141D01*
G01X24110Y28121D01*
G01X24099Y28099D01*
G01X24093Y28075D01*
G01X24091Y28049D01*
G01X24093Y28024D01*
G01X24099Y27999D01*
G01X24110Y27977D01*
G01X24124Y27956D01*
G01X24142Y27938D01*
G01X24162Y27925D01*
G01X24185Y27917D01*
G01X24211Y27915D01*
G01X24235Y27917D01*
G01X24256Y27925D01*
G01X24276Y27938D01*
G01X24292Y27956D01*
G01X24305Y27977D01*
G01X24315Y27999D01*
G01X24320Y28024D01*
G01X24322Y28049D01*
G01X24320Y28075D01*
G01X24315Y28099D01*
G01X24305Y28121D01*
G01X24292Y28141D01*
G01X24276Y28158D01*
G01X24256Y28169D01*
G01X24235Y28176D01*
G37*

%LPD*%

%LPD*%
G36*
G01X22869Y31242D02*
G01X22699Y31242D01*
G01X22737Y31103D01*
G01X22778Y30953D01*
G01X22821Y30793D01*
G01X22869Y30630D01*
G01X22921Y30465D01*
G01X22974Y30300D01*
G01X23031Y30138D01*
G01X23090Y29985D01*
G01X23296Y29985D01*
G01X23355Y30138D01*
G01X23410Y30300D01*
G01X23463Y30465D01*
G01X23512Y30630D01*
G01X23558Y30793D01*
G01X23601Y30953D01*
G01X23642Y31103D01*
G01X23680Y31242D01*
G01X23502Y31242D01*
G01X23428Y30912D01*
G01X22943Y30912D01*
G01X22869Y31242D01*
G37*

%LPC*%
G36*
G01X23388Y30775D02*
G01X22981Y30775D01*
G01X23032Y30599D01*
G01X23085Y30427D01*
G01X23139Y30269D01*
G01X23187Y30130D01*
G01X23237Y30264D01*
G01X23289Y30422D01*
G01X23340Y30595D01*
G01X23388Y30775D01*
G37*

%LPD*%
G36*
G01X24602Y31242D02*
G01X23840Y31242D01*
G01X23837Y31227D01*
G01X23837Y31199D01*
G01X23839Y31158D01*
G01X23844Y31118D01*
G01X23853Y31079D01*
G01X23865Y31042D01*
G01X23881Y31005D01*
G01X23899Y30970D01*
G01X23918Y30935D01*
G01X23939Y30902D01*
G01X23962Y30870D01*
G01X23987Y30839D01*
G01X24013Y30809D01*
G01X24040Y30780D01*
G01X24068Y30751D01*
G01X24096Y30723D01*
G01X24123Y30695D01*
G01X24172Y30645D01*
G01X24216Y30601D01*
G01X24236Y30579D01*
G01X24257Y30558D01*
G01X24276Y30537D01*
G01X24294Y30516D01*
G01X24310Y30496D01*
G01X24325Y30474D01*
G01X24339Y30452D01*
G01X24351Y30429D01*
G01X24360Y30407D01*
G01X24370Y30384D01*
G01X24376Y30360D01*
G01X24380Y30336D01*
G01X24381Y30313D01*
G01X24380Y30286D01*
G01X24376Y30261D01*
G01X24371Y30239D01*
G01X24363Y30219D01*
G01X24353Y30200D01*
G01X24343Y30184D01*
G01X24330Y30169D01*
G01X24317Y30155D01*
G01X24301Y30143D01*
G01X24285Y30133D01*
G01X24267Y30124D01*
G01X24249Y30117D01*
G01X24229Y30111D01*
G01X24208Y30107D01*
G01X24187Y30105D01*
G01X24165Y30104D01*
G01X24139Y30105D01*
G01X24114Y30108D01*
G01X24091Y30113D01*
G01X24068Y30120D01*
G01X24047Y30126D01*
G01X24028Y30134D01*
G01X24009Y30143D01*
G01X23975Y30163D01*
G01X23960Y30173D01*
G01X23946Y30183D01*
G01X23934Y30193D01*
G01X23922Y30202D01*
G01X23911Y30209D01*
G01X23896Y30224D01*
G01X23814Y30107D01*
G01X23823Y30097D01*
G01X23834Y30087D01*
G01X23847Y30074D01*
G01X23863Y30061D01*
G01X23880Y30048D01*
G01X23899Y30036D01*
G01X23919Y30025D01*
G01X23941Y30013D01*
G01X23965Y30001D01*
G01X23990Y29990D01*
G01X24015Y29980D01*
G01X24043Y29972D01*
G01X24071Y29966D01*
G01X24101Y29961D01*
G01X24132Y29958D01*
G01X24165Y29957D01*
G01X24337Y29979D01*
G01X24457Y30046D01*
G01X24528Y30156D01*
G01X24551Y30305D01*
G01X24549Y30338D01*
G01X24545Y30370D01*
G01X24537Y30401D01*
G01X24525Y30432D01*
G01X24512Y30462D01*
G01X24497Y30492D01*
G01X24479Y30522D01*
G01X24459Y30551D01*
G01X24437Y30580D01*
G01X24414Y30610D01*
G01X24389Y30639D01*
G01X24363Y30668D01*
G01X24338Y30696D01*
G01X24284Y30752D01*
G01X24185Y30851D01*
G01X24165Y30873D01*
G01X24127Y30917D01*
G01X24109Y30940D01*
G01X24091Y30961D01*
G01X24075Y30983D01*
G01X24061Y31005D01*
G01X24048Y31026D01*
G01X24037Y31047D01*
G01X24029Y31066D01*
G01X24024Y31084D01*
G01X24023Y31100D01*
G01X24602Y31100D01*
G01X24602Y31242D01*
G37*

%LPD*%

%LPD*%
G36*
G01X24495Y33782D02*
G01X24332Y33782D01*
G01X24332Y33462D01*
G01X23771Y33462D01*
G01X23771Y33348D01*
G01X23789Y33306D01*
G01X23811Y33260D01*
G01X23837Y33212D01*
G01X23865Y33160D01*
G01X23929Y33053D01*
G01X24000Y32942D01*
G01X24078Y32830D01*
G01X24160Y32721D01*
G01X24246Y32617D01*
G01X24332Y32525D01*
G01X24495Y32525D01*
G01X24495Y33323D01*
G01X24645Y33323D01*
G01X24645Y33462D01*
G01X24495Y33462D01*
G01X24495Y33782D01*
G37*

%LPC*%
G36*
G01X24332Y33323D02*
G01X23934Y33323D01*
G01X23952Y33283D01*
G01X23972Y33243D01*
G01X23993Y33203D01*
G01X24015Y33163D01*
G01X24038Y33122D01*
G01X24088Y33042D01*
G01X24114Y33002D01*
G01X24141Y32963D01*
G01X24195Y32889D01*
G01X24223Y32853D01*
G01X24251Y32818D01*
G01X24279Y32785D01*
G01X24306Y32753D01*
G01X24332Y32723D01*
G01X24332Y33323D01*
G37*

%LPD*%
G36*
G01X22869Y33782D02*
G01X22699Y33782D01*
G01X22737Y33643D01*
G01X22778Y33493D01*
G01X22821Y33333D01*
G01X22869Y33170D01*
G01X22921Y33005D01*
G01X22974Y32840D01*
G01X23031Y32678D01*
G01X23090Y32525D01*
G01X23296Y32525D01*
G01X23355Y32678D01*
G01X23410Y32840D01*
G01X23463Y33005D01*
G01X23512Y33170D01*
G01X23558Y33333D01*
G01X23601Y33493D01*
G01X23642Y33643D01*
G01X23680Y33782D01*
G01X23502Y33782D01*
G01X23428Y33452D01*
G01X22943Y33452D01*
G01X22869Y33782D01*
G37*

%LPC*%
G36*
G01X23388Y33315D02*
G01X22981Y33315D01*
G01X23032Y33139D01*
G01X23085Y32967D01*
G01X23139Y32809D01*
G01X23187Y32670D01*
G01X23237Y32804D01*
G01X23289Y32962D01*
G01X23340Y33135D01*
G01X23388Y33315D01*
G37*

%LPD*%

%LPD*%
G36*
G01X22869Y36322D02*
G01X22699Y36322D01*
G01X22737Y36183D01*
G01X22778Y36033D01*
G01X22821Y35873D01*
G01X22869Y35710D01*
G01X22921Y35545D01*
G01X22974Y35380D01*
G01X23030Y35218D01*
G01X23090Y35065D01*
G01X23296Y35065D01*
G01X23355Y35218D01*
G01X23410Y35380D01*
G01X23462Y35545D01*
G01X23512Y35710D01*
G01X23558Y35873D01*
G01X23601Y36033D01*
G01X23642Y36183D01*
G01X23680Y36322D01*
G01X23502Y36322D01*
G01X23428Y35992D01*
G01X22943Y35992D01*
G01X22869Y36322D01*
G37*

%LPC*%
G36*
G01X23388Y35855D02*
G01X22981Y35855D01*
G01X23032Y35679D01*
G01X23085Y35507D01*
G01X23139Y35349D01*
G01X23187Y35210D01*
G01X23236Y35344D01*
G01X23289Y35502D01*
G01X23340Y35675D01*
G01X23388Y35855D01*
G37*

%LPD*%
G36*
G01X24273Y36346D02*
G01X24223Y36348D01*
G01X24126Y36339D01*
G01X24041Y36313D01*
G01X23969Y36269D01*
G01X23911Y36208D01*
G01X23865Y36131D01*
G01X23833Y36041D01*
G01X23813Y35937D01*
G01X23807Y35819D01*
G01X23819Y35647D01*
G01X23857Y35494D01*
G01X23917Y35364D01*
G01X24000Y35258D01*
G01X24101Y35173D01*
G01X24223Y35111D01*
G01X24364Y35072D01*
G01X24523Y35057D01*
G01X24536Y35200D01*
G01X24483Y35202D01*
G01X24434Y35207D01*
G01X24386Y35215D01*
G01X24340Y35225D01*
G01X24297Y35237D01*
G01X24256Y35252D01*
G01X24218Y35271D01*
G01X24183Y35294D01*
G01X24150Y35319D01*
G01X24120Y35348D01*
G01X24093Y35380D01*
G01X24068Y35415D01*
G01X24046Y35456D01*
G01X24026Y35500D01*
G01X24010Y35549D01*
G01X23997Y35601D01*
G01X24022Y35590D01*
G01X24048Y35581D01*
G01X24075Y35572D01*
G01X24104Y35565D01*
G01X24132Y35559D01*
G01X24162Y35554D01*
G01X24193Y35551D01*
G01X24226Y35550D01*
G01X24277Y35552D01*
G01X24324Y35558D01*
G01X24367Y35569D01*
G01X24406Y35583D01*
G01X24441Y35601D01*
G01X24473Y35621D01*
G01X24501Y35644D01*
G01X24525Y35669D01*
G01X24546Y35697D01*
G01X24563Y35727D01*
G01X24577Y35759D01*
G01X24589Y35794D01*
G01X24598Y35830D01*
G01X24604Y35866D01*
G01X24608Y35904D01*
G01X24609Y35941D01*
G01X24608Y35976D01*
G01X24604Y36010D01*
G01X24597Y36045D01*
G01X24575Y36117D01*
G01X24559Y36151D01*
G01X24540Y36183D01*
G01X24518Y36213D01*
G01X24493Y36242D01*
G01X24465Y36268D01*
G01X24434Y36292D01*
G01X24398Y36312D01*
G01X24360Y36328D01*
G01X24318Y36339D01*
G01X24273Y36346D01*
G37*

%LPC*%
G36*
G01X24250Y36206D02*
G01X24221Y36208D01*
G01X24187Y36206D01*
G01X24155Y36200D01*
G01X24127Y36191D01*
G01X24101Y36177D01*
G01X24079Y36160D01*
G01X24060Y36139D01*
G01X24043Y36117D01*
G01X24028Y36091D01*
G01X24015Y36063D01*
G01X24004Y36033D01*
G01X23996Y36001D01*
G01X23990Y35967D01*
G01X23984Y35932D01*
G01X23980Y35896D01*
G01X23978Y35858D01*
G01X23977Y35819D01*
G01X23977Y35758D01*
G01X23979Y35738D01*
G01X24007Y35726D01*
G01X24035Y35716D01*
G01X24062Y35707D01*
G01X24089Y35700D01*
G01X24116Y35694D01*
G01X24145Y35690D01*
G01X24176Y35688D01*
G01X24208Y35687D01*
G01X24264Y35691D01*
G01X24312Y35704D01*
G01X24351Y35724D01*
G01X24383Y35753D01*
G01X24408Y35790D01*
G01X24425Y35834D01*
G01X24436Y35884D01*
G01X24439Y35941D01*
G01X24439Y35963D01*
G01X24437Y35985D01*
G01X24434Y36009D01*
G01X24429Y36033D01*
G01X24422Y36056D01*
G01X24413Y36078D01*
G01X24403Y36099D01*
G01X24391Y36119D01*
G01X24376Y36137D01*
G01X24360Y36154D01*
G01X24342Y36169D01*
G01X24322Y36183D01*
G01X24300Y36194D01*
G01X24277Y36202D01*
G01X24250Y36206D01*
G37*

%LPD*%

%LPD*%
G36*
G01X22869Y38862D02*
G01X22699Y38862D01*
G01X22737Y38723D01*
G01X22778Y38573D01*
G01X22821Y38413D01*
G01X22869Y38250D01*
G01X22921Y38085D01*
G01X22974Y37920D01*
G01X23031Y37758D01*
G01X23090Y37605D01*
G01X23296Y37605D01*
G01X23355Y37758D01*
G01X23410Y37920D01*
G01X23463Y38085D01*
G01X23512Y38250D01*
G01X23558Y38413D01*
G01X23601Y38573D01*
G01X23642Y38723D01*
G01X23680Y38862D01*
G01X23502Y38862D01*
G01X23428Y38532D01*
G01X22943Y38532D01*
G01X22869Y38862D01*
G37*

%LPC*%
G36*
G01X23388Y38395D02*
G01X22981Y38395D01*
G01X23032Y38219D01*
G01X23085Y38047D01*
G01X23139Y37889D01*
G01X23187Y37750D01*
G01X23237Y37884D01*
G01X23289Y38042D01*
G01X23340Y38215D01*
G01X23388Y38395D01*
G37*

%LPD*%
G36*
G01X24383Y38863D02*
G01X24203Y38888D01*
G01X24147Y38886D01*
G01X24096Y38880D01*
G01X24049Y38870D01*
G01X24007Y38857D01*
G01X23971Y38840D01*
G01X23939Y38822D01*
G01X23910Y38800D01*
G01X23885Y38776D01*
G01X23864Y38750D01*
G01X23846Y38723D01*
G01X23831Y38694D01*
G01X23819Y38664D01*
G01X23812Y38634D01*
G01X23806Y38604D01*
G01X23803Y38574D01*
G01X23802Y38545D01*
G01X23805Y38493D01*
G01X23816Y38444D01*
G01X23835Y38397D01*
G01X23860Y38354D01*
G01X23890Y38315D01*
G01X23924Y38279D01*
G01X23961Y38247D01*
G01X24000Y38220D01*
G01X23924Y38165D01*
G01X23870Y38097D01*
G01X23838Y38016D01*
G01X23827Y37922D01*
G01X23829Y37887D01*
G01X23834Y37854D01*
G01X23843Y37821D01*
G01X23855Y37790D01*
G01X23869Y37759D01*
G01X23886Y37730D01*
G01X23906Y37704D01*
G01X23929Y37679D01*
G01X23954Y37657D01*
G01X23982Y37637D01*
G01X24014Y37620D01*
G01X24048Y37605D01*
G01X24085Y37593D01*
G01X24123Y37584D01*
G01X24163Y37579D01*
G01X24205Y37577D01*
G01X24254Y37579D01*
G01X24299Y37585D01*
G01X24341Y37594D01*
G01X24378Y37608D01*
G01X24413Y37624D01*
G01X24444Y37642D01*
G01X24472Y37662D01*
G01X24495Y37684D01*
G01X24516Y37709D01*
G01X24535Y37735D01*
G01X24549Y37762D01*
G01X24561Y37790D01*
G01X24570Y37819D01*
G01X24576Y37847D01*
G01X24580Y37875D01*
G01X24581Y37902D01*
G01X24578Y37955D01*
G01X24568Y38004D01*
G01X24550Y38049D01*
G01X24525Y38090D01*
G01X24498Y38127D01*
G01X24468Y38159D01*
G01X24436Y38189D01*
G01X24401Y38215D01*
G01X24492Y38271D01*
G01X24557Y38344D01*
G01X24596Y38432D01*
G01X24609Y38535D01*
G01X24584Y38679D01*
G01X24510Y38791D01*
G01X24383Y38863D01*
G37*

%LPC*%
G36*
G01X24287Y38143D02*
G01X24251Y38166D01*
G01X24187Y38149D01*
G01X24132Y38125D01*
G01X24088Y38096D01*
G01X24053Y38062D01*
G01X24027Y38026D01*
G01X24007Y37988D01*
G01X23996Y37948D01*
G01X23992Y37907D01*
G01X23993Y37890D01*
G01X23995Y37874D01*
G01X23998Y37857D01*
G01X24002Y37841D01*
G01X24009Y37825D01*
G01X24018Y37809D01*
G01X24029Y37794D01*
G01X24040Y37780D01*
G01X24055Y37767D01*
G01X24071Y37755D01*
G01X24088Y37744D01*
G01X24106Y37735D01*
G01X24128Y37727D01*
G01X24152Y37721D01*
G01X24178Y37718D01*
G01X24205Y37717D01*
G01X24232Y37718D01*
G01X24258Y37721D01*
G01X24281Y37727D01*
G01X24302Y37735D01*
G01X24321Y37745D01*
G01X24339Y37757D01*
G01X24354Y37769D01*
G01X24368Y37783D01*
G01X24380Y37797D01*
G01X24390Y37812D01*
G01X24399Y37827D01*
G01X24406Y37844D01*
G01X24412Y37860D01*
G01X24416Y37875D01*
G01X24418Y37889D01*
G01X24419Y37902D01*
G01X24416Y37949D01*
G01X24408Y37992D01*
G01X24393Y38029D01*
G01X24373Y38062D01*
G01X24348Y38092D01*
G01X24320Y38119D01*
G01X24287Y38143D01*
G37*
G36*
G01X24236Y38749D02*
G01X24205Y38751D01*
G01X24173Y38749D01*
G01X24144Y38745D01*
G01X24117Y38739D01*
G01X24091Y38730D01*
G01X24069Y38721D01*
G01X24050Y38709D01*
G01X24033Y38696D01*
G01X24017Y38682D01*
G01X24004Y38666D01*
G01X23992Y38650D01*
G01X23983Y38633D01*
G01X23977Y38616D01*
G01X23971Y38598D01*
G01X23967Y38581D01*
G01X23965Y38564D01*
G01X23964Y38547D01*
G01X23967Y38502D01*
G01X23975Y38460D01*
G01X23989Y38422D01*
G01X24007Y38387D01*
G01X24032Y38355D01*
G01X24062Y38325D01*
G01X24096Y38299D01*
G01X24134Y38276D01*
G01X24204Y38294D01*
G01X24265Y38316D01*
G01X24318Y38341D01*
G01X24363Y38370D01*
G01X24400Y38404D01*
G01X24426Y38444D01*
G01X24442Y38492D01*
G01X24447Y38547D01*
G01X24446Y38565D01*
G01X24444Y38583D01*
G01X24440Y38602D01*
G01X24434Y38621D01*
G01X24425Y38638D01*
G01X24415Y38656D01*
G01X24403Y38671D01*
G01X24388Y38687D01*
G01X24373Y38700D01*
G01X24356Y38712D01*
G01X24337Y38723D01*
G01X24315Y38733D01*
G01X24291Y38740D01*
G01X24264Y38746D01*
G01X24236Y38749D01*
G37*

%LPD*%

%LPD*%
G36*
G01X24586Y41402D02*
G01X23911Y41402D01*
G01X23911Y41260D01*
G01X24183Y41260D01*
G01X24183Y40379D01*
G01X24171Y40389D01*
G01X24158Y40399D01*
G01X24144Y40409D01*
G01X24129Y40419D01*
G01X24113Y40430D01*
G01X24097Y40442D01*
G01X24061Y40462D01*
G01X24041Y40473D01*
G01X24022Y40482D01*
G01X24002Y40491D01*
G01X23982Y40501D01*
G01X23942Y40517D01*
G01X23922Y40524D01*
G01X23903Y40531D01*
G01X23850Y40404D01*
G01X23902Y40382D01*
G01X23952Y40358D01*
G01X24002Y40331D01*
G01X24051Y40302D01*
G01X24099Y40269D01*
G01X24145Y40231D01*
G01X24189Y40190D01*
G01X24231Y40145D01*
G01X24350Y40145D01*
G01X24350Y41260D01*
G01X24586Y41260D01*
G01X24586Y41402D01*
G37*

%LPD*%
G36*
G01X22869Y41402D02*
G01X22699Y41402D01*
G01X22737Y41263D01*
G01X22778Y41113D01*
G01X22821Y40953D01*
G01X22869Y40790D01*
G01X22921Y40625D01*
G01X22974Y40460D01*
G01X23031Y40298D01*
G01X23090Y40145D01*
G01X23296Y40145D01*
G01X23355Y40298D01*
G01X23410Y40460D01*
G01X23463Y40625D01*
G01X23512Y40790D01*
G01X23558Y40953D01*
G01X23601Y41113D01*
G01X23642Y41263D01*
G01X23680Y41402D01*
G01X23502Y41402D01*
G01X23428Y41072D01*
G01X22943Y41072D01*
G01X22869Y41402D01*
G37*

%LPC*%
G36*
G01X23388Y40935D02*
G01X22981Y40935D01*
G01X23032Y40759D01*
G01X23085Y40587D01*
G01X23139Y40429D01*
G01X23187Y40290D01*
G01X23237Y40424D01*
G01X23289Y40582D01*
G01X23340Y40755D01*
G01X23388Y40935D01*
G37*

%LPD*%
G36*
G01X25315Y41417D02*
G01X25221Y41428D01*
G01X25128Y41417D01*
G01X25046Y41385D01*
G01X24976Y41333D01*
G01X24917Y41260D01*
G01X24869Y41166D01*
G01X24835Y41053D01*
G01X24814Y40922D01*
G01X24807Y40772D01*
G01X24814Y40623D01*
G01X24835Y40491D01*
G01X24869Y40379D01*
G01X24917Y40285D01*
G01X24976Y40212D01*
G01X25046Y40159D01*
G01X25128Y40128D01*
G01X25221Y40117D01*
G01X25315Y40128D01*
G01X25397Y40159D01*
G01X25469Y40212D01*
G01X25529Y40285D01*
G01X25576Y40379D01*
G01X25609Y40491D01*
G01X25629Y40623D01*
G01X25635Y40772D01*
G01X25629Y40922D01*
G01X25609Y41053D01*
G01X25576Y41166D01*
G01X25529Y41260D01*
G01X25469Y41333D01*
G01X25397Y41385D01*
G01X25315Y41417D01*
G37*

%LPC*%
G36*
G01X25254Y41278D02*
G01X25221Y41280D01*
G01X25188Y41278D01*
G01X25158Y41270D01*
G01X25130Y41257D01*
G01X25105Y41240D01*
G01X25083Y41218D01*
G01X25063Y41192D01*
G01X25046Y41163D01*
G01X25031Y41130D01*
G01X25018Y41094D01*
G01X25007Y41055D01*
G01X24997Y41013D01*
G01X24990Y40968D01*
G01X24985Y40921D01*
G01X24981Y40873D01*
G01X24979Y40824D01*
G01X24978Y40772D01*
G01X24979Y40721D01*
G01X24981Y40671D01*
G01X24985Y40623D01*
G01X24990Y40577D01*
G01X24997Y40532D01*
G01X25007Y40489D01*
G01X25018Y40450D01*
G01X25031Y40414D01*
G01X25046Y40382D01*
G01X25063Y40353D01*
G01X25083Y40327D01*
G01X25105Y40305D01*
G01X25130Y40287D01*
G01X25158Y40275D01*
G01X25188Y40267D01*
G01X25221Y40264D01*
G01X25254Y40267D01*
G01X25285Y40275D01*
G01X25313Y40287D01*
G01X25338Y40305D01*
G01X25360Y40327D01*
G01X25379Y40353D01*
G01X25397Y40382D01*
G01X25412Y40414D01*
G01X25425Y40450D01*
G01X25436Y40489D01*
G01X25445Y40532D01*
G01X25453Y40577D01*
G01X25458Y40623D01*
G01X25462Y40671D01*
G01X25464Y40721D01*
G01X25465Y40772D01*
G01X25464Y40824D01*
G01X25462Y40873D01*
G01X25458Y40921D01*
G01X25453Y40968D01*
G01X25445Y41013D01*
G01X25436Y41055D01*
G01X25425Y41094D01*
G01X25412Y41130D01*
G01X25397Y41163D01*
G01X25379Y41192D01*
G01X25360Y41218D01*
G01X25338Y41240D01*
G01X25313Y41257D01*
G01X25285Y41270D01*
G01X25254Y41278D01*
G37*

%LPD*%
G36*
G01X25251Y40876D02*
G01X25227Y40879D01*
G01X25201Y40876D01*
G01X25178Y40869D01*
G01X25158Y40858D01*
G01X25140Y40841D01*
G01X25126Y40821D01*
G01X25115Y40799D01*
G01X25109Y40775D01*
G01X25107Y40749D01*
G01X25109Y40724D01*
G01X25115Y40699D01*
G01X25126Y40677D01*
G01X25140Y40656D01*
G01X25158Y40638D01*
G01X25178Y40625D01*
G01X25201Y40617D01*
G01X25227Y40615D01*
G01X25251Y40617D01*
G01X25272Y40625D01*
G01X25292Y40638D01*
G01X25308Y40656D01*
G01X25321Y40677D01*
G01X25331Y40699D01*
G01X25336Y40724D01*
G01X25338Y40749D01*
G01X25336Y40775D01*
G01X25331Y40799D01*
G01X25321Y40821D01*
G01X25308Y40841D01*
G01X25292Y40858D01*
G01X25272Y40869D01*
G01X25251Y40876D01*
G37*

%LPD*%

%LPD*%
G36*
G01X24586Y43942D02*
G01X23911Y43942D01*
G01X23911Y43800D01*
G01X24183Y43800D01*
G01X24183Y42919D01*
G01X24171Y42929D01*
G01X24158Y42939D01*
G01X24144Y42949D01*
G01X24129Y42959D01*
G01X24113Y42970D01*
G01X24097Y42982D01*
G01X24061Y43002D01*
G01X24041Y43013D01*
G01X24022Y43022D01*
G01X24002Y43031D01*
G01X23982Y43041D01*
G01X23942Y43057D01*
G01X23922Y43064D01*
G01X23903Y43071D01*
G01X23850Y42944D01*
G01X23902Y42922D01*
G01X23952Y42898D01*
G01X24002Y42871D01*
G01X24051Y42842D01*
G01X24099Y42809D01*
G01X24145Y42771D01*
G01X24189Y42730D01*
G01X24231Y42685D01*
G01X24350Y42685D01*
G01X24350Y43800D01*
G01X24586Y43800D01*
G01X24586Y43942D01*
G37*

%LPD*%
G36*
G01X22869Y43942D02*
G01X22699Y43942D01*
G01X22737Y43803D01*
G01X22778Y43653D01*
G01X22821Y43493D01*
G01X22869Y43330D01*
G01X22921Y43165D01*
G01X22974Y43000D01*
G01X23031Y42838D01*
G01X23090Y42685D01*
G01X23296Y42685D01*
G01X23355Y42838D01*
G01X23410Y43000D01*
G01X23463Y43165D01*
G01X23512Y43330D01*
G01X23558Y43493D01*
G01X23601Y43653D01*
G01X23642Y43803D01*
G01X23680Y43942D01*
G01X23502Y43942D01*
G01X23428Y43612D01*
G01X22943Y43612D01*
G01X22869Y43942D01*
G37*

%LPC*%
G36*
G01X23388Y43475D02*
G01X22981Y43475D01*
G01X23032Y43299D01*
G01X23085Y43127D01*
G01X23139Y42969D01*
G01X23187Y42830D01*
G01X23237Y42964D01*
G01X23289Y43122D01*
G01X23340Y43295D01*
G01X23388Y43475D01*
G37*

%LPD*%
G36*
G01X25618Y43942D02*
G01X24856Y43942D01*
G01X24853Y43927D01*
G01X24853Y43899D01*
G01X24855Y43858D01*
G01X24860Y43818D01*
G01X24869Y43779D01*
G01X24881Y43742D01*
G01X24897Y43705D01*
G01X24915Y43670D01*
G01X24934Y43635D01*
G01X24955Y43602D01*
G01X24978Y43570D01*
G01X25003Y43539D01*
G01X25029Y43509D01*
G01X25056Y43480D01*
G01X25084Y43451D01*
G01X25112Y43423D01*
G01X25139Y43395D01*
G01X25188Y43345D01*
G01X25232Y43301D01*
G01X25252Y43279D01*
G01X25273Y43258D01*
G01X25292Y43237D01*
G01X25310Y43216D01*
G01X25326Y43196D01*
G01X25341Y43174D01*
G01X25355Y43152D01*
G01X25367Y43129D01*
G01X25376Y43107D01*
G01X25386Y43084D01*
G01X25392Y43060D01*
G01X25396Y43036D01*
G01X25397Y43013D01*
G01X25396Y42986D01*
G01X25392Y42961D01*
G01X25387Y42939D01*
G01X25379Y42919D01*
G01X25369Y42900D01*
G01X25359Y42884D01*
G01X25346Y42869D01*
G01X25333Y42855D01*
G01X25317Y42843D01*
G01X25301Y42833D01*
G01X25283Y42824D01*
G01X25265Y42817D01*
G01X25245Y42811D01*
G01X25224Y42807D01*
G01X25203Y42805D01*
G01X25181Y42804D01*
G01X25155Y42805D01*
G01X25130Y42808D01*
G01X25107Y42813D01*
G01X25084Y42820D01*
G01X25063Y42826D01*
G01X25044Y42834D01*
G01X25025Y42843D01*
G01X24991Y42863D01*
G01X24976Y42873D01*
G01X24962Y42883D01*
G01X24950Y42893D01*
G01X24938Y42902D01*
G01X24927Y42909D01*
G01X24912Y42924D01*
G01X24830Y42807D01*
G01X24839Y42797D01*
G01X24850Y42787D01*
G01X24863Y42774D01*
G01X24879Y42761D01*
G01X24896Y42748D01*
G01X24915Y42736D01*
G01X24935Y42725D01*
G01X24957Y42713D01*
G01X24981Y42701D01*
G01X25006Y42690D01*
G01X25031Y42680D01*
G01X25059Y42672D01*
G01X25087Y42666D01*
G01X25117Y42661D01*
G01X25148Y42658D01*
G01X25181Y42657D01*
G01X25353Y42679D01*
G01X25473Y42746D01*
G01X25544Y42856D01*
G01X25567Y43005D01*
G01X25565Y43038D01*
G01X25561Y43070D01*
G01X25553Y43101D01*
G01X25541Y43132D01*
G01X25528Y43162D01*
G01X25513Y43192D01*
G01X25495Y43222D01*
G01X25475Y43251D01*
G01X25453Y43280D01*
G01X25430Y43310D01*
G01X25405Y43339D01*
G01X25379Y43368D01*
G01X25354Y43396D01*
G01X25300Y43452D01*
G01X25201Y43551D01*
G01X25181Y43573D01*
G01X25143Y43617D01*
G01X25125Y43640D01*
G01X25107Y43661D01*
G01X25091Y43683D01*
G01X25077Y43705D01*
G01X25064Y43726D01*
G01X25053Y43747D01*
G01X25045Y43766D01*
G01X25040Y43784D01*
G01X25039Y43800D01*
G01X25618Y43800D01*
G01X25618Y43942D01*
G37*

%LPD*%

%LPD*%
G36*
G01X25511Y46482D02*
G01X25348Y46482D01*
G01X25348Y46162D01*
G01X24787Y46162D01*
G01X24787Y46048D01*
G01X24805Y46006D01*
G01X24827Y45960D01*
G01X24853Y45912D01*
G01X24881Y45860D01*
G01X24945Y45753D01*
G01X25016Y45642D01*
G01X25094Y45530D01*
G01X25176Y45421D01*
G01X25262Y45317D01*
G01X25348Y45225D01*
G01X25511Y45225D01*
G01X25511Y46023D01*
G01X25661Y46023D01*
G01X25661Y46162D01*
G01X25511Y46162D01*
G01X25511Y46482D01*
G37*

%LPC*%
G36*
G01X25348Y46023D02*
G01X24950Y46023D01*
G01X24968Y45983D01*
G01X24988Y45943D01*
G01X25009Y45903D01*
G01X25031Y45863D01*
G01X25054Y45822D01*
G01X25104Y45742D01*
G01X25130Y45702D01*
G01X25157Y45663D01*
G01X25211Y45589D01*
G01X25239Y45553D01*
G01X25267Y45518D01*
G01X25295Y45485D01*
G01X25322Y45453D01*
G01X25348Y45423D01*
G01X25348Y46023D01*
G37*

%LPD*%
G36*
G01X24586Y46482D02*
G01X23911Y46482D01*
G01X23911Y46340D01*
G01X24183Y46340D01*
G01X24183Y45459D01*
G01X24171Y45469D01*
G01X24158Y45479D01*
G01X24144Y45489D01*
G01X24129Y45499D01*
G01X24113Y45510D01*
G01X24097Y45522D01*
G01X24061Y45542D01*
G01X24041Y45553D01*
G01X24022Y45562D01*
G01X24002Y45571D01*
G01X23982Y45581D01*
G01X23942Y45597D01*
G01X23922Y45604D01*
G01X23903Y45611D01*
G01X23850Y45484D01*
G01X23902Y45462D01*
G01X23952Y45438D01*
G01X24002Y45411D01*
G01X24051Y45382D01*
G01X24099Y45349D01*
G01X24145Y45311D01*
G01X24189Y45270D01*
G01X24231Y45225D01*
G01X24350Y45225D01*
G01X24350Y46340D01*
G01X24586Y46340D01*
G01X24586Y46482D01*
G37*

%LPD*%
G36*
G01X22869Y46482D02*
G01X22699Y46482D01*
G01X22737Y46343D01*
G01X22778Y46193D01*
G01X22821Y46033D01*
G01X22869Y45870D01*
G01X22921Y45705D01*
G01X22974Y45540D01*
G01X23031Y45378D01*
G01X23090Y45225D01*
G01X23296Y45225D01*
G01X23355Y45378D01*
G01X23410Y45540D01*
G01X23463Y45705D01*
G01X23512Y45870D01*
G01X23558Y46033D01*
G01X23601Y46193D01*
G01X23642Y46343D01*
G01X23680Y46482D01*
G01X23502Y46482D01*
G01X23428Y46152D01*
G01X22943Y46152D01*
G01X22869Y46482D01*
G37*

%LPC*%
G36*
G01X23388Y46015D02*
G01X22981Y46015D01*
G01X23032Y45839D01*
G01X23085Y45667D01*
G01X23139Y45509D01*
G01X23187Y45370D01*
G01X23237Y45504D01*
G01X23289Y45662D01*
G01X23340Y45835D01*
G01X23388Y46015D01*
G37*

%LPD*%

%LPD*%
G36*
G01X25420Y49022D02*
G01X24764Y49022D01*
G01X24764Y48880D01*
G01X25008Y48880D01*
G01X25008Y47907D01*
G01X24764Y47907D01*
G01X24764Y47765D01*
G01X25420Y47765D01*
G01X25420Y47907D01*
G01X25176Y47907D01*
G01X25176Y48880D01*
G01X25420Y48880D01*
G01X25420Y49022D01*
G37*

%LPD*%
G36*
G01X23827Y49022D02*
G01X23659Y49022D01*
G01X23659Y47765D01*
G01X23827Y47765D01*
G01X23827Y48296D01*
G01X24325Y48296D01*
G01X24325Y47765D01*
G01X24492Y47765D01*
G01X24492Y49022D01*
G01X24325Y49022D01*
G01X24325Y48438D01*
G01X23827Y48438D01*
G01X23827Y49022D01*
G37*

%LPD*%
G36*
G01X22867Y49022D02*
G01X22699Y49022D01*
G01X22699Y47783D01*
G01X22759Y47771D01*
G01X22781Y47768D01*
G01X22802Y47765D01*
G01X22824Y47762D01*
G01X22846Y47760D01*
G01X22867Y47757D01*
G01X22890Y47756D01*
G01X22912Y47755D01*
G01X22933Y47753D01*
G01X22953Y47752D01*
G01X23029Y47752D01*
G01X23084Y47754D01*
G01X23134Y47759D01*
G01X23181Y47768D01*
G01X23225Y47780D01*
G01X23265Y47796D01*
G01X23302Y47814D01*
G01X23335Y47837D01*
G01X23365Y47861D01*
G01X23391Y47888D01*
G01X23413Y47917D01*
G01X23433Y47949D01*
G01X23449Y47983D01*
G01X23461Y48020D01*
G01X23469Y48059D01*
G01X23475Y48100D01*
G01X23476Y48143D01*
G01X23448Y48317D01*
G01X23360Y48446D01*
G01X23295Y48492D01*
G01X23216Y48525D01*
G01X23122Y48546D01*
G01X23014Y48552D01*
G01X22867Y48552D01*
G01X22867Y49022D01*
G37*

%LPC*%
G36*
G01X23004Y48410D02*
G01X22867Y48410D01*
G01X22867Y47902D01*
G01X22881Y47901D01*
G01X22898Y47900D01*
G01X22918Y47898D01*
G01X22941Y47897D01*
G01X23042Y47897D01*
G01X23158Y47913D01*
G01X23240Y47960D01*
G01X23290Y48038D01*
G01X23306Y48149D01*
G01X23302Y48214D01*
G01X23288Y48268D01*
G01X23265Y48314D01*
G01X23233Y48349D01*
G01X23190Y48376D01*
G01X23138Y48395D01*
G01X23076Y48407D01*
G01X23004Y48410D01*
G37*

%LPD*%
G36*
G01X26201Y49037D02*
G01X26108Y49048D01*
G01X26014Y49037D01*
G01X25933Y49005D01*
G01X25862Y48953D01*
G01X25803Y48880D01*
G01X25755Y48786D01*
G01X25721Y48673D01*
G01X25701Y48542D01*
G01X25694Y48392D01*
G01X25701Y48243D01*
G01X25721Y48111D01*
G01X25755Y47999D01*
G01X25803Y47905D01*
G01X25862Y47832D01*
G01X25933Y47779D01*
G01X26014Y47748D01*
G01X26108Y47737D01*
G01X26201Y47748D01*
G01X26284Y47779D01*
G01X26355Y47832D01*
G01X26415Y47905D01*
G01X26462Y47999D01*
G01X26496Y48111D01*
G01X26515Y48243D01*
G01X26522Y48392D01*
G01X26515Y48542D01*
G01X26496Y48673D01*
G01X26462Y48786D01*
G01X26415Y48880D01*
G01X26355Y48953D01*
G01X26284Y49005D01*
G01X26201Y49037D01*
G37*

%LPC*%
G36*
G01X26141Y48898D02*
G01X26108Y48900D01*
G01X26075Y48898D01*
G01X26044Y48890D01*
G01X26016Y48877D01*
G01X25991Y48860D01*
G01X25969Y48838D01*
G01X25950Y48812D01*
G01X25933Y48783D01*
G01X25917Y48750D01*
G01X25905Y48714D01*
G01X25894Y48675D01*
G01X25884Y48633D01*
G01X25877Y48588D01*
G01X25871Y48541D01*
G01X25867Y48493D01*
G01X25865Y48444D01*
G01X25864Y48392D01*
G01X25865Y48341D01*
G01X25867Y48291D01*
G01X25871Y48243D01*
G01X25877Y48197D01*
G01X25884Y48152D01*
G01X25894Y48109D01*
G01X25905Y48070D01*
G01X25917Y48034D01*
G01X25933Y48002D01*
G01X25950Y47973D01*
G01X25969Y47947D01*
G01X25991Y47925D01*
G01X26016Y47907D01*
G01X26044Y47895D01*
G01X26075Y47887D01*
G01X26108Y47884D01*
G01X26141Y47887D01*
G01X26171Y47895D01*
G01X26199Y47907D01*
G01X26225Y47925D01*
G01X26247Y47947D01*
G01X26266Y47973D01*
G01X26283Y48002D01*
G01X26298Y48034D01*
G01X26312Y48070D01*
G01X26323Y48109D01*
G01X26332Y48152D01*
G01X26339Y48197D01*
G01X26345Y48243D01*
G01X26349Y48291D01*
G01X26351Y48341D01*
G01X26352Y48392D01*
G01X26351Y48444D01*
G01X26349Y48493D01*
G01X26345Y48541D01*
G01X26339Y48588D01*
G01X26332Y48633D01*
G01X26323Y48675D01*
G01X26312Y48714D01*
G01X26298Y48750D01*
G01X26283Y48783D01*
G01X26266Y48812D01*
G01X26247Y48838D01*
G01X26225Y48860D01*
G01X26199Y48877D01*
G01X26171Y48890D01*
G01X26141Y48898D01*
G37*

%LPD*%
G36*
G01X26137Y48496D02*
G01X26113Y48499D01*
G01X26088Y48496D01*
G01X26065Y48489D01*
G01X26044Y48478D01*
G01X26027Y48461D01*
G01X26012Y48441D01*
G01X26002Y48419D01*
G01X25996Y48395D01*
G01X25994Y48369D01*
G01X25996Y48344D01*
G01X26002Y48319D01*
G01X26012Y48297D01*
G01X26027Y48276D01*
G01X26044Y48258D01*
G01X26065Y48245D01*
G01X26088Y48237D01*
G01X26113Y48235D01*
G01X26137Y48237D01*
G01X26159Y48245D01*
G01X26178Y48258D01*
G01X26194Y48276D01*
G01X26207Y48297D01*
G01X26217Y48319D01*
G01X26223Y48344D01*
G01X26225Y48369D01*
G01X26223Y48395D01*
G01X26217Y48419D01*
G01X26207Y48441D01*
G01X26194Y48461D01*
G01X26178Y48478D01*
G01X26159Y48489D01*
G01X26137Y48496D01*
G37*

%LPD*%

%LPD*%
G36*
G01X23212Y51562D02*
G01X23045Y51562D01*
G01X23045Y50447D01*
G01X22699Y50447D01*
G01X22699Y50305D01*
G01X23558Y50305D01*
G01X23558Y50447D01*
G01X23212Y50447D01*
G01X23212Y51562D01*
G37*

%LPD*%

%LPD*%
G36*
G01X24929Y54102D02*
G01X24774Y54102D01*
G01X24757Y53971D01*
G01X24741Y53828D01*
G01X24729Y53677D01*
G01X24719Y53518D01*
G01X24707Y53353D01*
G01X24698Y53183D01*
G01X24691Y53013D01*
G01X24686Y52845D01*
G01X24848Y52845D01*
G01X24868Y53894D01*
G01X25051Y53322D01*
G01X25199Y53322D01*
G01X25387Y53894D01*
G01X25407Y52845D01*
G01X25569Y52845D01*
G01X25563Y53015D01*
G01X25554Y53185D01*
G01X25546Y53353D01*
G01X25534Y53518D01*
G01X25521Y53677D01*
G01X25508Y53828D01*
G01X25493Y53970D01*
G01X25478Y54102D01*
G01X25323Y54102D01*
G01X25125Y53477D01*
G01X24929Y54102D01*
G37*

%LPD*%
G36*
G01X22867Y54102D02*
G01X22699Y54102D01*
G01X22699Y52863D01*
G01X22715Y52859D01*
G01X22732Y52855D01*
G01X22751Y52851D01*
G01X22770Y52848D01*
G01X22790Y52845D01*
G01X22830Y52841D01*
G01X22852Y52840D01*
G01X22872Y52838D01*
G01X22913Y52836D01*
G01X22953Y52834D01*
G01X22972Y52833D01*
G01X22990Y52832D01*
G01X23007Y52832D01*
G01X23205Y52857D01*
G01X23349Y52931D01*
G01X23435Y53055D01*
G01X23464Y53229D01*
G01X23460Y53285D01*
G01X23449Y53338D01*
G01X23430Y53386D01*
G01X23403Y53432D01*
G01X23370Y53473D01*
G01X23331Y53510D01*
G01X23287Y53542D01*
G01X23238Y53569D01*
G01X23253Y53595D01*
G01X23270Y53622D01*
G01X23287Y53651D01*
G01X23306Y53681D01*
G01X23326Y53712D01*
G01X23344Y53744D01*
G01X23364Y53778D01*
G01X23382Y53813D01*
G01X23402Y53848D01*
G01X23421Y53884D01*
G01X23440Y53921D01*
G01X23477Y53994D01*
G01X23495Y54031D01*
G01X23512Y54067D01*
G01X23527Y54102D01*
G01X23349Y54102D01*
G01X23286Y53958D01*
G01X23217Y53823D01*
G01X23146Y53701D01*
G01X23078Y53604D01*
G01X23071Y53605D01*
G01X23053Y53607D01*
G01X22867Y53607D01*
G01X22867Y54102D01*
G37*

%LPC*%
G36*
G01X23012Y53467D02*
G01X22867Y53467D01*
G01X22867Y52982D01*
G01X22879Y52981D01*
G01X22893Y52980D01*
G01X22910Y52978D01*
G01X22930Y52977D01*
G01X23019Y52977D01*
G01X23047Y52978D01*
G01X23074Y52980D01*
G01X23100Y52983D01*
G01X23126Y52987D01*
G01X23149Y52994D01*
G01X23172Y53003D01*
G01X23212Y53025D01*
G01X23229Y53041D01*
G01X23245Y53058D01*
G01X23259Y53079D01*
G01X23271Y53102D01*
G01X23281Y53126D01*
G01X23288Y53154D01*
G01X23292Y53186D01*
G01X23294Y53221D01*
G01X23292Y53257D01*
G01X23288Y53290D01*
G01X23281Y53319D01*
G01X23271Y53345D01*
G01X23258Y53368D01*
G01X23243Y53389D01*
G01X23227Y53406D01*
G01X23207Y53422D01*
G01X23185Y53433D01*
G01X23160Y53443D01*
G01X23134Y53451D01*
G01X23106Y53457D01*
G01X23077Y53462D01*
G01X23045Y53465D01*
G01X23012Y53467D01*
G37*

%LPD*%
G36*
G01X23916Y54438D02*
G01X23743Y54438D01*
G01X24310Y52682D01*
G01X24480Y52682D01*
G01X23916Y54438D01*
G37*

%LPD*%

%LPD*%
G36*
G01X24495Y56642D02*
G01X23819Y56642D01*
G01X23819Y56500D01*
G01X24091Y56500D01*
G01X24091Y55619D01*
G01X24079Y55629D01*
G01X24053Y55649D01*
G01X24038Y55659D01*
G01X24022Y55670D01*
G01X24005Y55682D01*
G01X23988Y55692D01*
G01X23969Y55702D01*
G01X23950Y55713D01*
G01X23931Y55722D01*
G01X23911Y55731D01*
G01X23890Y55741D01*
G01X23850Y55757D01*
G01X23812Y55771D01*
G01X23758Y55644D01*
G01X23810Y55622D01*
G01X23861Y55598D01*
G01X23910Y55571D01*
G01X23959Y55542D01*
G01X24007Y55509D01*
G01X24054Y55471D01*
G01X24098Y55430D01*
G01X24139Y55385D01*
G01X24259Y55385D01*
G01X24259Y56500D01*
G01X24495Y56500D01*
G01X24495Y56642D01*
G37*

%LPD*%
G36*
G01X23013Y56650D02*
G01X22953Y56652D01*
G01X22828Y56645D01*
G01X22699Y56622D01*
G01X22699Y55403D01*
G01X22828Y55380D01*
G01X22953Y55372D01*
G01X23013Y55374D01*
G01X23071Y55381D01*
G01X23126Y55392D01*
G01X23179Y55408D01*
G01X23231Y55427D01*
G01X23278Y55452D01*
G01X23322Y55483D01*
G01X23362Y55520D01*
G01X23398Y55561D01*
G01X23430Y55607D01*
G01X23458Y55660D01*
G01X23482Y55718D01*
G01X23514Y55852D01*
G01X23525Y56012D01*
G01X23514Y56174D01*
G01X23482Y56310D01*
G01X23458Y56367D01*
G01X23430Y56420D01*
G01X23398Y56466D01*
G01X23362Y56508D01*
G01X23322Y56543D01*
G01X23278Y56573D01*
G01X23231Y56598D01*
G01X23179Y56617D01*
G01X23126Y56633D01*
G01X23071Y56643D01*
G01X23013Y56650D01*
G37*

%LPC*%
G36*
G01X23016Y56506D02*
G01X22971Y56508D01*
G01X22945Y56507D01*
G01X22918Y56506D01*
G01X22892Y56505D01*
G01X22867Y56503D01*
G01X22867Y55522D01*
G01X22889Y55520D01*
G01X22900Y55518D01*
G01X22913Y55517D01*
G01X22963Y55517D01*
G01X23133Y55547D01*
G01X23255Y55636D01*
G01X23299Y55704D01*
G01X23330Y55790D01*
G01X23348Y55892D01*
G01X23355Y56012D01*
G01X23353Y56076D01*
G01X23347Y56135D01*
G01X23339Y56189D01*
G01X23327Y56238D01*
G01X23312Y56283D01*
G01X23296Y56324D01*
G01X23276Y56361D01*
G01X23253Y56393D01*
G01X23228Y56422D01*
G01X23199Y56446D01*
G01X23168Y56465D01*
G01X23134Y56480D01*
G01X23097Y56492D01*
G01X23057Y56501D01*
G01X23016Y56506D01*
G37*

%LPD*%

%LPD*%
G36*
G01X23013Y59190D02*
G01X22953Y59192D01*
G01X22828Y59185D01*
G01X22699Y59162D01*
G01X22699Y57943D01*
G01X22828Y57920D01*
G01X22953Y57912D01*
G01X23013Y57914D01*
G01X23071Y57921D01*
G01X23126Y57932D01*
G01X23179Y57948D01*
G01X23231Y57967D01*
G01X23278Y57992D01*
G01X23322Y58023D01*
G01X23362Y58060D01*
G01X23398Y58101D01*
G01X23430Y58147D01*
G01X23458Y58200D01*
G01X23482Y58258D01*
G01X23514Y58392D01*
G01X23525Y58552D01*
G01X23514Y58714D01*
G01X23482Y58850D01*
G01X23458Y58907D01*
G01X23430Y58960D01*
G01X23398Y59006D01*
G01X23362Y59048D01*
G01X23322Y59083D01*
G01X23278Y59113D01*
G01X23231Y59138D01*
G01X23179Y59157D01*
G01X23126Y59173D01*
G01X23071Y59183D01*
G01X23013Y59190D01*
G37*

%LPC*%
G36*
G01X23016Y59046D02*
G01X22971Y59048D01*
G01X22945Y59047D01*
G01X22918Y59046D01*
G01X22892Y59045D01*
G01X22867Y59043D01*
G01X22867Y58062D01*
G01X22889Y58060D01*
G01X22900Y58058D01*
G01X22913Y58057D01*
G01X22963Y58057D01*
G01X23133Y58087D01*
G01X23255Y58176D01*
G01X23299Y58244D01*
G01X23330Y58330D01*
G01X23348Y58432D01*
G01X23355Y58552D01*
G01X23353Y58616D01*
G01X23347Y58675D01*
G01X23339Y58729D01*
G01X23327Y58778D01*
G01X23312Y58823D01*
G01X23296Y58864D01*
G01X23276Y58901D01*
G01X23253Y58933D01*
G01X23228Y58962D01*
G01X23199Y58986D01*
G01X23168Y59005D01*
G01X23134Y59020D01*
G01X23097Y59032D01*
G01X23057Y59041D01*
G01X23016Y59046D01*
G37*

%LPD*%
G36*
G01X24097Y59206D02*
G01X24038Y59208D01*
G01X24014Y59207D01*
G01X23991Y59206D01*
G01X23966Y59205D01*
G01X23941Y59203D01*
G01X23917Y59199D01*
G01X23872Y59188D01*
G01X23850Y59182D01*
G01X23829Y59177D01*
G01X23809Y59172D01*
G01X23791Y59167D01*
G01X23774Y59162D01*
G01X23758Y59156D01*
G01X23745Y59151D01*
G01X23734Y59147D01*
G01X23725Y59144D01*
G01X23758Y58999D01*
G01X23777Y59008D01*
G01X23801Y59017D01*
G01X23830Y59026D01*
G01X23863Y59037D01*
G01X23900Y59048D01*
G01X23942Y59055D01*
G01X23988Y59059D01*
G01X24038Y59060D01*
G01X24112Y59056D01*
G01X24175Y59045D01*
G01X24226Y59025D01*
G01X24266Y58997D01*
G01X24295Y58962D01*
G01X24316Y58922D01*
G01X24328Y58876D01*
G01X24332Y58824D01*
G01X24331Y58791D01*
G01X24325Y58761D01*
G01X24317Y58734D01*
G01X24305Y58710D01*
G01X24289Y58687D01*
G01X24272Y58667D01*
G01X24253Y58649D01*
G01X24231Y58634D01*
G01X24206Y58620D01*
G01X24180Y58609D01*
G01X24152Y58600D01*
G01X24122Y58593D01*
G01X24091Y58587D01*
G01X24060Y58583D01*
G01X24027Y58581D01*
G01X23995Y58580D01*
G01X23951Y58580D01*
G01X23951Y58446D01*
G01X24010Y58446D01*
G01X24033Y58445D01*
G01X24056Y58443D01*
G01X24080Y58440D01*
G01X24104Y58436D01*
G01X24126Y58429D01*
G01X24149Y58422D01*
G01X24169Y58413D01*
G01X24190Y58402D01*
G01X24210Y58390D01*
G01X24226Y58375D01*
G01X24241Y58358D01*
G01X24254Y58339D01*
G01X24265Y58317D01*
G01X24273Y58293D01*
G01X24278Y58265D01*
G01X24279Y58235D01*
G01X24275Y58187D01*
G01X24263Y58146D01*
G01X24244Y58113D01*
G01X24216Y58088D01*
G01X24182Y58069D01*
G01X24145Y58055D01*
G01X24106Y58047D01*
G01X24066Y58044D01*
G01X24023Y58046D01*
G01X23984Y58050D01*
G01X23948Y58059D01*
G01X23916Y58070D01*
G01X23887Y58082D01*
G01X23860Y58095D01*
G01X23836Y58108D01*
G01X23814Y58121D01*
G01X23751Y57994D01*
G01X23775Y57978D01*
G01X23805Y57963D01*
G01X23840Y57946D01*
G01X23880Y57930D01*
G01X23925Y57916D01*
G01X23971Y57905D01*
G01X24020Y57899D01*
G01X24071Y57897D01*
G01X24119Y57899D01*
G01X24163Y57903D01*
G01X24204Y57910D01*
G01X24241Y57920D01*
G01X24275Y57934D01*
G01X24306Y57950D01*
G01X24333Y57968D01*
G01X24358Y57988D01*
G01X24379Y58012D01*
G01X24398Y58038D01*
G01X24414Y58066D01*
G01X24426Y58095D01*
G01X24437Y58125D01*
G01X24444Y58157D01*
G01X24448Y58190D01*
G01X24449Y58225D01*
G01X24446Y58272D01*
G01X24437Y58317D01*
G01X24421Y58358D01*
G01X24398Y58395D01*
G01X24370Y58427D01*
G01X24338Y58455D01*
G01X24303Y58479D01*
G01X24264Y58499D01*
G01X24312Y58516D01*
G01X24356Y58541D01*
G01X24397Y58572D01*
G01X24434Y58611D01*
G01X24465Y58655D01*
G01X24487Y58706D01*
G01X24501Y58764D01*
G01X24505Y58829D01*
G01X24504Y58869D01*
G01X24498Y58907D01*
G01X24489Y58944D01*
G01X24477Y58979D01*
G01X24461Y59013D01*
G01X24442Y59045D01*
G01X24420Y59074D01*
G01X24393Y59101D01*
G01X24363Y59125D01*
G01X24329Y59146D01*
G01X24291Y59164D01*
G01X24249Y59180D01*
G01X24202Y59192D01*
G01X24152Y59201D01*
G01X24097Y59206D01*
G37*

%LPD*%

%LPD*%
G36*
G01X24105Y61746D02*
G01X24048Y61748D01*
G01X23976Y61745D01*
G01X23951Y61743D01*
G01X23929Y61739D01*
G01X23906Y61734D01*
G01X23884Y61730D01*
G01X23842Y61720D01*
G01X23822Y61714D01*
G01X23771Y61697D01*
G01X23758Y61692D01*
G01X23748Y61688D01*
G01X23741Y61684D01*
G01X23774Y61539D01*
G01X23791Y61548D01*
G01X23814Y61557D01*
G01X23841Y61566D01*
G01X23873Y61577D01*
G01X23909Y61588D01*
G01X23950Y61595D01*
G01X23996Y61599D01*
G01X24045Y61600D01*
G01X24085Y61599D01*
G01X24120Y61596D01*
G01X24152Y61590D01*
G01X24180Y61583D01*
G01X24206Y61573D01*
G01X24230Y61561D01*
G01X24251Y61548D01*
G01X24269Y61532D01*
G01X24284Y61516D01*
G01X24297Y61499D01*
G01X24309Y61480D01*
G01X24317Y61461D01*
G01X24324Y61440D01*
G01X24329Y61419D01*
G01X24331Y61397D01*
G01X24332Y61374D01*
G01X24331Y61341D01*
G01X24327Y61309D01*
G01X24320Y61280D01*
G01X24310Y61252D01*
G01X24296Y61226D01*
G01X24278Y61203D01*
G01X24255Y61181D01*
G01X24228Y61161D01*
G01X24197Y61144D01*
G01X24160Y61129D01*
G01X24118Y61116D01*
G01X24071Y61105D01*
G01X23957Y61092D01*
G01X23817Y61087D01*
G01X23829Y60999D01*
G01X23833Y60959D01*
G01X23841Y60881D01*
G01X23844Y60842D01*
G01X23847Y60804D01*
G01X23850Y60767D01*
G01X23852Y60730D01*
G01X23854Y60692D01*
G01X23857Y60620D01*
G01X23859Y60583D01*
G01X23863Y60505D01*
G01X23865Y60465D01*
G01X24470Y60465D01*
G01X24470Y60607D01*
G01X24010Y60607D01*
G01X24008Y60622D01*
G01X24007Y60640D01*
G01X24006Y60659D01*
G01X24005Y60681D01*
G01X24002Y60728D01*
G01X24000Y60752D01*
G01X23997Y60777D01*
G01X23996Y60802D01*
G01X23994Y60827D01*
G01X23992Y60851D01*
G01X23988Y60897D01*
G01X23987Y60917D01*
G01X23986Y60935D01*
G01X23984Y60950D01*
G01X24111Y60961D01*
G01X24219Y60985D01*
G01X24309Y61021D01*
G01X24381Y61069D01*
G01X24474Y61197D01*
G01X24505Y61364D01*
G01X24504Y61405D01*
G01X24498Y61445D01*
G01X24489Y61482D01*
G01X24477Y61519D01*
G01X24462Y61553D01*
G01X24444Y61585D01*
G01X24422Y61614D01*
G01X24396Y61641D01*
G01X24366Y61665D01*
G01X24332Y61686D01*
G01X24295Y61704D01*
G01X24254Y61720D01*
G01X24208Y61732D01*
G01X24159Y61741D01*
G01X24105Y61746D01*
G37*

%LPD*%
G36*
G01X23013Y61730D02*
G01X22953Y61732D01*
G01X22828Y61725D01*
G01X22699Y61702D01*
G01X22699Y60483D01*
G01X22828Y60460D01*
G01X22953Y60452D01*
G01X23013Y60454D01*
G01X23071Y60461D01*
G01X23126Y60472D01*
G01X23179Y60488D01*
G01X23231Y60507D01*
G01X23278Y60532D01*
G01X23322Y60563D01*
G01X23362Y60600D01*
G01X23398Y60641D01*
G01X23430Y60687D01*
G01X23458Y60740D01*
G01X23482Y60798D01*
G01X23514Y60932D01*
G01X23525Y61092D01*
G01X23514Y61254D01*
G01X23482Y61390D01*
G01X23458Y61447D01*
G01X23430Y61500D01*
G01X23398Y61546D01*
G01X23362Y61588D01*
G01X23322Y61623D01*
G01X23278Y61653D01*
G01X23231Y61678D01*
G01X23179Y61697D01*
G01X23126Y61713D01*
G01X23071Y61723D01*
G01X23013Y61730D01*
G37*

%LPC*%
G36*
G01X23016Y61586D02*
G01X22971Y61588D01*
G01X22945Y61587D01*
G01X22918Y61586D01*
G01X22892Y61585D01*
G01X22867Y61583D01*
G01X22867Y60602D01*
G01X22889Y60600D01*
G01X22900Y60598D01*
G01X22913Y60597D01*
G01X22963Y60597D01*
G01X23133Y60627D01*
G01X23255Y60716D01*
G01X23299Y60784D01*
G01X23330Y60870D01*
G01X23348Y60972D01*
G01X23355Y61092D01*
G01X23353Y61156D01*
G01X23347Y61215D01*
G01X23339Y61269D01*
G01X23327Y61318D01*
G01X23312Y61363D01*
G01X23296Y61404D01*
G01X23276Y61441D01*
G01X23253Y61473D01*
G01X23228Y61502D01*
G01X23199Y61526D01*
G01X23168Y61545D01*
G01X23134Y61560D01*
G01X23097Y61572D01*
G01X23057Y61581D01*
G01X23016Y61586D01*
G37*

%LPD*%

%LPD*%
G36*
G01X24094Y64262D02*
G01X23921Y64262D01*
G01X23939Y64113D01*
G01X23972Y63957D01*
G01X24019Y63797D01*
G01X24073Y63643D01*
G01X24135Y63498D01*
G01X24203Y63363D01*
G01X24274Y63245D01*
G01X24343Y63150D01*
G01X23733Y63150D01*
G01X23733Y63005D01*
G01X24531Y63005D01*
G01X24531Y63145D01*
G01X24500Y63183D01*
G01X24467Y63228D01*
G01X24434Y63278D01*
G01X24398Y63335D01*
G01X24329Y63462D01*
G01X24264Y63604D01*
G01X24204Y63759D01*
G01X24152Y63924D01*
G01X24115Y64094D01*
G01X24094Y64262D01*
G37*

%LPD*%
G36*
G01X23013Y64270D02*
G01X22953Y64272D01*
G01X22828Y64265D01*
G01X22699Y64242D01*
G01X22699Y63023D01*
G01X22828Y63000D01*
G01X22953Y62992D01*
G01X23013Y62994D01*
G01X23071Y63001D01*
G01X23126Y63012D01*
G01X23179Y63028D01*
G01X23231Y63047D01*
G01X23278Y63072D01*
G01X23322Y63103D01*
G01X23362Y63140D01*
G01X23398Y63181D01*
G01X23430Y63227D01*
G01X23458Y63280D01*
G01X23482Y63338D01*
G01X23514Y63472D01*
G01X23525Y63632D01*
G01X23514Y63794D01*
G01X23482Y63930D01*
G01X23458Y63987D01*
G01X23430Y64040D01*
G01X23398Y64086D01*
G01X23362Y64128D01*
G01X23322Y64163D01*
G01X23278Y64193D01*
G01X23231Y64218D01*
G01X23179Y64237D01*
G01X23126Y64253D01*
G01X23071Y64263D01*
G01X23013Y64270D01*
G37*

%LPC*%
G36*
G01X23016Y64126D02*
G01X22971Y64128D01*
G01X22945Y64127D01*
G01X22918Y64126D01*
G01X22892Y64125D01*
G01X22867Y64123D01*
G01X22867Y63142D01*
G01X22889Y63140D01*
G01X22900Y63138D01*
G01X22913Y63137D01*
G01X22963Y63137D01*
G01X23133Y63167D01*
G01X23255Y63256D01*
G01X23299Y63324D01*
G01X23330Y63410D01*
G01X23348Y63512D01*
G01X23355Y63632D01*
G01X23353Y63696D01*
G01X23347Y63755D01*
G01X23339Y63809D01*
G01X23327Y63858D01*
G01X23312Y63903D01*
G01X23296Y63944D01*
G01X23276Y63981D01*
G01X23253Y64013D01*
G01X23228Y64042D01*
G01X23199Y64066D01*
G01X23168Y64085D01*
G01X23134Y64100D01*
G01X23097Y64112D01*
G01X23057Y64121D01*
G01X23016Y64126D01*
G37*

%LPD*%

%LPD*%
G36*
G01X26489Y66802D02*
G01X25813Y66802D01*
G01X25813Y66660D01*
G01X26085Y66660D01*
G01X26085Y65779D01*
G01X26073Y65789D01*
G01X26060Y65799D01*
G01X26032Y65819D01*
G01X26016Y65830D01*
G01X25999Y65842D01*
G01X25982Y65852D01*
G01X25963Y65862D01*
G01X25944Y65873D01*
G01X25925Y65882D01*
G01X25905Y65891D01*
G01X25884Y65901D01*
G01X25865Y65909D01*
G01X25844Y65917D01*
G01X25806Y65931D01*
G01X25752Y65804D01*
G01X25804Y65782D01*
G01X25854Y65758D01*
G01X25904Y65731D01*
G01X25953Y65702D01*
G01X26002Y65669D01*
G01X26047Y65631D01*
G01X26092Y65590D01*
G01X26133Y65545D01*
G01X26253Y65545D01*
G01X26253Y66660D01*
G01X26489Y66660D01*
G01X26489Y66802D01*
G37*

%LPD*%
G36*
G01X25420Y66802D02*
G01X24764Y66802D01*
G01X24764Y66660D01*
G01X25008Y66660D01*
G01X25008Y65687D01*
G01X24764Y65687D01*
G01X24764Y65545D01*
G01X25420Y65545D01*
G01X25420Y65687D01*
G01X25176Y65687D01*
G01X25176Y66660D01*
G01X25420Y66660D01*
G01X25420Y66802D01*
G37*

%LPD*%
G36*
G01X23827Y66802D02*
G01X23659Y66802D01*
G01X23659Y65545D01*
G01X23827Y65545D01*
G01X23827Y66076D01*
G01X24325Y66076D01*
G01X24325Y65545D01*
G01X24492Y65545D01*
G01X24492Y66802D01*
G01X24325Y66802D01*
G01X24325Y66218D01*
G01X23827Y66218D01*
G01X23827Y66802D01*
G37*

%LPD*%
G36*
G01X22867Y66802D02*
G01X22699Y66802D01*
G01X22699Y65563D01*
G01X22759Y65551D01*
G01X22781Y65548D01*
G01X22802Y65545D01*
G01X22824Y65542D01*
G01X22846Y65540D01*
G01X22867Y65537D01*
G01X22890Y65536D01*
G01X22912Y65535D01*
G01X22933Y65533D01*
G01X22953Y65532D01*
G01X23029Y65532D01*
G01X23084Y65534D01*
G01X23134Y65539D01*
G01X23181Y65548D01*
G01X23225Y65560D01*
G01X23265Y65576D01*
G01X23302Y65594D01*
G01X23335Y65617D01*
G01X23365Y65641D01*
G01X23391Y65668D01*
G01X23413Y65697D01*
G01X23433Y65729D01*
G01X23449Y65763D01*
G01X23461Y65800D01*
G01X23469Y65839D01*
G01X23475Y65880D01*
G01X23476Y65923D01*
G01X23448Y66097D01*
G01X23360Y66226D01*
G01X23295Y66272D01*
G01X23216Y66305D01*
G01X23122Y66326D01*
G01X23014Y66332D01*
G01X22867Y66332D01*
G01X22867Y66802D01*
G37*

%LPC*%
G36*
G01X23004Y66190D02*
G01X22867Y66190D01*
G01X22867Y65682D01*
G01X22881Y65681D01*
G01X22898Y65680D01*
G01X22918Y65678D01*
G01X22941Y65677D01*
G01X23042Y65677D01*
G01X23158Y65693D01*
G01X23240Y65740D01*
G01X23290Y65818D01*
G01X23306Y65929D01*
G01X23302Y65994D01*
G01X23288Y66048D01*
G01X23265Y66094D01*
G01X23233Y66129D01*
G01X23190Y66156D01*
G01X23138Y66175D01*
G01X23076Y66187D01*
G01X23004Y66190D01*
G37*

%LPD*%

%LPD*%
G36*
G01X24894Y69342D02*
G01X24724Y69342D01*
G01X24761Y69203D01*
G01X24802Y69053D01*
G01X24846Y68893D01*
G01X24894Y68730D01*
G01X24945Y68565D01*
G01X24998Y68400D01*
G01X25055Y68238D01*
G01X25115Y68085D01*
G01X25321Y68085D01*
G01X25379Y68238D01*
G01X25435Y68400D01*
G01X25487Y68565D01*
G01X25536Y68730D01*
G01X25583Y68893D01*
G01X25625Y69053D01*
G01X25666Y69203D01*
G01X25704Y69342D01*
G01X25526Y69342D01*
G01X25453Y69012D01*
G01X24967Y69012D01*
G01X24894Y69342D01*
G37*

%LPC*%
G36*
G01X25412Y68875D02*
G01X25006Y68875D01*
G01X25057Y68699D01*
G01X25110Y68527D01*
G01X25163Y68369D01*
G01X25211Y68230D01*
G01X25261Y68364D01*
G01X25313Y68522D01*
G01X25364Y68695D01*
G01X25412Y68875D01*
G37*

%LPD*%
G36*
G01X23918Y69342D02*
G01X23756Y69342D01*
G01X23761Y69185D01*
G01X23769Y69025D01*
G01X23778Y68863D01*
G01X23789Y68702D01*
G01X23801Y68543D01*
G01X23814Y68385D01*
G01X23830Y68232D01*
G01X23847Y68085D01*
G01X24002Y68085D01*
G01X24200Y68710D01*
G01X24396Y68085D01*
G01X24551Y68085D01*
G01X24570Y68234D01*
G01X24586Y68385D01*
G01X24599Y68538D01*
G01X24609Y68692D01*
G01X24615Y68796D01*
G01X24620Y68902D01*
G01X24626Y69010D01*
G01X24631Y69119D01*
G01X24636Y69229D01*
G01X24640Y69342D01*
G01X24477Y69342D01*
G01X24477Y69228D01*
G01X24476Y69167D01*
G01X24475Y69104D01*
G01X24472Y68974D01*
G01X24470Y68839D01*
G01X24467Y68703D01*
G01X24462Y68565D01*
G01X24459Y68425D01*
G01X24457Y68291D01*
G01X24274Y68865D01*
G01X24127Y68865D01*
G01X23939Y68291D01*
G01X23938Y68425D01*
G01X23934Y68562D01*
G01X23931Y68702D01*
G01X23929Y68839D01*
G01X23926Y68974D01*
G01X23924Y69104D01*
G01X23921Y69167D01*
G01X23920Y69228D01*
G01X23919Y69286D01*
G01X23918Y69342D01*
G37*

%LPD*%
G36*
G01X23283Y69342D02*
G01X23075Y69342D01*
G01X23014Y69158D01*
G01X22953Y68971D01*
G01X22895Y68786D01*
G01X22841Y68611D01*
G01X22795Y68450D01*
G01X22755Y68303D01*
G01X22738Y68238D01*
G01X22724Y68180D01*
G01X22710Y68129D01*
G01X22699Y68085D01*
G01X22882Y68085D01*
G01X22909Y68219D01*
G01X22943Y68364D01*
G01X22982Y68515D01*
G01X23022Y68667D01*
G01X23064Y68815D01*
G01X23106Y68956D01*
G01X23148Y69085D01*
G01X23187Y69197D01*
G01X23221Y69084D01*
G01X23263Y68954D01*
G01X23306Y68811D01*
G01X23349Y68662D01*
G01X23390Y68512D01*
G01X23428Y68362D01*
G01X23463Y68217D01*
G01X23492Y68085D01*
G01X23664Y68085D01*
G01X23656Y68129D01*
G01X23644Y68180D01*
G01X23630Y68238D01*
G01X23614Y68303D01*
G01X23572Y68449D01*
G01X23525Y68611D01*
G01X23471Y68784D01*
G01X23413Y68969D01*
G01X23381Y69064D01*
G01X23349Y69157D01*
G01X23316Y69250D01*
G01X23283Y69342D01*
G37*

%LPD*%

%LPD*%
G36*
G01X23794Y71882D02*
G01X23624Y71882D01*
G01X23661Y71743D01*
G01X23703Y71593D01*
G01X23746Y71433D01*
G01X23794Y71270D01*
G01X23845Y71105D01*
G01X23898Y70940D01*
G01X23956Y70778D01*
G01X24015Y70625D01*
G01X24221Y70625D01*
G01X24280Y70778D01*
G01X24335Y70940D01*
G01X24387Y71105D01*
G01X24437Y71270D01*
G01X24483Y71433D01*
G01X24525Y71593D01*
G01X24567Y71743D01*
G01X24604Y71882D01*
G01X24426Y71882D01*
G01X24353Y71552D01*
G01X23868Y71552D01*
G01X23794Y71882D01*
G37*

%LPC*%
G36*
G01X24312Y71415D02*
G01X23906Y71415D01*
G01X23957Y71239D01*
G01X24010Y71067D01*
G01X24063Y70909D01*
G01X24111Y70770D01*
G01X24161Y70904D01*
G01X24213Y71062D01*
G01X24264Y71235D01*
G01X24312Y71415D01*
G37*

%LPD*%
G36*
G01X23004Y71892D02*
G01X22971Y71892D01*
G01X22953Y71891D01*
G01X22933Y71890D01*
G01X22913Y71888D01*
G01X22872Y71886D01*
G01X22811Y71882D01*
G01X22791Y71880D01*
G01X22770Y71877D01*
G01X22751Y71873D01*
G01X22732Y71870D01*
G01X22715Y71865D01*
G01X22699Y71862D01*
G01X22699Y70643D01*
G01X22715Y70639D01*
G01X22732Y70635D01*
G01X22751Y70631D01*
G01X22770Y70628D01*
G01X22790Y70625D01*
G01X22830Y70621D01*
G01X22852Y70620D01*
G01X22872Y70618D01*
G01X22913Y70616D01*
G01X22933Y70615D01*
G01X22952Y70614D01*
G01X22970Y70613D01*
G01X22987Y70612D01*
G01X23004Y70612D01*
G01X23050Y70613D01*
G01X23095Y70616D01*
G01X23138Y70621D01*
G01X23179Y70628D01*
G01X23219Y70638D01*
G01X23255Y70650D01*
G01X23290Y70666D01*
G01X23322Y70683D01*
G01X23349Y70704D01*
G01X23374Y70728D01*
G01X23395Y70755D01*
G01X23413Y70785D01*
G01X23429Y70819D01*
G01X23440Y70856D01*
G01X23446Y70897D01*
G01X23449Y70942D01*
G01X23448Y70964D01*
G01X23445Y70986D01*
G01X23440Y71007D01*
G01X23433Y71029D01*
G01X23425Y71049D01*
G01X23416Y71068D01*
G01X23405Y71087D01*
G01X23393Y71105D01*
G01X23365Y71141D01*
G01X23350Y71156D01*
G01X23334Y71171D01*
G01X23317Y71183D01*
G01X23300Y71194D01*
G01X23282Y71204D01*
G01X23263Y71212D01*
G01X23313Y71228D01*
G01X23359Y71252D01*
G01X23399Y71281D01*
G01X23436Y71316D01*
G01X23467Y71357D01*
G01X23489Y71403D01*
G01X23502Y71456D01*
G01X23507Y71514D01*
G01X23477Y71679D01*
G01X23388Y71796D01*
G01X23318Y71838D01*
G01X23231Y71868D01*
G01X23126Y71886D01*
G01X23004Y71892D01*
G37*

%LPC*%
G36*
G01X22999Y71156D02*
G01X22867Y71156D01*
G01X22867Y70760D01*
G01X22876Y70759D01*
G01X22889Y70757D01*
G01X22904Y70756D01*
G01X22923Y70755D01*
G01X23041Y70755D01*
G01X23067Y70757D01*
G01X23091Y70760D01*
G01X23116Y70765D01*
G01X23139Y70771D01*
G01X23161Y70778D01*
G01X23181Y70789D01*
G01X23200Y70800D01*
G01X23216Y70812D01*
G01X23232Y70827D01*
G01X23246Y70843D01*
G01X23258Y70861D01*
G01X23268Y70883D01*
G01X23275Y70905D01*
G01X23279Y70929D01*
G01X23281Y70955D01*
G01X23279Y70983D01*
G01X23275Y71009D01*
G01X23267Y71033D01*
G01X23255Y71054D01*
G01X23243Y71073D01*
G01X23228Y71088D01*
G01X23211Y71103D01*
G01X23192Y71115D01*
G01X23171Y71125D01*
G01X23149Y71133D01*
G01X23125Y71140D01*
G01X23101Y71146D01*
G01X23075Y71150D01*
G01X23050Y71153D01*
G01X23024Y71155D01*
G01X22999Y71156D01*
G37*
G36*
G01X23017Y71753D02*
G01X22986Y71753D01*
G01X22959Y71752D01*
G01X22934Y71751D01*
G01X22913Y71750D01*
G01X22894Y71748D01*
G01X22880Y71746D01*
G01X22871Y71746D01*
G01X22867Y71745D01*
G01X22867Y71296D01*
G01X23066Y71296D01*
G01X23095Y71298D01*
G01X23123Y71301D01*
G01X23151Y71306D01*
G01X23177Y71313D01*
G01X23202Y71321D01*
G01X23226Y71332D01*
G01X23248Y71344D01*
G01X23267Y71357D01*
G01X23285Y71373D01*
G01X23300Y71391D01*
G01X23314Y71410D01*
G01X23325Y71433D01*
G01X23333Y71458D01*
G01X23338Y71486D01*
G01X23339Y71517D01*
G01X23338Y71551D01*
G01X23332Y71581D01*
G01X23324Y71609D01*
G01X23311Y71633D01*
G01X23298Y71654D01*
G01X23281Y71672D01*
G01X23262Y71690D01*
G01X23240Y71704D01*
G01X23217Y71717D01*
G01X23192Y71728D01*
G01X23166Y71736D01*
G01X23139Y71743D01*
G01X23109Y71747D01*
G01X23079Y71750D01*
G01X23048Y71752D01*
G01X23017Y71753D01*
G37*

%LPD*%

%LPD*%
G36*
G01X25420Y74422D02*
G01X24764Y74422D01*
G01X24764Y74280D01*
G01X25008Y74280D01*
G01X25008Y73307D01*
G01X24764Y73307D01*
G01X24764Y73165D01*
G01X25420Y73165D01*
G01X25420Y73307D01*
G01X25176Y73307D01*
G01X25176Y74280D01*
G01X25420Y74280D01*
G01X25420Y74422D01*
G37*

%LPD*%
G36*
G01X23827Y74422D02*
G01X23659Y74422D01*
G01X23659Y73165D01*
G01X23827Y73165D01*
G01X23827Y73696D01*
G01X24325Y73696D01*
G01X24325Y73165D01*
G01X24492Y73165D01*
G01X24492Y74422D01*
G01X24325Y74422D01*
G01X24325Y73838D01*
G01X23827Y73838D01*
G01X23827Y74422D01*
G37*

%LPD*%
G36*
G01X22867Y74422D02*
G01X22699Y74422D01*
G01X22699Y73183D01*
G01X22719Y73179D01*
G01X22738Y73175D01*
G01X22759Y73171D01*
G01X22781Y73168D01*
G01X22802Y73165D01*
G01X22824Y73162D01*
G01X22845Y73160D01*
G01X22867Y73157D01*
G01X22911Y73155D01*
G01X22932Y73153D01*
G01X22953Y73152D01*
G01X23029Y73152D01*
G01X23084Y73154D01*
G01X23134Y73159D01*
G01X23181Y73168D01*
G01X23225Y73180D01*
G01X23265Y73196D01*
G01X23302Y73214D01*
G01X23335Y73237D01*
G01X23365Y73261D01*
G01X23391Y73288D01*
G01X23413Y73317D01*
G01X23433Y73349D01*
G01X23449Y73383D01*
G01X23461Y73420D01*
G01X23469Y73459D01*
G01X23475Y73500D01*
G01X23476Y73543D01*
G01X23447Y73717D01*
G01X23360Y73846D01*
G01X23295Y73892D01*
G01X23216Y73925D01*
G01X23122Y73946D01*
G01X23014Y73952D01*
G01X22867Y73952D01*
G01X22867Y74422D01*
G37*

%LPC*%
G36*
G01X23004Y73810D02*
G01X22867Y73810D01*
G01X22867Y73302D01*
G01X22881Y73301D01*
G01X22898Y73300D01*
G01X22918Y73298D01*
G01X22941Y73297D01*
G01X23042Y73297D01*
G01X23157Y73313D01*
G01X23240Y73360D01*
G01X23290Y73438D01*
G01X23306Y73549D01*
G01X23302Y73614D01*
G01X23288Y73668D01*
G01X23265Y73714D01*
G01X23233Y73749D01*
G01X23190Y73776D01*
G01X23137Y73795D01*
G01X23076Y73807D01*
G01X23004Y73810D01*
G37*

%LPD*%
G36*
G01X26504Y74422D02*
G01X25742Y74422D01*
G01X25740Y74412D01*
G01X25740Y74379D01*
G01X25741Y74338D01*
G01X25747Y74298D01*
G01X25755Y74259D01*
G01X25768Y74222D01*
G01X25784Y74185D01*
G01X25801Y74150D01*
G01X25820Y74115D01*
G01X25841Y74082D01*
G01X25865Y74050D01*
G01X25889Y74019D01*
G01X25915Y73989D01*
G01X25971Y73931D01*
G01X26025Y73875D01*
G01X26052Y73848D01*
G01X26074Y73825D01*
G01X26118Y73781D01*
G01X26138Y73759D01*
G01X26159Y73738D01*
G01X26179Y73717D01*
G01X26196Y73696D01*
G01X26212Y73676D01*
G01X26228Y73654D01*
G01X26241Y73632D01*
G01X26253Y73609D01*
G01X26263Y73587D01*
G01X26271Y73564D01*
G01X26278Y73540D01*
G01X26282Y73516D01*
G01X26283Y73493D01*
G01X26282Y73466D01*
G01X26279Y73441D01*
G01X26273Y73419D01*
G01X26265Y73399D01*
G01X26256Y73380D01*
G01X26245Y73364D01*
G01X26233Y73349D01*
G01X26220Y73335D01*
G01X26204Y73323D01*
G01X26187Y73313D01*
G01X26170Y73304D01*
G01X26151Y73297D01*
G01X26132Y73291D01*
G01X26111Y73287D01*
G01X26090Y73285D01*
G01X26067Y73284D01*
G01X26041Y73285D01*
G01X26016Y73288D01*
G01X25993Y73293D01*
G01X25971Y73300D01*
G01X25950Y73306D01*
G01X25930Y73314D01*
G01X25912Y73323D01*
G01X25878Y73343D01*
G01X25862Y73353D01*
G01X25848Y73363D01*
G01X25836Y73373D01*
G01X25824Y73382D01*
G01X25814Y73389D01*
G01X25805Y73397D01*
G01X25798Y73404D01*
G01X25717Y73287D01*
G01X25725Y73277D01*
G01X25737Y73267D01*
G01X25750Y73254D01*
G01X25765Y73241D01*
G01X25782Y73228D01*
G01X25801Y73216D01*
G01X25822Y73205D01*
G01X25844Y73193D01*
G01X25867Y73181D01*
G01X25892Y73170D01*
G01X25918Y73160D01*
G01X25945Y73152D01*
G01X25974Y73146D01*
G01X26004Y73141D01*
G01X26035Y73138D01*
G01X26067Y73137D01*
G01X26239Y73159D01*
G01X26359Y73226D01*
G01X26430Y73336D01*
G01X26453Y73485D01*
G01X26452Y73518D01*
G01X26447Y73550D01*
G01X26439Y73581D01*
G01X26428Y73612D01*
G01X26414Y73642D01*
G01X26398Y73672D01*
G01X26381Y73702D01*
G01X26362Y73731D01*
G01X26340Y73760D01*
G01X26316Y73790D01*
G01X26291Y73819D01*
G01X26265Y73848D01*
G01X26213Y73904D01*
G01X26159Y73960D01*
G01X26088Y74031D01*
G01X26048Y74075D01*
G01X26030Y74097D01*
G01X26011Y74120D01*
G01X25993Y74141D01*
G01X25977Y74163D01*
G01X25963Y74185D01*
G01X25950Y74206D01*
G01X25939Y74227D01*
G01X25931Y74246D01*
G01X25927Y74264D01*
G01X25925Y74280D01*
G01X26504Y74280D01*
G01X26504Y74422D01*
G37*

%LPD*%

%LPD*%
G36*
G01X15181Y74422D02*
G01X15016Y74422D01*
G01X15016Y73165D01*
G01X15729Y73165D01*
G01X15729Y73307D01*
G01X15181Y73307D01*
G01X15181Y73698D01*
G01X15663Y73698D01*
G01X15663Y73838D01*
G01X15181Y73838D01*
G01X15181Y74422D01*
G37*

%LPD*%
G36*
G01X14094Y74422D02*
G01X13926Y74422D01*
G01X13926Y73183D01*
G01X13942Y73179D01*
G01X13959Y73175D01*
G01X13977Y73171D01*
G01X13997Y73168D01*
G01X14016Y73165D01*
G01X14037Y73163D01*
G01X14057Y73161D01*
G01X14078Y73160D01*
G01X14099Y73158D01*
G01X14139Y73156D01*
G01X14160Y73155D01*
G01X14180Y73154D01*
G01X14198Y73153D01*
G01X14217Y73152D01*
G01X14233Y73152D01*
G01X14432Y73177D01*
G01X14576Y73251D01*
G01X14662Y73375D01*
G01X14691Y73549D01*
G01X14687Y73605D01*
G01X14675Y73658D01*
G01X14657Y73706D01*
G01X14630Y73752D01*
G01X14597Y73793D01*
G01X14558Y73830D01*
G01X14514Y73862D01*
G01X14465Y73889D01*
G01X14480Y73915D01*
G01X14497Y73942D01*
G01X14515Y73971D01*
G01X14533Y74001D01*
G01X14552Y74032D01*
G01X14571Y74064D01*
G01X14591Y74098D01*
G01X14609Y74133D01*
G01X14629Y74168D01*
G01X14647Y74204D01*
G01X14667Y74241D01*
G01X14704Y74314D01*
G01X14722Y74351D01*
G01X14738Y74387D01*
G01X14754Y74422D01*
G01X14576Y74422D01*
G01X14513Y74278D01*
G01X14444Y74143D01*
G01X14373Y74021D01*
G01X14305Y73924D01*
G01X14289Y73926D01*
G01X14280Y73927D01*
G01X14094Y73927D01*
G01X14094Y74422D01*
G37*

%LPC*%
G36*
G01X14238Y73787D02*
G01X14094Y73787D01*
G01X14094Y73302D01*
G01X14105Y73301D01*
G01X14120Y73300D01*
G01X14137Y73298D01*
G01X14157Y73297D01*
G01X14246Y73297D01*
G01X14274Y73298D01*
G01X14301Y73300D01*
G01X14327Y73303D01*
G01X14353Y73307D01*
G01X14376Y73314D01*
G01X14399Y73323D01*
G01X14439Y73345D01*
G01X14456Y73361D01*
G01X14472Y73378D01*
G01X14485Y73399D01*
G01X14498Y73422D01*
G01X14508Y73446D01*
G01X14515Y73474D01*
G01X14519Y73506D01*
G01X14520Y73541D01*
G01X14519Y73577D01*
G01X14515Y73610D01*
G01X14508Y73639D01*
G01X14498Y73665D01*
G01X14485Y73688D01*
G01X14470Y73709D01*
G01X14453Y73726D01*
G01X14434Y73742D01*
G01X14412Y73753D01*
G01X14387Y73763D01*
G01X14361Y73771D01*
G01X14332Y73777D01*
G01X14304Y73782D01*
G01X14272Y73785D01*
G01X14238Y73787D01*
G37*

%LPD*%
G36*
G01X13111Y74758D02*
G01X12938Y74758D01*
G01X13504Y73002D01*
G01X13675Y73002D01*
G01X13111Y74758D01*
G37*

%LPD*%

%LPD*%
G36*
G01X14744Y71882D02*
G01X13995Y71882D01*
G01X13995Y70625D01*
G01X14698Y70625D01*
G01X14698Y70767D01*
G01X14160Y70767D01*
G01X14160Y71153D01*
G01X14632Y71153D01*
G01X14632Y71296D01*
G01X14160Y71296D01*
G01X14160Y71740D01*
G01X14744Y71740D01*
G01X14744Y71882D01*
G37*

%LPD*%
G36*
G01X13073Y71882D02*
G01X12905Y71882D01*
G01X12905Y70643D01*
G01X12921Y70639D01*
G01X12938Y70635D01*
G01X12956Y70631D01*
G01X12976Y70628D01*
G01X12995Y70625D01*
G01X13016Y70623D01*
G01X13036Y70621D01*
G01X13057Y70620D01*
G01X13078Y70618D01*
G01X13118Y70616D01*
G01X13139Y70615D01*
G01X13196Y70612D01*
G01X13212Y70612D01*
G01X13411Y70637D01*
G01X13555Y70711D01*
G01X13641Y70835D01*
G01X13670Y71009D01*
G01X13666Y71065D01*
G01X13654Y71118D01*
G01X13635Y71166D01*
G01X13609Y71212D01*
G01X13576Y71253D01*
G01X13537Y71290D01*
G01X13493Y71322D01*
G01X13443Y71349D01*
G01X13459Y71375D01*
G01X13476Y71402D01*
G01X13494Y71431D01*
G01X13512Y71461D01*
G01X13531Y71492D01*
G01X13550Y71524D01*
G01X13569Y71558D01*
G01X13588Y71593D01*
G01X13608Y71628D01*
G01X13626Y71664D01*
G01X13646Y71701D01*
G01X13683Y71774D01*
G01X13701Y71811D01*
G01X13717Y71847D01*
G01X13733Y71882D01*
G01X13555Y71882D01*
G01X13492Y71738D01*
G01X13423Y71603D01*
G01X13352Y71481D01*
G01X13283Y71384D01*
G01X13276Y71385D01*
G01X13268Y71386D01*
G01X13259Y71387D01*
G01X13073Y71387D01*
G01X13073Y71882D01*
G37*

%LPC*%
G36*
G01X13217Y71247D02*
G01X13073Y71247D01*
G01X13073Y70762D01*
G01X13084Y70761D01*
G01X13099Y70760D01*
G01X13116Y70758D01*
G01X13136Y70757D01*
G01X13225Y70757D01*
G01X13252Y70758D01*
G01X13280Y70760D01*
G01X13306Y70763D01*
G01X13332Y70767D01*
G01X13355Y70774D01*
G01X13377Y70783D01*
G01X13398Y70794D01*
G01X13418Y70805D01*
G01X13435Y70821D01*
G01X13451Y70838D01*
G01X13464Y70859D01*
G01X13476Y70882D01*
G01X13487Y70906D01*
G01X13494Y70934D01*
G01X13498Y70966D01*
G01X13499Y71001D01*
G01X13498Y71037D01*
G01X13494Y71070D01*
G01X13487Y71099D01*
G01X13476Y71125D01*
G01X13464Y71148D01*
G01X13449Y71169D01*
G01X13432Y71186D01*
G01X13413Y71202D01*
G01X13391Y71213D01*
G01X13366Y71223D01*
G01X13340Y71231D01*
G01X13311Y71237D01*
G01X13282Y71242D01*
G01X13251Y71245D01*
G01X13217Y71247D01*
G37*

%LPD*%
G36*
G01X15484Y71886D02*
G01X15300Y71908D01*
G01X15236Y71906D01*
G01X15206Y71904D01*
G01X15176Y71900D01*
G01X15146Y71895D01*
G01X15119Y71889D01*
G01X15093Y71883D01*
G01X15069Y71877D01*
G01X15047Y71870D01*
G01X15026Y71862D01*
G01X15008Y71854D01*
G01X14990Y71847D01*
G01X14974Y71841D01*
G01X14959Y71834D01*
G01X14947Y71828D01*
G01X14937Y71821D01*
G01X14988Y71684D01*
G01X15011Y71695D01*
G01X15038Y71707D01*
G01X15070Y71720D01*
G01X15107Y71735D01*
G01X15149Y71748D01*
G01X15195Y71758D01*
G01X15245Y71763D01*
G01X15300Y71765D01*
G01X15361Y71762D01*
G01X15414Y71753D01*
G01X15459Y71737D01*
G01X15496Y71715D01*
G01X15525Y71688D01*
G01X15546Y71654D01*
G01X15558Y71615D01*
G01X15562Y71570D01*
G01X15560Y71541D01*
G01X15556Y71515D01*
G01X15549Y71491D01*
G01X15539Y71468D01*
G01X15525Y71448D01*
G01X15510Y71430D01*
G01X15492Y71411D01*
G01X15473Y71395D01*
G01X15452Y71380D01*
G01X15430Y71366D01*
G01X15406Y71353D01*
G01X15381Y71341D01*
G01X15356Y71330D01*
G01X15304Y71308D01*
G01X15277Y71298D01*
G01X15247Y71285D01*
G01X15189Y71257D01*
G01X15161Y71242D01*
G01X15134Y71226D01*
G01X15108Y71209D01*
G01X15084Y71191D01*
G01X15061Y71171D01*
G01X15041Y71150D01*
G01X15023Y71126D01*
G01X15007Y71101D01*
G01X14993Y71075D01*
G01X14982Y71047D01*
G01X14974Y71016D01*
G01X14969Y70982D01*
G01X14967Y70945D01*
G01X14993Y70798D01*
G01X15072Y70688D01*
G01X15196Y70620D01*
G01X15359Y70597D01*
G01X15409Y70598D01*
G01X15460Y70602D01*
G01X15485Y70606D01*
G01X15508Y70610D01*
G01X15531Y70615D01*
G01X15552Y70620D01*
G01X15572Y70625D01*
G01X15592Y70631D01*
G01X15611Y70638D01*
G01X15645Y70652D01*
G01X15660Y70658D01*
G01X15673Y70666D01*
G01X15684Y70673D01*
G01X15630Y70813D01*
G01X15608Y70801D01*
G01X15582Y70790D01*
G01X15552Y70777D01*
G01X15519Y70765D01*
G01X15482Y70753D01*
G01X15443Y70745D01*
G01X15402Y70741D01*
G01X15359Y70739D01*
G01X15314Y70742D01*
G01X15274Y70750D01*
G01X15236Y70765D01*
G01X15201Y70785D01*
G01X15172Y70811D01*
G01X15152Y70842D01*
G01X15139Y70879D01*
G01X15135Y70922D01*
G01X15136Y70948D01*
G01X15140Y70971D01*
G01X15145Y70994D01*
G01X15153Y71014D01*
G01X15164Y71031D01*
G01X15176Y71047D01*
G01X15190Y71063D01*
G01X15206Y71077D01*
G01X15223Y71091D01*
G01X15242Y71103D01*
G01X15263Y71115D01*
G01X15285Y71125D01*
G01X15331Y71148D01*
G01X15356Y71159D01*
G01X15381Y71171D01*
G01X15420Y71187D01*
G01X15457Y71204D01*
G01X15491Y71220D01*
G01X15524Y71237D01*
G01X15554Y71253D01*
G01X15583Y71271D01*
G01X15609Y71291D01*
G01X15633Y71313D01*
G01X15655Y71337D01*
G01X15674Y71363D01*
G01X15690Y71391D01*
G01X15704Y71420D01*
G01X15715Y71452D01*
G01X15723Y71487D01*
G01X15728Y71526D01*
G01X15729Y71567D01*
G01X15702Y71713D01*
G01X15618Y71821D01*
G01X15484Y71886D01*
G37*

%LPD*%
G36*
G01X12090Y72218D02*
G01X11917Y72218D01*
G01X12483Y70462D01*
G01X12654Y70462D01*
G01X12090Y72218D01*
G37*

%LPD*%

%LPD*%
G36*
G01X15729Y69342D02*
G01X15074Y69342D01*
G01X15074Y69200D01*
G01X15318Y69200D01*
G01X15318Y68227D01*
G01X15074Y68227D01*
G01X15074Y68085D01*
G01X15729Y68085D01*
G01X15729Y68227D01*
G01X15486Y68227D01*
G01X15486Y69200D01*
G01X15729Y69200D01*
G01X15729Y69342D01*
G37*

%LPD*%
G36*
G01X14106Y69342D02*
G01X13944Y69342D01*
G01X13949Y69185D01*
G01X13957Y69025D01*
G01X13966Y68863D01*
G01X13977Y68702D01*
G01X13989Y68543D01*
G01X14002Y68385D01*
G01X14018Y68232D01*
G01X14035Y68085D01*
G01X14190Y68085D01*
G01X14388Y68710D01*
G01X14584Y68085D01*
G01X14739Y68085D01*
G01X14758Y68234D01*
G01X14774Y68385D01*
G01X14787Y68538D01*
G01X14797Y68692D01*
G01X14803Y68796D01*
G01X14808Y68902D01*
G01X14814Y69010D01*
G01X14819Y69119D01*
G01X14823Y69229D01*
G01X14828Y69342D01*
G01X14665Y69342D01*
G01X14665Y69228D01*
G01X14664Y69167D01*
G01X14663Y69104D01*
G01X14660Y68974D01*
G01X14658Y68839D01*
G01X14655Y68703D01*
G01X14650Y68565D01*
G01X14647Y68425D01*
G01X14645Y68291D01*
G01X14462Y68865D01*
G01X14315Y68865D01*
G01X14127Y68291D01*
G01X14126Y68425D01*
G01X14122Y68562D01*
G01X14119Y68702D01*
G01X14117Y68839D01*
G01X14114Y68974D01*
G01X14111Y69104D01*
G01X14109Y69167D01*
G01X14108Y69228D01*
G01X14107Y69286D01*
G01X14106Y69342D01*
G37*

%LPD*%
G36*
G01X13126Y69342D02*
G01X12974Y69342D01*
G01X12974Y68085D01*
G01X13144Y68085D01*
G01X13222Y68228D01*
G01X13289Y68352D01*
G01X13320Y68407D01*
G01X13349Y68462D01*
G01X13377Y68516D01*
G01X13429Y68624D01*
G01X13455Y68679D01*
G01X13480Y68734D01*
G01X13504Y68791D01*
G01X13556Y68912D01*
G01X13614Y69053D01*
G01X13614Y68085D01*
G01X13766Y68085D01*
G01X13766Y69342D01*
G01X13596Y69342D01*
G01X13529Y69182D01*
G01X13466Y69037D01*
G01X13407Y68904D01*
G01X13349Y68778D01*
G01X13322Y68719D01*
G01X13294Y68662D01*
G01X13238Y68552D01*
G01X13126Y68339D01*
G01X13126Y69342D01*
G37*

%LPD*%
G36*
G01X12158Y69678D02*
G01X11986Y69678D01*
G01X12552Y67922D01*
G01X12722Y67922D01*
G01X12158Y69678D01*
G37*

%LPD*%

%LPD*%
G36*
G01X13573Y66802D02*
G01X12918Y66802D01*
G01X12918Y66660D01*
G01X13162Y66660D01*
G01X13162Y65687D01*
G01X12918Y65687D01*
G01X12918Y65545D01*
G01X13573Y65545D01*
G01X13573Y65687D01*
G01X13329Y65687D01*
G01X13329Y66660D01*
G01X13573Y66660D01*
G01X13573Y66802D01*
G37*

%LPD*%
G36*
G01X14033Y66802D02*
G01X13865Y66802D01*
G01X13865Y65563D01*
G01X13881Y65559D01*
G01X13898Y65555D01*
G01X13916Y65551D01*
G01X13956Y65545D01*
G01X13996Y65541D01*
G01X14018Y65540D01*
G01X14038Y65538D01*
G01X14078Y65536D01*
G01X14099Y65535D01*
G01X14119Y65534D01*
G01X14137Y65533D01*
G01X14156Y65532D01*
G01X14172Y65532D01*
G01X14371Y65557D01*
G01X14515Y65631D01*
G01X14601Y65755D01*
G01X14630Y65929D01*
G01X14626Y65985D01*
G01X14614Y66038D01*
G01X14596Y66086D01*
G01X14569Y66132D01*
G01X14536Y66173D01*
G01X14497Y66210D01*
G01X14453Y66242D01*
G01X14404Y66269D01*
G01X14419Y66295D01*
G01X14436Y66322D01*
G01X14454Y66351D01*
G01X14472Y66381D01*
G01X14491Y66412D01*
G01X14510Y66444D01*
G01X14530Y66478D01*
G01X14548Y66513D01*
G01X14568Y66548D01*
G01X14586Y66584D01*
G01X14606Y66621D01*
G01X14643Y66694D01*
G01X14661Y66731D01*
G01X14677Y66767D01*
G01X14693Y66802D01*
G01X14515Y66802D01*
G01X14452Y66658D01*
G01X14383Y66523D01*
G01X14312Y66401D01*
G01X14244Y66304D01*
G01X14228Y66306D01*
G01X14219Y66307D01*
G01X14033Y66307D01*
G01X14033Y66802D01*
G37*

%LPC*%
G36*
G01X14178Y66167D02*
G01X14033Y66167D01*
G01X14033Y65682D01*
G01X14044Y65681D01*
G01X14059Y65680D01*
G01X14076Y65678D01*
G01X14096Y65677D01*
G01X14185Y65677D01*
G01X14213Y65678D01*
G01X14240Y65680D01*
G01X14266Y65683D01*
G01X14292Y65687D01*
G01X14315Y65694D01*
G01X14338Y65703D01*
G01X14378Y65725D01*
G01X14395Y65741D01*
G01X14411Y65758D01*
G01X14424Y65779D01*
G01X14437Y65802D01*
G01X14447Y65826D01*
G01X14454Y65854D01*
G01X14458Y65886D01*
G01X14459Y65921D01*
G01X14458Y65957D01*
G01X14454Y65990D01*
G01X14447Y66019D01*
G01X14437Y66045D01*
G01X14424Y66068D01*
G01X14409Y66089D01*
G01X14392Y66106D01*
G01X14373Y66122D01*
G01X14351Y66133D01*
G01X14326Y66143D01*
G01X14300Y66151D01*
G01X14272Y66157D01*
G01X14243Y66162D01*
G01X14211Y66165D01*
G01X14178Y66167D01*
G37*

%LPD*%
G36*
G01X15679Y67003D02*
G01X15641Y67138D01*
G01X15599Y67129D01*
G01X15559Y67121D01*
G01X15519Y67112D01*
G01X15481Y67102D01*
G01X15443Y67090D01*
G01X15408Y67076D01*
G01X15375Y67059D01*
G01X15343Y67041D01*
G01X15314Y67022D01*
G01X15288Y67001D01*
G01X15264Y66978D01*
G01X15242Y66952D01*
G01X15222Y66924D01*
G01X15206Y66893D01*
G01X15193Y66859D01*
G01X15183Y66823D01*
G01X15036Y66757D01*
G01X14924Y66630D01*
G01X14882Y66542D01*
G01X14852Y66437D01*
G01X14834Y66315D01*
G01X14828Y66175D01*
G01X14836Y66017D01*
G01X14861Y65883D01*
G01X14879Y65823D01*
G01X14900Y65769D01*
G01X14925Y65720D01*
G01X14952Y65677D01*
G01X14983Y65640D01*
G01X15017Y65608D01*
G01X15054Y65581D01*
G01X15094Y65558D01*
G01X15137Y65540D01*
G01X15181Y65527D01*
G01X15228Y65520D01*
G01X15277Y65517D01*
G01X15326Y65520D01*
G01X15373Y65527D01*
G01X15418Y65540D01*
G01X15460Y65558D01*
G01X15500Y65581D01*
G01X15538Y65608D01*
G01X15571Y65640D01*
G01X15602Y65677D01*
G01X15630Y65720D01*
G01X15655Y65769D01*
G01X15676Y65823D01*
G01X15694Y65883D01*
G01X15721Y66017D01*
G01X15729Y66175D01*
G01X15722Y66316D01*
G01X15702Y66439D01*
G01X15687Y66494D01*
G01X15671Y66545D01*
G01X15651Y66592D01*
G01X15628Y66635D01*
G01X15601Y66673D01*
G01X15572Y66708D01*
G01X15542Y66738D01*
G01X15508Y66764D01*
G01X15473Y66785D01*
G01X15436Y66802D01*
G01X15397Y66815D01*
G01X15356Y66825D01*
G01X15361Y66844D01*
G01X15369Y66863D01*
G01X15379Y66879D01*
G01X15392Y66894D01*
G01X15406Y66908D01*
G01X15424Y66922D01*
G01X15442Y66934D01*
G01X15463Y66945D01*
G01X15485Y66955D01*
G01X15509Y66965D01*
G01X15535Y66973D01*
G01X15562Y66980D01*
G01X15590Y66987D01*
G01X15619Y66993D01*
G01X15649Y66999D01*
G01X15679Y67003D01*
G37*

%LPC*%
G36*
G01X15397Y66652D02*
G01X15272Y66685D01*
G01X15151Y66652D01*
G01X15067Y66553D01*
G01X15037Y66480D01*
G01X15015Y66393D01*
G01X15003Y66291D01*
G01X14998Y66175D01*
G01X15003Y66058D01*
G01X15015Y65955D01*
G01X15037Y65867D01*
G01X15067Y65794D01*
G01X15151Y65695D01*
G01X15272Y65662D01*
G01X15397Y65695D01*
G01X15486Y65794D01*
G01X15517Y65867D01*
G01X15539Y65955D01*
G01X15552Y66058D01*
G01X15557Y66175D01*
G01X15552Y66291D01*
G01X15539Y66393D01*
G01X15517Y66480D01*
G01X15486Y66553D01*
G01X15397Y66652D01*
G37*

%LPD*%
G36*
G01X12034Y67138D02*
G01X11861Y67138D01*
G01X12427Y65382D01*
G01X12598Y65382D01*
G01X12034Y67138D01*
G37*

%LPD*%

%LPD*%
G36*
G01X15333Y64262D02*
G01X15166Y64262D01*
G01X15166Y63795D01*
G01X15105Y63694D01*
G01X15048Y63594D01*
G01X14993Y63496D01*
G01X14942Y63399D01*
G01X14893Y63302D01*
G01X14847Y63204D01*
G01X14804Y63105D01*
G01X14764Y63005D01*
G01X14952Y63005D01*
G01X15015Y63171D01*
G01X15087Y63330D01*
G01X15166Y63488D01*
G01X15252Y63650D01*
G01X15339Y63482D01*
G01X15417Y63322D01*
G01X15485Y63165D01*
G01X15547Y63005D01*
G01X15729Y63005D01*
G01X15690Y63104D01*
G01X15648Y63201D01*
G01X15602Y63298D01*
G01X15554Y63394D01*
G01X15503Y63489D01*
G01X15450Y63587D01*
G01X15393Y63687D01*
G01X15333Y63790D01*
G01X15333Y64262D01*
G37*

%LPD*%
G36*
G01X14146Y64270D02*
G01X14086Y64272D01*
G01X13961Y64265D01*
G01X13832Y64242D01*
G01X13832Y63023D01*
G01X13961Y63000D01*
G01X14086Y62992D01*
G01X14146Y62994D01*
G01X14203Y63001D01*
G01X14259Y63012D01*
G01X14312Y63028D01*
G01X14363Y63047D01*
G01X14411Y63072D01*
G01X14455Y63103D01*
G01X14495Y63140D01*
G01X14531Y63181D01*
G01X14563Y63227D01*
G01X14591Y63280D01*
G01X14614Y63338D01*
G01X14647Y63472D01*
G01X14658Y63632D01*
G01X14647Y63794D01*
G01X14614Y63930D01*
G01X14591Y63987D01*
G01X14563Y64040D01*
G01X14531Y64086D01*
G01X14495Y64128D01*
G01X14455Y64163D01*
G01X14411Y64193D01*
G01X14363Y64218D01*
G01X14312Y64237D01*
G01X14259Y64253D01*
G01X14203Y64263D01*
G01X14146Y64270D01*
G37*

%LPC*%
G36*
G01X14149Y64126D02*
G01X14104Y64128D01*
G01X14077Y64127D01*
G01X14025Y64125D01*
G01X14000Y64123D01*
G01X14000Y63142D01*
G01X14010Y63141D01*
G01X14022Y63140D01*
G01X14033Y63138D01*
G01X14045Y63137D01*
G01X14096Y63137D01*
G01X14266Y63167D01*
G01X14388Y63256D01*
G01X14432Y63324D01*
G01X14463Y63410D01*
G01X14481Y63512D01*
G01X14487Y63632D01*
G01X14486Y63696D01*
G01X14480Y63755D01*
G01X14472Y63809D01*
G01X14459Y63858D01*
G01X14445Y63903D01*
G01X14428Y63944D01*
G01X14409Y63981D01*
G01X14386Y64013D01*
G01X14360Y64042D01*
G01X14332Y64066D01*
G01X14300Y64085D01*
G01X14266Y64100D01*
G01X14230Y64112D01*
G01X14190Y64121D01*
G01X14149Y64126D01*
G37*

%LPD*%
G36*
G01X12986Y64262D02*
G01X12819Y64262D01*
G01X12819Y63023D01*
G01X12834Y63019D01*
G01X12870Y63011D01*
G01X12890Y63008D01*
G01X12909Y63005D01*
G01X12929Y63003D01*
G01X12950Y63001D01*
G01X12971Y63000D01*
G01X12991Y62998D01*
G01X13032Y62996D01*
G01X13072Y62994D01*
G01X13091Y62993D01*
G01X13109Y62992D01*
G01X13126Y62992D01*
G01X13325Y63017D01*
G01X13469Y63091D01*
G01X13555Y63215D01*
G01X13583Y63389D01*
G01X13580Y63445D01*
G01X13568Y63498D01*
G01X13549Y63546D01*
G01X13522Y63592D01*
G01X13489Y63633D01*
G01X13451Y63670D01*
G01X13406Y63702D01*
G01X13357Y63729D01*
G01X13373Y63755D01*
G01X13390Y63782D01*
G01X13407Y63811D01*
G01X13426Y63841D01*
G01X13445Y63872D01*
G01X13464Y63904D01*
G01X13483Y63938D01*
G01X13521Y64008D01*
G01X13540Y64044D01*
G01X13559Y64081D01*
G01X13597Y64154D01*
G01X13614Y64191D01*
G01X13631Y64227D01*
G01X13647Y64262D01*
G01X13469Y64262D01*
G01X13405Y64118D01*
G01X13337Y63983D01*
G01X13265Y63861D01*
G01X13197Y63764D01*
G01X13190Y63765D01*
G01X13182Y63766D01*
G01X13172Y63767D01*
G01X12986Y63767D01*
G01X12986Y64262D01*
G37*

%LPC*%
G36*
G01X13131Y63627D02*
G01X12986Y63627D01*
G01X12986Y63142D01*
G01X12998Y63141D01*
G01X13012Y63140D01*
G01X13029Y63138D01*
G01X13050Y63137D01*
G01X13139Y63137D01*
G01X13166Y63138D01*
G01X13194Y63140D01*
G01X13219Y63143D01*
G01X13245Y63147D01*
G01X13269Y63154D01*
G01X13291Y63163D01*
G01X13312Y63174D01*
G01X13332Y63185D01*
G01X13348Y63201D01*
G01X13364Y63218D01*
G01X13378Y63239D01*
G01X13390Y63262D01*
G01X13400Y63286D01*
G01X13407Y63314D01*
G01X13411Y63346D01*
G01X13413Y63381D01*
G01X13411Y63417D01*
G01X13407Y63450D01*
G01X13400Y63479D01*
G01X13390Y63505D01*
G01X13377Y63528D01*
G01X13363Y63549D01*
G01X13346Y63566D01*
G01X13327Y63582D01*
G01X13304Y63593D01*
G01X13280Y63603D01*
G01X13253Y63611D01*
G01X13225Y63617D01*
G01X13196Y63622D01*
G01X13165Y63625D01*
G01X13131Y63627D01*
G37*

%LPD*%

%LPD*%
G36*
G01X15393Y61746D02*
G01X15343Y61748D01*
G01X15246Y61739D01*
G01X15161Y61713D01*
G01X15089Y61669D01*
G01X15031Y61608D01*
G01X14985Y61531D01*
G01X14953Y61441D01*
G01X14933Y61337D01*
G01X14927Y61219D01*
G01X14940Y61047D01*
G01X14978Y60894D01*
G01X15038Y60764D01*
G01X15120Y60658D01*
G01X15221Y60573D01*
G01X15343Y60511D01*
G01X15485Y60472D01*
G01X15643Y60457D01*
G01X15656Y60600D01*
G01X15603Y60602D01*
G01X15554Y60607D01*
G01X15506Y60615D01*
G01X15460Y60625D01*
G01X15417Y60637D01*
G01X15376Y60652D01*
G01X15338Y60671D01*
G01X15303Y60694D01*
G01X15270Y60719D01*
G01X15240Y60748D01*
G01X15213Y60780D01*
G01X15188Y60815D01*
G01X15166Y60856D01*
G01X15147Y60900D01*
G01X15131Y60949D01*
G01X15117Y61001D01*
G01X15142Y60990D01*
G01X15168Y60981D01*
G01X15196Y60972D01*
G01X15224Y60965D01*
G01X15252Y60959D01*
G01X15282Y60954D01*
G01X15313Y60951D01*
G01X15346Y60950D01*
G01X15397Y60952D01*
G01X15444Y60958D01*
G01X15487Y60969D01*
G01X15526Y60983D01*
G01X15561Y61001D01*
G01X15593Y61021D01*
G01X15621Y61044D01*
G01X15646Y61069D01*
G01X15666Y61097D01*
G01X15683Y61127D01*
G01X15697Y61159D01*
G01X15709Y61194D01*
G01X15718Y61230D01*
G01X15724Y61266D01*
G01X15728Y61304D01*
G01X15729Y61341D01*
G01X15728Y61376D01*
G01X15724Y61410D01*
G01X15717Y61445D01*
G01X15707Y61481D01*
G01X15695Y61517D01*
G01X15679Y61551D01*
G01X15660Y61583D01*
G01X15638Y61613D01*
G01X15614Y61642D01*
G01X15585Y61668D01*
G01X15554Y61692D01*
G01X15519Y61712D01*
G01X15480Y61728D01*
G01X15438Y61739D01*
G01X15393Y61746D01*
G37*

%LPC*%
G36*
G01X15370Y61606D02*
G01X15341Y61608D01*
G01X15307Y61606D01*
G01X15275Y61600D01*
G01X15247Y61591D01*
G01X15221Y61577D01*
G01X15200Y61560D01*
G01X15180Y61539D01*
G01X15163Y61517D01*
G01X15148Y61491D01*
G01X15135Y61463D01*
G01X15124Y61433D01*
G01X15116Y61401D01*
G01X15110Y61367D01*
G01X15104Y61332D01*
G01X15100Y61296D01*
G01X15098Y61258D01*
G01X15097Y61219D01*
G01X15097Y61167D01*
G01X15098Y61158D01*
G01X15100Y61138D01*
G01X15127Y61126D01*
G01X15155Y61116D01*
G01X15182Y61107D01*
G01X15209Y61100D01*
G01X15236Y61094D01*
G01X15265Y61090D01*
G01X15296Y61088D01*
G01X15328Y61087D01*
G01X15384Y61091D01*
G01X15432Y61104D01*
G01X15471Y61124D01*
G01X15503Y61153D01*
G01X15528Y61190D01*
G01X15546Y61234D01*
G01X15556Y61284D01*
G01X15559Y61341D01*
G01X15559Y61363D01*
G01X15557Y61385D01*
G01X15554Y61409D01*
G01X15549Y61433D01*
G01X15542Y61456D01*
G01X15533Y61478D01*
G01X15523Y61499D01*
G01X15511Y61519D01*
G01X15496Y61537D01*
G01X15480Y61554D01*
G01X15462Y61569D01*
G01X15442Y61583D01*
G01X15421Y61594D01*
G01X15397Y61602D01*
G01X15370Y61606D01*
G37*

%LPD*%
G36*
G01X14225Y61730D02*
G01X14165Y61732D01*
G01X14039Y61725D01*
G01X13911Y61702D01*
G01X13911Y60483D01*
G01X14039Y60460D01*
G01X14165Y60452D01*
G01X14225Y60454D01*
G01X14282Y60461D01*
G01X14338Y60472D01*
G01X14391Y60488D01*
G01X14442Y60507D01*
G01X14490Y60532D01*
G01X14534Y60563D01*
G01X14574Y60600D01*
G01X14610Y60641D01*
G01X14642Y60687D01*
G01X14669Y60740D01*
G01X14693Y60798D01*
G01X14726Y60932D01*
G01X14736Y61092D01*
G01X14726Y61254D01*
G01X14693Y61390D01*
G01X14669Y61447D01*
G01X14642Y61500D01*
G01X14610Y61546D01*
G01X14574Y61588D01*
G01X14534Y61623D01*
G01X14490Y61653D01*
G01X14442Y61678D01*
G01X14391Y61697D01*
G01X14338Y61713D01*
G01X14282Y61723D01*
G01X14225Y61730D01*
G37*

%LPC*%
G36*
G01X14227Y61586D02*
G01X14183Y61588D01*
G01X14156Y61587D01*
G01X14104Y61585D01*
G01X14078Y61583D01*
G01X14078Y60602D01*
G01X14100Y60600D01*
G01X14112Y60598D01*
G01X14124Y60597D01*
G01X14175Y60597D01*
G01X14345Y60627D01*
G01X14467Y60716D01*
G01X14510Y60784D01*
G01X14541Y60870D01*
G01X14560Y60972D01*
G01X14566Y61092D01*
G01X14565Y61156D01*
G01X14559Y61215D01*
G01X14550Y61269D01*
G01X14538Y61318D01*
G01X14524Y61363D01*
G01X14507Y61404D01*
G01X14487Y61441D01*
G01X14465Y61473D01*
G01X14439Y61502D01*
G01X14411Y61526D01*
G01X14379Y61545D01*
G01X14345Y61560D01*
G01X14309Y61572D01*
G01X14269Y61581D01*
G01X14227Y61586D01*
G37*

%LPD*%

%LPD*%
G36*
G01X15580Y59182D02*
G01X15417Y59182D01*
G01X15417Y58862D01*
G01X14856Y58862D01*
G01X14856Y58748D01*
G01X14874Y58706D01*
G01X14896Y58660D01*
G01X14921Y58612D01*
G01X14950Y58560D01*
G01X15014Y58453D01*
G01X15084Y58342D01*
G01X15163Y58230D01*
G01X15244Y58121D01*
G01X15331Y58017D01*
G01X15417Y57925D01*
G01X15580Y57925D01*
G01X15580Y58723D01*
G01X15729Y58723D01*
G01X15729Y58862D01*
G01X15580Y58862D01*
G01X15580Y59182D01*
G37*

%LPC*%
G36*
G01X15417Y58723D02*
G01X15018Y58723D01*
G01X15056Y58643D01*
G01X15077Y58603D01*
G01X15100Y58563D01*
G01X15123Y58522D01*
G01X15147Y58482D01*
G01X15199Y58402D01*
G01X15226Y58363D01*
G01X15252Y58326D01*
G01X15280Y58289D01*
G01X15308Y58253D01*
G01X15336Y58218D01*
G01X15363Y58185D01*
G01X15390Y58153D01*
G01X15417Y58123D01*
G01X15417Y58723D01*
G37*

%LPD*%
G36*
G01X14189Y59190D02*
G01X14129Y59192D01*
G01X14004Y59185D01*
G01X13875Y59162D01*
G01X13875Y57943D01*
G01X14004Y57920D01*
G01X14129Y57912D01*
G01X14189Y57914D01*
G01X14247Y57921D01*
G01X14302Y57932D01*
G01X14355Y57948D01*
G01X14407Y57967D01*
G01X14454Y57992D01*
G01X14498Y58023D01*
G01X14538Y58060D01*
G01X14574Y58101D01*
G01X14606Y58147D01*
G01X14634Y58200D01*
G01X14658Y58258D01*
G01X14690Y58392D01*
G01X14701Y58552D01*
G01X14690Y58714D01*
G01X14658Y58850D01*
G01X14634Y58907D01*
G01X14606Y58960D01*
G01X14574Y59006D01*
G01X14538Y59048D01*
G01X14498Y59083D01*
G01X14454Y59113D01*
G01X14407Y59138D01*
G01X14355Y59157D01*
G01X14302Y59173D01*
G01X14247Y59183D01*
G01X14189Y59190D01*
G37*

%LPC*%
G36*
G01X14192Y59046D02*
G01X14147Y59048D01*
G01X14121Y59047D01*
G01X14094Y59046D01*
G01X14068Y59045D01*
G01X14043Y59043D01*
G01X14043Y58062D01*
G01X14065Y58060D01*
G01X14076Y58058D01*
G01X14089Y58057D01*
G01X14139Y58057D01*
G01X14309Y58087D01*
G01X14432Y58176D01*
G01X14475Y58244D01*
G01X14506Y58330D01*
G01X14524Y58432D01*
G01X14531Y58552D01*
G01X14529Y58616D01*
G01X14523Y58675D01*
G01X14515Y58729D01*
G01X14503Y58778D01*
G01X14488Y58823D01*
G01X14472Y58864D01*
G01X14452Y58901D01*
G01X14429Y58933D01*
G01X14404Y58962D01*
G01X14375Y58986D01*
G01X14344Y59005D01*
G01X14310Y59020D01*
G01X14273Y59032D01*
G01X14233Y59041D01*
G01X14192Y59046D01*
G37*

%LPD*%

%LPD*%
G36*
G01X14232Y56650D02*
G01X14172Y56652D01*
G01X14047Y56645D01*
G01X13918Y56622D01*
G01X13918Y55403D01*
G01X14047Y55380D01*
G01X14172Y55372D01*
G01X14232Y55374D01*
G01X14290Y55381D01*
G01X14345Y55392D01*
G01X14399Y55408D01*
G01X14450Y55427D01*
G01X14498Y55452D01*
G01X14541Y55483D01*
G01X14581Y55520D01*
G01X14617Y55561D01*
G01X14649Y55607D01*
G01X14677Y55660D01*
G01X14701Y55718D01*
G01X14733Y55852D01*
G01X14744Y56012D01*
G01X14733Y56174D01*
G01X14701Y56310D01*
G01X14677Y56367D01*
G01X14649Y56420D01*
G01X14617Y56466D01*
G01X14581Y56508D01*
G01X14541Y56543D01*
G01X14498Y56573D01*
G01X14450Y56598D01*
G01X14399Y56617D01*
G01X14345Y56633D01*
G01X14290Y56643D01*
G01X14232Y56650D01*
G37*

%LPC*%
G36*
G01X14235Y56506D02*
G01X14190Y56508D01*
G01X14164Y56507D01*
G01X14137Y56506D01*
G01X14111Y56505D01*
G01X14086Y56503D01*
G01X14086Y55522D01*
G01X14108Y55520D01*
G01X14120Y55518D01*
G01X14132Y55517D01*
G01X14183Y55517D01*
G01X14352Y55547D01*
G01X14475Y55636D01*
G01X14518Y55704D01*
G01X14549Y55790D01*
G01X14568Y55892D01*
G01X14574Y56012D01*
G01X14572Y56076D01*
G01X14567Y56135D01*
G01X14558Y56189D01*
G01X14546Y56238D01*
G01X14532Y56283D01*
G01X14515Y56324D01*
G01X14495Y56361D01*
G01X14472Y56393D01*
G01X14447Y56422D01*
G01X14418Y56446D01*
G01X14387Y56465D01*
G01X14353Y56480D01*
G01X14316Y56492D01*
G01X14277Y56501D01*
G01X14235Y56506D01*
G37*

%LPD*%
G36*
G01X15729Y56642D02*
G01X14967Y56642D01*
G01X14965Y56632D01*
G01X14965Y56599D01*
G01X14966Y56558D01*
G01X14972Y56518D01*
G01X14981Y56479D01*
G01X14993Y56442D01*
G01X15009Y56405D01*
G01X15026Y56370D01*
G01X15046Y56335D01*
G01X15067Y56302D01*
G01X15090Y56270D01*
G01X15115Y56239D01*
G01X15141Y56209D01*
G01X15168Y56180D01*
G01X15196Y56151D01*
G01X15250Y56095D01*
G01X15322Y56023D01*
G01X15364Y55979D01*
G01X15385Y55958D01*
G01X15404Y55937D01*
G01X15421Y55916D01*
G01X15437Y55896D01*
G01X15453Y55874D01*
G01X15467Y55852D01*
G01X15479Y55829D01*
G01X15488Y55807D01*
G01X15497Y55784D01*
G01X15503Y55760D01*
G01X15507Y55736D01*
G01X15508Y55713D01*
G01X15507Y55686D01*
G01X15504Y55661D01*
G01X15498Y55639D01*
G01X15491Y55619D01*
G01X15481Y55600D01*
G01X15470Y55584D01*
G01X15458Y55569D01*
G01X15445Y55555D01*
G01X15429Y55543D01*
G01X15412Y55533D01*
G01X15395Y55524D01*
G01X15376Y55517D01*
G01X15357Y55511D01*
G01X15336Y55507D01*
G01X15315Y55505D01*
G01X15293Y55504D01*
G01X15267Y55505D01*
G01X15242Y55508D01*
G01X15218Y55513D01*
G01X15196Y55520D01*
G01X15175Y55526D01*
G01X15155Y55534D01*
G01X15137Y55543D01*
G01X15103Y55563D01*
G01X15087Y55573D01*
G01X15061Y55593D01*
G01X15050Y55602D01*
G01X15039Y55609D01*
G01X15030Y55617D01*
G01X15023Y55624D01*
G01X14942Y55507D01*
G01X14951Y55497D01*
G01X14962Y55487D01*
G01X14975Y55474D01*
G01X14990Y55461D01*
G01X15008Y55448D01*
G01X15026Y55436D01*
G01X15047Y55425D01*
G01X15069Y55413D01*
G01X15092Y55401D01*
G01X15117Y55390D01*
G01X15143Y55380D01*
G01X15171Y55372D01*
G01X15199Y55366D01*
G01X15229Y55361D01*
G01X15260Y55358D01*
G01X15293Y55357D01*
G01X15465Y55379D01*
G01X15585Y55446D01*
G01X15655Y55556D01*
G01X15679Y55705D01*
G01X15677Y55738D01*
G01X15673Y55770D01*
G01X15664Y55801D01*
G01X15653Y55832D01*
G01X15640Y55862D01*
G01X15624Y55892D01*
G01X15607Y55922D01*
G01X15587Y55951D01*
G01X15565Y55980D01*
G01X15542Y56010D01*
G01X15517Y56039D01*
G01X15491Y56068D01*
G01X15439Y56124D01*
G01X15384Y56180D01*
G01X15313Y56251D01*
G01X15293Y56273D01*
G01X15255Y56317D01*
G01X15237Y56340D01*
G01X15218Y56361D01*
G01X15188Y56405D01*
G01X15176Y56426D01*
G01X15165Y56447D01*
G01X15157Y56466D01*
G01X15152Y56484D01*
G01X15150Y56500D01*
G01X15729Y56500D01*
G01X15729Y56642D01*
G37*

%LPD*%

%LPD*%
G36*
G01X15601Y54095D02*
G01X15475Y54102D01*
G01X15416Y54100D01*
G01X15358Y54093D01*
G01X15303Y54082D01*
G01X15249Y54067D01*
G01X15198Y54047D01*
G01X15150Y54022D01*
G01X15107Y53992D01*
G01X15067Y53955D01*
G01X15030Y53914D01*
G01X14998Y53867D01*
G01X14971Y53815D01*
G01X14947Y53757D01*
G01X14915Y53622D01*
G01X14904Y53462D01*
G01X14915Y53300D01*
G01X14947Y53165D01*
G01X14971Y53107D01*
G01X14998Y53054D01*
G01X15030Y53008D01*
G01X15067Y52967D01*
G01X15107Y52931D01*
G01X15150Y52901D01*
G01X15198Y52877D01*
G01X15249Y52858D01*
G01X15303Y52842D01*
G01X15358Y52831D01*
G01X15416Y52824D01*
G01X15475Y52822D01*
G01X15601Y52830D01*
G01X15729Y52853D01*
G01X15729Y54072D01*
G01X15601Y54095D01*
G37*

%LPC*%
G36*
G01X15516Y53957D02*
G01X15465Y53957D01*
G01X15296Y53928D01*
G01X15173Y53838D01*
G01X15130Y53770D01*
G01X15099Y53684D01*
G01X15080Y53582D01*
G01X15074Y53462D01*
G01X15076Y53399D01*
G01X15081Y53340D01*
G01X15090Y53285D01*
G01X15102Y53236D01*
G01X15116Y53191D01*
G01X15133Y53150D01*
G01X15153Y53114D01*
G01X15176Y53081D01*
G01X15201Y53053D01*
G01X15230Y53029D01*
G01X15261Y53010D01*
G01X15295Y52995D01*
G01X15332Y52983D01*
G01X15371Y52974D01*
G01X15413Y52968D01*
G01X15458Y52967D01*
G01X15484Y52967D01*
G01X15511Y52968D01*
G01X15536Y52970D01*
G01X15562Y52972D01*
G01X15562Y53952D01*
G01X15551Y53953D01*
G01X15540Y53955D01*
G01X15516Y53957D01*
G37*

%LPD*%
G36*
G01X14408Y54107D02*
G01X14315Y54118D01*
G01X14221Y54107D01*
G01X14139Y54075D01*
G01X14068Y54023D01*
G01X14007Y53950D01*
G01X13961Y53855D01*
G01X13928Y53743D01*
G01X13907Y53612D01*
G01X13901Y53462D01*
G01X13907Y53313D01*
G01X13928Y53181D01*
G01X13961Y53069D01*
G01X14007Y52975D01*
G01X14068Y52901D01*
G01X14139Y52849D01*
G01X14221Y52818D01*
G01X14315Y52807D01*
G01X14408Y52818D01*
G01X14490Y52849D01*
G01X14561Y52901D01*
G01X14619Y52975D01*
G01X14667Y53069D01*
G01X14701Y53181D01*
G01X14722Y53313D01*
G01X14729Y53462D01*
G01X14722Y53612D01*
G01X14701Y53743D01*
G01X14667Y53855D01*
G01X14619Y53950D01*
G01X14561Y54023D01*
G01X14490Y54075D01*
G01X14408Y54107D01*
G37*

%LPC*%
G36*
G01X14348Y53968D02*
G01X14315Y53970D01*
G01X14282Y53968D01*
G01X14251Y53960D01*
G01X14223Y53947D01*
G01X14198Y53930D01*
G01X14176Y53908D01*
G01X14157Y53882D01*
G01X14139Y53853D01*
G01X14124Y53820D01*
G01X14111Y53784D01*
G01X14100Y53745D01*
G01X14091Y53703D01*
G01X14084Y53658D01*
G01X14078Y53611D01*
G01X14074Y53563D01*
G01X14072Y53513D01*
G01X14071Y53462D01*
G01X14072Y53411D01*
G01X14074Y53361D01*
G01X14078Y53313D01*
G01X14084Y53267D01*
G01X14091Y53221D01*
G01X14100Y53179D01*
G01X14111Y53140D01*
G01X14124Y53104D01*
G01X14139Y53072D01*
G01X14157Y53043D01*
G01X14176Y53017D01*
G01X14198Y52995D01*
G01X14223Y52977D01*
G01X14251Y52964D01*
G01X14282Y52957D01*
G01X14315Y52954D01*
G01X14348Y52957D01*
G01X14378Y52964D01*
G01X14406Y52977D01*
G01X14432Y52995D01*
G01X14453Y53017D01*
G01X14473Y53043D01*
G01X14490Y53072D01*
G01X14505Y53104D01*
G01X14518Y53140D01*
G01X14530Y53179D01*
G01X14539Y53221D01*
G01X14546Y53267D01*
G01X14551Y53313D01*
G01X14555Y53361D01*
G01X14558Y53411D01*
G01X14559Y53462D01*
G01X14558Y53513D01*
G01X14555Y53563D01*
G01X14551Y53611D01*
G01X14546Y53658D01*
G01X14539Y53703D01*
G01X14530Y53745D01*
G01X14518Y53784D01*
G01X14505Y53820D01*
G01X14490Y53853D01*
G01X14473Y53882D01*
G01X14453Y53908D01*
G01X14432Y53930D01*
G01X14406Y53947D01*
G01X14378Y53960D01*
G01X14348Y53968D01*
G37*

%LPD*%
G36*
G01X14335Y53617D02*
G01X14310Y53620D01*
G01X14286Y53617D01*
G01X14264Y53610D01*
G01X14245Y53597D01*
G01X14228Y53579D01*
G01X14215Y53558D01*
G01X14205Y53535D01*
G01X14200Y53511D01*
G01X14198Y53485D01*
G01X14200Y53459D01*
G01X14205Y53435D01*
G01X14215Y53413D01*
G01X14228Y53394D01*
G01X14245Y53377D01*
G01X14264Y53365D01*
G01X14286Y53358D01*
G01X14310Y53356D01*
G01X14335Y53358D01*
G01X14358Y53365D01*
G01X14378Y53377D01*
G01X14396Y53394D01*
G01X14411Y53413D01*
G01X14421Y53435D01*
G01X14427Y53459D01*
G01X14429Y53485D01*
G01X14427Y53511D01*
G01X14421Y53535D01*
G01X14411Y53558D01*
G01X14396Y53579D01*
G01X14378Y53597D01*
G01X14358Y53610D01*
G01X14335Y53617D01*
G37*

%LPD*%

%LPD*%
G36*
G01X14919Y51562D02*
G01X14749Y51562D01*
G01X14787Y51423D01*
G01X14828Y51273D01*
G01X14871Y51113D01*
G01X14919Y50950D01*
G01X15023Y50620D01*
G01X15081Y50458D01*
G01X15140Y50305D01*
G01X15346Y50305D01*
G01X15405Y50458D01*
G01X15460Y50620D01*
G01X15513Y50785D01*
G01X15562Y50950D01*
G01X15608Y51113D01*
G01X15651Y51273D01*
G01X15692Y51423D01*
G01X15729Y51562D01*
G01X15552Y51562D01*
G01X15478Y51232D01*
G01X14993Y51232D01*
G01X14919Y51562D01*
G37*

%LPC*%
G36*
G01X15437Y51095D02*
G01X15031Y51095D01*
G01X15082Y50919D01*
G01X15135Y50747D01*
G01X15188Y50589D01*
G01X15237Y50450D01*
G01X15286Y50584D01*
G01X15338Y50742D01*
G01X15390Y50915D01*
G01X15437Y51095D01*
G37*

%LPD*%
G36*
G01X13944Y51562D02*
G01X13781Y51562D01*
G01X13787Y51405D01*
G01X13794Y51245D01*
G01X13803Y51083D01*
G01X13814Y50922D01*
G01X13826Y50763D01*
G01X13840Y50605D01*
G01X13855Y50452D01*
G01X13873Y50305D01*
G01X14028Y50305D01*
G01X14226Y50930D01*
G01X14421Y50305D01*
G01X14576Y50305D01*
G01X14595Y50454D01*
G01X14611Y50605D01*
G01X14625Y50758D01*
G01X14635Y50912D01*
G01X14640Y51016D01*
G01X14646Y51122D01*
G01X14651Y51230D01*
G01X14656Y51339D01*
G01X14661Y51449D01*
G01X14665Y51562D01*
G01X14503Y51562D01*
G01X14503Y51506D01*
G01X14502Y51448D01*
G01X14501Y51387D01*
G01X14500Y51324D01*
G01X14498Y51194D01*
G01X14495Y51059D01*
G01X14492Y50923D01*
G01X14487Y50785D01*
G01X14485Y50645D01*
G01X14482Y50511D01*
G01X14299Y51085D01*
G01X14152Y51085D01*
G01X13964Y50511D01*
G01X13963Y50645D01*
G01X13959Y50782D01*
G01X13957Y50922D01*
G01X13954Y51059D01*
G01X13951Y51194D01*
G01X13949Y51324D01*
G01X13947Y51387D01*
G01X13945Y51448D01*
G01X13944Y51506D01*
G01X13944Y51562D01*
G37*

%LPD*%
G36*
G01X13122Y51570D02*
G01X13062Y51572D01*
G01X12937Y51565D01*
G01X12808Y51542D01*
G01X12808Y50323D01*
G01X12937Y50300D01*
G01X13062Y50292D01*
G01X13122Y50294D01*
G01X13180Y50301D01*
G01X13235Y50312D01*
G01X13289Y50328D01*
G01X13340Y50347D01*
G01X13388Y50372D01*
G01X13431Y50403D01*
G01X13471Y50440D01*
G01X13507Y50481D01*
G01X13539Y50527D01*
G01X13567Y50580D01*
G01X13591Y50638D01*
G01X13623Y50772D01*
G01X13634Y50932D01*
G01X13623Y51094D01*
G01X13591Y51230D01*
G01X13567Y51287D01*
G01X13539Y51340D01*
G01X13507Y51386D01*
G01X13471Y51428D01*
G01X13431Y51463D01*
G01X13388Y51493D01*
G01X13340Y51518D01*
G01X13289Y51537D01*
G01X13235Y51553D01*
G01X13180Y51563D01*
G01X13122Y51570D01*
G37*

%LPC*%
G36*
G01X13125Y51426D02*
G01X13080Y51428D01*
G01X13054Y51427D01*
G01X13027Y51426D01*
G01X13002Y51425D01*
G01X12976Y51423D01*
G01X12976Y50442D01*
G01X12998Y50440D01*
G01X13010Y50438D01*
G01X13022Y50437D01*
G01X13073Y50437D01*
G01X13242Y50467D01*
G01X13365Y50556D01*
G01X13408Y50624D01*
G01X13439Y50710D01*
G01X13458Y50812D01*
G01X13464Y50932D01*
G01X13462Y50996D01*
G01X13457Y51055D01*
G01X13448Y51109D01*
G01X13436Y51158D01*
G01X13422Y51203D01*
G01X13405Y51244D01*
G01X13385Y51281D01*
G01X13362Y51313D01*
G01X13337Y51342D01*
G01X13308Y51366D01*
G01X13277Y51385D01*
G01X13243Y51400D01*
G01X13206Y51412D01*
G01X13167Y51421D01*
G01X13125Y51426D01*
G37*

%LPD*%

%LPD*%
G36*
G01X15484Y49026D02*
G01X15300Y49048D01*
G01X15236Y49046D01*
G01X15205Y49043D01*
G01X15176Y49040D01*
G01X15146Y49035D01*
G01X15119Y49029D01*
G01X15093Y49023D01*
G01X15069Y49017D01*
G01X15047Y49010D01*
G01X15027Y49002D01*
G01X15008Y48994D01*
G01X14990Y48987D01*
G01X14974Y48980D01*
G01X14959Y48974D01*
G01X14947Y48968D01*
G01X14937Y48961D01*
G01X14988Y48824D01*
G01X15011Y48835D01*
G01X15038Y48847D01*
G01X15070Y48860D01*
G01X15107Y48875D01*
G01X15149Y48888D01*
G01X15195Y48898D01*
G01X15245Y48904D01*
G01X15300Y48905D01*
G01X15361Y48902D01*
G01X15414Y48893D01*
G01X15459Y48877D01*
G01X15496Y48855D01*
G01X15525Y48827D01*
G01X15545Y48794D01*
G01X15558Y48755D01*
G01X15562Y48710D01*
G01X15560Y48682D01*
G01X15556Y48655D01*
G01X15549Y48631D01*
G01X15539Y48608D01*
G01X15525Y48588D01*
G01X15510Y48570D01*
G01X15492Y48552D01*
G01X15473Y48535D01*
G01X15452Y48520D01*
G01X15430Y48506D01*
G01X15406Y48493D01*
G01X15382Y48481D01*
G01X15304Y48448D01*
G01X15277Y48438D01*
G01X15247Y48425D01*
G01X15189Y48397D01*
G01X15161Y48382D01*
G01X15133Y48366D01*
G01X15108Y48349D01*
G01X15084Y48331D01*
G01X15061Y48311D01*
G01X15041Y48290D01*
G01X15023Y48267D01*
G01X15007Y48242D01*
G01X14993Y48215D01*
G01X14982Y48186D01*
G01X14974Y48155D01*
G01X14969Y48122D01*
G01X14967Y48085D01*
G01X14994Y47938D01*
G01X15072Y47828D01*
G01X15195Y47760D01*
G01X15359Y47737D01*
G01X15384Y47737D01*
G01X15409Y47738D01*
G01X15435Y47740D01*
G01X15460Y47742D01*
G01X15485Y47746D01*
G01X15509Y47750D01*
G01X15531Y47755D01*
G01X15573Y47765D01*
G01X15592Y47771D01*
G01X15611Y47778D01*
G01X15645Y47792D01*
G01X15660Y47799D01*
G01X15673Y47806D01*
G01X15684Y47813D01*
G01X15630Y47953D01*
G01X15608Y47941D01*
G01X15582Y47929D01*
G01X15552Y47917D01*
G01X15519Y47905D01*
G01X15482Y47894D01*
G01X15443Y47886D01*
G01X15402Y47881D01*
G01X15359Y47879D01*
G01X15315Y47882D01*
G01X15274Y47891D01*
G01X15236Y47905D01*
G01X15201Y47925D01*
G01X15172Y47951D01*
G01X15152Y47982D01*
G01X15139Y48019D01*
G01X15135Y48062D01*
G01X15136Y48088D01*
G01X15140Y48112D01*
G01X15145Y48134D01*
G01X15153Y48154D01*
G01X15164Y48171D01*
G01X15176Y48187D01*
G01X15191Y48203D01*
G01X15206Y48217D01*
G01X15224Y48231D01*
G01X15242Y48243D01*
G01X15263Y48255D01*
G01X15285Y48265D01*
G01X15307Y48277D01*
G01X15331Y48288D01*
G01X15355Y48300D01*
G01X15382Y48311D01*
G01X15420Y48328D01*
G01X15456Y48344D01*
G01X15491Y48361D01*
G01X15524Y48377D01*
G01X15554Y48393D01*
G01X15583Y48411D01*
G01X15609Y48431D01*
G01X15633Y48453D01*
G01X15655Y48477D01*
G01X15674Y48503D01*
G01X15690Y48530D01*
G01X15704Y48560D01*
G01X15715Y48592D01*
G01X15723Y48627D01*
G01X15728Y48666D01*
G01X15729Y48707D01*
G01X15702Y48853D01*
G01X15618Y48961D01*
G01X15484Y49026D01*
G37*

%LPD*%

%LPD*%
G36*
G01X15330Y46506D02*
G01X15272Y46508D01*
G01X15200Y46505D01*
G01X15176Y46503D01*
G01X15153Y46499D01*
G01X15131Y46494D01*
G01X15109Y46490D01*
G01X15087Y46485D01*
G01X15066Y46480D01*
G01X15046Y46474D01*
G01X15028Y46468D01*
G01X15011Y46462D01*
G01X14995Y46457D01*
G01X14983Y46452D01*
G01X14973Y46448D01*
G01X14965Y46444D01*
G01X14998Y46299D01*
G01X15016Y46308D01*
G01X15038Y46317D01*
G01X15065Y46326D01*
G01X15097Y46337D01*
G01X15134Y46348D01*
G01X15175Y46355D01*
G01X15220Y46359D01*
G01X15270Y46360D01*
G01X15309Y46359D01*
G01X15344Y46356D01*
G01X15376Y46350D01*
G01X15404Y46343D01*
G01X15431Y46333D01*
G01X15455Y46321D01*
G01X15475Y46308D01*
G01X15493Y46292D01*
G01X15508Y46276D01*
G01X15522Y46259D01*
G01X15533Y46240D01*
G01X15542Y46221D01*
G01X15548Y46200D01*
G01X15553Y46179D01*
G01X15556Y46157D01*
G01X15557Y46134D01*
G01X15555Y46101D01*
G01X15551Y46069D01*
G01X15544Y46040D01*
G01X15534Y46012D01*
G01X15520Y45986D01*
G01X15502Y45963D01*
G01X15480Y45941D01*
G01X15453Y45921D01*
G01X15421Y45904D01*
G01X15384Y45889D01*
G01X15342Y45876D01*
G01X15295Y45865D01*
G01X15181Y45852D01*
G01X15041Y45847D01*
G01X15053Y45759D01*
G01X15057Y45719D01*
G01X15069Y45602D01*
G01X15072Y45564D01*
G01X15074Y45527D01*
G01X15077Y45490D01*
G01X15079Y45452D01*
G01X15082Y45380D01*
G01X15083Y45343D01*
G01X15087Y45265D01*
G01X15089Y45225D01*
G01X15694Y45225D01*
G01X15694Y45367D01*
G01X15234Y45367D01*
G01X15233Y45382D01*
G01X15232Y45400D01*
G01X15231Y45419D01*
G01X15229Y45441D01*
G01X15226Y45488D01*
G01X15224Y45512D01*
G01X15221Y45537D01*
G01X15220Y45562D01*
G01X15218Y45587D01*
G01X15216Y45611D01*
G01X15214Y45634D01*
G01X15213Y45657D01*
G01X15211Y45677D01*
G01X15210Y45695D01*
G01X15209Y45710D01*
G01X15335Y45721D01*
G01X15444Y45745D01*
G01X15533Y45781D01*
G01X15605Y45829D01*
G01X15698Y45957D01*
G01X15729Y46124D01*
G01X15728Y46165D01*
G01X15722Y46205D01*
G01X15714Y46242D01*
G01X15702Y46279D01*
G01X15687Y46313D01*
G01X15669Y46345D01*
G01X15646Y46374D01*
G01X15620Y46401D01*
G01X15590Y46425D01*
G01X15557Y46446D01*
G01X15519Y46464D01*
G01X15478Y46480D01*
G01X15433Y46492D01*
G01X15384Y46501D01*
G01X15330Y46506D01*
G37*

%LPD*%
G36*
G01X14703Y46482D02*
G01X14028Y46482D01*
G01X14028Y46340D01*
G01X14299Y46340D01*
G01X14299Y45459D01*
G01X14288Y45469D01*
G01X14275Y45479D01*
G01X14261Y45489D01*
G01X14246Y45499D01*
G01X14230Y45510D01*
G01X14214Y45522D01*
G01X14178Y45542D01*
G01X14158Y45553D01*
G01X14139Y45562D01*
G01X14119Y45571D01*
G01X14099Y45581D01*
G01X14078Y45589D01*
G01X14059Y45597D01*
G01X14039Y45604D01*
G01X14020Y45611D01*
G01X13967Y45484D01*
G01X14019Y45462D01*
G01X14069Y45438D01*
G01X14119Y45411D01*
G01X14167Y45382D01*
G01X14216Y45349D01*
G01X14262Y45311D01*
G01X14306Y45270D01*
G01X14348Y45225D01*
G01X14467Y45225D01*
G01X14467Y46340D01*
G01X14703Y46340D01*
G01X14703Y46482D01*
G37*

%LPD*%
G36*
G01X12986Y46482D02*
G01X12816Y46482D01*
G01X12854Y46343D01*
G01X12895Y46193D01*
G01X12938Y46033D01*
G01X12986Y45870D01*
G01X13090Y45540D01*
G01X13148Y45378D01*
G01X13207Y45225D01*
G01X13413Y45225D01*
G01X13472Y45378D01*
G01X13527Y45540D01*
G01X13580Y45705D01*
G01X13629Y45870D01*
G01X13675Y46033D01*
G01X13718Y46193D01*
G01X13759Y46343D01*
G01X13797Y46482D01*
G01X13619Y46482D01*
G01X13545Y46152D01*
G01X13060Y46152D01*
G01X12986Y46482D01*
G37*

%LPC*%
G36*
G01X13504Y46015D02*
G01X13098Y46015D01*
G01X13149Y45839D01*
G01X13202Y45667D01*
G01X13256Y45509D01*
G01X13304Y45370D01*
G01X13354Y45504D01*
G01X13405Y45662D01*
G01X13457Y45835D01*
G01X13504Y46015D01*
G37*

%LPD*%

%LPD*%
G36*
G01X14703Y43942D02*
G01X14028Y43942D01*
G01X14028Y43800D01*
G01X14299Y43800D01*
G01X14299Y42919D01*
G01X14288Y42929D01*
G01X14275Y42939D01*
G01X14261Y42949D01*
G01X14246Y42959D01*
G01X14230Y42970D01*
G01X14214Y42982D01*
G01X14178Y43002D01*
G01X14158Y43013D01*
G01X14139Y43022D01*
G01X14119Y43031D01*
G01X14099Y43041D01*
G01X14078Y43049D01*
G01X14059Y43057D01*
G01X14039Y43064D01*
G01X14020Y43071D01*
G01X13967Y42944D01*
G01X14019Y42922D01*
G01X14069Y42898D01*
G01X14119Y42871D01*
G01X14167Y42842D01*
G01X14216Y42809D01*
G01X14262Y42771D01*
G01X14306Y42730D01*
G01X14348Y42685D01*
G01X14467Y42685D01*
G01X14467Y43800D01*
G01X14703Y43800D01*
G01X14703Y43942D01*
G37*

%LPD*%
G36*
G01X12986Y43942D02*
G01X12816Y43942D01*
G01X12854Y43803D01*
G01X12895Y43653D01*
G01X12938Y43493D01*
G01X12986Y43330D01*
G01X13090Y43000D01*
G01X13148Y42838D01*
G01X13207Y42685D01*
G01X13413Y42685D01*
G01X13472Y42838D01*
G01X13527Y43000D01*
G01X13580Y43165D01*
G01X13629Y43330D01*
G01X13675Y43493D01*
G01X13718Y43653D01*
G01X13759Y43803D01*
G01X13797Y43942D01*
G01X13619Y43942D01*
G01X13545Y43612D01*
G01X13060Y43612D01*
G01X12986Y43942D01*
G37*

%LPC*%
G36*
G01X13504Y43475D02*
G01X13098Y43475D01*
G01X13149Y43299D01*
G01X13202Y43127D01*
G01X13256Y42969D01*
G01X13304Y42830D01*
G01X13354Y42964D01*
G01X13405Y43122D01*
G01X13457Y43295D01*
G01X13504Y43475D01*
G37*

%LPD*%
G36*
G01X15321Y43966D02*
G01X15262Y43968D01*
G01X15239Y43967D01*
G01X15215Y43966D01*
G01X15190Y43965D01*
G01X15166Y43963D01*
G01X15142Y43959D01*
G01X15096Y43948D01*
G01X15074Y43942D01*
G01X15053Y43937D01*
G01X15015Y43927D01*
G01X14998Y43922D01*
G01X14983Y43916D01*
G01X14969Y43911D01*
G01X14958Y43907D01*
G01X14950Y43904D01*
G01X14983Y43759D01*
G01X15002Y43768D01*
G01X15025Y43777D01*
G01X15054Y43786D01*
G01X15087Y43797D01*
G01X15124Y43808D01*
G01X15166Y43815D01*
G01X15212Y43819D01*
G01X15262Y43820D01*
G01X15336Y43816D01*
G01X15399Y43805D01*
G01X15451Y43785D01*
G01X15491Y43757D01*
G01X15520Y43722D01*
G01X15540Y43682D01*
G01X15553Y43636D01*
G01X15557Y43584D01*
G01X15555Y43551D01*
G01X15550Y43521D01*
G01X15541Y43494D01*
G01X15529Y43470D01*
G01X15514Y43447D01*
G01X15496Y43427D01*
G01X15477Y43409D01*
G01X15455Y43394D01*
G01X15430Y43380D01*
G01X15404Y43369D01*
G01X15376Y43360D01*
G01X15346Y43353D01*
G01X15315Y43347D01*
G01X15284Y43343D01*
G01X15251Y43341D01*
G01X15219Y43340D01*
G01X15176Y43340D01*
G01X15176Y43206D01*
G01X15234Y43206D01*
G01X15257Y43205D01*
G01X15280Y43203D01*
G01X15304Y43200D01*
G01X15328Y43196D01*
G01X15350Y43189D01*
G01X15373Y43182D01*
G01X15394Y43173D01*
G01X15415Y43162D01*
G01X15434Y43150D01*
G01X15451Y43135D01*
G01X15465Y43118D01*
G01X15478Y43099D01*
G01X15489Y43077D01*
G01X15497Y43053D01*
G01X15502Y43025D01*
G01X15503Y42995D01*
G01X15499Y42947D01*
G01X15488Y42906D01*
G01X15468Y42873D01*
G01X15440Y42848D01*
G01X15406Y42829D01*
G01X15369Y42815D01*
G01X15331Y42807D01*
G01X15290Y42804D01*
G01X15247Y42806D01*
G01X15208Y42810D01*
G01X15173Y42819D01*
G01X15140Y42830D01*
G01X15111Y42842D01*
G01X15084Y42855D01*
G01X15060Y42868D01*
G01X15039Y42881D01*
G01X14975Y42754D01*
G01X14999Y42738D01*
G01X15029Y42723D01*
G01X15064Y42706D01*
G01X15105Y42690D01*
G01X15149Y42676D01*
G01X15196Y42665D01*
G01X15244Y42659D01*
G01X15295Y42657D01*
G01X15343Y42659D01*
G01X15387Y42663D01*
G01X15428Y42670D01*
G01X15465Y42680D01*
G01X15499Y42694D01*
G01X15530Y42710D01*
G01X15558Y42728D01*
G01X15582Y42748D01*
G01X15603Y42772D01*
G01X15622Y42798D01*
G01X15638Y42826D01*
G01X15651Y42855D01*
G01X15661Y42885D01*
G01X15668Y42917D01*
G01X15672Y42950D01*
G01X15674Y42985D01*
G01X15671Y43032D01*
G01X15661Y43077D01*
G01X15645Y43118D01*
G01X15623Y43155D01*
G01X15594Y43187D01*
G01X15562Y43215D01*
G01X15527Y43239D01*
G01X15488Y43259D01*
G01X15536Y43276D01*
G01X15580Y43301D01*
G01X15621Y43332D01*
G01X15658Y43371D01*
G01X15689Y43415D01*
G01X15712Y43466D01*
G01X15725Y43524D01*
G01X15729Y43589D01*
G01X15728Y43629D01*
G01X15722Y43667D01*
G01X15714Y43704D01*
G01X15702Y43739D01*
G01X15686Y43773D01*
G01X15666Y43805D01*
G01X15644Y43834D01*
G01X15618Y43861D01*
G01X15588Y43885D01*
G01X15554Y43906D01*
G01X15516Y43924D01*
G01X15473Y43940D01*
G01X15427Y43952D01*
G01X15376Y43961D01*
G01X15321Y43966D01*
G37*

%LPD*%

%LPD*%
G36*
G01X15729Y41402D02*
G01X15054Y41402D01*
G01X15054Y41260D01*
G01X15326Y41260D01*
G01X15326Y40379D01*
G01X15314Y40389D01*
G01X15301Y40399D01*
G01X15287Y40409D01*
G01X15272Y40419D01*
G01X15257Y40430D01*
G01X15240Y40442D01*
G01X15204Y40462D01*
G01X15184Y40473D01*
G01X15165Y40482D01*
G01X15145Y40491D01*
G01X15125Y40501D01*
G01X15085Y40517D01*
G01X15066Y40524D01*
G01X15046Y40531D01*
G01X14993Y40404D01*
G01X15045Y40382D01*
G01X15095Y40358D01*
G01X15145Y40331D01*
G01X15194Y40302D01*
G01X15242Y40269D01*
G01X15288Y40231D01*
G01X15332Y40190D01*
G01X15374Y40145D01*
G01X15493Y40145D01*
G01X15493Y41260D01*
G01X15729Y41260D01*
G01X15729Y41402D01*
G37*

%LPD*%
G36*
G01X14713Y41402D02*
G01X14038Y41402D01*
G01X14038Y41260D01*
G01X14310Y41260D01*
G01X14310Y40379D01*
G01X14298Y40389D01*
G01X14285Y40399D01*
G01X14271Y40409D01*
G01X14256Y40419D01*
G01X14241Y40430D01*
G01X14224Y40442D01*
G01X14188Y40462D01*
G01X14168Y40473D01*
G01X14149Y40482D01*
G01X14129Y40491D01*
G01X14109Y40501D01*
G01X14069Y40517D01*
G01X14050Y40524D01*
G01X14030Y40531D01*
G01X13977Y40404D01*
G01X14029Y40382D01*
G01X14079Y40358D01*
G01X14129Y40331D01*
G01X14178Y40302D01*
G01X14226Y40269D01*
G01X14272Y40231D01*
G01X14316Y40190D01*
G01X14358Y40145D01*
G01X14477Y40145D01*
G01X14477Y41260D01*
G01X14713Y41260D01*
G01X14713Y41402D01*
G37*

%LPD*%
G36*
G01X12996Y41402D02*
G01X12826Y41402D01*
G01X12864Y41263D01*
G01X12905Y41113D01*
G01X12948Y40953D01*
G01X12996Y40790D01*
G01X13048Y40625D01*
G01X13101Y40460D01*
G01X13158Y40298D01*
G01X13217Y40145D01*
G01X13423Y40145D01*
G01X13482Y40298D01*
G01X13537Y40460D01*
G01X13590Y40625D01*
G01X13639Y40790D01*
G01X13685Y40953D01*
G01X13728Y41113D01*
G01X13769Y41263D01*
G01X13807Y41402D01*
G01X13629Y41402D01*
G01X13555Y41072D01*
G01X13070Y41072D01*
G01X12996Y41402D01*
G37*

%LPC*%
G36*
G01X13515Y40935D02*
G01X13108Y40935D01*
G01X13159Y40759D01*
G01X13212Y40587D01*
G01X13266Y40429D01*
G01X13314Y40290D01*
G01X13364Y40424D01*
G01X13416Y40582D01*
G01X13467Y40755D01*
G01X13515Y40935D01*
G37*

%LPD*%

%LPD*%
G36*
G01X13992Y38862D02*
G01X13822Y38862D01*
G01X13860Y38723D01*
G01X13901Y38573D01*
G01X13944Y38413D01*
G01X13992Y38250D01*
G01X14043Y38085D01*
G01X14096Y37920D01*
G01X14154Y37758D01*
G01X14213Y37605D01*
G01X14419Y37605D01*
G01X14478Y37758D01*
G01X14533Y37920D01*
G01X14585Y38085D01*
G01X14635Y38250D01*
G01X14681Y38413D01*
G01X14724Y38573D01*
G01X14765Y38723D01*
G01X14802Y38862D01*
G01X14625Y38862D01*
G01X14551Y38532D01*
G01X14066Y38532D01*
G01X13992Y38862D01*
G37*

%LPC*%
G36*
G01X14510Y38395D02*
G01X14104Y38395D01*
G01X14155Y38219D01*
G01X14208Y38047D01*
G01X14261Y37889D01*
G01X14310Y37750D01*
G01X14359Y37884D01*
G01X14411Y38042D01*
G01X14463Y38215D01*
G01X14510Y38395D01*
G37*

%LPD*%
G36*
G01X15168Y38854D02*
G01X14995Y38867D01*
G01X14988Y38725D01*
G01X15096Y38720D01*
G01X15194Y38702D01*
G01X15281Y38674D01*
G01X15356Y38634D01*
G01X15420Y38580D01*
G01X15472Y38510D01*
G01X15512Y38424D01*
G01X15539Y38321D01*
G01X15514Y38332D01*
G01X15488Y38342D01*
G01X15461Y38350D01*
G01X15432Y38357D01*
G01X15403Y38362D01*
G01X15372Y38366D01*
G01X15308Y38370D01*
G01X15257Y38367D01*
G01X15209Y38362D01*
G01X15167Y38352D01*
G01X15127Y38339D01*
G01X15092Y38322D01*
G01X15061Y38302D01*
G01X15032Y38279D01*
G01X15008Y38253D01*
G01X14988Y38225D01*
G01X14971Y38195D01*
G01X14956Y38164D01*
G01X14945Y38131D01*
G01X14936Y38096D01*
G01X14929Y38060D01*
G01X14926Y38022D01*
G01X14924Y37983D01*
G01X14926Y37949D01*
G01X14930Y37914D01*
G01X14937Y37879D01*
G01X14947Y37844D01*
G01X14959Y37808D01*
G01X14975Y37774D01*
G01X14993Y37742D01*
G01X15016Y37712D01*
G01X15040Y37684D01*
G01X15069Y37658D01*
G01X15100Y37635D01*
G01X15135Y37615D01*
G01X15174Y37598D01*
G01X15216Y37587D01*
G01X15261Y37580D01*
G01X15310Y37577D01*
G01X15407Y37586D01*
G01X15491Y37613D01*
G01X15563Y37657D01*
G01X15623Y37719D01*
G01X15670Y37797D01*
G01X15703Y37887D01*
G01X15723Y37991D01*
G01X15729Y38108D01*
G01X15724Y38228D01*
G01X15709Y38338D01*
G01X15684Y38438D01*
G01X15648Y38526D01*
G01X15602Y38606D01*
G01X15547Y38674D01*
G01X15443Y38758D01*
G01X15317Y38818D01*
G01X15168Y38854D01*
G37*

%LPC*%
G36*
G01X15358Y38231D02*
G01X15326Y38232D01*
G01X15270Y38228D01*
G01X15222Y38217D01*
G01X15182Y38197D01*
G01X15150Y38169D01*
G01X15126Y38133D01*
G01X15109Y38090D01*
G01X15098Y38039D01*
G01X15094Y37981D01*
G01X15095Y37959D01*
G01X15097Y37937D01*
G01X15100Y37915D01*
G01X15105Y37892D01*
G01X15112Y37869D01*
G01X15120Y37846D01*
G01X15131Y37825D01*
G01X15143Y37806D01*
G01X15157Y37788D01*
G01X15174Y37773D01*
G01X15192Y37758D01*
G01X15211Y37745D01*
G01X15233Y37733D01*
G01X15257Y37725D01*
G01X15284Y37721D01*
G01X15313Y37719D01*
G01X15347Y37721D01*
G01X15378Y37727D01*
G01X15407Y37737D01*
G01X15432Y37750D01*
G01X15455Y37767D01*
G01X15475Y37786D01*
G01X15493Y37808D01*
G01X15508Y37834D01*
G01X15521Y37862D01*
G01X15532Y37891D01*
G01X15540Y37923D01*
G01X15547Y37958D01*
G01X15551Y37994D01*
G01X15554Y38031D01*
G01X15556Y38069D01*
G01X15557Y38108D01*
G01X15557Y38187D01*
G01X15503Y38205D01*
G01X15475Y38213D01*
G01X15448Y38220D01*
G01X15419Y38225D01*
G01X15389Y38229D01*
G01X15358Y38231D01*
G37*

%LPD*%

%LPD*%
G36*
G01X15293Y36322D02*
G01X15120Y36322D01*
G01X15138Y36173D01*
G01X15171Y36017D01*
G01X15218Y35857D01*
G01X15272Y35703D01*
G01X15334Y35558D01*
G01X15402Y35423D01*
G01X15472Y35305D01*
G01X15542Y35210D01*
G01X14932Y35210D01*
G01X14932Y35065D01*
G01X15729Y35065D01*
G01X15729Y35205D01*
G01X15698Y35243D01*
G01X15666Y35288D01*
G01X15632Y35338D01*
G01X15597Y35395D01*
G01X15528Y35522D01*
G01X15463Y35664D01*
G01X15403Y35819D01*
G01X15351Y35984D01*
G01X15313Y36154D01*
G01X15293Y36322D01*
G37*

%LPD*%
G36*
G01X13977Y36322D02*
G01X13807Y36322D01*
G01X13844Y36183D01*
G01X13885Y36033D01*
G01X13929Y35873D01*
G01X13977Y35710D01*
G01X14028Y35545D01*
G01X14081Y35380D01*
G01X14138Y35218D01*
G01X14198Y35065D01*
G01X14404Y35065D01*
G01X14463Y35218D01*
G01X14518Y35380D01*
G01X14570Y35545D01*
G01X14619Y35710D01*
G01X14666Y35873D01*
G01X14708Y36033D01*
G01X14750Y36183D01*
G01X14787Y36322D01*
G01X14609Y36322D01*
G01X14536Y35992D01*
G01X14051Y35992D01*
G01X13977Y36322D01*
G37*

%LPC*%
G36*
G01X14495Y35855D02*
G01X14089Y35855D01*
G01X14140Y35679D01*
G01X14193Y35507D01*
G01X14246Y35349D01*
G01X14294Y35210D01*
G01X14344Y35344D01*
G01X14396Y35502D01*
G01X14447Y35675D01*
G01X14495Y35855D01*
G37*

%LPD*%

%LPD*%
G36*
G01X15330Y33806D02*
G01X15272Y33808D01*
G01X15200Y33805D01*
G01X15176Y33803D01*
G01X15153Y33799D01*
G01X15131Y33794D01*
G01X15109Y33790D01*
G01X15087Y33785D01*
G01X15066Y33780D01*
G01X15046Y33774D01*
G01X15028Y33768D01*
G01X15011Y33762D01*
G01X14995Y33757D01*
G01X14983Y33752D01*
G01X14973Y33748D01*
G01X14965Y33744D01*
G01X14998Y33599D01*
G01X15016Y33608D01*
G01X15038Y33617D01*
G01X15065Y33626D01*
G01X15097Y33637D01*
G01X15134Y33648D01*
G01X15175Y33655D01*
G01X15220Y33659D01*
G01X15270Y33660D01*
G01X15309Y33659D01*
G01X15344Y33656D01*
G01X15376Y33650D01*
G01X15404Y33643D01*
G01X15431Y33633D01*
G01X15455Y33621D01*
G01X15475Y33608D01*
G01X15493Y33592D01*
G01X15508Y33576D01*
G01X15522Y33559D01*
G01X15533Y33540D01*
G01X15542Y33521D01*
G01X15548Y33500D01*
G01X15553Y33479D01*
G01X15556Y33457D01*
G01X15557Y33434D01*
G01X15555Y33401D01*
G01X15551Y33369D01*
G01X15544Y33340D01*
G01X15534Y33312D01*
G01X15520Y33286D01*
G01X15502Y33263D01*
G01X15480Y33241D01*
G01X15453Y33221D01*
G01X15421Y33204D01*
G01X15384Y33189D01*
G01X15342Y33176D01*
G01X15295Y33165D01*
G01X15181Y33152D01*
G01X15041Y33147D01*
G01X15053Y33059D01*
G01X15057Y33019D01*
G01X15069Y32902D01*
G01X15072Y32864D01*
G01X15074Y32827D01*
G01X15077Y32790D01*
G01X15079Y32752D01*
G01X15082Y32680D01*
G01X15083Y32643D01*
G01X15087Y32565D01*
G01X15089Y32525D01*
G01X15694Y32525D01*
G01X15694Y32667D01*
G01X15234Y32667D01*
G01X15233Y32682D01*
G01X15232Y32700D01*
G01X15231Y32719D01*
G01X15229Y32741D01*
G01X15226Y32788D01*
G01X15224Y32812D01*
G01X15221Y32837D01*
G01X15220Y32862D01*
G01X15218Y32887D01*
G01X15216Y32911D01*
G01X15214Y32934D01*
G01X15213Y32957D01*
G01X15211Y32977D01*
G01X15210Y32995D01*
G01X15209Y33010D01*
G01X15335Y33021D01*
G01X15444Y33045D01*
G01X15533Y33081D01*
G01X15605Y33129D01*
G01X15698Y33257D01*
G01X15729Y33424D01*
G01X15728Y33465D01*
G01X15722Y33505D01*
G01X15714Y33542D01*
G01X15702Y33579D01*
G01X15687Y33613D01*
G01X15669Y33645D01*
G01X15646Y33674D01*
G01X15620Y33701D01*
G01X15590Y33725D01*
G01X15557Y33746D01*
G01X15519Y33764D01*
G01X15478Y33780D01*
G01X15433Y33792D01*
G01X15384Y33801D01*
G01X15330Y33806D01*
G37*

%LPD*%
G36*
G01X14002Y33782D02*
G01X13832Y33782D01*
G01X13870Y33643D01*
G01X13911Y33493D01*
G01X13954Y33333D01*
G01X14002Y33170D01*
G01X14106Y32840D01*
G01X14164Y32678D01*
G01X14223Y32525D01*
G01X14429Y32525D01*
G01X14488Y32678D01*
G01X14543Y32840D01*
G01X14596Y33005D01*
G01X14645Y33170D01*
G01X14691Y33333D01*
G01X14734Y33493D01*
G01X14775Y33643D01*
G01X14813Y33782D01*
G01X14635Y33782D01*
G01X14561Y33452D01*
G01X14076Y33452D01*
G01X14002Y33782D01*
G37*

%LPC*%
G36*
G01X14520Y33315D02*
G01X14114Y33315D01*
G01X14165Y33139D01*
G01X14218Y32967D01*
G01X14272Y32809D01*
G01X14320Y32670D01*
G01X14370Y32804D01*
G01X14421Y32962D01*
G01X14473Y33135D01*
G01X14520Y33315D01*
G37*

%LPD*%

%LPD*%
G36*
G01X14002Y31242D02*
G01X13832Y31242D01*
G01X13870Y31103D01*
G01X13911Y30953D01*
G01X13954Y30793D01*
G01X14002Y30630D01*
G01X14106Y30300D01*
G01X14164Y30138D01*
G01X14223Y29985D01*
G01X14429Y29985D01*
G01X14488Y30138D01*
G01X14543Y30300D01*
G01X14596Y30465D01*
G01X14645Y30630D01*
G01X14691Y30793D01*
G01X14734Y30953D01*
G01X14775Y31103D01*
G01X14813Y31242D01*
G01X14635Y31242D01*
G01X14561Y30912D01*
G01X14076Y30912D01*
G01X14002Y31242D01*
G37*

%LPC*%
G36*
G01X14520Y30775D02*
G01X14114Y30775D01*
G01X14165Y30599D01*
G01X14218Y30427D01*
G01X14272Y30269D01*
G01X14320Y30130D01*
G01X14370Y30264D01*
G01X14421Y30422D01*
G01X14473Y30595D01*
G01X14520Y30775D01*
G37*

%LPD*%
G36*
G01X15321Y31266D02*
G01X15262Y31268D01*
G01X15239Y31267D01*
G01X15215Y31266D01*
G01X15190Y31265D01*
G01X15166Y31263D01*
G01X15142Y31259D01*
G01X15096Y31248D01*
G01X15074Y31242D01*
G01X15053Y31237D01*
G01X15015Y31227D01*
G01X14998Y31222D01*
G01X14983Y31216D01*
G01X14969Y31211D01*
G01X14958Y31207D01*
G01X14950Y31204D01*
G01X14983Y31059D01*
G01X15002Y31068D01*
G01X15025Y31077D01*
G01X15054Y31086D01*
G01X15087Y31097D01*
G01X15124Y31108D01*
G01X15166Y31115D01*
G01X15212Y31119D01*
G01X15262Y31120D01*
G01X15336Y31116D01*
G01X15399Y31105D01*
G01X15451Y31085D01*
G01X15491Y31057D01*
G01X15520Y31022D01*
G01X15540Y30982D01*
G01X15553Y30936D01*
G01X15557Y30884D01*
G01X15555Y30851D01*
G01X15550Y30821D01*
G01X15541Y30794D01*
G01X15529Y30770D01*
G01X15514Y30747D01*
G01X15496Y30727D01*
G01X15477Y30709D01*
G01X15455Y30694D01*
G01X15430Y30680D01*
G01X15404Y30669D01*
G01X15376Y30660D01*
G01X15346Y30653D01*
G01X15315Y30647D01*
G01X15284Y30643D01*
G01X15251Y30641D01*
G01X15219Y30640D01*
G01X15176Y30640D01*
G01X15176Y30506D01*
G01X15234Y30506D01*
G01X15257Y30505D01*
G01X15280Y30503D01*
G01X15304Y30500D01*
G01X15328Y30496D01*
G01X15350Y30489D01*
G01X15373Y30482D01*
G01X15394Y30473D01*
G01X15415Y30462D01*
G01X15434Y30450D01*
G01X15451Y30435D01*
G01X15465Y30418D01*
G01X15478Y30399D01*
G01X15489Y30377D01*
G01X15497Y30353D01*
G01X15502Y30325D01*
G01X15503Y30295D01*
G01X15499Y30247D01*
G01X15488Y30206D01*
G01X15468Y30173D01*
G01X15440Y30148D01*
G01X15406Y30129D01*
G01X15369Y30115D01*
G01X15331Y30107D01*
G01X15290Y30104D01*
G01X15247Y30106D01*
G01X15208Y30110D01*
G01X15173Y30119D01*
G01X15140Y30130D01*
G01X15111Y30142D01*
G01X15084Y30155D01*
G01X15060Y30168D01*
G01X15039Y30181D01*
G01X14975Y30054D01*
G01X14999Y30038D01*
G01X15029Y30023D01*
G01X15064Y30006D01*
G01X15105Y29990D01*
G01X15149Y29976D01*
G01X15196Y29965D01*
G01X15244Y29959D01*
G01X15295Y29957D01*
G01X15343Y29959D01*
G01X15387Y29963D01*
G01X15428Y29970D01*
G01X15465Y29980D01*
G01X15499Y29994D01*
G01X15530Y30010D01*
G01X15558Y30028D01*
G01X15582Y30048D01*
G01X15603Y30072D01*
G01X15622Y30098D01*
G01X15638Y30126D01*
G01X15651Y30155D01*
G01X15661Y30185D01*
G01X15668Y30217D01*
G01X15672Y30250D01*
G01X15674Y30285D01*
G01X15671Y30332D01*
G01X15661Y30377D01*
G01X15645Y30418D01*
G01X15623Y30455D01*
G01X15594Y30487D01*
G01X15562Y30515D01*
G01X15527Y30539D01*
G01X15488Y30559D01*
G01X15536Y30576D01*
G01X15580Y30601D01*
G01X15621Y30632D01*
G01X15658Y30671D01*
G01X15689Y30715D01*
G01X15712Y30766D01*
G01X15725Y30824D01*
G01X15729Y30889D01*
G01X15728Y30929D01*
G01X15722Y30967D01*
G01X15714Y31004D01*
G01X15702Y31039D01*
G01X15686Y31073D01*
G01X15666Y31105D01*
G01X15644Y31134D01*
G01X15618Y31161D01*
G01X15588Y31185D01*
G01X15554Y31206D01*
G01X15516Y31224D01*
G01X15473Y31240D01*
G01X15427Y31252D01*
G01X15376Y31261D01*
G01X15321Y31266D01*
G37*

%LPD*%

%LPD*%
G36*
G01X15729Y28702D02*
G01X15054Y28702D01*
G01X15054Y28560D01*
G01X15326Y28560D01*
G01X15326Y27679D01*
G01X15314Y27689D01*
G01X15301Y27699D01*
G01X15287Y27709D01*
G01X15272Y27719D01*
G01X15257Y27730D01*
G01X15240Y27742D01*
G01X15204Y27762D01*
G01X15184Y27773D01*
G01X15165Y27782D01*
G01X15145Y27791D01*
G01X15125Y27801D01*
G01X15085Y27817D01*
G01X15066Y27824D01*
G01X15046Y27831D01*
G01X14993Y27704D01*
G01X15045Y27682D01*
G01X15095Y27658D01*
G01X15145Y27631D01*
G01X15194Y27602D01*
G01X15242Y27569D01*
G01X15288Y27531D01*
G01X15332Y27490D01*
G01X15374Y27445D01*
G01X15493Y27445D01*
G01X15493Y28560D01*
G01X15729Y28560D01*
G01X15729Y28702D01*
G37*

%LPD*%
G36*
G01X14012Y28702D02*
G01X13842Y28702D01*
G01X13880Y28563D01*
G01X13921Y28413D01*
G01X13964Y28253D01*
G01X14012Y28090D01*
G01X14064Y27925D01*
G01X14117Y27760D01*
G01X14174Y27598D01*
G01X14233Y27445D01*
G01X14439Y27445D01*
G01X14498Y27598D01*
G01X14553Y27760D01*
G01X14606Y27925D01*
G01X14655Y28090D01*
G01X14701Y28253D01*
G01X14744Y28413D01*
G01X14785Y28563D01*
G01X14823Y28702D01*
G01X14645Y28702D01*
G01X14571Y28372D01*
G01X14086Y28372D01*
G01X14012Y28702D01*
G37*

%LPC*%
G36*
G01X14531Y28235D02*
G01X14124Y28235D01*
G01X14175Y28059D01*
G01X14228Y27887D01*
G01X14282Y27729D01*
G01X14330Y27590D01*
G01X14380Y27724D01*
G01X14432Y27882D01*
G01X14483Y28055D01*
G01X14531Y28235D01*
G37*

%LPD*%

%LPD*%
G36*
G01X14043Y26162D02*
G01X13891Y26162D01*
G01X13891Y24905D01*
G01X14061Y24905D01*
G01X14139Y25048D01*
G01X14205Y25172D01*
G01X14236Y25227D01*
G01X14266Y25282D01*
G01X14294Y25336D01*
G01X14346Y25444D01*
G01X14372Y25499D01*
G01X14397Y25554D01*
G01X14421Y25611D01*
G01X14473Y25732D01*
G01X14531Y25873D01*
G01X14531Y24905D01*
G01X14683Y24905D01*
G01X14683Y26162D01*
G01X14513Y26162D01*
G01X14446Y26002D01*
G01X14383Y25857D01*
G01X14324Y25724D01*
G01X14266Y25598D01*
G01X14238Y25539D01*
G01X14211Y25482D01*
G01X14155Y25372D01*
G01X14043Y25159D01*
G01X14043Y26162D01*
G37*

%LPD*%
G36*
G01X15218Y26170D02*
G01X15158Y26172D01*
G01X15032Y26165D01*
G01X14904Y26142D01*
G01X14904Y24923D01*
G01X15032Y24900D01*
G01X15158Y24892D01*
G01X15218Y24894D01*
G01X15275Y24901D01*
G01X15331Y24912D01*
G01X15384Y24928D01*
G01X15435Y24947D01*
G01X15483Y24972D01*
G01X15527Y25003D01*
G01X15567Y25040D01*
G01X15603Y25081D01*
G01X15635Y25127D01*
G01X15663Y25180D01*
G01X15686Y25238D01*
G01X15719Y25372D01*
G01X15729Y25532D01*
G01X15719Y25694D01*
G01X15686Y25830D01*
G01X15663Y25887D01*
G01X15635Y25940D01*
G01X15603Y25986D01*
G01X15567Y26028D01*
G01X15527Y26063D01*
G01X15483Y26093D01*
G01X15435Y26118D01*
G01X15384Y26137D01*
G01X15331Y26153D01*
G01X15275Y26163D01*
G01X15218Y26170D01*
G37*

%LPC*%
G36*
G01X15220Y26026D02*
G01X15176Y26028D01*
G01X15149Y26027D01*
G01X15097Y26025D01*
G01X15072Y26023D01*
G01X15072Y25042D01*
G01X15082Y25041D01*
G01X15093Y25040D01*
G01X15105Y25038D01*
G01X15117Y25037D01*
G01X15168Y25037D01*
G01X15338Y25067D01*
G01X15460Y25156D01*
G01X15503Y25224D01*
G01X15534Y25310D01*
G01X15553Y25412D01*
G01X15559Y25532D01*
G01X15558Y25596D01*
G01X15552Y25655D01*
G01X15544Y25709D01*
G01X15531Y25758D01*
G01X15517Y25803D01*
G01X15500Y25844D01*
G01X15481Y25881D01*
G01X15458Y25913D01*
G01X15432Y25942D01*
G01X15404Y25966D01*
G01X15372Y25985D01*
G01X15338Y26000D01*
G01X15302Y26012D01*
G01X15262Y26021D01*
G01X15220Y26026D01*
G37*

%LPD*%
G36*
G01X13419Y26186D02*
G01X13362Y26188D01*
G01X13306Y26185D01*
G01X13253Y26177D01*
G01X13202Y26163D01*
G01X13154Y26144D01*
G01X13110Y26120D01*
G01X13069Y26091D01*
G01X13031Y26057D01*
G01X12996Y26017D01*
G01X12965Y25973D01*
G01X12937Y25924D01*
G01X12913Y25870D01*
G01X12892Y25812D01*
G01X12866Y25681D01*
G01X12857Y25532D01*
G01X12867Y25383D01*
G01X12897Y25253D01*
G01X12920Y25195D01*
G01X12945Y25141D01*
G01X12974Y25091D01*
G01X13007Y25047D01*
G01X13044Y25008D01*
G01X13083Y24974D01*
G01X13126Y24944D01*
G01X13172Y24920D01*
G01X13219Y24901D01*
G01X13269Y24888D01*
G01X13320Y24880D01*
G01X13372Y24877D01*
G01X13406Y24878D01*
G01X13437Y24880D01*
G01X13467Y24883D01*
G01X13494Y24887D01*
G01X13520Y24892D01*
G01X13544Y24898D01*
G01X13566Y24904D01*
G01X13586Y24910D01*
G01X13603Y24918D01*
G01X13619Y24925D01*
G01X13647Y24941D01*
G01X13658Y24948D01*
G01X13669Y24954D01*
G01X13676Y24959D01*
G01X13682Y24963D01*
G01X13629Y25103D01*
G01X13604Y25086D01*
G01X13577Y25071D01*
G01X13548Y25057D01*
G01X13517Y25045D01*
G01X13485Y25033D01*
G01X13452Y25025D01*
G01X13418Y25021D01*
G01X13383Y25019D01*
G01X13345Y25022D01*
G01X13309Y25029D01*
G01X13274Y25041D01*
G01X13240Y25057D01*
G01X13208Y25077D01*
G01X13179Y25101D01*
G01X13151Y25129D01*
G01X13126Y25162D01*
G01X13104Y25196D01*
G01X13085Y25235D01*
G01X13068Y25276D01*
G01X13052Y25322D01*
G01X13041Y25370D01*
G01X13034Y25421D01*
G01X13028Y25475D01*
G01X13027Y25532D01*
G01X13028Y25588D01*
G01X13032Y25642D01*
G01X13040Y25692D01*
G01X13050Y25741D01*
G01X13062Y25785D01*
G01X13078Y25826D01*
G01X13097Y25865D01*
G01X13118Y25901D01*
G01X13143Y25932D01*
G01X13169Y25960D01*
G01X13199Y25984D01*
G01X13230Y26005D01*
G01X13264Y26022D01*
G01X13301Y26033D01*
G01X13339Y26040D01*
G01X13380Y26043D01*
G01X13407Y26042D01*
G01X13432Y26041D01*
G01X13453Y26039D01*
G01X13471Y26035D01*
G01X13487Y26030D01*
G01X13500Y26026D01*
G01X13511Y26022D01*
G01X13520Y26017D01*
G01X13520Y25543D01*
G01X13687Y25543D01*
G01X13687Y26132D01*
G01X13665Y26140D01*
G01X13637Y26148D01*
G01X13603Y26158D01*
G01X13563Y26167D01*
G01X13519Y26176D01*
G01X13471Y26183D01*
G01X13419Y26186D01*
G37*

%LPD*%

%LPD*%
G36*
G01X15069Y23622D02*
G01X14901Y23622D01*
G01X14901Y22383D01*
G01X14917Y22379D01*
G01X14934Y22375D01*
G01X14953Y22371D01*
G01X14973Y22368D01*
G01X14992Y22365D01*
G01X15032Y22361D01*
G01X15054Y22360D01*
G01X15074Y22358D01*
G01X15115Y22356D01*
G01X15155Y22354D01*
G01X15174Y22353D01*
G01X15192Y22352D01*
G01X15209Y22352D01*
G01X15407Y22377D01*
G01X15552Y22451D01*
G01X15638Y22575D01*
G01X15666Y22749D01*
G01X15662Y22805D01*
G01X15651Y22858D01*
G01X15632Y22906D01*
G01X15605Y22952D01*
G01X15572Y22993D01*
G01X15533Y23030D01*
G01X15489Y23062D01*
G01X15440Y23089D01*
G01X15456Y23115D01*
G01X15472Y23142D01*
G01X15490Y23171D01*
G01X15508Y23201D01*
G01X15528Y23232D01*
G01X15547Y23264D01*
G01X15566Y23298D01*
G01X15604Y23368D01*
G01X15623Y23404D01*
G01X15642Y23441D01*
G01X15680Y23514D01*
G01X15697Y23551D01*
G01X15714Y23587D01*
G01X15729Y23622D01*
G01X15552Y23622D01*
G01X15488Y23478D01*
G01X15420Y23343D01*
G01X15348Y23221D01*
G01X15280Y23124D01*
G01X15273Y23125D01*
G01X15265Y23126D01*
G01X15255Y23127D01*
G01X15069Y23127D01*
G01X15069Y23622D01*
G37*

%LPC*%
G36*
G01X15214Y22987D02*
G01X15069Y22987D01*
G01X15069Y22502D01*
G01X15081Y22501D01*
G01X15095Y22500D01*
G01X15112Y22498D01*
G01X15133Y22497D01*
G01X15221Y22497D01*
G01X15249Y22498D01*
G01X15276Y22500D01*
G01X15302Y22503D01*
G01X15328Y22507D01*
G01X15352Y22514D01*
G01X15374Y22523D01*
G01X15395Y22534D01*
G01X15415Y22545D01*
G01X15431Y22561D01*
G01X15447Y22578D01*
G01X15461Y22599D01*
G01X15473Y22622D01*
G01X15483Y22646D01*
G01X15490Y22674D01*
G01X15494Y22706D01*
G01X15496Y22741D01*
G01X15494Y22777D01*
G01X15490Y22810D01*
G01X15483Y22839D01*
G01X15473Y22865D01*
G01X15460Y22888D01*
G01X15445Y22909D01*
G01X15429Y22926D01*
G01X15409Y22942D01*
G01X15387Y22953D01*
G01X15363Y22963D01*
G01X15336Y22971D01*
G01X15308Y22977D01*
G01X15279Y22982D01*
G01X15247Y22985D01*
G01X15214Y22987D01*
G37*

%LPD*%

%LPD*%
G36*
G01X13289Y20996D02*
G01X13141Y20996D01*
G01X13141Y20620D01*
G01X12801Y20620D01*
G01X12801Y20478D01*
G01X13141Y20478D01*
G01X13141Y20102D01*
G01X13289Y20102D01*
G01X13289Y20478D01*
G01X13631Y20478D01*
G01X13631Y20620D01*
G01X13289Y20620D01*
G01X13289Y20996D01*
G37*

%LPD*%
G36*
G01X15348Y21082D02*
G01X15140Y21082D01*
G01X15079Y20898D01*
G01X15018Y20711D01*
G01X14960Y20526D01*
G01X14907Y20351D01*
G01X14860Y20190D01*
G01X14820Y20043D01*
G01X14803Y19978D01*
G01X14789Y19920D01*
G01X14775Y19869D01*
G01X14764Y19825D01*
G01X14947Y19825D01*
G01X14974Y19959D01*
G01X15008Y20104D01*
G01X15047Y20255D01*
G01X15087Y20407D01*
G01X15130Y20555D01*
G01X15171Y20696D01*
G01X15213Y20825D01*
G01X15252Y20937D01*
G01X15286Y20824D01*
G01X15328Y20694D01*
G01X15371Y20551D01*
G01X15415Y20402D01*
G01X15455Y20252D01*
G01X15493Y20102D01*
G01X15528Y19957D01*
G01X15557Y19825D01*
G01X15729Y19825D01*
G01X15721Y19869D01*
G01X15709Y19920D01*
G01X15695Y19978D01*
G01X15679Y20043D01*
G01X15638Y20189D01*
G01X15590Y20351D01*
G01X15536Y20524D01*
G01X15478Y20709D01*
G01X15446Y20804D01*
G01X15414Y20897D01*
G01X15381Y20990D01*
G01X15348Y21082D01*
G37*

%LPD*%
G36*
G01X14222Y21106D02*
G01X14165Y21108D01*
G01X14093Y21105D01*
G01X14068Y21103D01*
G01X14045Y21099D01*
G01X14023Y21094D01*
G01X14001Y21090D01*
G01X13979Y21085D01*
G01X13959Y21080D01*
G01X13939Y21074D01*
G01X13920Y21068D01*
G01X13903Y21062D01*
G01X13888Y21057D01*
G01X13875Y21052D01*
G01X13865Y21048D01*
G01X13857Y21044D01*
G01X13891Y20899D01*
G01X13908Y20908D01*
G01X13931Y20917D01*
G01X13958Y20926D01*
G01X13990Y20937D01*
G01X14026Y20948D01*
G01X14067Y20955D01*
G01X14113Y20959D01*
G01X14162Y20960D01*
G01X14201Y20959D01*
G01X14236Y20956D01*
G01X14268Y20950D01*
G01X14297Y20943D01*
G01X14323Y20933D01*
G01X14347Y20921D01*
G01X14368Y20908D01*
G01X14386Y20892D01*
G01X14401Y20876D01*
G01X14414Y20859D01*
G01X14425Y20840D01*
G01X14434Y20821D01*
G01X14441Y20800D01*
G01X14446Y20779D01*
G01X14448Y20757D01*
G01X14449Y20734D01*
G01X14448Y20701D01*
G01X14444Y20669D01*
G01X14437Y20640D01*
G01X14426Y20612D01*
G01X14413Y20586D01*
G01X14395Y20563D01*
G01X14372Y20541D01*
G01X14345Y20521D01*
G01X14314Y20504D01*
G01X14277Y20489D01*
G01X14235Y20476D01*
G01X14188Y20465D01*
G01X14073Y20452D01*
G01X13934Y20447D01*
G01X13940Y20403D01*
G01X13945Y20359D01*
G01X13950Y20319D01*
G01X13958Y20241D01*
G01X13961Y20202D01*
G01X13964Y20164D01*
G01X13967Y20127D01*
G01X13969Y20090D01*
G01X13971Y20052D01*
G01X13974Y19980D01*
G01X13976Y19943D01*
G01X13977Y19904D01*
G01X13979Y19865D01*
G01X13982Y19825D01*
G01X14586Y19825D01*
G01X14586Y19967D01*
G01X14127Y19967D01*
G01X14126Y19982D01*
G01X14124Y20000D01*
G01X14123Y20019D01*
G01X14122Y20041D01*
G01X14119Y20088D01*
G01X14117Y20112D01*
G01X14114Y20137D01*
G01X14113Y20162D01*
G01X14111Y20187D01*
G01X14109Y20211D01*
G01X14106Y20234D01*
G01X14105Y20257D01*
G01X14104Y20277D01*
G01X14103Y20295D01*
G01X14101Y20310D01*
G01X14228Y20321D01*
G01X14337Y20345D01*
G01X14426Y20381D01*
G01X14498Y20429D01*
G01X14591Y20557D01*
G01X14622Y20724D01*
G01X14621Y20765D01*
G01X14615Y20805D01*
G01X14606Y20842D01*
G01X14594Y20879D01*
G01X14579Y20913D01*
G01X14561Y20945D01*
G01X14539Y20974D01*
G01X14513Y21001D01*
G01X14483Y21025D01*
G01X14449Y21046D01*
G01X14412Y21064D01*
G01X14371Y21080D01*
G01X14325Y21092D01*
G01X14276Y21101D01*
G01X14222Y21106D01*
G37*

%LPD*%

%LPD*%
G36*
G01X26303Y92121D02*
G01X26161Y92121D01*
G01X26161Y91372D01*
G01X27419Y91372D01*
G01X27419Y91537D01*
G01X26303Y91537D01*
G01X26303Y92121D01*
G37*

%LPD*%
G36*
G01X26303Y91006D02*
G01X26161Y91006D01*
G01X26161Y90351D01*
G01X26303Y90351D01*
G01X26303Y90594D01*
G01X27276Y90594D01*
G01X27276Y90351D01*
G01X27419Y90351D01*
G01X27419Y91006D01*
G01X27276Y91006D01*
G01X27276Y90762D01*
G01X26303Y90762D01*
G01X26303Y91006D01*
G37*

%LPD*%
G36*
G01X26301Y90115D02*
G01X26161Y90152D01*
G01X26161Y89975D01*
G01X26491Y89901D01*
G01X26491Y89416D01*
G01X26161Y89342D01*
G01X26161Y89172D01*
G01X26301Y89210D01*
G01X26451Y89251D01*
G01X26610Y89294D01*
G01X26773Y89342D01*
G01X26938Y89394D01*
G01X27104Y89446D01*
G01X27265Y89503D01*
G01X27419Y89563D01*
G01X27419Y89769D01*
G01X27265Y89828D01*
G01X27104Y89883D01*
G01X26938Y89935D01*
G01X26773Y89985D01*
G01X26610Y90031D01*
G01X26451Y90074D01*
G01X26301Y90115D01*
G37*

%LPC*%
G36*
G01X26808Y89813D02*
G01X26629Y89860D01*
G01X26629Y89454D01*
G01X26804Y89505D01*
G01X26977Y89558D01*
G01X27135Y89611D01*
G01X27274Y89660D01*
G01X27140Y89709D01*
G01X26982Y89761D01*
G01X26808Y89813D01*
G37*

%LPD*%
G36*
G01X26233Y89046D02*
G01X26161Y89078D01*
G01X26161Y88900D01*
G01X26305Y88837D01*
G01X26441Y88768D01*
G01X26563Y88697D01*
G01X26659Y88628D01*
G01X26658Y88621D01*
G01X26657Y88613D01*
G01X26657Y88418D01*
G01X26161Y88418D01*
G01X26161Y88250D01*
G01X27401Y88250D01*
G01X27404Y88266D01*
G01X27408Y88283D01*
G01X27412Y88301D01*
G01X27416Y88321D01*
G01X27419Y88340D01*
G01X27421Y88360D01*
G01X27422Y88381D01*
G01X27424Y88402D01*
G01X27425Y88423D01*
G01X27427Y88463D01*
G01X27429Y88484D01*
G01X27430Y88504D01*
G01X27431Y88522D01*
G01X27431Y88557D01*
G01X27406Y88756D01*
G01X27332Y88900D01*
G01X27208Y88986D01*
G01X27035Y89015D01*
G01X26979Y89010D01*
G01X26926Y88999D01*
G01X26877Y88980D01*
G01X26832Y88954D01*
G01X26790Y88921D01*
G01X26753Y88882D01*
G01X26722Y88838D01*
G01X26695Y88789D01*
G01X26669Y88804D01*
G01X26613Y88838D01*
G01X26583Y88857D01*
G01X26552Y88876D01*
G01X26486Y88914D01*
G01X26451Y88933D01*
G01X26415Y88953D01*
G01X26379Y88971D01*
G01X26343Y88990D01*
G01X26269Y89028D01*
G01X26233Y89046D01*
G37*

%LPC*%
G36*
G01X27078Y88843D02*
G01X27043Y88844D01*
G01X27006Y88843D01*
G01X26974Y88839D01*
G01X26944Y88832D01*
G01X26918Y88822D01*
G01X26895Y88809D01*
G01X26875Y88794D01*
G01X26857Y88777D01*
G01X26842Y88758D01*
G01X26830Y88736D01*
G01X26821Y88711D01*
G01X26813Y88685D01*
G01X26806Y88656D01*
G01X26802Y88627D01*
G01X26799Y88596D01*
G01X26797Y88562D01*
G01X26796Y88527D01*
G01X26796Y88418D01*
G01X27281Y88418D01*
G01X27283Y88429D01*
G01X27284Y88444D01*
G01X27285Y88461D01*
G01X27286Y88481D01*
G01X27286Y88597D01*
G01X27284Y88624D01*
G01X27281Y88651D01*
G01X27276Y88677D01*
G01X27269Y88700D01*
G01X27261Y88722D01*
G01X27250Y88743D01*
G01X27238Y88763D01*
G01X27223Y88780D01*
G01X27205Y88796D01*
G01X27185Y88809D01*
G01X27162Y88822D01*
G01X27138Y88832D01*
G01X27109Y88839D01*
G01X27078Y88843D01*
G37*

%LPD*%
G36*
G01X26951Y87030D02*
G01X26791Y87041D01*
G01X26629Y87030D01*
G01X26494Y86998D01*
G01X26436Y86974D01*
G01X26384Y86946D01*
G01X26337Y86914D01*
G01X26296Y86878D01*
G01X26260Y86838D01*
G01X26230Y86795D01*
G01X26206Y86747D01*
G01X26187Y86696D01*
G01X26171Y86642D01*
G01X26160Y86587D01*
G01X26153Y86529D01*
G01X26151Y86469D01*
G01X26159Y86343D01*
G01X26182Y86215D01*
G01X27401Y86215D01*
G01X27424Y86343D01*
G01X27431Y86469D01*
G01X27429Y86529D01*
G01X27423Y86587D01*
G01X27411Y86642D01*
G01X27396Y86696D01*
G01X27376Y86747D01*
G01X27351Y86795D01*
G01X27321Y86838D01*
G01X27284Y86878D01*
G01X27243Y86914D01*
G01X27197Y86946D01*
G01X27144Y86974D01*
G01X27086Y86998D01*
G01X26951Y87030D01*
G37*

%LPC*%
G36*
G01X26911Y86865D02*
G01X26791Y86871D01*
G01X26728Y86869D01*
G01X26669Y86864D01*
G01X26614Y86855D01*
G01X26565Y86843D01*
G01X26520Y86829D01*
G01X26479Y86812D01*
G01X26443Y86792D01*
G01X26410Y86769D01*
G01X26382Y86744D01*
G01X26358Y86715D01*
G01X26339Y86684D01*
G01X26324Y86650D01*
G01X26312Y86613D01*
G01X26303Y86574D01*
G01X26297Y86531D01*
G01X26296Y86487D01*
G01X26296Y86461D01*
G01X26297Y86434D01*
G01X26299Y86409D01*
G01X26301Y86383D01*
G01X27281Y86383D01*
G01X27283Y86394D01*
G01X27284Y86404D01*
G01X27285Y86417D01*
G01X27286Y86429D01*
G01X27286Y86480D01*
G01X27256Y86649D01*
G01X27167Y86772D01*
G01X27099Y86815D01*
G01X27013Y86846D01*
G01X26911Y86865D01*
G37*

%LPD*%
G36*
G01X27419Y85995D02*
G01X26161Y85995D01*
G01X26161Y85824D01*
G01X26321Y85758D01*
G01X26466Y85695D01*
G01X26600Y85635D01*
G01X26725Y85578D01*
G01X26784Y85550D01*
G01X26841Y85522D01*
G01X26897Y85494D01*
G01X26951Y85466D01*
G01X27165Y85354D01*
G01X26161Y85354D01*
G01X26161Y85202D01*
G01X27419Y85202D01*
G01X27419Y85372D01*
G01X27276Y85450D01*
G01X27152Y85517D01*
G01X27096Y85548D01*
G01X27042Y85577D01*
G01X26987Y85605D01*
G01X26880Y85658D01*
G01X26825Y85684D01*
G01X26769Y85708D01*
G01X26712Y85733D01*
G01X26591Y85784D01*
G01X26451Y85842D01*
G01X27419Y85842D01*
G01X27419Y85995D01*
G37*

%LPD*%
G36*
G01X26781Y84999D02*
G01X26192Y84999D01*
G01X26184Y84977D01*
G01X26175Y84949D01*
G01X26166Y84914D01*
G01X26156Y84874D01*
G01X26147Y84830D01*
G01X26141Y84782D01*
G01X26137Y84730D01*
G01X26136Y84674D01*
G01X26138Y84618D01*
G01X26147Y84564D01*
G01X26160Y84514D01*
G01X26179Y84465D01*
G01X26203Y84421D01*
G01X26232Y84380D01*
G01X26267Y84342D01*
G01X26306Y84308D01*
G01X26350Y84276D01*
G01X26399Y84249D01*
G01X26453Y84225D01*
G01X26512Y84204D01*
G01X26642Y84177D01*
G01X26791Y84168D01*
G01X26940Y84178D01*
G01X27071Y84209D01*
G01X27129Y84231D01*
G01X27183Y84257D01*
G01X27232Y84286D01*
G01X27276Y84318D01*
G01X27316Y84355D01*
G01X27350Y84395D01*
G01X27379Y84437D01*
G01X27403Y84483D01*
G01X27422Y84531D01*
G01X27436Y84580D01*
G01X27444Y84632D01*
G01X27446Y84684D01*
G01X27446Y84717D01*
G01X27444Y84748D01*
G01X27441Y84778D01*
G01X27436Y84806D01*
G01X27431Y84832D01*
G01X27426Y84856D01*
G01X27420Y84877D01*
G01X27413Y84897D01*
G01X27406Y84914D01*
G01X27398Y84930D01*
G01X27391Y84945D01*
G01X27383Y84958D01*
G01X27376Y84970D01*
G01X27370Y84980D01*
G01X27364Y84988D01*
G01X27360Y84994D01*
G01X27220Y84940D01*
G01X27237Y84916D01*
G01X27253Y84888D01*
G01X27267Y84860D01*
G01X27279Y84829D01*
G01X27290Y84797D01*
G01X27298Y84763D01*
G01X27303Y84729D01*
G01X27304Y84694D01*
G01X27302Y84656D01*
G01X27295Y84620D01*
G01X27283Y84585D01*
G01X27266Y84552D01*
G01X27246Y84520D01*
G01X27222Y84490D01*
G01X27194Y84463D01*
G01X27162Y84437D01*
G01X27127Y84416D01*
G01X27089Y84396D01*
G01X27047Y84379D01*
G01X27002Y84364D01*
G01X26954Y84353D01*
G01X26902Y84345D01*
G01X26848Y84340D01*
G01X26791Y84338D01*
G01X26735Y84340D01*
G01X26682Y84344D01*
G01X26631Y84351D01*
G01X26583Y84361D01*
G01X26539Y84374D01*
G01X26497Y84390D01*
G01X26458Y84409D01*
G01X26423Y84430D01*
G01X26391Y84454D01*
G01X26364Y84481D01*
G01X26340Y84510D01*
G01X26319Y84542D01*
G01X26302Y84576D01*
G01X26290Y84612D01*
G01X26283Y84651D01*
G01X26281Y84691D01*
G01X26281Y84719D01*
G01X26283Y84743D01*
G01X26285Y84765D01*
G01X26288Y84783D01*
G01X26293Y84798D01*
G01X26298Y84811D01*
G01X26302Y84823D01*
G01X26306Y84831D01*
G01X26781Y84831D01*
G01X26781Y84999D01*
G37*

%LPD*%

%LPD*%
G36*
G01X26303Y12619D02*
G01X26161Y12619D01*
G01X26161Y11870D01*
G01X27419Y11870D01*
G01X27419Y12035D01*
G01X26303Y12035D01*
G01X26303Y12619D01*
G37*

%LPD*%
G36*
G01X26303Y11504D02*
G01X26161Y11504D01*
G01X26161Y10849D01*
G01X26303Y10849D01*
G01X26303Y11092D01*
G01X27276Y11092D01*
G01X27276Y10849D01*
G01X27419Y10849D01*
G01X27419Y11504D01*
G01X27276Y11504D01*
G01X27276Y11260D01*
G01X26303Y11260D01*
G01X26303Y11504D01*
G37*

%LPD*%
G36*
G01X26301Y10613D02*
G01X26161Y10650D01*
G01X26161Y10473D01*
G01X26491Y10399D01*
G01X26491Y9914D01*
G01X26161Y9840D01*
G01X26161Y9670D01*
G01X26301Y9708D01*
G01X26451Y9749D01*
G01X26610Y9792D01*
G01X26773Y9840D01*
G01X26938Y9892D01*
G01X27104Y9944D01*
G01X27265Y10001D01*
G01X27419Y10061D01*
G01X27419Y10267D01*
G01X27265Y10326D01*
G01X27104Y10381D01*
G01X26938Y10433D01*
G01X26773Y10483D01*
G01X26610Y10529D01*
G01X26451Y10572D01*
G01X26301Y10613D01*
G37*

%LPC*%
G36*
G01X26808Y10311D02*
G01X26629Y10358D01*
G01X26629Y9952D01*
G01X26804Y10003D01*
G01X26977Y10056D01*
G01X27135Y10109D01*
G01X27274Y10158D01*
G01X27140Y10207D01*
G01X26982Y10259D01*
G01X26808Y10311D01*
G37*

%LPD*%
G36*
G01X26233Y9544D02*
G01X26161Y9576D01*
G01X26161Y9398D01*
G01X26305Y9335D01*
G01X26441Y9266D01*
G01X26563Y9195D01*
G01X26659Y9126D01*
G01X26658Y9119D01*
G01X26657Y9111D01*
G01X26657Y8916D01*
G01X26161Y8916D01*
G01X26161Y8748D01*
G01X27401Y8748D01*
G01X27404Y8764D01*
G01X27408Y8781D01*
G01X27412Y8799D01*
G01X27416Y8819D01*
G01X27419Y8838D01*
G01X27421Y8858D01*
G01X27422Y8879D01*
G01X27424Y8900D01*
G01X27425Y8921D01*
G01X27427Y8961D01*
G01X27429Y8982D01*
G01X27430Y9002D01*
G01X27431Y9020D01*
G01X27431Y9055D01*
G01X27406Y9254D01*
G01X27332Y9398D01*
G01X27208Y9484D01*
G01X27035Y9513D01*
G01X26979Y9508D01*
G01X26926Y9497D01*
G01X26877Y9478D01*
G01X26832Y9452D01*
G01X26790Y9419D01*
G01X26753Y9380D01*
G01X26722Y9336D01*
G01X26695Y9287D01*
G01X26669Y9302D01*
G01X26613Y9336D01*
G01X26583Y9355D01*
G01X26552Y9374D01*
G01X26486Y9412D01*
G01X26451Y9431D01*
G01X26415Y9451D01*
G01X26379Y9469D01*
G01X26343Y9488D01*
G01X26269Y9526D01*
G01X26233Y9544D01*
G37*

%LPC*%
G36*
G01X27078Y9341D02*
G01X27043Y9342D01*
G01X27006Y9341D01*
G01X26974Y9337D01*
G01X26944Y9330D01*
G01X26918Y9320D01*
G01X26895Y9307D01*
G01X26875Y9292D01*
G01X26857Y9275D01*
G01X26842Y9256D01*
G01X26830Y9234D01*
G01X26821Y9209D01*
G01X26813Y9183D01*
G01X26806Y9154D01*
G01X26802Y9125D01*
G01X26799Y9094D01*
G01X26797Y9060D01*
G01X26796Y9025D01*
G01X26796Y8916D01*
G01X27281Y8916D01*
G01X27283Y8927D01*
G01X27284Y8942D01*
G01X27285Y8959D01*
G01X27286Y8979D01*
G01X27286Y9095D01*
G01X27284Y9122D01*
G01X27281Y9149D01*
G01X27276Y9175D01*
G01X27269Y9198D01*
G01X27261Y9220D01*
G01X27250Y9241D01*
G01X27238Y9261D01*
G01X27223Y9278D01*
G01X27205Y9294D01*
G01X27185Y9307D01*
G01X27162Y9320D01*
G01X27138Y9330D01*
G01X27109Y9337D01*
G01X27078Y9341D01*
G37*

%LPD*%
G36*
G01X26951Y7528D02*
G01X26791Y7539D01*
G01X26629Y7528D01*
G01X26494Y7496D01*
G01X26436Y7472D01*
G01X26384Y7444D01*
G01X26337Y7412D01*
G01X26296Y7376D01*
G01X26260Y7336D01*
G01X26230Y7293D01*
G01X26206Y7245D01*
G01X26187Y7194D01*
G01X26171Y7140D01*
G01X26160Y7085D01*
G01X26153Y7027D01*
G01X26151Y6967D01*
G01X26159Y6841D01*
G01X26182Y6713D01*
G01X27401Y6713D01*
G01X27424Y6841D01*
G01X27431Y6967D01*
G01X27429Y7027D01*
G01X27423Y7085D01*
G01X27411Y7140D01*
G01X27396Y7194D01*
G01X27376Y7245D01*
G01X27351Y7293D01*
G01X27321Y7336D01*
G01X27284Y7376D01*
G01X27243Y7412D01*
G01X27197Y7444D01*
G01X27144Y7472D01*
G01X27086Y7496D01*
G01X26951Y7528D01*
G37*

%LPC*%
G36*
G01X26911Y7363D02*
G01X26791Y7369D01*
G01X26728Y7367D01*
G01X26669Y7362D01*
G01X26614Y7353D01*
G01X26565Y7341D01*
G01X26520Y7327D01*
G01X26479Y7310D01*
G01X26443Y7290D01*
G01X26410Y7267D01*
G01X26382Y7242D01*
G01X26358Y7213D01*
G01X26339Y7182D01*
G01X26324Y7148D01*
G01X26312Y7111D01*
G01X26303Y7072D01*
G01X26297Y7029D01*
G01X26296Y6985D01*
G01X26296Y6959D01*
G01X26297Y6932D01*
G01X26299Y6907D01*
G01X26301Y6881D01*
G01X27281Y6881D01*
G01X27283Y6892D01*
G01X27284Y6902D01*
G01X27285Y6915D01*
G01X27286Y6927D01*
G01X27286Y6978D01*
G01X27256Y7147D01*
G01X27167Y7270D01*
G01X27099Y7313D01*
G01X27013Y7344D01*
G01X26911Y7363D01*
G37*

%LPD*%
G36*
G01X27419Y6493D02*
G01X26161Y6493D01*
G01X26161Y6322D01*
G01X26321Y6256D01*
G01X26466Y6193D01*
G01X26600Y6133D01*
G01X26725Y6076D01*
G01X26784Y6048D01*
G01X26841Y6020D01*
G01X26897Y5992D01*
G01X26951Y5964D01*
G01X27165Y5852D01*
G01X26161Y5852D01*
G01X26161Y5700D01*
G01X27419Y5700D01*
G01X27419Y5870D01*
G01X27276Y5948D01*
G01X27152Y6015D01*
G01X27096Y6046D01*
G01X27042Y6075D01*
G01X26987Y6103D01*
G01X26880Y6156D01*
G01X26825Y6182D01*
G01X26769Y6206D01*
G01X26712Y6231D01*
G01X26591Y6282D01*
G01X26451Y6340D01*
G01X27419Y6340D01*
G01X27419Y6493D01*
G37*

%LPD*%
G36*
G01X26781Y5497D02*
G01X26192Y5497D01*
G01X26184Y5475D01*
G01X26175Y5447D01*
G01X26166Y5412D01*
G01X26156Y5372D01*
G01X26147Y5328D01*
G01X26141Y5280D01*
G01X26137Y5228D01*
G01X26136Y5172D01*
G01X26138Y5116D01*
G01X26147Y5062D01*
G01X26160Y5012D01*
G01X26179Y4963D01*
G01X26203Y4919D01*
G01X26232Y4878D01*
G01X26267Y4840D01*
G01X26306Y4806D01*
G01X26350Y4774D01*
G01X26399Y4747D01*
G01X26453Y4723D01*
G01X26512Y4702D01*
G01X26642Y4675D01*
G01X26791Y4666D01*
G01X26940Y4676D01*
G01X27071Y4707D01*
G01X27129Y4729D01*
G01X27183Y4755D01*
G01X27232Y4784D01*
G01X27276Y4816D01*
G01X27316Y4853D01*
G01X27350Y4893D01*
G01X27379Y4935D01*
G01X27403Y4981D01*
G01X27422Y5029D01*
G01X27436Y5078D01*
G01X27444Y5130D01*
G01X27446Y5182D01*
G01X27446Y5215D01*
G01X27444Y5246D01*
G01X27441Y5276D01*
G01X27436Y5304D01*
G01X27431Y5330D01*
G01X27426Y5354D01*
G01X27420Y5375D01*
G01X27413Y5395D01*
G01X27406Y5412D01*
G01X27398Y5428D01*
G01X27391Y5443D01*
G01X27383Y5456D01*
G01X27376Y5468D01*
G01X27370Y5478D01*
G01X27364Y5486D01*
G01X27360Y5492D01*
G01X27220Y5438D01*
G01X27237Y5414D01*
G01X27253Y5386D01*
G01X27267Y5358D01*
G01X27279Y5327D01*
G01X27290Y5295D01*
G01X27298Y5261D01*
G01X27303Y5227D01*
G01X27304Y5192D01*
G01X27302Y5154D01*
G01X27295Y5118D01*
G01X27283Y5083D01*
G01X27266Y5050D01*
G01X27246Y5018D01*
G01X27222Y4988D01*
G01X27194Y4961D01*
G01X27162Y4935D01*
G01X27127Y4914D01*
G01X27089Y4894D01*
G01X27047Y4877D01*
G01X27002Y4862D01*
G01X26954Y4851D01*
G01X26902Y4843D01*
G01X26848Y4838D01*
G01X26791Y4836D01*
G01X26735Y4838D01*
G01X26682Y4842D01*
G01X26631Y4849D01*
G01X26583Y4859D01*
G01X26539Y4872D01*
G01X26497Y4888D01*
G01X26458Y4907D01*
G01X26423Y4928D01*
G01X26391Y4952D01*
G01X26364Y4979D01*
G01X26340Y5008D01*
G01X26319Y5040D01*
G01X26302Y5074D01*
G01X26290Y5110D01*
G01X26283Y5149D01*
G01X26281Y5189D01*
G01X26281Y5217D01*
G01X26283Y5241D01*
G01X26285Y5263D01*
G01X26288Y5281D01*
G01X26293Y5296D01*
G01X26298Y5309D01*
G01X26302Y5321D01*
G01X26306Y5329D01*
G01X26781Y5329D01*
G01X26781Y5497D01*
G37*

%LPD*%

%LPD*%
G36*
G01X94375Y13000D02*
G01X94233Y13000D01*
G01X94233Y12251D01*
G01X95491Y12251D01*
G01X95491Y12416D01*
G01X94375Y12416D01*
G01X94375Y13000D01*
G37*

%LPD*%
G36*
G01X94375Y11885D02*
G01X94233Y11885D01*
G01X94233Y11230D01*
G01X94375Y11230D01*
G01X94375Y11473D01*
G01X95348Y11473D01*
G01X95348Y11230D01*
G01X95491Y11230D01*
G01X95491Y11885D01*
G01X95348Y11885D01*
G01X95348Y11641D01*
G01X94375Y11641D01*
G01X94375Y11885D01*
G37*

%LPD*%
G36*
G01X94373Y10994D02*
G01X94233Y11031D01*
G01X94233Y10854D01*
G01X94563Y10780D01*
G01X94563Y10295D01*
G01X94233Y10221D01*
G01X94233Y10051D01*
G01X94373Y10089D01*
G01X94523Y10130D01*
G01X94682Y10173D01*
G01X94845Y10221D01*
G01X95010Y10273D01*
G01X95176Y10325D01*
G01X95337Y10382D01*
G01X95491Y10442D01*
G01X95491Y10648D01*
G01X95337Y10707D01*
G01X95176Y10762D01*
G01X95010Y10814D01*
G01X94845Y10864D01*
G01X94682Y10910D01*
G01X94523Y10953D01*
G01X94373Y10994D01*
G37*

%LPC*%
G36*
G01X94880Y10692D02*
G01X94701Y10739D01*
G01X94701Y10333D01*
G01X94876Y10384D01*
G01X95049Y10437D01*
G01X95207Y10490D01*
G01X95346Y10539D01*
G01X95212Y10588D01*
G01X95054Y10640D01*
G01X94880Y10692D01*
G37*

%LPD*%
G36*
G01X94305Y9925D02*
G01X94233Y9957D01*
G01X94233Y9779D01*
G01X94377Y9716D01*
G01X94513Y9647D01*
G01X94635Y9576D01*
G01X94731Y9507D01*
G01X94730Y9500D01*
G01X94729Y9492D01*
G01X94729Y9297D01*
G01X94233Y9297D01*
G01X94233Y9129D01*
G01X95473Y9129D01*
G01X95477Y9145D01*
G01X95480Y9162D01*
G01X95484Y9180D01*
G01X95488Y9200D01*
G01X95491Y9219D01*
G01X95493Y9239D01*
G01X95494Y9260D01*
G01X95496Y9281D01*
G01X95497Y9302D01*
G01X95498Y9322D01*
G01X95500Y9342D01*
G01X95501Y9363D01*
G01X95502Y9383D01*
G01X95503Y9401D01*
G01X95503Y9436D01*
G01X95478Y9635D01*
G01X95404Y9779D01*
G01X95280Y9865D01*
G01X95107Y9894D01*
G01X95051Y9889D01*
G01X94998Y9878D01*
G01X94949Y9859D01*
G01X94904Y9833D01*
G01X94862Y9800D01*
G01X94825Y9761D01*
G01X94794Y9717D01*
G01X94767Y9668D01*
G01X94741Y9683D01*
G01X94685Y9717D01*
G01X94655Y9736D01*
G01X94624Y9755D01*
G01X94558Y9793D01*
G01X94523Y9812D01*
G01X94487Y9832D01*
G01X94451Y9850D01*
G01X94415Y9869D01*
G01X94341Y9907D01*
G01X94305Y9925D01*
G37*

%LPC*%
G36*
G01X95150Y9722D02*
G01X95115Y9723D01*
G01X95078Y9722D01*
G01X95046Y9718D01*
G01X95016Y9711D01*
G01X94990Y9701D01*
G01X94967Y9688D01*
G01X94947Y9673D01*
G01X94929Y9656D01*
G01X94914Y9637D01*
G01X94902Y9615D01*
G01X94893Y9590D01*
G01X94885Y9564D01*
G01X94878Y9535D01*
G01X94874Y9506D01*
G01X94871Y9475D01*
G01X94869Y9441D01*
G01X94868Y9406D01*
G01X94868Y9297D01*
G01X95353Y9297D01*
G01X95355Y9308D01*
G01X95356Y9323D01*
G01X95357Y9340D01*
G01X95358Y9360D01*
G01X95358Y9476D01*
G01X95356Y9503D01*
G01X95353Y9530D01*
G01X95348Y9556D01*
G01X95341Y9579D01*
G01X95333Y9601D01*
G01X95322Y9622D01*
G01X95310Y9642D01*
G01X95295Y9659D01*
G01X95277Y9675D01*
G01X95257Y9688D01*
G01X95234Y9701D01*
G01X95210Y9711D01*
G01X95181Y9718D01*
G01X95150Y9722D01*
G37*

%LPD*%
G36*
G01X95491Y7803D02*
G01X95491Y7976D01*
G01X95446Y7967D01*
G01X95396Y7956D01*
G01X95337Y7942D01*
G01X95272Y7925D01*
G01X95127Y7884D01*
G01X94965Y7836D01*
G01X94792Y7783D01*
G01X94607Y7724D01*
G01X94512Y7692D01*
G01X94418Y7660D01*
G01X94325Y7628D01*
G01X94233Y7595D01*
G01X94233Y7387D01*
G01X94325Y7356D01*
G01X94418Y7326D01*
G01X94511Y7295D01*
G01X94604Y7265D01*
G01X94790Y7206D01*
G01X94965Y7153D01*
G01X95125Y7106D01*
G01X95272Y7067D01*
G01X95337Y7050D01*
G01X95396Y7035D01*
G01X95446Y7022D01*
G01X95491Y7011D01*
G01X95491Y7194D01*
G01X95357Y7220D01*
G01X95211Y7255D01*
G01X95061Y7293D01*
G01X94909Y7333D01*
G01X94761Y7376D01*
G01X94619Y7417D01*
G01X94490Y7459D01*
G01X94378Y7498D01*
G01X94491Y7532D01*
G01X94622Y7575D01*
G01X94765Y7618D01*
G01X94914Y7661D01*
G01X95064Y7701D01*
G01X95214Y7740D01*
G01X95359Y7775D01*
G01X95491Y7803D01*
G37*

%LPD*%
G36*
G01X94758Y6837D02*
G01X94591Y6868D01*
G01X94550Y6867D01*
G01X94511Y6861D01*
G01X94473Y6853D01*
G01X94436Y6840D01*
G01X94402Y6826D01*
G01X94370Y6807D01*
G01X94341Y6785D01*
G01X94315Y6759D01*
G01X94291Y6729D01*
G01X94269Y6696D01*
G01X94251Y6658D01*
G01X94236Y6617D01*
G01X94224Y6572D01*
G01X94215Y6522D01*
G01X94209Y6469D01*
G01X94208Y6411D01*
G01X94208Y6387D01*
G01X94209Y6363D01*
G01X94213Y6315D01*
G01X94221Y6269D01*
G01X94226Y6248D01*
G01X94231Y6226D01*
G01X94236Y6205D01*
G01X94241Y6185D01*
G01X94247Y6167D01*
G01X94254Y6150D01*
G01X94259Y6134D01*
G01X94263Y6122D01*
G01X94267Y6112D01*
G01X94271Y6104D01*
G01X94416Y6137D01*
G01X94408Y6155D01*
G01X94399Y6177D01*
G01X94389Y6204D01*
G01X94378Y6236D01*
G01X94368Y6273D01*
G01X94361Y6313D01*
G01X94357Y6359D01*
G01X94355Y6409D01*
G01X94356Y6448D01*
G01X94360Y6483D01*
G01X94365Y6515D01*
G01X94373Y6543D01*
G01X94383Y6570D01*
G01X94395Y6594D01*
G01X94408Y6614D01*
G01X94424Y6632D01*
G01X94439Y6647D01*
G01X94457Y6661D01*
G01X94475Y6672D01*
G01X94495Y6680D01*
G01X94516Y6687D01*
G01X94537Y6692D01*
G01X94559Y6695D01*
G01X94581Y6696D01*
G01X94615Y6694D01*
G01X94646Y6690D01*
G01X94676Y6683D01*
G01X94703Y6673D01*
G01X94729Y6659D01*
G01X94753Y6641D01*
G01X94775Y6618D01*
G01X94795Y6592D01*
G01X94811Y6560D01*
G01X94827Y6523D01*
G01X94839Y6481D01*
G01X94850Y6434D01*
G01X94864Y6320D01*
G01X94868Y6180D01*
G01X94913Y6186D01*
G01X94956Y6191D01*
G01X94997Y6196D01*
G01X95114Y6208D01*
G01X95151Y6211D01*
G01X95188Y6213D01*
G01X95226Y6216D01*
G01X95263Y6218D01*
G01X95336Y6221D01*
G01X95373Y6222D01*
G01X95411Y6224D01*
G01X95450Y6226D01*
G01X95491Y6228D01*
G01X95491Y6833D01*
G01X95348Y6833D01*
G01X95348Y6373D01*
G01X95333Y6372D01*
G01X95316Y6371D01*
G01X95296Y6369D01*
G01X95275Y6368D01*
G01X95228Y6365D01*
G01X95203Y6363D01*
G01X95178Y6360D01*
G01X95153Y6359D01*
G01X95105Y6355D01*
G01X95059Y6351D01*
G01X95038Y6350D01*
G01X95021Y6349D01*
G01X95005Y6348D01*
G01X94994Y6474D01*
G01X94970Y6582D01*
G01X94934Y6672D01*
G01X94886Y6744D01*
G01X94758Y6837D01*
G37*

%LPD*%
G36*
G01X94838Y5878D02*
G01X94696Y5878D01*
G01X94696Y5535D01*
G01X94320Y5535D01*
G01X94320Y5388D01*
G01X94696Y5388D01*
G01X94696Y5047D01*
G01X94838Y5047D01*
G01X94838Y5388D01*
G01X95214Y5388D01*
G01X95214Y5535D01*
G01X94838Y5535D01*
G01X94838Y5878D01*
G37*

%LPD*%

%LPD*%
G36*
G01X94375Y90343D02*
G01X94233Y90343D01*
G01X94233Y89594D01*
G01X95491Y89594D01*
G01X95491Y89759D01*
G01X94375Y89759D01*
G01X94375Y90343D01*
G37*

%LPD*%
G36*
G01X94375Y89228D02*
G01X94233Y89228D01*
G01X94233Y88573D01*
G01X94375Y88573D01*
G01X94375Y88816D01*
G01X95348Y88816D01*
G01X95348Y88573D01*
G01X95491Y88573D01*
G01X95491Y89228D01*
G01X95348Y89228D01*
G01X95348Y88984D01*
G01X94375Y88984D01*
G01X94375Y89228D01*
G37*

%LPD*%
G36*
G01X94373Y88337D02*
G01X94233Y88374D01*
G01X94233Y88197D01*
G01X94563Y88123D01*
G01X94563Y87638D01*
G01X94233Y87564D01*
G01X94233Y87394D01*
G01X94373Y87432D01*
G01X94523Y87473D01*
G01X94682Y87516D01*
G01X94845Y87564D01*
G01X95010Y87616D01*
G01X95176Y87668D01*
G01X95337Y87725D01*
G01X95491Y87785D01*
G01X95491Y87991D01*
G01X95337Y88050D01*
G01X95176Y88105D01*
G01X95010Y88157D01*
G01X94845Y88207D01*
G01X94682Y88253D01*
G01X94523Y88296D01*
G01X94373Y88337D01*
G37*

%LPC*%
G36*
G01X94880Y88035D02*
G01X94701Y88082D01*
G01X94701Y87676D01*
G01X94876Y87727D01*
G01X95049Y87780D01*
G01X95207Y87833D01*
G01X95346Y87882D01*
G01X95212Y87931D01*
G01X95054Y87983D01*
G01X94880Y88035D01*
G37*

%LPD*%
G36*
G01X94305Y87268D02*
G01X94233Y87300D01*
G01X94233Y87122D01*
G01X94377Y87059D01*
G01X94513Y86990D01*
G01X94635Y86919D01*
G01X94731Y86850D01*
G01X94730Y86843D01*
G01X94729Y86835D01*
G01X94729Y86640D01*
G01X94233Y86640D01*
G01X94233Y86472D01*
G01X95473Y86472D01*
G01X95477Y86488D01*
G01X95480Y86505D01*
G01X95484Y86523D01*
G01X95488Y86543D01*
G01X95491Y86562D01*
G01X95493Y86582D01*
G01X95494Y86603D01*
G01X95496Y86624D01*
G01X95497Y86645D01*
G01X95498Y86665D01*
G01X95500Y86685D01*
G01X95501Y86706D01*
G01X95502Y86726D01*
G01X95503Y86744D01*
G01X95503Y86779D01*
G01X95478Y86978D01*
G01X95404Y87122D01*
G01X95280Y87208D01*
G01X95107Y87237D01*
G01X95051Y87232D01*
G01X94998Y87221D01*
G01X94949Y87202D01*
G01X94904Y87176D01*
G01X94862Y87143D01*
G01X94825Y87104D01*
G01X94794Y87060D01*
G01X94767Y87011D01*
G01X94741Y87026D01*
G01X94685Y87060D01*
G01X94655Y87079D01*
G01X94624Y87098D01*
G01X94558Y87136D01*
G01X94523Y87155D01*
G01X94487Y87175D01*
G01X94451Y87193D01*
G01X94415Y87212D01*
G01X94341Y87250D01*
G01X94305Y87268D01*
G37*

%LPC*%
G36*
G01X95150Y87065D02*
G01X95115Y87066D01*
G01X95078Y87065D01*
G01X95046Y87061D01*
G01X95016Y87054D01*
G01X94990Y87044D01*
G01X94967Y87031D01*
G01X94947Y87016D01*
G01X94929Y86999D01*
G01X94914Y86980D01*
G01X94902Y86958D01*
G01X94893Y86933D01*
G01X94885Y86907D01*
G01X94878Y86878D01*
G01X94874Y86849D01*
G01X94871Y86818D01*
G01X94869Y86784D01*
G01X94868Y86749D01*
G01X94868Y86640D01*
G01X95353Y86640D01*
G01X95355Y86651D01*
G01X95356Y86666D01*
G01X95357Y86683D01*
G01X95358Y86703D01*
G01X95358Y86819D01*
G01X95356Y86846D01*
G01X95353Y86873D01*
G01X95348Y86899D01*
G01X95341Y86922D01*
G01X95333Y86944D01*
G01X95322Y86965D01*
G01X95310Y86985D01*
G01X95295Y87002D01*
G01X95277Y87018D01*
G01X95257Y87031D01*
G01X95234Y87044D01*
G01X95210Y87054D01*
G01X95181Y87061D01*
G01X95150Y87065D01*
G37*

%LPD*%
G36*
G01X95491Y85146D02*
G01X95491Y85319D01*
G01X95446Y85310D01*
G01X95396Y85299D01*
G01X95337Y85285D01*
G01X95272Y85268D01*
G01X95127Y85227D01*
G01X94965Y85179D01*
G01X94792Y85126D01*
G01X94607Y85067D01*
G01X94512Y85035D01*
G01X94418Y85003D01*
G01X94325Y84971D01*
G01X94233Y84938D01*
G01X94233Y84730D01*
G01X94325Y84699D01*
G01X94418Y84669D01*
G01X94511Y84638D01*
G01X94604Y84608D01*
G01X94790Y84549D01*
G01X94965Y84496D01*
G01X95125Y84449D01*
G01X95272Y84410D01*
G01X95337Y84393D01*
G01X95396Y84378D01*
G01X95446Y84365D01*
G01X95491Y84354D01*
G01X95491Y84537D01*
G01X95357Y84563D01*
G01X95211Y84598D01*
G01X95061Y84636D01*
G01X94909Y84676D01*
G01X94761Y84719D01*
G01X94619Y84760D01*
G01X94490Y84802D01*
G01X94378Y84841D01*
G01X94491Y84875D01*
G01X94622Y84918D01*
G01X94765Y84961D01*
G01X94914Y85004D01*
G01X95064Y85044D01*
G01X95214Y85083D01*
G01X95359Y85118D01*
G01X95491Y85146D01*
G37*

%LPD*%
G36*
G01X94758Y84180D02*
G01X94591Y84211D01*
G01X94550Y84210D01*
G01X94511Y84204D01*
G01X94473Y84196D01*
G01X94436Y84183D01*
G01X94402Y84169D01*
G01X94370Y84150D01*
G01X94341Y84128D01*
G01X94315Y84102D01*
G01X94291Y84072D01*
G01X94269Y84039D01*
G01X94251Y84001D01*
G01X94236Y83960D01*
G01X94224Y83915D01*
G01X94215Y83865D01*
G01X94209Y83812D01*
G01X94208Y83754D01*
G01X94208Y83730D01*
G01X94209Y83706D01*
G01X94213Y83658D01*
G01X94221Y83612D01*
G01X94226Y83591D01*
G01X94231Y83569D01*
G01X94236Y83548D01*
G01X94241Y83528D01*
G01X94247Y83510D01*
G01X94254Y83493D01*
G01X94259Y83477D01*
G01X94263Y83465D01*
G01X94267Y83455D01*
G01X94271Y83447D01*
G01X94416Y83480D01*
G01X94408Y83498D01*
G01X94399Y83520D01*
G01X94389Y83547D01*
G01X94378Y83579D01*
G01X94368Y83616D01*
G01X94361Y83656D01*
G01X94357Y83702D01*
G01X94355Y83752D01*
G01X94356Y83791D01*
G01X94360Y83826D01*
G01X94365Y83858D01*
G01X94373Y83886D01*
G01X94383Y83913D01*
G01X94395Y83937D01*
G01X94408Y83957D01*
G01X94424Y83975D01*
G01X94439Y83990D01*
G01X94457Y84004D01*
G01X94475Y84015D01*
G01X94495Y84023D01*
G01X94516Y84030D01*
G01X94537Y84035D01*
G01X94559Y84038D01*
G01X94581Y84039D01*
G01X94615Y84037D01*
G01X94646Y84033D01*
G01X94676Y84026D01*
G01X94703Y84016D01*
G01X94729Y84002D01*
G01X94753Y83984D01*
G01X94775Y83961D01*
G01X94795Y83935D01*
G01X94811Y83903D01*
G01X94827Y83866D01*
G01X94839Y83824D01*
G01X94850Y83777D01*
G01X94864Y83663D01*
G01X94868Y83523D01*
G01X94913Y83529D01*
G01X94956Y83534D01*
G01X94997Y83539D01*
G01X95114Y83551D01*
G01X95151Y83554D01*
G01X95188Y83556D01*
G01X95226Y83559D01*
G01X95263Y83561D01*
G01X95336Y83564D01*
G01X95373Y83565D01*
G01X95411Y83567D01*
G01X95450Y83569D01*
G01X95491Y83571D01*
G01X95491Y84176D01*
G01X95348Y84176D01*
G01X95348Y83716D01*
G01X95333Y83715D01*
G01X95316Y83714D01*
G01X95296Y83712D01*
G01X95275Y83711D01*
G01X95228Y83708D01*
G01X95203Y83706D01*
G01X95178Y83703D01*
G01X95153Y83702D01*
G01X95105Y83698D01*
G01X95059Y83694D01*
G01X95038Y83693D01*
G01X95021Y83692D01*
G01X95005Y83691D01*
G01X94994Y83817D01*
G01X94970Y83925D01*
G01X94934Y84015D01*
G01X94886Y84087D01*
G01X94758Y84180D01*
G37*

%LPD*%
G36*
G01X94838Y83221D02*
G01X94696Y83221D01*
G01X94696Y82878D01*
G01X94320Y82878D01*
G01X94320Y82731D01*
G01X94696Y82731D01*
G01X94696Y82390D01*
G01X94838Y82390D01*
G01X94838Y82731D01*
G01X95214Y82731D01*
G01X95214Y82878D01*
G01X94838Y82878D01*
G01X94838Y83221D01*
G37*

%LPD*%

%LPD*%
G36*
G01X53022Y3036D02*
G01X52905Y3036D01*
G01X52905Y1921D01*
G01X52666Y1921D01*
G01X52666Y1778D01*
G01X53342Y1778D01*
G01X53342Y1921D01*
G01X53070Y1921D01*
G01X53070Y2802D01*
G01X53082Y2792D01*
G01X53095Y2782D01*
G01X53109Y2771D01*
G01X53123Y2761D01*
G01X53140Y2750D01*
G01X53176Y2728D01*
G01X53194Y2718D01*
G01X53232Y2698D01*
G01X53251Y2689D01*
G01X53291Y2671D01*
G01X53311Y2663D01*
G01X53332Y2656D01*
G01X53352Y2649D01*
G01X53403Y2776D01*
G01X53352Y2798D01*
G01X53302Y2822D01*
G01X53252Y2849D01*
G01X53202Y2878D01*
G01X53155Y2912D01*
G01X53109Y2949D01*
G01X53064Y2990D01*
G01X53022Y3036D01*
G37*

%LPD*%
G36*
G01X53791Y2721D02*
G01X53616Y2721D01*
G01X53656Y2590D01*
G01X53700Y2462D01*
G01X53748Y2337D01*
G01X53796Y2215D01*
G01X53821Y2155D01*
G01X53845Y2096D01*
G01X53870Y2039D01*
G01X53896Y1984D01*
G01X53920Y1930D01*
G01X53945Y1878D01*
G01X53969Y1828D01*
G01X53992Y1778D01*
G01X54144Y1778D01*
G01X54193Y1877D01*
G01X54241Y1982D01*
G01X54289Y2094D01*
G01X54337Y2213D01*
G01X54385Y2336D01*
G01X54430Y2462D01*
G01X54472Y2590D01*
G01X54510Y2721D01*
G01X54327Y2721D01*
G01X54315Y2675D01*
G01X54302Y2629D01*
G01X54287Y2581D01*
G01X54271Y2533D01*
G01X54240Y2433D01*
G01X54223Y2383D01*
G01X54205Y2332D01*
G01X54189Y2283D01*
G01X54172Y2235D01*
G01X54155Y2188D01*
G01X54137Y2141D01*
G01X54119Y2096D01*
G01X54101Y2053D01*
G01X54083Y2013D01*
G01X54066Y1976D01*
G01X54049Y2013D01*
G01X54032Y2053D01*
G01X54013Y2096D01*
G01X53995Y2141D01*
G01X53957Y2235D01*
G01X53939Y2283D01*
G01X53921Y2332D01*
G01X53902Y2383D01*
G01X53884Y2433D01*
G01X53850Y2533D01*
G01X53834Y2581D01*
G01X53819Y2629D01*
G01X53791Y2721D01*
G37*

%LPD*%
G36*
G01X58234Y3048D02*
G01X58158Y3048D01*
G01X58103Y3047D01*
G01X58053Y3041D01*
G01X58006Y3033D01*
G01X57962Y3020D01*
G01X57922Y3005D01*
G01X57885Y2986D01*
G01X57852Y2964D01*
G01X57822Y2939D01*
G01X57796Y2912D01*
G01X57774Y2883D01*
G01X57754Y2852D01*
G01X57739Y2817D01*
G01X57726Y2781D01*
G01X57718Y2741D01*
G01X57712Y2700D01*
G01X57711Y2657D01*
G01X57740Y2484D01*
G01X57827Y2355D01*
G01X57893Y2308D01*
G01X57973Y2275D01*
G01X58067Y2255D01*
G01X58175Y2248D01*
G01X58320Y2248D01*
G01X58320Y1778D01*
G01X58488Y1778D01*
G01X58488Y3018D01*
G01X58470Y3022D01*
G01X58450Y3025D01*
G01X58429Y3029D01*
G01X58407Y3033D01*
G01X58385Y3036D01*
G01X58363Y3038D01*
G01X58342Y3041D01*
G01X58320Y3043D01*
G01X58299Y3044D01*
G01X58277Y3046D01*
G01X58256Y3047D01*
G01X58234Y3048D01*
G37*

%LPC*%
G36*
G01X58249Y2903D02*
G01X58147Y2903D01*
G01X58032Y2888D01*
G01X57949Y2840D01*
G01X57900Y2762D01*
G01X57883Y2652D01*
G01X57888Y2587D01*
G01X57902Y2532D01*
G01X57925Y2487D01*
G01X57957Y2451D01*
G01X57999Y2424D01*
G01X58050Y2406D01*
G01X58112Y2394D01*
G01X58183Y2390D01*
G01X58320Y2390D01*
G01X58320Y2898D01*
G01X58307Y2899D01*
G01X58291Y2901D01*
G01X58271Y2902D01*
G01X58249Y2903D01*
G37*

%LPD*%
G36*
G01X56224Y3048D02*
G01X56189Y3048D01*
G01X56143Y3047D01*
G01X56098Y3044D01*
G01X56056Y3040D01*
G01X56014Y3033D01*
G01X55975Y3023D01*
G01X55938Y3010D01*
G01X55905Y2995D01*
G01X55874Y2977D01*
G01X55845Y2956D01*
G01X55820Y2932D01*
G01X55798Y2906D01*
G01X55780Y2876D01*
G01X55766Y2842D01*
G01X55755Y2804D01*
G01X55749Y2763D01*
G01X55747Y2718D01*
G01X55748Y2696D01*
G01X55750Y2675D01*
G01X55754Y2653D01*
G01X55760Y2632D01*
G01X55768Y2612D01*
G01X55778Y2592D01*
G01X55788Y2574D01*
G01X55801Y2556D01*
G01X55814Y2537D01*
G01X55828Y2520D01*
G01X55843Y2504D01*
G01X55859Y2489D01*
G01X55876Y2477D01*
G01X55894Y2467D01*
G01X55913Y2457D01*
G01X55933Y2449D01*
G01X55883Y2432D01*
G01X55837Y2409D01*
G01X55795Y2380D01*
G01X55757Y2345D01*
G01X55727Y2304D01*
G01X55706Y2257D01*
G01X55693Y2204D01*
G01X55689Y2147D01*
G01X55719Y1982D01*
G01X55808Y1865D01*
G01X55877Y1822D01*
G01X55963Y1792D01*
G01X56067Y1774D01*
G01X56189Y1768D01*
G01X56205Y1768D01*
G01X56222Y1769D01*
G01X56240Y1770D01*
G01X56260Y1771D01*
G01X56281Y1772D01*
G01X56321Y1774D01*
G01X56382Y1779D01*
G01X56402Y1781D01*
G01X56423Y1783D01*
G01X56443Y1787D01*
G01X56461Y1791D01*
G01X56478Y1795D01*
G01X56494Y1799D01*
G01X56494Y3018D01*
G01X56478Y3022D01*
G01X56461Y3025D01*
G01X56444Y3029D01*
G01X56425Y3033D01*
G01X56405Y3036D01*
G01X56385Y3038D01*
G01X56344Y3041D01*
G01X56302Y3043D01*
G01X56282Y3044D01*
G01X56263Y3046D01*
G01X56243Y3047D01*
G01X56224Y3048D01*
G37*

%LPC*%
G36*
G01X56329Y2365D02*
G01X56156Y2365D01*
G01X56127Y2364D01*
G01X56099Y2362D01*
G01X56071Y2359D01*
G01X56044Y2355D01*
G01X56017Y2348D01*
G01X55993Y2339D01*
G01X55969Y2328D01*
G01X55948Y2317D01*
G01X55928Y2303D01*
G01X55909Y2287D01*
G01X55893Y2270D01*
G01X55879Y2251D01*
G01X55868Y2228D01*
G01X55860Y2202D01*
G01X55855Y2175D01*
G01X55854Y2144D01*
G01X55855Y2110D01*
G01X55861Y2079D01*
G01X55870Y2052D01*
G01X55882Y2027D01*
G01X55897Y2006D01*
G01X55914Y1988D01*
G01X55932Y1971D01*
G01X55953Y1956D01*
G01X55977Y1943D01*
G01X56002Y1933D01*
G01X56029Y1924D01*
G01X56057Y1918D01*
G01X56087Y1913D01*
G01X56116Y1910D01*
G01X56146Y1908D01*
G01X56235Y1908D01*
G01X56260Y1909D01*
G01X56283Y1910D01*
G01X56329Y1915D01*
G01X56329Y2365D01*
G37*
G36*
G01X56273Y2906D02*
G01X56153Y2906D01*
G01X56103Y2900D01*
G01X56080Y2896D01*
G01X56057Y2890D01*
G01X56034Y2882D01*
G01X56013Y2872D01*
G01X55994Y2860D01*
G01X55977Y2848D01*
G01X55961Y2833D01*
G01X55947Y2818D01*
G01X55935Y2799D01*
G01X55925Y2778D01*
G01X55918Y2756D01*
G01X55914Y2731D01*
G01X55912Y2705D01*
G01X55914Y2677D01*
G01X55919Y2652D01*
G01X55926Y2628D01*
G01X55938Y2606D01*
G01X55951Y2588D01*
G01X55967Y2572D01*
G01X55984Y2558D01*
G01X56004Y2545D01*
G01X56025Y2536D01*
G01X56047Y2528D01*
G01X56070Y2520D01*
G01X56095Y2515D01*
G01X56121Y2510D01*
G01X56146Y2507D01*
G01X56171Y2505D01*
G01X56329Y2505D01*
G01X56329Y2901D01*
G01X56319Y2902D01*
G01X56306Y2903D01*
G01X56291Y2904D01*
G01X56273Y2906D01*
G37*

%LPD*%
G36*
G01X51109Y3053D02*
G01X51015Y3064D01*
G01X50922Y3053D01*
G01X50840Y3021D01*
G01X50769Y2969D01*
G01X50710Y2896D01*
G01X50663Y2801D01*
G01X50629Y2689D01*
G01X50608Y2558D01*
G01X50601Y2408D01*
G01X50608Y2259D01*
G01X50629Y2127D01*
G01X50663Y2015D01*
G01X50710Y1921D01*
G01X50769Y1847D01*
G01X50840Y1795D01*
G01X50922Y1764D01*
G01X51015Y1753D01*
G01X51109Y1764D01*
G01X51191Y1795D01*
G01X51263Y1847D01*
G01X51322Y1921D01*
G01X51370Y2015D01*
G01X51404Y2127D01*
G01X51425Y2259D01*
G01X51432Y2408D01*
G01X51425Y2558D01*
G01X51404Y2689D01*
G01X51370Y2801D01*
G01X51322Y2896D01*
G01X51263Y2969D01*
G01X51191Y3021D01*
G01X51109Y3053D01*
G37*

%LPC*%
G36*
G01X51049Y2914D02*
G01X51015Y2916D01*
G01X50982Y2914D01*
G01X50952Y2906D01*
G01X50925Y2893D01*
G01X50901Y2876D01*
G01X50878Y2854D01*
G01X50858Y2828D01*
G01X50840Y2799D01*
G01X50825Y2766D01*
G01X50811Y2730D01*
G01X50800Y2691D01*
G01X50791Y2649D01*
G01X50784Y2604D01*
G01X50778Y2557D01*
G01X50774Y2509D01*
G01X50772Y2459D01*
G01X50771Y2408D01*
G01X50772Y2357D01*
G01X50774Y2307D01*
G01X50778Y2259D01*
G01X50784Y2213D01*
G01X50791Y2167D01*
G01X50801Y2125D01*
G01X50811Y2086D01*
G01X50825Y2050D01*
G01X50840Y2018D01*
G01X50858Y1989D01*
G01X50878Y1963D01*
G01X50901Y1941D01*
G01X50925Y1923D01*
G01X50952Y1910D01*
G01X50982Y1903D01*
G01X51015Y1900D01*
G01X51049Y1903D01*
G01X51080Y1910D01*
G01X51108Y1923D01*
G01X51132Y1941D01*
G01X51154Y1963D01*
G01X51174Y1989D01*
G01X51192Y2018D01*
G01X51208Y2050D01*
G01X51221Y2086D01*
G01X51233Y2125D01*
G01X51242Y2167D01*
G01X51249Y2213D01*
G01X51253Y2259D01*
G01X51256Y2307D01*
G01X51258Y2357D01*
G01X51259Y2408D01*
G01X51258Y2459D01*
G01X51256Y2509D01*
G01X51253Y2557D01*
G01X51249Y2604D01*
G01X51242Y2649D01*
G01X51233Y2691D01*
G01X51221Y2730D01*
G01X51208Y2766D01*
G01X51192Y2799D01*
G01X51174Y2828D01*
G01X51154Y2854D01*
G01X51132Y2876D01*
G01X51108Y2893D01*
G01X51080Y2906D01*
G01X51049Y2914D01*
G37*

%LPD*%
G36*
G01X51038Y2563D02*
G01X51013Y2566D01*
G01X50988Y2563D01*
G01X50966Y2556D01*
G01X50947Y2543D01*
G01X50929Y2525D01*
G01X50916Y2504D01*
G01X50906Y2481D01*
G01X50900Y2457D01*
G01X50898Y2431D01*
G01X50900Y2405D01*
G01X50906Y2381D01*
G01X50916Y2359D01*
G01X50929Y2340D01*
G01X50947Y2323D01*
G01X50966Y2311D01*
G01X50988Y2304D01*
G01X51013Y2302D01*
G01X51038Y2304D01*
G01X51060Y2311D01*
G01X51080Y2323D01*
G01X51096Y2340D01*
G01X51111Y2359D01*
G01X51121Y2381D01*
G01X51127Y2405D01*
G01X51129Y2431D01*
G01X51127Y2457D01*
G01X51121Y2481D01*
G01X51111Y2504D01*
G01X51096Y2525D01*
G01X51080Y2543D01*
G01X51060Y2556D01*
G01X51038Y2563D01*
G37*

%LPD*%
G36*
G01X52064Y2062D02*
G01X52031Y2065D01*
G01X51999Y2062D01*
G01X51970Y2053D01*
G01X51944Y2038D01*
G01X51922Y2017D01*
G01X51904Y1993D01*
G01X51891Y1967D01*
G01X51884Y1938D01*
G01X51881Y1908D01*
G01X51884Y1878D01*
G01X51891Y1850D01*
G01X51904Y1825D01*
G01X51922Y1801D01*
G01X51944Y1780D01*
G01X51970Y1765D01*
G01X51999Y1756D01*
G01X52031Y1753D01*
G01X52064Y1756D01*
G01X52093Y1765D01*
G01X52119Y1780D01*
G01X52140Y1801D01*
G01X52158Y1825D01*
G01X52171Y1851D01*
G01X52178Y1878D01*
G01X52181Y1908D01*
G01X52178Y1938D01*
G01X52171Y1967D01*
G01X52158Y1993D01*
G01X52140Y2017D01*
G01X52119Y2038D01*
G01X52093Y2053D01*
G01X52064Y2062D01*
G37*

%LPD*%
G36*
G01X57056Y3061D02*
G01X57002Y3064D01*
G01X56965Y3062D01*
G01X56927Y3058D01*
G01X56889Y3052D01*
G01X56850Y3043D01*
G01X56810Y3031D01*
G01X56771Y3016D01*
G01X56733Y2998D01*
G01X56695Y2977D01*
G01X56745Y2840D01*
G01X56874Y2897D01*
G01X56997Y2916D01*
G01X57037Y2914D01*
G01X57076Y2907D01*
G01X57113Y2896D01*
G01X57147Y2881D01*
G01X57179Y2861D01*
G01X57208Y2837D01*
G01X57235Y2810D01*
G01X57258Y2779D01*
G01X57280Y2743D01*
G01X57299Y2704D01*
G01X57316Y2662D01*
G01X57330Y2616D01*
G01X57341Y2569D01*
G01X57349Y2518D01*
G01X57353Y2465D01*
G01X57355Y2408D01*
G01X57353Y2346D01*
G01X57349Y2287D01*
G01X57341Y2232D01*
G01X57330Y2182D01*
G01X57314Y2137D01*
G01X57297Y2096D01*
G01X57276Y2058D01*
G01X57253Y2025D01*
G01X57227Y1995D01*
G01X57199Y1969D01*
G01X57169Y1948D01*
G01X57137Y1931D01*
G01X57101Y1917D01*
G01X57065Y1908D01*
G01X57028Y1902D01*
G01X56989Y1900D01*
G01X56959Y1901D01*
G01X56928Y1904D01*
G01X56896Y1909D01*
G01X56865Y1915D01*
G01X56832Y1925D01*
G01X56798Y1936D01*
G01X56764Y1951D01*
G01X56730Y1969D01*
G01X56684Y1832D01*
G01X56720Y1812D01*
G01X56758Y1796D01*
G01X56797Y1782D01*
G01X56837Y1771D01*
G01X56878Y1763D01*
G01X56921Y1757D01*
G01X56964Y1754D01*
G01X57010Y1753D01*
G01X57064Y1755D01*
G01X57117Y1763D01*
G01X57167Y1774D01*
G01X57215Y1791D01*
G01X57260Y1814D01*
G01X57303Y1841D01*
G01X57342Y1873D01*
G01X57378Y1910D01*
G01X57410Y1954D01*
G01X57439Y2002D01*
G01X57465Y2057D01*
G01X57487Y2116D01*
G01X57518Y2251D01*
G01X57528Y2408D01*
G01X57517Y2559D01*
G01X57485Y2690D01*
G01X57462Y2749D01*
G01X57436Y2802D01*
G01X57406Y2852D01*
G01X57373Y2896D01*
G01X57336Y2935D01*
G01X57296Y2970D01*
G01X57252Y2999D01*
G01X57205Y3023D01*
G01X57157Y3041D01*
G01X57108Y3053D01*
G01X57056Y3061D01*
G37*

%LPD*%

%LPD*%
G36*
G01X96476Y61784D02*
G01X96278Y61798D01*
G01X96079Y61784D01*
G01X95912Y61743D01*
G01X95777Y61679D01*
G01X95668Y61595D01*
G01X95589Y61493D01*
G01X95534Y61374D01*
G01X95501Y61240D01*
G01X95491Y61095D01*
G01X95500Y60939D01*
G01X95529Y60782D01*
G01X97027Y60782D01*
G01X97056Y60939D01*
G01X97065Y61095D01*
G01X97055Y61240D01*
G01X97022Y61374D01*
G01X96967Y61493D01*
G01X96885Y61595D01*
G01X96777Y61679D01*
G01X96641Y61743D01*
G01X96476Y61784D01*
G37*

%LPC*%
G36*
G01X96425Y61580D02*
G01X96278Y61588D01*
G01X96127Y61580D01*
G01X95999Y61555D01*
G01X95944Y61536D01*
G01X95894Y61515D01*
G01X95850Y61491D01*
G01X95811Y61463D01*
G01X95776Y61431D01*
G01X95747Y61396D01*
G01X95722Y61358D01*
G01X95701Y61316D01*
G01X95687Y61270D01*
G01X95676Y61221D01*
G01X95670Y61170D01*
G01X95668Y61115D01*
G01X95669Y61083D01*
G01X95670Y61050D01*
G01X95672Y61019D01*
G01X95676Y60988D01*
G01X96880Y60988D01*
G01X96882Y61000D01*
G01X96886Y61028D01*
G01X96888Y61044D01*
G01X96888Y61108D01*
G01X96878Y61218D01*
G01X96851Y61315D01*
G01X96805Y61398D01*
G01X96740Y61466D01*
G01X96656Y61519D01*
G01X96551Y61557D01*
G01X96425Y61580D01*
G37*

%LPD*%
G36*
G01X95547Y60534D02*
G01X95503Y60554D01*
G01X95503Y60335D01*
G01X95593Y60296D01*
G01X95680Y60256D01*
G01X95765Y60214D01*
G01X95849Y60170D01*
G01X95998Y60083D01*
G01X96115Y60000D01*
G01X96114Y59992D01*
G01X96113Y59982D01*
G01X96113Y59741D01*
G01X95503Y59741D01*
G01X95503Y59535D01*
G01X97027Y59535D01*
G01X97032Y59555D01*
G01X97037Y59576D01*
G01X97041Y59598D01*
G01X97045Y59622D01*
G01X97052Y59670D01*
G01X97055Y59695D01*
G01X97058Y59721D01*
G01X97059Y59746D01*
G01X97060Y59772D01*
G01X97062Y59797D01*
G01X97064Y59847D01*
G01X97065Y59870D01*
G01X97065Y59911D01*
G01X97058Y60043D01*
G01X97035Y60158D01*
G01X96997Y60254D01*
G01X96943Y60333D01*
G01X96875Y60395D01*
G01X96791Y60440D01*
G01X96692Y60466D01*
G01X96578Y60475D01*
G01X96444Y60456D01*
G01X96326Y60399D01*
G01X96230Y60312D01*
G01X96159Y60198D01*
G01X96127Y60217D01*
G01X96094Y60237D01*
G01X96058Y60259D01*
G01X96021Y60282D01*
G01X95983Y60305D01*
G01X95943Y60328D01*
G01X95902Y60351D01*
G01X95859Y60374D01*
G01X95771Y60421D01*
G01X95726Y60445D01*
G01X95636Y60491D01*
G01X95591Y60513D01*
G01X95547Y60534D01*
G37*

%LPC*%
G36*
G01X96632Y60263D02*
G01X96588Y60264D01*
G01X96543Y60263D01*
G01X96502Y60257D01*
G01X96467Y60249D01*
G01X96435Y60236D01*
G01X96407Y60222D01*
G01X96383Y60204D01*
G01X96361Y60183D01*
G01X96341Y60158D01*
G01X96326Y60131D01*
G01X96314Y60102D01*
G01X96303Y60070D01*
G01X96296Y60036D01*
G01X96290Y59999D01*
G01X96286Y59960D01*
G01X96284Y59919D01*
G01X96283Y59876D01*
G01X96283Y59741D01*
G01X96880Y59741D01*
G01X96882Y59754D01*
G01X96884Y59772D01*
G01X96886Y59792D01*
G01X96888Y59817D01*
G01X96888Y59929D01*
G01X96887Y59963D01*
G01X96884Y59996D01*
G01X96880Y60028D01*
G01X96875Y60059D01*
G01X96866Y60088D01*
G01X96855Y60115D01*
G01X96842Y60141D01*
G01X96827Y60165D01*
G01X96808Y60187D01*
G01X96787Y60206D01*
G01X96763Y60222D01*
G01X96735Y60236D01*
G01X96705Y60249D01*
G01X96671Y60257D01*
G01X96632Y60263D01*
G37*

%LPD*%
G36*
G01X95675Y59330D02*
G01X95503Y59375D01*
G01X95503Y59157D01*
G01X95907Y59065D01*
G01X95907Y58469D01*
G01X95503Y58380D01*
G01X95503Y58169D01*
G01X95675Y58215D01*
G01X95861Y58265D01*
G01X95958Y58292D01*
G01X96056Y58319D01*
G01X96155Y58349D01*
G01X96255Y58380D01*
G01X96458Y58442D01*
G01X96661Y58507D01*
G01X96762Y58541D01*
G01X96860Y58576D01*
G01X96956Y58612D01*
G01X97050Y58649D01*
G01X97050Y58905D01*
G01X96956Y58940D01*
G01X96860Y58975D01*
G01X96762Y59009D01*
G01X96661Y59043D01*
G01X96560Y59075D01*
G01X96458Y59107D01*
G01X96357Y59139D01*
G01X96255Y59170D01*
G01X96155Y59199D01*
G01X96056Y59226D01*
G01X95958Y59253D01*
G01X95861Y59279D01*
G01X95675Y59330D01*
G37*

%LPC*%
G36*
G01X96189Y58988D02*
G01X96077Y59017D01*
G01X96077Y58517D01*
G01X96187Y58548D01*
G01X96295Y58579D01*
G01X96401Y58611D01*
G01X96507Y58644D01*
G01X96607Y58677D01*
G01X96700Y58710D01*
G01X96788Y58741D01*
G01X96870Y58771D01*
G01X96705Y58829D01*
G01X96512Y58893D01*
G01X96406Y58925D01*
G01X96299Y58957D01*
G01X96189Y58988D01*
G37*

%LPD*%
G36*
G01X96473Y58067D02*
G01X96278Y58077D01*
G01X96084Y58067D01*
G01X95917Y58037D01*
G01X95778Y57986D01*
G01X95666Y57922D01*
G01X95620Y57884D01*
G01X95579Y57842D01*
G01X95546Y57796D01*
G01X95518Y57747D01*
G01X95497Y57695D01*
G01X95482Y57640D01*
G01X95473Y57582D01*
G01X95470Y57521D01*
G01X95473Y57460D01*
G01X95482Y57402D01*
G01X95497Y57347D01*
G01X95518Y57295D01*
G01X95546Y57247D01*
G01X95579Y57202D01*
G01X95620Y57161D01*
G01X95666Y57122D01*
G01X95778Y57057D01*
G01X95917Y57011D01*
G01X96084Y56980D01*
G01X96278Y56970D01*
G01X96473Y56980D01*
G01X96639Y57011D01*
G01X96778Y57057D01*
G01X96890Y57122D01*
G01X96936Y57161D01*
G01X96976Y57202D01*
G01X97010Y57247D01*
G01X97037Y57295D01*
G01X97059Y57347D01*
G01X97073Y57402D01*
G01X97083Y57460D01*
G01X97086Y57521D01*
G01X97083Y57582D01*
G01X97073Y57640D01*
G01X97059Y57695D01*
G01X97037Y57747D01*
G01X97010Y57796D01*
G01X96976Y57842D01*
G01X96936Y57884D01*
G01X96890Y57922D01*
G01X96778Y57986D01*
G01X96639Y58037D01*
G01X96473Y58067D01*
G37*

%LPC*%
G36*
G01X96422Y57861D02*
G01X96278Y57867D01*
G01X96135Y57861D01*
G01X96009Y57845D01*
G01X95901Y57818D01*
G01X95811Y57780D01*
G01X95689Y57669D01*
G01X95648Y57516D01*
G01X95689Y57367D01*
G01X95811Y57262D01*
G01X95901Y57226D01*
G01X96009Y57201D01*
G01X96135Y57186D01*
G01X96278Y57181D01*
G01X96422Y57186D01*
G01X96547Y57201D01*
G01X96655Y57226D01*
G01X96745Y57262D01*
G01X96867Y57367D01*
G01X96908Y57516D01*
G01X96867Y57669D01*
G01X96745Y57780D01*
G01X96655Y57818D01*
G01X96547Y57845D01*
G01X96422Y57861D01*
G37*

%LPD*%
G36*
G01X96092Y56752D02*
G01X95955Y56774D01*
G01X95848Y56765D01*
G01X95754Y56737D01*
G01X95674Y56692D01*
G01X95607Y56627D01*
G01X95556Y56542D01*
G01X95520Y56436D01*
G01X95498Y56307D01*
G01X95491Y56157D01*
G01X95491Y56116D01*
G01X95492Y56094D01*
G01X95493Y56071D01*
G01X95496Y56020D01*
G01X95498Y55995D01*
G01X95501Y55969D01*
G01X95502Y55945D01*
G01X95505Y55920D01*
G01X95507Y55896D01*
G01X95511Y55870D01*
G01X95519Y55822D01*
G01X95524Y55801D01*
G01X95529Y55781D01*
G01X97027Y55781D01*
G01X97032Y55801D01*
G01X97037Y55822D01*
G01X97041Y55844D01*
G01X97045Y55868D01*
G01X97052Y55918D01*
G01X97055Y55944D01*
G01X97058Y55969D01*
G01X97059Y55995D01*
G01X97060Y56019D01*
G01X97062Y56044D01*
G01X97064Y56092D01*
G01X97065Y56114D01*
G01X97065Y56157D01*
G01X97064Y56214D01*
G01X97060Y56268D01*
G01X97054Y56321D01*
G01X97045Y56373D01*
G01X97033Y56421D01*
G01X97019Y56465D01*
G01X97000Y56507D01*
G01X96979Y56546D01*
G01X96953Y56580D01*
G01X96923Y56611D01*
G01X96890Y56638D01*
G01X96852Y56660D01*
G01X96811Y56679D01*
G01X96766Y56693D01*
G01X96716Y56701D01*
G01X96661Y56703D01*
G01X96634Y56702D01*
G01X96607Y56699D01*
G01X96581Y56693D01*
G01X96555Y56685D01*
G01X96530Y56676D01*
G01X96506Y56665D01*
G01X96458Y56637D01*
G01X96436Y56620D01*
G01X96416Y56602D01*
G01X96397Y56583D01*
G01X96380Y56564D01*
G01X96364Y56543D01*
G01X96351Y56521D01*
G01X96338Y56498D01*
G01X96329Y56475D01*
G01X96278Y56591D01*
G01X96199Y56688D01*
G01X96092Y56752D01*
G37*

%LPC*%
G36*
G01X95990Y56567D02*
G01X95953Y56569D01*
G01X95912Y56567D01*
G01X95874Y56560D01*
G01X95841Y56550D01*
G01X95811Y56536D01*
G01X95784Y56518D01*
G01X95760Y56497D01*
G01X95739Y56473D01*
G01X95722Y56447D01*
G01X95706Y56419D01*
G01X95694Y56389D01*
G01X95684Y56357D01*
G01X95676Y56322D01*
G01X95670Y56285D01*
G01X95666Y56248D01*
G01X95664Y56210D01*
G01X95663Y56172D01*
G01X95663Y56135D01*
G01X95664Y56101D01*
G01X95665Y56070D01*
G01X95666Y56043D01*
G01X95668Y56020D01*
G01X95670Y56003D01*
G01X95672Y55993D01*
G01X95673Y55987D01*
G01X96225Y55987D01*
G01X96225Y56198D01*
G01X96224Y56233D01*
G01X96222Y56268D01*
G01X96217Y56303D01*
G01X96212Y56337D01*
G01X96204Y56369D01*
G01X96194Y56400D01*
G01X96181Y56429D01*
G01X96166Y56457D01*
G01X96149Y56481D01*
G01X96130Y56503D01*
G01X96108Y56521D01*
G01X96082Y56538D01*
G01X96055Y56551D01*
G01X96024Y56561D01*
G01X95990Y56567D01*
G37*
G36*
G01X96676Y56496D02*
G01X96644Y56497D01*
G01X96609Y56495D01*
G01X96577Y56490D01*
G01X96549Y56480D01*
G01X96524Y56467D01*
G01X96501Y56451D01*
G01X96481Y56432D01*
G01X96463Y56411D01*
G01X96448Y56388D01*
G01X96435Y56362D01*
G01X96424Y56334D01*
G01X96415Y56305D01*
G01X96407Y56274D01*
G01X96402Y56243D01*
G01X96398Y56212D01*
G01X96396Y56181D01*
G01X96395Y56150D01*
G01X96395Y55987D01*
G01X96882Y55987D01*
G01X96885Y55999D01*
G01X96887Y56014D01*
G01X96889Y56033D01*
G01X96890Y56056D01*
G01X96890Y56170D01*
G01X96889Y56202D01*
G01X96887Y56234D01*
G01X96883Y56265D01*
G01X96877Y56294D01*
G01X96870Y56323D01*
G01X96861Y56350D01*
G01X96850Y56375D01*
G01X96837Y56398D01*
G01X96820Y56419D01*
G01X96802Y56438D01*
G01X96781Y56455D01*
G01X96758Y56470D01*
G01X96733Y56482D01*
G01X96705Y56490D01*
G01X96676Y56496D01*
G37*

%LPD*%
G36*
G01X95679Y54298D02*
G01X95503Y54298D01*
G01X95503Y53376D01*
G01X97050Y53376D01*
G01X97050Y54242D01*
G01X96875Y54242D01*
G01X96875Y53579D01*
G01X96400Y53579D01*
G01X96400Y54161D01*
G01X96225Y54161D01*
G01X96225Y53579D01*
G01X95679Y53579D01*
G01X95679Y54298D01*
G37*

%LPD*%
G36*
G01X96639Y53033D02*
G01X96585Y53035D01*
G01X96471Y53026D01*
G01X96371Y53000D01*
G01X96285Y52955D01*
G01X96212Y52893D01*
G01X96154Y52813D01*
G01X96113Y52715D01*
G01X96088Y52599D01*
G01X96080Y52464D01*
G01X96080Y52284D01*
G01X95503Y52284D01*
G01X95503Y52080D01*
G01X97027Y52080D01*
G01X97032Y52103D01*
G01X97037Y52127D01*
G01X97045Y52179D01*
G01X97049Y52206D01*
G01X97052Y52233D01*
G01X97055Y52259D01*
G01X97058Y52286D01*
G01X97060Y52313D01*
G01X97064Y52365D01*
G01X97065Y52390D01*
G01X97065Y52484D01*
G01X97063Y52551D01*
G01X97057Y52613D01*
G01X97046Y52671D01*
G01X97030Y52726D01*
G01X97011Y52775D01*
G01X96989Y52821D01*
G01X96963Y52862D01*
G01X96933Y52898D01*
G01X96899Y52930D01*
G01X96862Y52958D01*
G01X96823Y52981D01*
G01X96781Y53000D01*
G01X96736Y53016D01*
G01X96689Y53026D01*
G01X96639Y53033D01*
G37*

%LPC*%
G36*
G01X96672Y52815D02*
G01X96578Y52825D01*
G01X96430Y52802D01*
G01X96331Y52733D01*
G01X96274Y52617D01*
G01X96255Y52454D01*
G01X96255Y52284D01*
G01X96880Y52284D01*
G01X96882Y52301D01*
G01X96884Y52322D01*
G01X96886Y52347D01*
G01X96888Y52375D01*
G01X96888Y52500D01*
G01X96879Y52599D01*
G01X96853Y52680D01*
G01X96810Y52743D01*
G01X96750Y52789D01*
G01X96672Y52815D01*
G37*

%LPD*%
G36*
G01X97050Y51641D02*
G01X97050Y51867D01*
G01X96929Y51818D01*
G01X96809Y51765D01*
G01X96690Y51709D01*
G01X96573Y51649D01*
G01X96455Y51586D01*
G01X96334Y51520D01*
G01X96210Y51450D01*
G01X96082Y51377D01*
G01X95503Y51377D01*
G01X95503Y51171D01*
G01X96077Y51171D01*
G01X96202Y51097D01*
G01X96325Y51026D01*
G01X96446Y50960D01*
G01X96565Y50897D01*
G01X96685Y50837D01*
G01X96806Y50780D01*
G01X96927Y50729D01*
G01X97050Y50681D01*
G01X97050Y50909D01*
G01X96947Y50948D01*
G01X96846Y50988D01*
G01X96746Y51031D01*
G01X96649Y51077D01*
G01X96553Y51124D01*
G01X96455Y51173D01*
G01X96356Y51224D01*
G01X96255Y51278D01*
G01X96360Y51333D01*
G01X96463Y51385D01*
G01X96562Y51435D01*
G01X96659Y51481D01*
G01X96756Y51524D01*
G01X96854Y51565D01*
G01X96952Y51604D01*
G01X97050Y51641D01*
G37*

%LPD*%
G36*
G01X97050Y50549D02*
G01X96875Y50549D01*
G01X96875Y50125D01*
G01X95503Y50125D01*
G01X95503Y49919D01*
G01X96875Y49919D01*
G01X96875Y49495D01*
G01X97050Y49495D01*
G01X97050Y50549D01*
G37*

%LPD*%
G36*
G01X96473Y49317D02*
G01X96278Y49327D01*
G01X96084Y49317D01*
G01X95917Y49286D01*
G01X95778Y49238D01*
G01X95666Y49172D01*
G01X95620Y49135D01*
G01X95579Y49093D01*
G01X95546Y49047D01*
G01X95518Y48997D01*
G01X95497Y48945D01*
G01X95482Y48890D01*
G01X95473Y48833D01*
G01X95470Y48773D01*
G01X95473Y48711D01*
G01X95482Y48652D01*
G01X95497Y48597D01*
G01X95518Y48545D01*
G01X95546Y48497D01*
G01X95579Y48452D01*
G01X95620Y48411D01*
G01X95666Y48372D01*
G01X95778Y48309D01*
G01X95917Y48260D01*
G01X96084Y48230D01*
G01X96278Y48220D01*
G01X96473Y48230D01*
G01X96639Y48260D01*
G01X96778Y48309D01*
G01X96890Y48372D01*
G01X96936Y48411D01*
G01X96976Y48452D01*
G01X97010Y48497D01*
G01X97037Y48545D01*
G01X97059Y48597D01*
G01X97073Y48652D01*
G01X97083Y48711D01*
G01X97086Y48773D01*
G01X97083Y48833D01*
G01X97073Y48890D01*
G01X97059Y48945D01*
G01X97037Y48997D01*
G01X97010Y49047D01*
G01X96976Y49093D01*
G01X96936Y49135D01*
G01X96890Y49172D01*
G01X96778Y49238D01*
G01X96639Y49286D01*
G01X96473Y49317D01*
G37*

%LPC*%
G36*
G01X96422Y49111D02*
G01X96278Y49116D01*
G01X96135Y49111D01*
G01X96009Y49094D01*
G01X95901Y49067D01*
G01X95811Y49030D01*
G01X95689Y48921D01*
G01X95648Y48768D01*
G01X95689Y48618D01*
G01X95811Y48512D01*
G01X95901Y48476D01*
G01X96009Y48451D01*
G01X96135Y48436D01*
G01X96278Y48430D01*
G01X96422Y48436D01*
G01X96547Y48451D01*
G01X96655Y48476D01*
G01X96745Y48512D01*
G01X96867Y48618D01*
G01X96908Y48768D01*
G01X96867Y48921D01*
G01X96745Y49030D01*
G01X96655Y49067D01*
G01X96547Y49094D01*
G01X96422Y49111D01*
G37*

%LPD*%
G36*
G01X97050Y48049D02*
G01X96875Y48049D01*
G01X96875Y47625D01*
G01X95503Y47625D01*
G01X95503Y47420D01*
G01X96875Y47420D01*
G01X96875Y46995D01*
G01X97050Y46995D01*
G01X97050Y48049D01*
G37*

%LPD*%
G36*
G01X96473Y46818D02*
G01X96278Y46828D01*
G01X96084Y46818D01*
G01X95917Y46787D01*
G01X95778Y46737D01*
G01X95666Y46673D01*
G01X95620Y46634D01*
G01X95579Y46592D01*
G01X95546Y46547D01*
G01X95518Y46498D01*
G01X95497Y46445D01*
G01X95482Y46390D01*
G01X95473Y46332D01*
G01X95470Y46271D01*
G01X95473Y46210D01*
G01X95482Y46153D01*
G01X95497Y46098D01*
G01X95518Y46045D01*
G01X95546Y45997D01*
G01X95579Y45951D01*
G01X95620Y45910D01*
G01X95666Y45873D01*
G01X95778Y45808D01*
G01X95917Y45761D01*
G01X96084Y45730D01*
G01X96278Y45720D01*
G01X96473Y45730D01*
G01X96639Y45761D01*
G01X96778Y45808D01*
G01X96890Y45873D01*
G01X96936Y45910D01*
G01X96976Y45951D01*
G01X97010Y45997D01*
G01X97037Y46045D01*
G01X97059Y46098D01*
G01X97073Y46153D01*
G01X97083Y46210D01*
G01X97086Y46271D01*
G01X97083Y46332D01*
G01X97073Y46390D01*
G01X97059Y46445D01*
G01X97037Y46498D01*
G01X97010Y46547D01*
G01X96976Y46592D01*
G01X96936Y46634D01*
G01X96890Y46673D01*
G01X96778Y46737D01*
G01X96639Y46787D01*
G01X96473Y46818D01*
G37*

%LPC*%
G36*
G01X96422Y46611D02*
G01X96278Y46617D01*
G01X96135Y46611D01*
G01X96009Y46595D01*
G01X95901Y46568D01*
G01X95811Y46531D01*
G01X95689Y46420D01*
G01X95648Y46266D01*
G01X95689Y46117D01*
G01X95811Y46012D01*
G01X95901Y45976D01*
G01X96009Y45949D01*
G01X96135Y45934D01*
G01X96278Y45929D01*
G01X96422Y45934D01*
G01X96547Y45949D01*
G01X96655Y45976D01*
G01X96745Y46012D01*
G01X96867Y46117D01*
G01X96908Y46266D01*
G01X96867Y46420D01*
G01X96745Y46531D01*
G01X96655Y46568D01*
G01X96547Y46595D01*
G01X96422Y46611D01*
G37*

%LPD*%
G36*
G01X95591Y45513D02*
G01X95503Y45555D01*
G01X95503Y45334D01*
G01X95593Y45297D01*
G01X95680Y45256D01*
G01X95765Y45215D01*
G01X95849Y45172D01*
G01X95998Y45084D01*
G01X96115Y44999D01*
G01X96113Y44981D01*
G01X96113Y44742D01*
G01X95503Y44742D01*
G01X95503Y44534D01*
G01X97027Y44534D01*
G01X97032Y44554D01*
G01X97037Y44575D01*
G01X97041Y44597D01*
G01X97045Y44620D01*
G01X97049Y44645D01*
G01X97052Y44670D01*
G01X97058Y44722D01*
G01X97060Y44772D01*
G01X97062Y44797D01*
G01X97063Y44821D01*
G01X97064Y44846D01*
G01X97065Y44869D01*
G01X97065Y44913D01*
G01X97058Y45044D01*
G01X97035Y45157D01*
G01X96997Y45254D01*
G01X96943Y45334D01*
G01X96875Y45395D01*
G01X96791Y45439D01*
G01X96692Y45465D01*
G01X96578Y45474D01*
G01X96444Y45456D01*
G01X96326Y45400D01*
G01X96230Y45311D01*
G01X96159Y45197D01*
G01X96127Y45216D01*
G01X96094Y45237D01*
G01X96058Y45258D01*
G01X96021Y45281D01*
G01X95983Y45304D01*
G01X95943Y45327D01*
G01X95902Y45351D01*
G01X95859Y45375D01*
G01X95771Y45423D01*
G01X95681Y45469D01*
G01X95591Y45513D01*
G37*

%LPC*%
G36*
G01X96632Y45264D02*
G01X96588Y45266D01*
G01X96543Y45264D01*
G01X96502Y45258D01*
G01X96467Y45250D01*
G01X96435Y45238D01*
G01X96407Y45222D01*
G01X96383Y45204D01*
G01X96361Y45183D01*
G01X96341Y45159D01*
G01X96326Y45132D01*
G01X96314Y45103D01*
G01X96303Y45071D01*
G01X96296Y45037D01*
G01X96290Y45000D01*
G01X96286Y44961D01*
G01X96284Y44919D01*
G01X96283Y44874D01*
G01X96283Y44742D01*
G01X96880Y44742D01*
G01X96882Y44756D01*
G01X96884Y44773D01*
G01X96886Y44794D01*
G01X96888Y44819D01*
G01X96888Y44930D01*
G01X96887Y44963D01*
G01X96884Y44995D01*
G01X96880Y45026D01*
G01X96875Y45057D01*
G01X96866Y45088D01*
G01X96855Y45116D01*
G01X96842Y45141D01*
G01X96827Y45164D01*
G01X96808Y45186D01*
G01X96787Y45205D01*
G01X96763Y45222D01*
G01X96735Y45238D01*
G01X96705Y45250D01*
G01X96671Y45258D01*
G01X96632Y45264D01*
G37*

%LPD*%
G36*
G01X96639Y44283D02*
G01X96585Y44285D01*
G01X96471Y44276D01*
G01X96371Y44250D01*
G01X96285Y44205D01*
G01X96212Y44143D01*
G01X96154Y44063D01*
G01X96113Y43965D01*
G01X96088Y43848D01*
G01X96080Y43714D01*
G01X96080Y43536D01*
G01X95503Y43536D01*
G01X95503Y43330D01*
G01X97027Y43330D01*
G01X97032Y43353D01*
G01X97037Y43378D01*
G01X97041Y43403D01*
G01X97045Y43429D01*
G01X97049Y43456D01*
G01X97052Y43483D01*
G01X97055Y43509D01*
G01X97058Y43536D01*
G01X97060Y43562D01*
G01X97062Y43589D01*
G01X97064Y43615D01*
G01X97065Y43640D01*
G01X97065Y43734D01*
G01X97063Y43801D01*
G01X97057Y43863D01*
G01X97046Y43921D01*
G01X97030Y43975D01*
G01X97011Y44025D01*
G01X96989Y44070D01*
G01X96963Y44111D01*
G01X96933Y44148D01*
G01X96899Y44180D01*
G01X96862Y44208D01*
G01X96823Y44232D01*
G01X96781Y44252D01*
G01X96736Y44266D01*
G01X96689Y44277D01*
G01X96639Y44283D01*
G37*

%LPC*%
G36*
G01X96672Y44065D02*
G01X96578Y44074D01*
G01X96430Y44051D01*
G01X96331Y43983D01*
G01X96274Y43867D01*
G01X96255Y43704D01*
G01X96255Y43536D01*
G01X96880Y43536D01*
G01X96882Y43552D01*
G01X96884Y43572D01*
G01X96886Y43596D01*
G01X96888Y43625D01*
G01X96888Y43749D01*
G01X96879Y43849D01*
G01X96853Y43930D01*
G01X96810Y43993D01*
G01X96750Y44038D01*
G01X96672Y44065D01*
G37*

%LPD*%
G36*
G01X95679Y41743D02*
G01X95503Y41743D01*
G01X95503Y40910D01*
G01X95679Y40910D01*
G01X95679Y41245D01*
G01X96763Y41245D01*
G01X96750Y41230D01*
G01X96738Y41214D01*
G01X96725Y41197D01*
G01X96712Y41179D01*
G01X96700Y41159D01*
G01X96687Y41138D01*
G01X96674Y41116D01*
G01X96661Y41092D01*
G01X96649Y41070D01*
G01X96613Y40998D01*
G01X96602Y40973D01*
G01X96592Y40948D01*
G01X96583Y40924D01*
G01X96575Y40899D01*
G01X96730Y40836D01*
G01X96787Y40961D01*
G01X96857Y41082D01*
G01X96943Y41198D01*
G01X97050Y41306D01*
G01X97050Y41451D01*
G01X95679Y41451D01*
G01X95679Y41743D01*
G37*

%LPD*%
G36*
G01X96235Y40297D02*
G01X96042Y40297D01*
G01X96042Y39746D01*
G01X96235Y39746D01*
G01X96235Y40297D01*
G37*

%LPD*%
G36*
G01X95679Y39297D02*
G01X95503Y39297D01*
G01X95503Y38375D01*
G01X97050Y38375D01*
G01X97050Y39243D01*
G01X96875Y39243D01*
G01X96875Y38580D01*
G01X96400Y38580D01*
G01X96400Y39159D01*
G01X96225Y39159D01*
G01X96225Y38580D01*
G01X95679Y38580D01*
G01X95679Y39297D01*
G37*

%LPD*%
G36*
G01X95679Y38047D02*
G01X95503Y38047D01*
G01X95503Y37125D01*
G01X97050Y37125D01*
G01X97050Y37331D01*
G01X95679Y37331D01*
G01X95679Y38047D01*
G37*

%LPD*%
G36*
G01X96639Y36783D02*
G01X96585Y36785D01*
G01X96471Y36775D01*
G01X96371Y36749D01*
G01X96285Y36704D01*
G01X96212Y36642D01*
G01X96154Y36562D01*
G01X96113Y36465D01*
G01X96088Y36349D01*
G01X96080Y36216D01*
G01X96080Y36035D01*
G01X95503Y36035D01*
G01X95503Y35830D01*
G01X97027Y35830D01*
G01X97032Y35853D01*
G01X97037Y35877D01*
G01X97041Y35902D01*
G01X97045Y35929D01*
G01X97049Y35955D01*
G01X97052Y35982D01*
G01X97055Y36008D01*
G01X97058Y36035D01*
G01X97062Y36089D01*
G01X97064Y36115D01*
G01X97065Y36142D01*
G01X97065Y36236D01*
G01X97063Y36302D01*
G01X97057Y36365D01*
G01X97046Y36423D01*
G01X97030Y36477D01*
G01X97011Y36526D01*
G01X96989Y36571D01*
G01X96963Y36611D01*
G01X96933Y36647D01*
G01X96899Y36680D01*
G01X96862Y36709D01*
G01X96823Y36733D01*
G01X96781Y36752D01*
G01X96736Y36766D01*
G01X96689Y36776D01*
G01X96639Y36783D01*
G37*

%LPC*%
G36*
G01X96672Y36565D02*
G01X96578Y36574D01*
G01X96430Y36551D01*
G01X96331Y36482D01*
G01X96274Y36368D01*
G01X96255Y36205D01*
G01X96255Y36035D01*
G01X96880Y36035D01*
G01X96882Y36052D01*
G01X96884Y36073D01*
G01X96886Y36097D01*
G01X96888Y36124D01*
G01X96888Y36249D01*
G01X96879Y36348D01*
G01X96853Y36429D01*
G01X96810Y36492D01*
G01X96750Y36538D01*
G01X96672Y36565D01*
G37*

%LPD*%
G36*
G01X96639Y35533D02*
G01X96585Y35535D01*
G01X96471Y35526D01*
G01X96371Y35499D01*
G01X96285Y35455D01*
G01X96212Y35393D01*
G01X96154Y35312D01*
G01X96113Y35215D01*
G01X96088Y35099D01*
G01X96080Y34966D01*
G01X96080Y34786D01*
G01X95503Y34786D01*
G01X95503Y34580D01*
G01X97027Y34580D01*
G01X97032Y34603D01*
G01X97037Y34628D01*
G01X97041Y34652D01*
G01X97045Y34679D01*
G01X97049Y34705D01*
G01X97058Y34786D01*
G01X97060Y34812D01*
G01X97062Y34839D01*
G01X97064Y34865D01*
G01X97065Y34892D01*
G01X97065Y34984D01*
G01X97063Y35051D01*
G01X97057Y35114D01*
G01X97046Y35172D01*
G01X97030Y35225D01*
G01X97011Y35275D01*
G01X96989Y35320D01*
G01X96963Y35361D01*
G01X96933Y35398D01*
G01X96899Y35430D01*
G01X96862Y35458D01*
G01X96823Y35482D01*
G01X96781Y35502D01*
G01X96736Y35516D01*
G01X96689Y35527D01*
G01X96639Y35533D01*
G37*

%LPC*%
G36*
G01X96672Y35315D02*
G01X96578Y35324D01*
G01X96430Y35301D01*
G01X96331Y35233D01*
G01X96274Y35118D01*
G01X96255Y34956D01*
G01X96255Y34786D01*
G01X96880Y34786D01*
G01X96882Y34802D01*
G01X96884Y34822D01*
G01X96886Y34846D01*
G01X96888Y34874D01*
G01X96888Y34999D01*
G01X96879Y35098D01*
G01X96853Y35180D01*
G01X96810Y35243D01*
G01X96750Y35288D01*
G01X96672Y35315D01*
G37*

%LPD*%
G36*
G01X95675Y34330D02*
G01X95503Y34374D01*
G01X95503Y34158D01*
G01X95907Y34064D01*
G01X95907Y33470D01*
G01X95503Y33381D01*
G01X95503Y33170D01*
G01X95675Y33215D01*
G01X95861Y33264D01*
G01X95958Y33291D01*
G01X96056Y33319D01*
G01X96155Y33348D01*
G01X96255Y33378D01*
G01X96357Y33409D01*
G01X96458Y33441D01*
G01X96560Y33474D01*
G01X96661Y33508D01*
G01X96762Y33541D01*
G01X96860Y33577D01*
G01X96956Y33613D01*
G01X97050Y33650D01*
G01X97050Y33904D01*
G01X96956Y33941D01*
G01X96860Y33976D01*
G01X96762Y34010D01*
G01X96661Y34044D01*
G01X96560Y34076D01*
G01X96458Y34108D01*
G01X96357Y34139D01*
G01X96255Y34168D01*
G01X96155Y34197D01*
G01X96056Y34225D01*
G01X95958Y34253D01*
G01X95861Y34280D01*
G01X95675Y34330D01*
G37*

%LPC*%
G36*
G01X96189Y33989D02*
G01X96077Y34018D01*
G01X96077Y33518D01*
G01X96187Y33548D01*
G01X96295Y33579D01*
G01X96507Y33645D01*
G01X96607Y33678D01*
G01X96700Y33709D01*
G01X96788Y33740D01*
G01X96870Y33770D01*
G01X96705Y33830D01*
G01X96512Y33894D01*
G01X96406Y33927D01*
G01X96299Y33958D01*
G01X96189Y33989D01*
G37*

%LPD*%
G36*
G01X30225Y92583D02*
G01X30479Y92583D01*
G01X30479Y3493D01*
G01X30225Y3493D01*
G01X30225Y92583D01*
G37*
G36*
G01X91185Y92583D02*
G01X91439Y92583D01*
G01X91439Y3493D01*
G01X91185Y3493D01*
G01X91185Y92583D01*
G37*
M00*
M02*
