;Layer: Drill PTH
;EasyEDA v6.4.7, 2020-11-30T22:22:46+01:00
;33329d85c06a4245a9eb03819dca2e09,5f1b69652c614dc78b77d9171f06c583,10
;Gerber Generator version 0.2
M48
METRIC,LZ,000.000
;Holesize 1 = 0.915 METRIC
T01C0.915
;Holesize 2 = 1.000 METRIC
T02C1.000
%
G05
G90
T01
X+029082Y+091440
X+031622Y+091440
X+034162Y+091440
X+036702Y+091440
X+039242Y+091440
X+029082Y+088900
X+031622Y+088900
X+034162Y+088900
X+036702Y+088900
X+039242Y+088900
X+029082Y+086360
X+031622Y+086360
X+034162Y+086360
X+036702Y+086360
X+039242Y+086360
X+029082Y+083820
X+031622Y+083820
X+034162Y+083820
X+036702Y+083820
X+039242Y+083820
X+029082Y+081280
X+031622Y+081280
X+034162Y+081280
X+036702Y+081280
X+039242Y+081280
X+039242Y+091440
X+041782Y+091440
X+044322Y+091440
X+046862Y+091440
X+049402Y+091440
X+039242Y+088900
X+041782Y+088900
X+044322Y+088900
X+046862Y+088900
X+049402Y+088900
X+039242Y+086360
X+041782Y+086360
X+044322Y+086360
X+046862Y+086360
X+049402Y+086360
X+039242Y+083820
X+041782Y+083820
X+044322Y+083820
X+046862Y+083820
X+049402Y+083820
X+039242Y+081280
X+041782Y+081280
X+044322Y+081280
X+046862Y+081280
X+049402Y+081280
X+059562Y+091440
X+062102Y+091440
X+064642Y+091440
X+067182Y+091440
X+069722Y+091440
X+059562Y+088900
X+062102Y+088900
X+064642Y+088900
X+067182Y+088900
X+069722Y+088900
X+059562Y+086360
X+062102Y+086360
X+064642Y+086360
X+067182Y+086360
X+069722Y+086360
X+059562Y+083820
X+062102Y+083820
X+064642Y+083820
X+067182Y+083820
X+069722Y+083820
X+059562Y+081280
X+062102Y+081280
X+064642Y+081280
X+067182Y+081280
X+069722Y+081280
X+049402Y+091440
X+051942Y+091440
X+054482Y+091440
X+057022Y+091440
X+059562Y+091440
X+049402Y+088900
X+051942Y+088900
X+054482Y+088900
X+057022Y+088900
X+059562Y+088900
X+049402Y+086360
X+051942Y+086360
X+054482Y+086360
X+057022Y+086360
X+059562Y+086360
X+049402Y+083820
X+051942Y+083820
X+054482Y+083820
X+057022Y+083820
X+059562Y+083820
X+049402Y+081280
X+051942Y+081280
X+054482Y+081280
X+057022Y+081280
X+059562Y+081280
X+069722Y+091440
X+072262Y+091440
X+074802Y+091440
X+077342Y+091440
X+079882Y+091440
X+069722Y+088900
X+072262Y+088900
X+074802Y+088900
X+077342Y+088900
X+079882Y+088900
X+069722Y+086360
X+072262Y+086360
X+074802Y+086360
X+077342Y+086360
X+079882Y+086360
X+069722Y+083820
X+072262Y+083820
X+074802Y+083820
X+077342Y+083820
X+079882Y+083820
X+069722Y+081280
X+072262Y+081280
X+074802Y+081280
X+077342Y+081280
X+079882Y+081280
X+079882Y+091440
X+082422Y+091440
X+084962Y+091440
X+087502Y+091440
X+090042Y+091440
X+079882Y+088900
X+082422Y+088900
X+084962Y+088900
X+087502Y+088900
X+090042Y+088900
X+079882Y+086360
X+082422Y+086360
X+084962Y+086360
X+087502Y+086360
X+090042Y+086360
X+079882Y+083820
X+082422Y+083820
X+084962Y+083820
X+087502Y+083820
X+090042Y+083820
X+079882Y+081280
X+082422Y+081280
X+084962Y+081280
X+087502Y+081280
X+090042Y+081280
X+082422Y+091440
X+084962Y+091440
X+087502Y+091440
X+090042Y+091440
X+092582Y+091440
X+082422Y+088900
X+084962Y+088900
X+087502Y+088900
X+090042Y+088900
X+092582Y+088900
X+082422Y+086360
X+084962Y+086360
X+087502Y+086360
X+090042Y+086360
X+092582Y+086360
X+082422Y+083820
X+084962Y+083820
X+087502Y+083820
X+090042Y+083820
X+092582Y+083820
X+082422Y+081280
X+084962Y+081280
X+087502Y+081280
X+090042Y+081280
X+092582Y+081280
X+082422Y+081280
X+084962Y+081280
X+087502Y+081280
X+090042Y+081280
X+092582Y+081280
X+082422Y+078740
X+084962Y+078740
X+087502Y+078740
X+090042Y+078740
X+092582Y+078740
X+082422Y+076200
X+084962Y+076200
X+087502Y+076200
X+090042Y+076200
X+092582Y+076200
X+082422Y+073660
X+084962Y+073660
X+087502Y+073660
X+090042Y+073660
X+092582Y+073660
X+082422Y+071120
X+084962Y+071120
X+087502Y+071120
X+090042Y+071120
X+092582Y+071120
X+079882Y+081280
X+082422Y+081280
X+084962Y+081280
X+087502Y+081280
X+090042Y+081280
X+079882Y+078740
X+082422Y+078740
X+084962Y+078740
X+087502Y+078740
X+090042Y+078740
X+079882Y+076200
X+082422Y+076200
X+084962Y+076200
X+087502Y+076200
X+090042Y+076200
X+079882Y+073660
X+082422Y+073660
X+084962Y+073660
X+087502Y+073660
X+090042Y+073660
X+079882Y+071120
X+082422Y+071120
X+084962Y+071120
X+087502Y+071120
X+090042Y+071120
X+069722Y+081280
X+072262Y+081280
X+074802Y+081280
X+077342Y+081280
X+079882Y+081280
X+069722Y+078740
X+072262Y+078740
X+074802Y+078740
X+077342Y+078740
X+079882Y+078740
X+069722Y+076200
X+072262Y+076200
X+074802Y+076200
X+077342Y+076200
X+079882Y+076200
X+069722Y+073660
X+072262Y+073660
X+074802Y+073660
X+077342Y+073660
X+079882Y+073660
X+069722Y+071120
X+072262Y+071120
X+074802Y+071120
X+077342Y+071120
X+079882Y+071120
X+049402Y+081280
X+051942Y+081280
X+054482Y+081280
X+057022Y+081280
X+059562Y+081280
X+049402Y+078740
X+051942Y+078740
X+054482Y+078740
X+057022Y+078740
X+059562Y+078740
X+049402Y+076200
X+051942Y+076200
X+054482Y+076200
X+057022Y+076200
X+059562Y+076200
X+049402Y+073660
X+051942Y+073660
X+054482Y+073660
X+057022Y+073660
X+059562Y+073660
X+049402Y+071120
X+051942Y+071120
X+054482Y+071120
X+057022Y+071120
X+059562Y+071120
X+059562Y+081280
X+062102Y+081280
X+064642Y+081280
X+067182Y+081280
X+069722Y+081280
X+059562Y+078740
X+062102Y+078740
X+064642Y+078740
X+067182Y+078740
X+069722Y+078740
X+059562Y+076200
X+062102Y+076200
X+064642Y+076200
X+067182Y+076200
X+069722Y+076200
X+059562Y+073660
X+062102Y+073660
X+064642Y+073660
X+067182Y+073660
X+069722Y+073660
X+059562Y+071120
X+062102Y+071120
X+064642Y+071120
X+067182Y+071120
X+069722Y+071120
X+039242Y+081280
X+041782Y+081280
X+044322Y+081280
X+046862Y+081280
X+049402Y+081280
X+039242Y+078740
X+041782Y+078740
X+044322Y+078740
X+046862Y+078740
X+049402Y+078740
X+039242Y+076200
X+041782Y+076200
X+044322Y+076200
X+046862Y+076200
X+049402Y+076200
X+039242Y+073660
X+041782Y+073660
X+044322Y+073660
X+046862Y+073660
X+049402Y+073660
X+039242Y+071120
X+041782Y+071120
X+044322Y+071120
X+046862Y+071120
X+049402Y+071120
X+029082Y+081280
X+031622Y+081280
X+034162Y+081280
X+036702Y+081280
X+039242Y+081280
X+029082Y+078740
X+031622Y+078740
X+034162Y+078740
X+036702Y+078740
X+039242Y+078740
X+029082Y+076200
X+031622Y+076200
X+034162Y+076200
X+036702Y+076200
X+039242Y+076200
X+029082Y+073660
X+031622Y+073660
X+034162Y+073660
X+036702Y+073660
X+039242Y+073660
X+029082Y+071120
X+031622Y+071120
X+034162Y+071120
X+036702Y+071120
X+039242Y+071120
X+029082Y+060960
X+031622Y+060960
X+034162Y+060960
X+036702Y+060960
X+039242Y+060960
X+029082Y+058420
X+031622Y+058420
X+034162Y+058420
X+036702Y+058420
X+039242Y+058420
X+029082Y+055880
X+031622Y+055880
X+034162Y+055880
X+036702Y+055880
X+039242Y+055880
X+029082Y+053340
X+031622Y+053340
X+034162Y+053340
X+036702Y+053340
X+039242Y+053340
X+029082Y+050800
X+031622Y+050800
X+034162Y+050800
X+036702Y+050800
X+039242Y+050800
X+039242Y+060960
X+041782Y+060960
X+044322Y+060960
X+046862Y+060960
X+049402Y+060960
X+039242Y+058420
X+041782Y+058420
X+044322Y+058420
X+046862Y+058420
X+049402Y+058420
X+039242Y+055880
X+041782Y+055880
X+044322Y+055880
X+046862Y+055880
X+049402Y+055880
X+039242Y+053340
X+041782Y+053340
X+044322Y+053340
X+046862Y+053340
X+049402Y+053340
X+039242Y+050800
X+041782Y+050800
X+044322Y+050800
X+046862Y+050800
X+049402Y+050800
X+059562Y+060960
X+062102Y+060960
X+064642Y+060960
X+067182Y+060960
X+069722Y+060960
X+059562Y+058420
X+062102Y+058420
X+064642Y+058420
X+067182Y+058420
X+069722Y+058420
X+059562Y+055880
X+062102Y+055880
X+064642Y+055880
X+067182Y+055880
X+069722Y+055880
X+059562Y+053340
X+062102Y+053340
X+064642Y+053340
X+067182Y+053340
X+069722Y+053340
X+059562Y+050800
X+062102Y+050800
X+064642Y+050800
X+067182Y+050800
X+069722Y+050800
X+049402Y+060960
X+051942Y+060960
X+054482Y+060960
X+057022Y+060960
X+059562Y+060960
X+049402Y+058420
X+051942Y+058420
X+054482Y+058420
X+057022Y+058420
X+059562Y+058420
X+049402Y+055880
X+051942Y+055880
X+054482Y+055880
X+057022Y+055880
X+059562Y+055880
X+049402Y+053340
X+051942Y+053340
X+054482Y+053340
X+057022Y+053340
X+059562Y+053340
X+049402Y+050800
X+051942Y+050800
X+054482Y+050800
X+057022Y+050800
X+059562Y+050800
X+069722Y+060960
X+072262Y+060960
X+074802Y+060960
X+077342Y+060960
X+079882Y+060960
X+069722Y+058420
X+072262Y+058420
X+074802Y+058420
X+077342Y+058420
X+079882Y+058420
X+069722Y+055880
X+072262Y+055880
X+074802Y+055880
X+077342Y+055880
X+079882Y+055880
X+069722Y+053340
X+072262Y+053340
X+074802Y+053340
X+077342Y+053340
X+079882Y+053340
X+069722Y+050800
X+072262Y+050800
X+074802Y+050800
X+077342Y+050800
X+079882Y+050800
X+079882Y+060960
X+082422Y+060960
X+084962Y+060960
X+087502Y+060960
X+090042Y+060960
X+079882Y+058420
X+082422Y+058420
X+084962Y+058420
X+087502Y+058420
X+090042Y+058420
X+079882Y+055880
X+082422Y+055880
X+084962Y+055880
X+087502Y+055880
X+090042Y+055880
X+079882Y+053340
X+082422Y+053340
X+084962Y+053340
X+087502Y+053340
X+090042Y+053340
X+079882Y+050800
X+082422Y+050800
X+084962Y+050800
X+087502Y+050800
X+090042Y+050800
X+082422Y+060960
X+084962Y+060960
X+087502Y+060960
X+090042Y+060960
X+092582Y+060960
X+082422Y+058420
X+084962Y+058420
X+087502Y+058420
X+090042Y+058420
X+092582Y+058420
X+082422Y+055880
X+084962Y+055880
X+087502Y+055880
X+090042Y+055880
X+092582Y+055880
X+082422Y+053340
X+084962Y+053340
X+087502Y+053340
X+090042Y+053340
X+092582Y+053340
X+082422Y+050800
X+084962Y+050800
X+087502Y+050800
X+090042Y+050800
X+092582Y+050800
X+082422Y+071120
X+084962Y+071120
X+087502Y+071120
X+090042Y+071120
X+092582Y+071120
X+082422Y+068580
X+084962Y+068580
X+087502Y+068580
X+090042Y+068580
X+092582Y+068580
X+082422Y+066040
X+084962Y+066040
X+087502Y+066040
X+090042Y+066040
X+092582Y+066040
X+082422Y+063500
X+084962Y+063500
X+087502Y+063500
X+090042Y+063500
X+092582Y+063500
X+082422Y+060960
X+084962Y+060960
X+087502Y+060960
X+090042Y+060960
X+092582Y+060960
X+079882Y+071120
X+082422Y+071120
X+084962Y+071120
X+087502Y+071120
X+090042Y+071120
X+079882Y+068580
X+082422Y+068580
X+084962Y+068580
X+087502Y+068580
X+090042Y+068580
X+079882Y+066040
X+082422Y+066040
X+084962Y+066040
X+087502Y+066040
X+090042Y+066040
X+079882Y+063500
X+082422Y+063500
X+084962Y+063500
X+087502Y+063500
X+090042Y+063500
X+079882Y+060960
X+082422Y+060960
X+084962Y+060960
X+087502Y+060960
X+090042Y+060960
X+069722Y+071120
X+072262Y+071120
X+074802Y+071120
X+077342Y+071120
X+079882Y+071120
X+069722Y+068580
X+072262Y+068580
X+074802Y+068580
X+077342Y+068580
X+079882Y+068580
X+069722Y+066040
X+072262Y+066040
X+074802Y+066040
X+077342Y+066040
X+079882Y+066040
X+069722Y+063500
X+072262Y+063500
X+074802Y+063500
X+077342Y+063500
X+079882Y+063500
X+069722Y+060960
X+072262Y+060960
X+074802Y+060960
X+077342Y+060960
X+079882Y+060960
X+049402Y+071120
X+051942Y+071120
X+054482Y+071120
X+057022Y+071120
X+059562Y+071120
X+049402Y+068580
X+051942Y+068580
X+054482Y+068580
X+057022Y+068580
X+059562Y+068580
X+049402Y+066040
X+051942Y+066040
X+054482Y+066040
X+057022Y+066040
X+059562Y+066040
X+049402Y+063500
X+051942Y+063500
X+054482Y+063500
X+057022Y+063500
X+059562Y+063500
X+049402Y+060960
X+051942Y+060960
X+054482Y+060960
X+057022Y+060960
X+059562Y+060960
X+059562Y+071120
X+062102Y+071120
X+064642Y+071120
X+067182Y+071120
X+069722Y+071120
X+059562Y+068580
X+062102Y+068580
X+064642Y+068580
X+067182Y+068580
X+069722Y+068580
X+059562Y+066040
X+062102Y+066040
X+064642Y+066040
X+067182Y+066040
X+069722Y+066040
X+059562Y+063500
X+062102Y+063500
X+064642Y+063500
X+067182Y+063500
X+069722Y+063500
X+059562Y+060960
X+062102Y+060960
X+064642Y+060960
X+067182Y+060960
X+069722Y+060960
X+039242Y+071120
X+041782Y+071120
X+044322Y+071120
X+046862Y+071120
X+049402Y+071120
X+039242Y+068580
X+041782Y+068580
X+044322Y+068580
X+046862Y+068580
X+049402Y+068580
X+039242Y+066040
X+041782Y+066040
X+044322Y+066040
X+046862Y+066040
X+049402Y+066040
X+039242Y+063500
X+041782Y+063500
X+044322Y+063500
X+046862Y+063500
X+049402Y+063500
X+039242Y+060960
X+041782Y+060960
X+044322Y+060960
X+046862Y+060960
X+049402Y+060960
X+029082Y+071120
X+031622Y+071120
X+034162Y+071120
X+036702Y+071120
X+039242Y+071120
X+029082Y+068580
X+031622Y+068580
X+034162Y+068580
X+036702Y+068580
X+039242Y+068580
X+029082Y+066040
X+031622Y+066040
X+034162Y+066040
X+036702Y+066040
X+039242Y+066040
X+029082Y+063500
X+031622Y+063500
X+034162Y+063500
X+036702Y+063500
X+039242Y+063500
X+029082Y+060960
X+031622Y+060960
X+034162Y+060960
X+036702Y+060960
X+039242Y+060960
X+029082Y+030480
X+031622Y+030480
X+034162Y+030480
X+036702Y+030480
X+039242Y+030480
X+029082Y+027940
X+031622Y+027940
X+034162Y+027940
X+036702Y+027940
X+039242Y+027940
X+029082Y+025400
X+031622Y+025400
X+034162Y+025400
X+036702Y+025400
X+039242Y+025400
X+029082Y+022860
X+031622Y+022860
X+034162Y+022860
X+036702Y+022860
X+039242Y+022860
X+029082Y+020320
X+031622Y+020320
X+034162Y+020320
X+036702Y+020320
X+039242Y+020320
X+039242Y+030480
X+041782Y+030480
X+044322Y+030480
X+046862Y+030480
X+049402Y+030480
X+039242Y+027940
X+041782Y+027940
X+044322Y+027940
X+046862Y+027940
X+049402Y+027940
X+039242Y+025400
X+041782Y+025400
X+044322Y+025400
X+046862Y+025400
X+049402Y+025400
X+039242Y+022860
X+041782Y+022860
X+044322Y+022860
X+046862Y+022860
X+049402Y+022860
X+039242Y+020320
X+041782Y+020320
X+044322Y+020320
X+046862Y+020320
X+049402Y+020320
X+059562Y+030480
X+062102Y+030480
X+064642Y+030480
X+067182Y+030480
X+069722Y+030480
X+059562Y+027940
X+062102Y+027940
X+064642Y+027940
X+067182Y+027940
X+069722Y+027940
X+059562Y+025400
X+062102Y+025400
X+064642Y+025400
X+067182Y+025400
X+069722Y+025400
X+059562Y+022860
X+062102Y+022860
X+064642Y+022860
X+067182Y+022860
X+069722Y+022860
X+059562Y+020320
X+062102Y+020320
X+064642Y+020320
X+067182Y+020320
X+069722Y+020320
X+049402Y+030480
X+051942Y+030480
X+054482Y+030480
X+057022Y+030480
X+059562Y+030480
X+049402Y+027940
X+051942Y+027940
X+054482Y+027940
X+057022Y+027940
X+059562Y+027940
X+049402Y+025400
X+051942Y+025400
X+054482Y+025400
X+057022Y+025400
X+059562Y+025400
X+049402Y+022860
X+051942Y+022860
X+054482Y+022860
X+057022Y+022860
X+059562Y+022860
X+049402Y+020320
X+051942Y+020320
X+054482Y+020320
X+057022Y+020320
X+059562Y+020320
X+069722Y+030480
X+072262Y+030480
X+074802Y+030480
X+077342Y+030480
X+079882Y+030480
X+069722Y+027940
X+072262Y+027940
X+074802Y+027940
X+077342Y+027940
X+079882Y+027940
X+069722Y+025400
X+072262Y+025400
X+074802Y+025400
X+077342Y+025400
X+079882Y+025400
X+069722Y+022860
X+072262Y+022860
X+074802Y+022860
X+077342Y+022860
X+079882Y+022860
X+069722Y+020320
X+072262Y+020320
X+074802Y+020320
X+077342Y+020320
X+079882Y+020320
X+079882Y+030480
X+082422Y+030480
X+084962Y+030480
X+087502Y+030480
X+090042Y+030480
X+079882Y+027940
X+082422Y+027940
X+084962Y+027940
X+087502Y+027940
X+090042Y+027940
X+079882Y+025400
X+082422Y+025400
X+084962Y+025400
X+087502Y+025400
X+090042Y+025400
X+079882Y+022860
X+082422Y+022860
X+084962Y+022860
X+087502Y+022860
X+090042Y+022860
X+079882Y+020320
X+082422Y+020320
X+084962Y+020320
X+087502Y+020320
X+090042Y+020320
X+082422Y+030480
X+084962Y+030480
X+087502Y+030480
X+090042Y+030480
X+092582Y+030480
X+082422Y+027940
X+084962Y+027940
X+087502Y+027940
X+090042Y+027940
X+092582Y+027940
X+082422Y+025400
X+084962Y+025400
X+087502Y+025400
X+090042Y+025400
X+092582Y+025400
X+082422Y+022860
X+084962Y+022860
X+087502Y+022860
X+090042Y+022860
X+092582Y+022860
X+082422Y+020320
X+084962Y+020320
X+087502Y+020320
X+090042Y+020320
X+092582Y+020320
X+082422Y+020320
X+084962Y+020320
X+087502Y+020320
X+090042Y+020320
X+092582Y+020320
X+082422Y+017780
X+084962Y+017780
X+087502Y+017780
X+090042Y+017780
X+092582Y+017780
X+082422Y+015240
X+084962Y+015240
X+087502Y+015240
X+090042Y+015240
X+092582Y+015240
X+082422Y+012700
X+084962Y+012700
X+087502Y+012700
X+090042Y+012700
X+092582Y+012700
X+082422Y+010160
X+084962Y+010160
X+087502Y+010160
X+090042Y+010160
X+092582Y+010160
X+079882Y+020320
X+082422Y+020320
X+084962Y+020320
X+087502Y+020320
X+090042Y+020320
X+079882Y+017780
X+082422Y+017780
X+084962Y+017780
X+087502Y+017780
X+090042Y+017780
X+079882Y+015240
X+082422Y+015240
X+084962Y+015240
X+087502Y+015240
X+090042Y+015240
X+079882Y+012700
X+082422Y+012700
X+084962Y+012700
X+087502Y+012700
X+090042Y+012700
X+079882Y+010160
X+082422Y+010160
X+084962Y+010160
X+087502Y+010160
X+090042Y+010160
X+069722Y+020320
X+072262Y+020320
X+074802Y+020320
X+077342Y+020320
X+079882Y+020320
X+069722Y+017780
X+072262Y+017780
X+074802Y+017780
X+077342Y+017780
X+079882Y+017780
X+069722Y+015240
X+072262Y+015240
X+074802Y+015240
X+077342Y+015240
X+079882Y+015240
X+069722Y+012700
X+072262Y+012700
X+074802Y+012700
X+077342Y+012700
X+079882Y+012700
X+069722Y+010160
X+072262Y+010160
X+074802Y+010160
X+077342Y+010160
X+079882Y+010160
X+049402Y+020320
X+051942Y+020320
X+054482Y+020320
X+057022Y+020320
X+059562Y+020320
X+049402Y+017780
X+051942Y+017780
X+054482Y+017780
X+057022Y+017780
X+059562Y+017780
X+049402Y+015240
X+051942Y+015240
X+054482Y+015240
X+057022Y+015240
X+059562Y+015240
X+049402Y+012700
X+051942Y+012700
X+054482Y+012700
X+057022Y+012700
X+059562Y+012700
X+049402Y+010160
X+051942Y+010160
X+054482Y+010160
X+057022Y+010160
X+059562Y+010160
X+059562Y+020320
X+062102Y+020320
X+064642Y+020320
X+067182Y+020320
X+069722Y+020320
X+059562Y+017780
X+062102Y+017780
X+064642Y+017780
X+067182Y+017780
X+069722Y+017780
X+059562Y+015240
X+062102Y+015240
X+064642Y+015240
X+067182Y+015240
X+069722Y+015240
X+059562Y+012700
X+062102Y+012700
X+064642Y+012700
X+067182Y+012700
X+069722Y+012700
X+059562Y+010160
X+062102Y+010160
X+064642Y+010160
X+067182Y+010160
X+069722Y+010160
X+039242Y+020320
X+041782Y+020320
X+044322Y+020320
X+046862Y+020320
X+049402Y+020320
X+039242Y+017780
X+041782Y+017780
X+044322Y+017780
X+046862Y+017780
X+049402Y+017780
X+039242Y+015240
X+041782Y+015240
X+044322Y+015240
X+046862Y+015240
X+049402Y+015240
X+039242Y+012700
X+041782Y+012700
X+044322Y+012700
X+046862Y+012700
X+049402Y+012700
X+039242Y+010160
X+041782Y+010160
X+044322Y+010160
X+046862Y+010160
X+049402Y+010160
X+029082Y+020320
X+031622Y+020320
X+034162Y+020320
X+036702Y+020320
X+039242Y+020320
X+029082Y+017780
X+031622Y+017780
X+034162Y+017780
X+036702Y+017780
X+039242Y+017780
X+029082Y+015240
X+031622Y+015240
X+034162Y+015240
X+036702Y+015240
X+039242Y+015240
X+029082Y+012700
X+031622Y+012700
X+034162Y+012700
X+036702Y+012700
X+039242Y+012700
X+029082Y+010160
X+031622Y+010160
X+034162Y+010160
X+036702Y+010160
X+039242Y+010160
X+029082Y+040640
X+031622Y+040640
X+034162Y+040640
X+036702Y+040640
X+039242Y+040640
X+029082Y+038100
X+031622Y+038100
X+034162Y+038100
X+036702Y+038100
X+039242Y+038100
X+029082Y+035560
X+031622Y+035560
X+034162Y+035560
X+036702Y+035560
X+039242Y+035560
X+029082Y+033020
X+031622Y+033020
X+034162Y+033020
X+036702Y+033020
X+039242Y+033020
X+029082Y+030480
X+031622Y+030480
X+034162Y+030480
X+036702Y+030480
X+039242Y+030480
X+039242Y+040640
X+041782Y+040640
X+044322Y+040640
X+046862Y+040640
X+049402Y+040640
X+039242Y+038100
X+041782Y+038100
X+044322Y+038100
X+046862Y+038100
X+049402Y+038100
X+039242Y+035560
X+041782Y+035560
X+044322Y+035560
X+046862Y+035560
X+049402Y+035560
X+039242Y+033020
X+041782Y+033020
X+044322Y+033020
X+046862Y+033020
X+049402Y+033020
X+039242Y+030480
X+041782Y+030480
X+044322Y+030480
X+046862Y+030480
X+049402Y+030480
X+059562Y+040640
X+062102Y+040640
X+064642Y+040640
X+067182Y+040640
X+069722Y+040640
X+059562Y+038100
X+062102Y+038100
X+064642Y+038100
X+067182Y+038100
X+069722Y+038100
X+059562Y+035560
X+062102Y+035560
X+064642Y+035560
X+067182Y+035560
X+069722Y+035560
X+059562Y+033020
X+062102Y+033020
X+064642Y+033020
X+067182Y+033020
X+069722Y+033020
X+059562Y+030480
X+062102Y+030480
X+064642Y+030480
X+067182Y+030480
X+069722Y+030480
X+049402Y+040640
X+051942Y+040640
X+054482Y+040640
X+057022Y+040640
X+059562Y+040640
X+049402Y+038100
X+051942Y+038100
X+054482Y+038100
X+057022Y+038100
X+059562Y+038100
X+049402Y+035560
X+051942Y+035560
X+054482Y+035560
X+057022Y+035560
X+059562Y+035560
X+049402Y+033020
X+051942Y+033020
X+054482Y+033020
X+057022Y+033020
X+059562Y+033020
X+049402Y+030480
X+051942Y+030480
X+054482Y+030480
X+057022Y+030480
X+059562Y+030480
X+069722Y+040640
X+072262Y+040640
X+074802Y+040640
X+077342Y+040640
X+079882Y+040640
X+069722Y+038100
X+072262Y+038100
X+074802Y+038100
X+077342Y+038100
X+079882Y+038100
X+069722Y+035560
X+072262Y+035560
X+074802Y+035560
X+077342Y+035560
X+079882Y+035560
X+069722Y+033020
X+072262Y+033020
X+074802Y+033020
X+077342Y+033020
X+079882Y+033020
X+069722Y+030480
X+072262Y+030480
X+074802Y+030480
X+077342Y+030480
X+079882Y+030480
X+079882Y+040640
X+082422Y+040640
X+084962Y+040640
X+087502Y+040640
X+090042Y+040640
X+079882Y+038100
X+082422Y+038100
X+084962Y+038100
X+087502Y+038100
X+090042Y+038100
X+079882Y+035560
X+082422Y+035560
X+084962Y+035560
X+087502Y+035560
X+090042Y+035560
X+079882Y+033020
X+082422Y+033020
X+084962Y+033020
X+087502Y+033020
X+090042Y+033020
X+079882Y+030480
X+082422Y+030480
X+084962Y+030480
X+087502Y+030480
X+090042Y+030480
X+082422Y+040640
X+084962Y+040640
X+087502Y+040640
X+090042Y+040640
X+092582Y+040640
X+082422Y+038100
X+084962Y+038100
X+087502Y+038100
X+090042Y+038100
X+092582Y+038100
X+082422Y+035560
X+084962Y+035560
X+087502Y+035560
X+090042Y+035560
X+092582Y+035560
X+082422Y+033020
X+084962Y+033020
X+087502Y+033020
X+090042Y+033020
X+092582Y+033020
X+082422Y+030480
X+084962Y+030480
X+087502Y+030480
X+090042Y+030480
X+092582Y+030480
X+082422Y+050800
X+084962Y+050800
X+087502Y+050800
X+090042Y+050800
X+092582Y+050800
X+082422Y+048260
X+084962Y+048260
X+087502Y+048260
X+090042Y+048260
X+092582Y+048260
X+082422Y+045720
X+084962Y+045720
X+087502Y+045720
X+090042Y+045720
X+092582Y+045720
X+082422Y+043180
X+084962Y+043180
X+087502Y+043180
X+090042Y+043180
X+092582Y+043180
X+082422Y+040640
X+084962Y+040640
X+087502Y+040640
X+090042Y+040640
X+092582Y+040640
X+079882Y+050800
X+082422Y+050800
X+084962Y+050800
X+087502Y+050800
X+090042Y+050800
X+079882Y+048260
X+082422Y+048260
X+084962Y+048260
X+087502Y+048260
X+090042Y+048260
X+079882Y+045720
X+082422Y+045720
X+084962Y+045720
X+087502Y+045720
X+090042Y+045720
X+079882Y+043180
X+082422Y+043180
X+084962Y+043180
X+087502Y+043180
X+090042Y+043180
X+079882Y+040640
X+082422Y+040640
X+084962Y+040640
X+087502Y+040640
X+090042Y+040640
X+069722Y+050800
X+072262Y+050800
X+074802Y+050800
X+077342Y+050800
X+079882Y+050800
X+069722Y+048260
X+072262Y+048260
X+074802Y+048260
X+077342Y+048260
X+079882Y+048260
X+069722Y+045720
X+072262Y+045720
X+074802Y+045720
X+077342Y+045720
X+079882Y+045720
X+069722Y+043180
X+072262Y+043180
X+074802Y+043180
X+077342Y+043180
X+079882Y+043180
X+069722Y+040640
X+072262Y+040640
X+074802Y+040640
X+077342Y+040640
X+079882Y+040640
X+049402Y+050800
X+051942Y+050800
X+054482Y+050800
X+057022Y+050800
X+059562Y+050800
X+049402Y+048260
X+051942Y+048260
X+054482Y+048260
X+057022Y+048260
X+059562Y+048260
X+049402Y+045720
X+051942Y+045720
X+054482Y+045720
X+057022Y+045720
X+059562Y+045720
X+049402Y+043180
X+051942Y+043180
X+054482Y+043180
X+057022Y+043180
X+059562Y+043180
X+049402Y+040640
X+051942Y+040640
X+054482Y+040640
X+057022Y+040640
X+059562Y+040640
X+059562Y+050800
X+062102Y+050800
X+064642Y+050800
X+067182Y+050800
X+069722Y+050800
X+059562Y+048260
X+062102Y+048260
X+064642Y+048260
X+067182Y+048260
X+069722Y+048260
X+059562Y+045720
X+062102Y+045720
X+064642Y+045720
X+067182Y+045720
X+069722Y+045720
X+059562Y+043180
X+062102Y+043180
X+064642Y+043180
X+067182Y+043180
X+069722Y+043180
X+059562Y+040640
X+062102Y+040640
X+064642Y+040640
X+067182Y+040640
X+069722Y+040640
X+039242Y+050800
X+041782Y+050800
X+044322Y+050800
X+046862Y+050800
X+049402Y+050800
X+039242Y+048260
X+041782Y+048260
X+044322Y+048260
X+046862Y+048260
X+049402Y+048260
X+039242Y+045720
X+041782Y+045720
X+044322Y+045720
X+046862Y+045720
X+049402Y+045720
X+039242Y+043180
X+041782Y+043180
X+044322Y+043180
X+046862Y+043180
X+049402Y+043180
X+039242Y+040640
X+041782Y+040640
X+044322Y+040640
X+046862Y+040640
X+049402Y+040640
X+029082Y+050800
X+031622Y+050800
X+034162Y+050800
X+036702Y+050800
X+039242Y+050800
X+029082Y+048260
X+031622Y+048260
X+034162Y+048260
X+036702Y+048260
X+039242Y+048260
X+029082Y+045720
X+031622Y+045720
X+034162Y+045720
X+036702Y+045720
X+039242Y+045720
X+029082Y+043180
X+031622Y+043180
X+034162Y+043180
X+036702Y+043180
X+039242Y+043180
X+029082Y+040640
X+031622Y+040640
X+034162Y+040640
X+036702Y+040640
X+039242Y+040640
X+029082Y+015240
X+031622Y+015240
X+034162Y+015240
X+036702Y+015240
X+039242Y+015240
X+029082Y+012700
X+031622Y+012700
X+034162Y+012700
X+036702Y+012700
X+039242Y+012700
X+029082Y+010160
X+031622Y+010160
X+034162Y+010160
X+036702Y+010160
X+039242Y+010160
X+029082Y+007620
X+031622Y+007620
X+034162Y+007620
X+036702Y+007620
X+039242Y+007620
X+029082Y+005080
X+031622Y+005080
X+034162Y+005080
X+036702Y+005080
X+039242Y+005080
X+039242Y+015240
X+041782Y+015240
X+044322Y+015240
X+046862Y+015240
X+049402Y+015240
X+039242Y+012700
X+041782Y+012700
X+044322Y+012700
X+046862Y+012700
X+049402Y+012700
X+039242Y+010160
X+041782Y+010160
X+044322Y+010160
X+046862Y+010160
X+049402Y+010160
X+039242Y+007620
X+041782Y+007620
X+044322Y+007620
X+046862Y+007620
X+049402Y+007620
X+039242Y+005080
X+041782Y+005080
X+044322Y+005080
X+046862Y+005080
X+049402Y+005080
X+059562Y+015240
X+062102Y+015240
X+064642Y+015240
X+067182Y+015240
X+069722Y+015240
X+059562Y+012700
X+062102Y+012700
X+064642Y+012700
X+067182Y+012700
X+069722Y+012700
X+059562Y+010160
X+062102Y+010160
X+064642Y+010160
X+067182Y+010160
X+069722Y+010160
X+059562Y+007620
X+062102Y+007620
X+064642Y+007620
X+067182Y+007620
X+069722Y+007620
X+059562Y+005080
X+062102Y+005080
X+064642Y+005080
X+067182Y+005080
X+069722Y+005080
X+049402Y+015240
X+051942Y+015240
X+054482Y+015240
X+057022Y+015240
X+059562Y+015240
X+049402Y+012700
X+051942Y+012700
X+054482Y+012700
X+057022Y+012700
X+059562Y+012700
X+049402Y+010160
X+051942Y+010160
X+054482Y+010160
X+057022Y+010160
X+059562Y+010160
X+049402Y+007620
X+051942Y+007620
X+054482Y+007620
X+057022Y+007620
X+059562Y+007620
X+049402Y+005080
X+051942Y+005080
X+054482Y+005080
X+057022Y+005080
X+059562Y+005080
X+069722Y+015240
X+072262Y+015240
X+074802Y+015240
X+077342Y+015240
X+079882Y+015240
X+069722Y+012700
X+072262Y+012700
X+074802Y+012700
X+077342Y+012700
X+079882Y+012700
X+069722Y+010160
X+072262Y+010160
X+074802Y+010160
X+077342Y+010160
X+079882Y+010160
X+069722Y+007620
X+072262Y+007620
X+074802Y+007620
X+077342Y+007620
X+079882Y+007620
X+069722Y+005080
X+072262Y+005080
X+074802Y+005080
X+077342Y+005080
X+079882Y+005080
X+079882Y+015240
X+082422Y+015240
X+084962Y+015240
X+087502Y+015240
X+090042Y+015240
X+079882Y+012700
X+082422Y+012700
X+084962Y+012700
X+087502Y+012700
X+090042Y+012700
X+079882Y+010160
X+082422Y+010160
X+084962Y+010160
X+087502Y+010160
X+090042Y+010160
X+079882Y+007620
X+082422Y+007620
X+084962Y+007620
X+087502Y+007620
X+090042Y+007620
X+079882Y+005080
X+082422Y+005080
X+084962Y+005080
X+087502Y+005080
X+090042Y+005080
X+082422Y+015240
X+084962Y+015240
X+087502Y+015240
X+090042Y+015240
X+092582Y+015240
X+082422Y+012700
X+084962Y+012700
X+087502Y+012700
X+090042Y+012700
X+092582Y+012700
X+082422Y+010160
X+084962Y+010160
X+087502Y+010160
X+090042Y+010160
X+092582Y+010160
X+082422Y+007620
X+084962Y+007620
X+087502Y+007620
X+090042Y+007620
X+092582Y+007620
X+082422Y+005080
X+084962Y+005080
X+087502Y+005080
X+090042Y+005080
X+092582Y+005080
T02
X+018036Y+020447G85X+018031Y+020447
X+020576Y+020447G85X+020571Y+020447
X+018036Y+022987G85X+018031Y+022987
X+020576Y+022987G85X+020571Y+022987
X+018036Y+025527G85X+018031Y+025527
X+020576Y+025527G85X+020571Y+025527
X+018036Y+028067G85X+018031Y+028067
X+020576Y+028067G85X+020571Y+028067
X+018036Y+030607G85X+018031Y+030607
X+020576Y+030607G85X+020571Y+030607
X+018036Y+033147G85X+018031Y+033147
X+020576Y+033147G85X+020571Y+033147
X+018036Y+035687G85X+018031Y+035687
X+020576Y+035687G85X+020571Y+035687
X+018036Y+038227G85X+018031Y+038227
X+020576Y+038227G85X+020571Y+038227
X+018036Y+040767G85X+018031Y+040767
X+020576Y+040767G85X+020571Y+040767
X+018036Y+043307G85X+018031Y+043307
X+020576Y+043307G85X+020571Y+043307
X+018036Y+045847G85X+018031Y+045847
X+020576Y+045847G85X+020571Y+045847
X+018036Y+048387G85X+018031Y+048387
X+020576Y+048387G85X+020571Y+048387
X+018036Y+050927G85X+018031Y+050927
X+020576Y+050927G85X+020571Y+050927
X+018036Y+053467G85X+018031Y+053467
X+020576Y+053467G85X+020571Y+053467
X+018036Y+056007G85X+018031Y+056007
X+020576Y+056007G85X+020571Y+056007
X+018036Y+058547G85X+018031Y+058547
X+020576Y+058547G85X+020571Y+058547
X+018036Y+061087G85X+018031Y+061087
X+020576Y+061087G85X+020571Y+061087
X+018036Y+063627G85X+018031Y+063627
X+020576Y+063627G85X+020571Y+063627
X+018036Y+066167G85X+018031Y+066167
X+020576Y+066167G85X+020571Y+066167
X+018036Y+068707G85X+018031Y+068707
X+020576Y+068707G85X+020571Y+068707
X+018036Y+071247G85X+018031Y+071247
X+020576Y+071247G85X+020571Y+071247
X+018036Y+073787G85X+018031Y+073787
X+020576Y+073787G85X+020571Y+073787
M30
