G04 Layer: BottomLayer*
G04 EasyEDA v6.4.7, 2020-11-30T22:22:46+01:00*
G04 33329d85c06a4245a9eb03819dca2e09,5f1b69652c614dc78b77d9171f06c583,10*
G04 Gerber Generator version 0.2*
G04 Scale: 100 percent, Rotated: No, Reflected: No *
G04 Dimensions in millimeters *
G04 leading zeros omitted , absolute positions ,3 integer and 3 decimal *
%FSLAX33Y33*%
%MOMM*%
G90*
D02*

%ADD11C,0.499999*%
%ADD12C,1.199998*%
%ADD14R,9.499981X2.400046*%
%ADD15R,1.699997X1.699997*%
%ADD16C,1.699997*%
%ADD17C,1.524000*%

%LPD*%
G54D12*
G01X9740Y5494D02*
G01X11335Y5494D01*
G01X22478Y16637D01*
G01X22478Y21082D01*
G01X20573Y22987D01*
G01X4698Y9454D02*
G01X9740Y9454D01*
G01X20573Y20447D02*
G01X20573Y18923D01*
G01X11102Y9454D01*
G01X9740Y9454D01*
G01X4698Y5494D02*
G01X9740Y5494D01*
G54D11*
G01X20573Y28067D02*
G01X19303Y26797D01*
G01X17017Y26797D01*
G01X11175Y20955D01*
G01X11175Y17374D01*
G01X9740Y17374D01*
G01X20573Y30607D02*
G01X19303Y29337D01*
G01X17017Y29337D01*
G01X10032Y22352D01*
G01X10032Y21336D01*
G01X9740Y21336D01*
G01X20573Y73787D02*
G01X20573Y77813D01*
G01X9740Y88644D01*
G01X4698Y88644D02*
G01X9740Y88644D01*
G01X20573Y71247D02*
G01X19049Y72517D01*
G01X16509Y72517D01*
G01X14096Y74930D01*
G01X14096Y80518D01*
G01X9740Y84580D01*
G01X4698Y84580D02*
G01X9740Y84580D01*
G01X20573Y68707D02*
G01X19430Y69977D01*
G01X16636Y69977D01*
G01X12064Y74549D01*
G01X12064Y78740D01*
G01X9740Y80770D01*
G01X4698Y80770D02*
G01X9740Y80770D01*
G01X20573Y66167D02*
G01X19303Y67437D01*
G01X16890Y67437D01*
G01X10921Y73406D01*
G01X10921Y75565D01*
G01X9740Y76706D01*
G01X4698Y76706D02*
G01X9740Y76706D01*
G54D12*
G01X18033Y25527D02*
G01X14223Y21717D01*
G01X14223Y17590D01*
G01X10047Y13414D01*
G01X4698Y13414D02*
G01X10047Y13414D01*
G54D11*
G01X20573Y63627D02*
G01X19303Y64897D01*
G01X16128Y64897D01*
G01X10286Y70739D01*
G01X10286Y72814D01*
G01X9740Y72814D01*
G01X4698Y72814D02*
G01X9740Y72814D01*
G01X20573Y56007D02*
G01X19303Y57277D01*
G01X14096Y57277D01*
G01X10439Y60935D01*
G01X4698Y60935D01*
G01X20573Y53467D02*
G01X19303Y54737D01*
G01X11978Y54737D01*
G01X9740Y56975D01*
G01X4698Y56975D02*
G01X9740Y56975D01*
G01X20573Y61087D02*
G01X19303Y62357D01*
G01X16237Y62357D01*
G01X9740Y68855D01*
G01X4698Y68855D02*
G01X9740Y68855D01*
G01X20573Y58547D02*
G01X19303Y59817D01*
G01X14818Y59817D01*
G01X9740Y64895D01*
G01X4698Y64895D02*
G01X9740Y64895D01*
G01X20573Y50927D02*
G01X19303Y52197D01*
G01X10558Y52197D01*
G01X9740Y53015D01*
G01X4698Y53015D02*
G01X9740Y53015D01*
G01X20573Y48387D02*
G01X19303Y49657D01*
G01X10342Y49657D01*
G01X9740Y49055D01*
G01X4698Y49055D02*
G01X9740Y49055D01*
G01X20573Y45847D02*
G01X19303Y44577D01*
G01X10258Y44577D01*
G01X9740Y45095D01*
G01X4698Y45095D02*
G01X9740Y45095D01*
G01X20573Y43307D02*
G01X19303Y42037D01*
G01X10642Y42037D01*
G01X9740Y41136D01*
G01X4698Y41136D02*
G01X9740Y41136D01*
G01X20573Y40767D02*
G01X19303Y39497D01*
G01X12064Y39497D01*
G01X9740Y37173D01*
G01X4698Y37173D02*
G01X9740Y37173D01*
G01X20573Y38227D02*
G01X19303Y36957D01*
G01X16380Y36957D01*
G01X12636Y33213D01*
G01X4698Y33213D01*
G01X20573Y35687D02*
G01X19303Y34417D01*
G01X16636Y34417D01*
G01X11472Y29253D01*
G01X4698Y29253D01*
G01X4698Y17374D02*
G01X9740Y17374D01*
G01X20573Y33147D02*
G01X19303Y31877D01*
G01X16890Y31877D01*
G01X10309Y25296D01*
G01X4698Y25296D01*
G01X4698Y21336D02*
G01X9740Y21336D01*
G54D12*
G01X18033Y25527D02*
G01X20573Y25527D01*
G01X20573Y25527D02*
G01X28955Y25527D01*
G01X29082Y25400D01*
G01X29082Y5080D02*
G01X29082Y25400D01*
G01X29082Y91440D02*
G01X29082Y25400D01*
G54D14*
G01X4698Y21336D03*
G01X4698Y25296D03*
G01X4698Y17374D03*
G36*
G01X-51Y28056D02*
G01X-51Y30454D01*
G01X9448Y30454D01*
G01X9448Y28056D01*
G01X-51Y28056D01*
G37*
G01X4698Y33213D03*
G01X4698Y37173D03*
G01X4698Y41136D03*
G01X4698Y45095D03*
G01X4698Y49055D03*
G01X4698Y53015D03*
G01X4698Y64895D03*
G01X4698Y68855D03*
G01X4698Y56975D03*
G36*
G01X-51Y59737D02*
G01X-51Y62135D01*
G01X9448Y62135D01*
G01X9448Y59737D01*
G01X-51Y59737D01*
G37*
G01X4698Y72814D03*
G01X4698Y13414D03*
G01X4698Y5494D03*
G01X4698Y9454D03*
G01X4698Y76707D03*
G01X4698Y80771D03*
G01X4698Y84581D03*
G01X4698Y88645D03*
G54D15*
G01X18033Y20447D03*
G54D16*
G01X20573Y20447D03*
G01X18033Y22987D03*
G01X20573Y22987D03*
G01X18033Y25527D03*
G01X20573Y25527D03*
G01X18033Y28067D03*
G01X20573Y28067D03*
G01X18033Y30607D03*
G01X20573Y30607D03*
G01X18033Y33147D03*
G01X20573Y33147D03*
G01X18033Y35687D03*
G01X20573Y35687D03*
G01X18033Y38227D03*
G01X20573Y38227D03*
G01X18033Y40767D03*
G01X20573Y40767D03*
G01X18033Y43307D03*
G01X20573Y43307D03*
G01X18033Y45847D03*
G01X20573Y45847D03*
G01X18033Y48387D03*
G01X20573Y48387D03*
G01X18033Y50927D03*
G01X20573Y50927D03*
G01X18033Y53467D03*
G01X20573Y53467D03*
G01X18033Y56007D03*
G01X20573Y56007D03*
G01X18033Y58547D03*
G01X20573Y58547D03*
G01X18033Y61087D03*
G01X20573Y61087D03*
G01X18033Y63627D03*
G01X20573Y63627D03*
G01X18033Y66167D03*
G01X20573Y66167D03*
G01X18033Y68707D03*
G01X20573Y68707D03*
G01X18033Y71247D03*
G01X20573Y71247D03*
G01X18033Y73787D03*
G01X20573Y73787D03*
G54D17*
G01X29082Y91440D03*
G01X31622Y91440D03*
G01X34162Y91440D03*
G01X36702Y91440D03*
G01X39242Y91440D03*
G01X29082Y88900D03*
G01X31622Y88900D03*
G01X34162Y88900D03*
G01X36702Y88900D03*
G01X39242Y88900D03*
G01X29082Y86360D03*
G01X31622Y86360D03*
G01X34162Y86360D03*
G01X36702Y86360D03*
G01X39242Y86360D03*
G01X29082Y83820D03*
G01X31622Y83820D03*
G01X34162Y83820D03*
G01X36702Y83820D03*
G01X39242Y83820D03*
G01X29082Y81280D03*
G01X31622Y81280D03*
G01X34162Y81280D03*
G01X36702Y81280D03*
G01X39242Y81280D03*
G01X39242Y91440D03*
G01X41782Y91440D03*
G01X44322Y91440D03*
G01X46862Y91440D03*
G01X49402Y91440D03*
G01X39242Y88900D03*
G01X41782Y88900D03*
G01X44322Y88900D03*
G01X46862Y88900D03*
G01X49402Y88900D03*
G01X39242Y86360D03*
G01X41782Y86360D03*
G01X44322Y86360D03*
G01X46862Y86360D03*
G01X49402Y86360D03*
G01X39242Y83820D03*
G01X41782Y83820D03*
G01X44322Y83820D03*
G01X46862Y83820D03*
G01X49402Y83820D03*
G01X39242Y81280D03*
G01X41782Y81280D03*
G01X44322Y81280D03*
G01X46862Y81280D03*
G01X49402Y81280D03*
G01X59562Y91440D03*
G01X62102Y91440D03*
G01X64642Y91440D03*
G01X67182Y91440D03*
G01X69722Y91440D03*
G01X59562Y88900D03*
G01X62102Y88900D03*
G01X64642Y88900D03*
G01X67182Y88900D03*
G01X69722Y88900D03*
G01X59562Y86360D03*
G01X62102Y86360D03*
G01X64642Y86360D03*
G01X67182Y86360D03*
G01X69722Y86360D03*
G01X59562Y83820D03*
G01X62102Y83820D03*
G01X64642Y83820D03*
G01X67182Y83820D03*
G01X69722Y83820D03*
G01X59562Y81280D03*
G01X62102Y81280D03*
G01X64642Y81280D03*
G01X67182Y81280D03*
G01X69722Y81280D03*
G01X49402Y91440D03*
G01X51942Y91440D03*
G01X54482Y91440D03*
G01X57022Y91440D03*
G01X59562Y91440D03*
G01X49402Y88900D03*
G01X51942Y88900D03*
G01X54482Y88900D03*
G01X57022Y88900D03*
G01X59562Y88900D03*
G01X49402Y86360D03*
G01X51942Y86360D03*
G01X54482Y86360D03*
G01X57022Y86360D03*
G01X59562Y86360D03*
G01X49402Y83820D03*
G01X51942Y83820D03*
G01X54482Y83820D03*
G01X57022Y83820D03*
G01X59562Y83820D03*
G01X49402Y81280D03*
G01X51942Y81280D03*
G01X54482Y81280D03*
G01X57022Y81280D03*
G01X59562Y81280D03*
G01X69722Y91440D03*
G01X72262Y91440D03*
G01X74802Y91440D03*
G01X77342Y91440D03*
G01X79882Y91440D03*
G01X69722Y88900D03*
G01X72262Y88900D03*
G01X74802Y88900D03*
G01X77342Y88900D03*
G01X79882Y88900D03*
G01X69722Y86360D03*
G01X72262Y86360D03*
G01X74802Y86360D03*
G01X77342Y86360D03*
G01X79882Y86360D03*
G01X69722Y83820D03*
G01X72262Y83820D03*
G01X74802Y83820D03*
G01X77342Y83820D03*
G01X79882Y83820D03*
G01X69722Y81280D03*
G01X72262Y81280D03*
G01X74802Y81280D03*
G01X77342Y81280D03*
G01X79882Y81280D03*
G01X79882Y91440D03*
G01X82422Y91440D03*
G01X84962Y91440D03*
G01X87502Y91440D03*
G01X90042Y91440D03*
G01X79882Y88900D03*
G01X82422Y88900D03*
G01X84962Y88900D03*
G01X87502Y88900D03*
G01X90042Y88900D03*
G01X79882Y86360D03*
G01X82422Y86360D03*
G01X84962Y86360D03*
G01X87502Y86360D03*
G01X90042Y86360D03*
G01X79882Y83820D03*
G01X82422Y83820D03*
G01X84962Y83820D03*
G01X87502Y83820D03*
G01X90042Y83820D03*
G01X79882Y81280D03*
G01X82422Y81280D03*
G01X84962Y81280D03*
G01X87502Y81280D03*
G01X90042Y81280D03*
G01X82422Y91440D03*
G01X84962Y91440D03*
G01X87502Y91440D03*
G01X90042Y91440D03*
G01X92582Y91440D03*
G01X82422Y88900D03*
G01X84962Y88900D03*
G01X87502Y88900D03*
G01X90042Y88900D03*
G01X92582Y88900D03*
G01X82422Y86360D03*
G01X84962Y86360D03*
G01X87502Y86360D03*
G01X90042Y86360D03*
G01X92582Y86360D03*
G01X82422Y83820D03*
G01X84962Y83820D03*
G01X87502Y83820D03*
G01X90042Y83820D03*
G01X92582Y83820D03*
G01X82422Y81280D03*
G01X84962Y81280D03*
G01X87502Y81280D03*
G01X90042Y81280D03*
G01X92582Y81280D03*
G01X82422Y81280D03*
G01X84962Y81280D03*
G01X87502Y81280D03*
G01X90042Y81280D03*
G01X92582Y81280D03*
G01X82422Y78740D03*
G01X84962Y78740D03*
G01X87502Y78740D03*
G01X90042Y78740D03*
G01X92582Y78740D03*
G01X82422Y76200D03*
G01X84962Y76200D03*
G01X87502Y76200D03*
G01X90042Y76200D03*
G01X92582Y76200D03*
G01X82422Y73660D03*
G01X84962Y73660D03*
G01X87502Y73660D03*
G01X90042Y73660D03*
G01X92582Y73660D03*
G01X82422Y71120D03*
G01X84962Y71120D03*
G01X87502Y71120D03*
G01X90042Y71120D03*
G01X92582Y71120D03*
G01X79882Y81280D03*
G01X82422Y81280D03*
G01X84962Y81280D03*
G01X87502Y81280D03*
G01X90042Y81280D03*
G01X79882Y78740D03*
G01X82422Y78740D03*
G01X84962Y78740D03*
G01X87502Y78740D03*
G01X90042Y78740D03*
G01X79882Y76200D03*
G01X82422Y76200D03*
G01X84962Y76200D03*
G01X87502Y76200D03*
G01X90042Y76200D03*
G01X79882Y73660D03*
G01X82422Y73660D03*
G01X84962Y73660D03*
G01X87502Y73660D03*
G01X90042Y73660D03*
G01X79882Y71120D03*
G01X82422Y71120D03*
G01X84962Y71120D03*
G01X87502Y71120D03*
G01X90042Y71120D03*
G01X69722Y81280D03*
G01X72262Y81280D03*
G01X74802Y81280D03*
G01X77342Y81280D03*
G01X79882Y81280D03*
G01X69722Y78740D03*
G01X72262Y78740D03*
G01X74802Y78740D03*
G01X77342Y78740D03*
G01X79882Y78740D03*
G01X69722Y76200D03*
G01X72262Y76200D03*
G01X74802Y76200D03*
G01X77342Y76200D03*
G01X79882Y76200D03*
G01X69722Y73660D03*
G01X72262Y73660D03*
G01X74802Y73660D03*
G01X77342Y73660D03*
G01X79882Y73660D03*
G01X69722Y71120D03*
G01X72262Y71120D03*
G01X74802Y71120D03*
G01X77342Y71120D03*
G01X79882Y71120D03*
G01X49402Y81280D03*
G01X51942Y81280D03*
G01X54482Y81280D03*
G01X57022Y81280D03*
G01X59562Y81280D03*
G01X49402Y78740D03*
G01X51942Y78740D03*
G01X54482Y78740D03*
G01X57022Y78740D03*
G01X59562Y78740D03*
G01X49402Y76200D03*
G01X51942Y76200D03*
G01X54482Y76200D03*
G01X57022Y76200D03*
G01X59562Y76200D03*
G01X49402Y73660D03*
G01X51942Y73660D03*
G01X54482Y73660D03*
G01X57022Y73660D03*
G01X59562Y73660D03*
G01X49402Y71120D03*
G01X51942Y71120D03*
G01X54482Y71120D03*
G01X57022Y71120D03*
G01X59562Y71120D03*
G01X59562Y81280D03*
G01X62102Y81280D03*
G01X64642Y81280D03*
G01X67182Y81280D03*
G01X69722Y81280D03*
G01X59562Y78740D03*
G01X62102Y78740D03*
G01X64642Y78740D03*
G01X67182Y78740D03*
G01X69722Y78740D03*
G01X59562Y76200D03*
G01X62102Y76200D03*
G01X64642Y76200D03*
G01X67182Y76200D03*
G01X69722Y76200D03*
G01X59562Y73660D03*
G01X62102Y73660D03*
G01X64642Y73660D03*
G01X67182Y73660D03*
G01X69722Y73660D03*
G01X59562Y71120D03*
G01X62102Y71120D03*
G01X64642Y71120D03*
G01X67182Y71120D03*
G01X69722Y71120D03*
G01X39242Y81280D03*
G01X41782Y81280D03*
G01X44322Y81280D03*
G01X46862Y81280D03*
G01X49402Y81280D03*
G01X39242Y78740D03*
G01X41782Y78740D03*
G01X44322Y78740D03*
G01X46862Y78740D03*
G01X49402Y78740D03*
G01X39242Y76200D03*
G01X41782Y76200D03*
G01X44322Y76200D03*
G01X46862Y76200D03*
G01X49402Y76200D03*
G01X39242Y73660D03*
G01X41782Y73660D03*
G01X44322Y73660D03*
G01X46862Y73660D03*
G01X49402Y73660D03*
G01X39242Y71120D03*
G01X41782Y71120D03*
G01X44322Y71120D03*
G01X46862Y71120D03*
G01X49402Y71120D03*
G01X29082Y81280D03*
G01X31622Y81280D03*
G01X34162Y81280D03*
G01X36702Y81280D03*
G01X39242Y81280D03*
G01X29082Y78740D03*
G01X31622Y78740D03*
G01X34162Y78740D03*
G01X36702Y78740D03*
G01X39242Y78740D03*
G01X29082Y76200D03*
G01X31622Y76200D03*
G01X34162Y76200D03*
G01X36702Y76200D03*
G01X39242Y76200D03*
G01X29082Y73660D03*
G01X31622Y73660D03*
G01X34162Y73660D03*
G01X36702Y73660D03*
G01X39242Y73660D03*
G01X29082Y71120D03*
G01X31622Y71120D03*
G01X34162Y71120D03*
G01X36702Y71120D03*
G01X39242Y71120D03*
G01X29082Y60960D03*
G01X31622Y60960D03*
G01X34162Y60960D03*
G01X36702Y60960D03*
G01X39242Y60960D03*
G01X29082Y58420D03*
G01X31622Y58420D03*
G01X34162Y58420D03*
G01X36702Y58420D03*
G01X39242Y58420D03*
G01X29082Y55880D03*
G01X31622Y55880D03*
G01X34162Y55880D03*
G01X36702Y55880D03*
G01X39242Y55880D03*
G01X29082Y53340D03*
G01X31622Y53340D03*
G01X34162Y53340D03*
G01X36702Y53340D03*
G01X39242Y53340D03*
G01X29082Y50800D03*
G01X31622Y50800D03*
G01X34162Y50800D03*
G01X36702Y50800D03*
G01X39242Y50800D03*
G01X39242Y60960D03*
G01X41782Y60960D03*
G01X44322Y60960D03*
G01X46862Y60960D03*
G01X49402Y60960D03*
G01X39242Y58420D03*
G01X41782Y58420D03*
G01X44322Y58420D03*
G01X46862Y58420D03*
G01X49402Y58420D03*
G01X39242Y55880D03*
G01X41782Y55880D03*
G01X44322Y55880D03*
G01X46862Y55880D03*
G01X49402Y55880D03*
G01X39242Y53340D03*
G01X41782Y53340D03*
G01X44322Y53340D03*
G01X46862Y53340D03*
G01X49402Y53340D03*
G01X39242Y50800D03*
G01X41782Y50800D03*
G01X44322Y50800D03*
G01X46862Y50800D03*
G01X49402Y50800D03*
G01X59562Y60960D03*
G01X62102Y60960D03*
G01X64642Y60960D03*
G01X67182Y60960D03*
G01X69722Y60960D03*
G01X59562Y58420D03*
G01X62102Y58420D03*
G01X64642Y58420D03*
G01X67182Y58420D03*
G01X69722Y58420D03*
G01X59562Y55880D03*
G01X62102Y55880D03*
G01X64642Y55880D03*
G01X67182Y55880D03*
G01X69722Y55880D03*
G01X59562Y53340D03*
G01X62102Y53340D03*
G01X64642Y53340D03*
G01X67182Y53340D03*
G01X69722Y53340D03*
G01X59562Y50800D03*
G01X62102Y50800D03*
G01X64642Y50800D03*
G01X67182Y50800D03*
G01X69722Y50800D03*
G01X49402Y60960D03*
G01X51942Y60960D03*
G01X54482Y60960D03*
G01X57022Y60960D03*
G01X59562Y60960D03*
G01X49402Y58420D03*
G01X51942Y58420D03*
G01X54482Y58420D03*
G01X57022Y58420D03*
G01X59562Y58420D03*
G01X49402Y55880D03*
G01X51942Y55880D03*
G01X54482Y55880D03*
G01X57022Y55880D03*
G01X59562Y55880D03*
G01X49402Y53340D03*
G01X51942Y53340D03*
G01X54482Y53340D03*
G01X57022Y53340D03*
G01X59562Y53340D03*
G01X49402Y50800D03*
G01X51942Y50800D03*
G01X54482Y50800D03*
G01X57022Y50800D03*
G01X59562Y50800D03*
G01X69722Y60960D03*
G01X72262Y60960D03*
G01X74802Y60960D03*
G01X77342Y60960D03*
G01X79882Y60960D03*
G01X69722Y58420D03*
G01X72262Y58420D03*
G01X74802Y58420D03*
G01X77342Y58420D03*
G01X79882Y58420D03*
G01X69722Y55880D03*
G01X72262Y55880D03*
G01X74802Y55880D03*
G01X77342Y55880D03*
G01X79882Y55880D03*
G01X69722Y53340D03*
G01X72262Y53340D03*
G01X74802Y53340D03*
G01X77342Y53340D03*
G01X79882Y53340D03*
G01X69722Y50800D03*
G01X72262Y50800D03*
G01X74802Y50800D03*
G01X77342Y50800D03*
G01X79882Y50800D03*
G01X79882Y60960D03*
G01X82422Y60960D03*
G01X84962Y60960D03*
G01X87502Y60960D03*
G01X90042Y60960D03*
G01X79882Y58420D03*
G01X82422Y58420D03*
G01X84962Y58420D03*
G01X87502Y58420D03*
G01X90042Y58420D03*
G01X79882Y55880D03*
G01X82422Y55880D03*
G01X84962Y55880D03*
G01X87502Y55880D03*
G01X90042Y55880D03*
G01X79882Y53340D03*
G01X82422Y53340D03*
G01X84962Y53340D03*
G01X87502Y53340D03*
G01X90042Y53340D03*
G01X79882Y50800D03*
G01X82422Y50800D03*
G01X84962Y50800D03*
G01X87502Y50800D03*
G01X90042Y50800D03*
G01X82422Y60960D03*
G01X84962Y60960D03*
G01X87502Y60960D03*
G01X90042Y60960D03*
G01X92582Y60960D03*
G01X82422Y58420D03*
G01X84962Y58420D03*
G01X87502Y58420D03*
G01X90042Y58420D03*
G01X92582Y58420D03*
G01X82422Y55880D03*
G01X84962Y55880D03*
G01X87502Y55880D03*
G01X90042Y55880D03*
G01X92582Y55880D03*
G01X82422Y53340D03*
G01X84962Y53340D03*
G01X87502Y53340D03*
G01X90042Y53340D03*
G01X92582Y53340D03*
G01X82422Y50800D03*
G01X84962Y50800D03*
G01X87502Y50800D03*
G01X90042Y50800D03*
G01X92582Y50800D03*
G01X82422Y71120D03*
G01X84962Y71120D03*
G01X87502Y71120D03*
G01X90042Y71120D03*
G01X92582Y71120D03*
G01X82422Y68580D03*
G01X84962Y68580D03*
G01X87502Y68580D03*
G01X90042Y68580D03*
G01X92582Y68580D03*
G01X82422Y66040D03*
G01X84962Y66040D03*
G01X87502Y66040D03*
G01X90042Y66040D03*
G01X92582Y66040D03*
G01X82422Y63500D03*
G01X84962Y63500D03*
G01X87502Y63500D03*
G01X90042Y63500D03*
G01X92582Y63500D03*
G01X82422Y60960D03*
G01X84962Y60960D03*
G01X87502Y60960D03*
G01X90042Y60960D03*
G01X92582Y60960D03*
G01X79882Y71120D03*
G01X82422Y71120D03*
G01X84962Y71120D03*
G01X87502Y71120D03*
G01X90042Y71120D03*
G01X79882Y68580D03*
G01X82422Y68580D03*
G01X84962Y68580D03*
G01X87502Y68580D03*
G01X90042Y68580D03*
G01X79882Y66040D03*
G01X82422Y66040D03*
G01X84962Y66040D03*
G01X87502Y66040D03*
G01X90042Y66040D03*
G01X79882Y63500D03*
G01X82422Y63500D03*
G01X84962Y63500D03*
G01X87502Y63500D03*
G01X90042Y63500D03*
G01X79882Y60960D03*
G01X82422Y60960D03*
G01X84962Y60960D03*
G01X87502Y60960D03*
G01X90042Y60960D03*
G01X69722Y71120D03*
G01X72262Y71120D03*
G01X74802Y71120D03*
G01X77342Y71120D03*
G01X79882Y71120D03*
G01X69722Y68580D03*
G01X72262Y68580D03*
G01X74802Y68580D03*
G01X77342Y68580D03*
G01X79882Y68580D03*
G01X69722Y66040D03*
G01X72262Y66040D03*
G01X74802Y66040D03*
G01X77342Y66040D03*
G01X79882Y66040D03*
G01X69722Y63500D03*
G01X72262Y63500D03*
G01X74802Y63500D03*
G01X77342Y63500D03*
G01X79882Y63500D03*
G01X69722Y60960D03*
G01X72262Y60960D03*
G01X74802Y60960D03*
G01X77342Y60960D03*
G01X79882Y60960D03*
G01X49402Y71120D03*
G01X51942Y71120D03*
G01X54482Y71120D03*
G01X57022Y71120D03*
G01X59562Y71120D03*
G01X49402Y68580D03*
G01X51942Y68580D03*
G01X54482Y68580D03*
G01X57022Y68580D03*
G01X59562Y68580D03*
G01X49402Y66040D03*
G01X51942Y66040D03*
G01X54482Y66040D03*
G01X57022Y66040D03*
G01X59562Y66040D03*
G01X49402Y63500D03*
G01X51942Y63500D03*
G01X54482Y63500D03*
G01X57022Y63500D03*
G01X59562Y63500D03*
G01X49402Y60960D03*
G01X51942Y60960D03*
G01X54482Y60960D03*
G01X57022Y60960D03*
G01X59562Y60960D03*
G01X59562Y71120D03*
G01X62102Y71120D03*
G01X64642Y71120D03*
G01X67182Y71120D03*
G01X69722Y71120D03*
G01X59562Y68580D03*
G01X62102Y68580D03*
G01X64642Y68580D03*
G01X67182Y68580D03*
G01X69722Y68580D03*
G01X59562Y66040D03*
G01X62102Y66040D03*
G01X64642Y66040D03*
G01X67182Y66040D03*
G01X69722Y66040D03*
G01X59562Y63500D03*
G01X62102Y63500D03*
G01X64642Y63500D03*
G01X67182Y63500D03*
G01X69722Y63500D03*
G01X59562Y60960D03*
G01X62102Y60960D03*
G01X64642Y60960D03*
G01X67182Y60960D03*
G01X69722Y60960D03*
G01X39242Y71120D03*
G01X41782Y71120D03*
G01X44322Y71120D03*
G01X46862Y71120D03*
G01X49402Y71120D03*
G01X39242Y68580D03*
G01X41782Y68580D03*
G01X44322Y68580D03*
G01X46862Y68580D03*
G01X49402Y68580D03*
G01X39242Y66040D03*
G01X41782Y66040D03*
G01X44322Y66040D03*
G01X46862Y66040D03*
G01X49402Y66040D03*
G01X39242Y63500D03*
G01X41782Y63500D03*
G01X44322Y63500D03*
G01X46862Y63500D03*
G01X49402Y63500D03*
G01X39242Y60960D03*
G01X41782Y60960D03*
G01X44322Y60960D03*
G01X46862Y60960D03*
G01X49402Y60960D03*
G01X29082Y71120D03*
G01X31622Y71120D03*
G01X34162Y71120D03*
G01X36702Y71120D03*
G01X39242Y71120D03*
G01X29082Y68580D03*
G01X31622Y68580D03*
G01X34162Y68580D03*
G01X36702Y68580D03*
G01X39242Y68580D03*
G01X29082Y66040D03*
G01X31622Y66040D03*
G01X34162Y66040D03*
G01X36702Y66040D03*
G01X39242Y66040D03*
G01X29082Y63500D03*
G01X31622Y63500D03*
G01X34162Y63500D03*
G01X36702Y63500D03*
G01X39242Y63500D03*
G01X29082Y60960D03*
G01X31622Y60960D03*
G01X34162Y60960D03*
G01X36702Y60960D03*
G01X39242Y60960D03*
G01X29082Y30480D03*
G01X31622Y30480D03*
G01X34162Y30480D03*
G01X36702Y30480D03*
G01X39242Y30480D03*
G01X29082Y27940D03*
G01X31622Y27940D03*
G01X34162Y27940D03*
G01X36702Y27940D03*
G01X39242Y27940D03*
G01X29082Y25400D03*
G01X31622Y25400D03*
G01X34162Y25400D03*
G01X36702Y25400D03*
G01X39242Y25400D03*
G01X29082Y22860D03*
G01X31622Y22860D03*
G01X34162Y22860D03*
G01X36702Y22860D03*
G01X39242Y22860D03*
G01X29082Y20320D03*
G01X31622Y20320D03*
G01X34162Y20320D03*
G01X36702Y20320D03*
G01X39242Y20320D03*
G01X39242Y30480D03*
G01X41782Y30480D03*
G01X44322Y30480D03*
G01X46862Y30480D03*
G01X49402Y30480D03*
G01X39242Y27940D03*
G01X41782Y27940D03*
G01X44322Y27940D03*
G01X46862Y27940D03*
G01X49402Y27940D03*
G01X39242Y25400D03*
G01X41782Y25400D03*
G01X44322Y25400D03*
G01X46862Y25400D03*
G01X49402Y25400D03*
G01X39242Y22860D03*
G01X41782Y22860D03*
G01X44322Y22860D03*
G01X46862Y22860D03*
G01X49402Y22860D03*
G01X39242Y20320D03*
G01X41782Y20320D03*
G01X44322Y20320D03*
G01X46862Y20320D03*
G01X49402Y20320D03*
G01X59562Y30480D03*
G01X62102Y30480D03*
G01X64642Y30480D03*
G01X67182Y30480D03*
G01X69722Y30480D03*
G01X59562Y27940D03*
G01X62102Y27940D03*
G01X64642Y27940D03*
G01X67182Y27940D03*
G01X69722Y27940D03*
G01X59562Y25400D03*
G01X62102Y25400D03*
G01X64642Y25400D03*
G01X67182Y25400D03*
G01X69722Y25400D03*
G01X59562Y22860D03*
G01X62102Y22860D03*
G01X64642Y22860D03*
G01X67182Y22860D03*
G01X69722Y22860D03*
G01X59562Y20320D03*
G01X62102Y20320D03*
G01X64642Y20320D03*
G01X67182Y20320D03*
G01X69722Y20320D03*
G01X49402Y30480D03*
G01X51942Y30480D03*
G01X54482Y30480D03*
G01X57022Y30480D03*
G01X59562Y30480D03*
G01X49402Y27940D03*
G01X51942Y27940D03*
G01X54482Y27940D03*
G01X57022Y27940D03*
G01X59562Y27940D03*
G01X49402Y25400D03*
G01X51942Y25400D03*
G01X54482Y25400D03*
G01X57022Y25400D03*
G01X59562Y25400D03*
G01X49402Y22860D03*
G01X51942Y22860D03*
G01X54482Y22860D03*
G01X57022Y22860D03*
G01X59562Y22860D03*
G01X49402Y20320D03*
G01X51942Y20320D03*
G01X54482Y20320D03*
G01X57022Y20320D03*
G01X59562Y20320D03*
G01X69722Y30480D03*
G01X72262Y30480D03*
G01X74802Y30480D03*
G01X77342Y30480D03*
G01X79882Y30480D03*
G01X69722Y27940D03*
G01X72262Y27940D03*
G01X74802Y27940D03*
G01X77342Y27940D03*
G01X79882Y27940D03*
G01X69722Y25400D03*
G01X72262Y25400D03*
G01X74802Y25400D03*
G01X77342Y25400D03*
G01X79882Y25400D03*
G01X69722Y22860D03*
G01X72262Y22860D03*
G01X74802Y22860D03*
G01X77342Y22860D03*
G01X79882Y22860D03*
G01X69722Y20320D03*
G01X72262Y20320D03*
G01X74802Y20320D03*
G01X77342Y20320D03*
G01X79882Y20320D03*
G01X79882Y30480D03*
G01X82422Y30480D03*
G01X84962Y30480D03*
G01X87502Y30480D03*
G01X90042Y30480D03*
G01X79882Y27940D03*
G01X82422Y27940D03*
G01X84962Y27940D03*
G01X87502Y27940D03*
G01X90042Y27940D03*
G01X79882Y25400D03*
G01X82422Y25400D03*
G01X84962Y25400D03*
G01X87502Y25400D03*
G01X90042Y25400D03*
G01X79882Y22860D03*
G01X82422Y22860D03*
G01X84962Y22860D03*
G01X87502Y22860D03*
G01X90042Y22860D03*
G01X79882Y20320D03*
G01X82422Y20320D03*
G01X84962Y20320D03*
G01X87502Y20320D03*
G01X90042Y20320D03*
G01X82422Y30480D03*
G01X84962Y30480D03*
G01X87502Y30480D03*
G01X90042Y30480D03*
G01X92582Y30480D03*
G01X82422Y27940D03*
G01X84962Y27940D03*
G01X87502Y27940D03*
G01X90042Y27940D03*
G01X92582Y27940D03*
G01X82422Y25400D03*
G01X84962Y25400D03*
G01X87502Y25400D03*
G01X90042Y25400D03*
G01X92582Y25400D03*
G01X82422Y22860D03*
G01X84962Y22860D03*
G01X87502Y22860D03*
G01X90042Y22860D03*
G01X92582Y22860D03*
G01X82422Y20320D03*
G01X84962Y20320D03*
G01X87502Y20320D03*
G01X90042Y20320D03*
G01X92582Y20320D03*
G01X82422Y20320D03*
G01X84962Y20320D03*
G01X87502Y20320D03*
G01X90042Y20320D03*
G01X92582Y20320D03*
G01X82422Y17780D03*
G01X84962Y17780D03*
G01X87502Y17780D03*
G01X90042Y17780D03*
G01X92582Y17780D03*
G01X82422Y15240D03*
G01X84962Y15240D03*
G01X87502Y15240D03*
G01X90042Y15240D03*
G01X92582Y15240D03*
G01X82422Y12700D03*
G01X84962Y12700D03*
G01X87502Y12700D03*
G01X90042Y12700D03*
G01X92582Y12700D03*
G01X82422Y10160D03*
G01X84962Y10160D03*
G01X87502Y10160D03*
G01X90042Y10160D03*
G01X92582Y10160D03*
G01X79882Y20320D03*
G01X82422Y20320D03*
G01X84962Y20320D03*
G01X87502Y20320D03*
G01X90042Y20320D03*
G01X79882Y17780D03*
G01X82422Y17780D03*
G01X84962Y17780D03*
G01X87502Y17780D03*
G01X90042Y17780D03*
G01X79882Y15240D03*
G01X82422Y15240D03*
G01X84962Y15240D03*
G01X87502Y15240D03*
G01X90042Y15240D03*
G01X79882Y12700D03*
G01X82422Y12700D03*
G01X84962Y12700D03*
G01X87502Y12700D03*
G01X90042Y12700D03*
G01X79882Y10160D03*
G01X82422Y10160D03*
G01X84962Y10160D03*
G01X87502Y10160D03*
G01X90042Y10160D03*
G01X69722Y20320D03*
G01X72262Y20320D03*
G01X74802Y20320D03*
G01X77342Y20320D03*
G01X79882Y20320D03*
G01X69722Y17780D03*
G01X72262Y17780D03*
G01X74802Y17780D03*
G01X77342Y17780D03*
G01X79882Y17780D03*
G01X69722Y15240D03*
G01X72262Y15240D03*
G01X74802Y15240D03*
G01X77342Y15240D03*
G01X79882Y15240D03*
G01X69722Y12700D03*
G01X72262Y12700D03*
G01X74802Y12700D03*
G01X77342Y12700D03*
G01X79882Y12700D03*
G01X69722Y10160D03*
G01X72262Y10160D03*
G01X74802Y10160D03*
G01X77342Y10160D03*
G01X79882Y10160D03*
G01X49402Y20320D03*
G01X51942Y20320D03*
G01X54482Y20320D03*
G01X57022Y20320D03*
G01X59562Y20320D03*
G01X49402Y17780D03*
G01X51942Y17780D03*
G01X54482Y17780D03*
G01X57022Y17780D03*
G01X59562Y17780D03*
G01X49402Y15240D03*
G01X51942Y15240D03*
G01X54482Y15240D03*
G01X57022Y15240D03*
G01X59562Y15240D03*
G01X49402Y12700D03*
G01X51942Y12700D03*
G01X54482Y12700D03*
G01X57022Y12700D03*
G01X59562Y12700D03*
G01X49402Y10160D03*
G01X51942Y10160D03*
G01X54482Y10160D03*
G01X57022Y10160D03*
G01X59562Y10160D03*
G01X59562Y20320D03*
G01X62102Y20320D03*
G01X64642Y20320D03*
G01X67182Y20320D03*
G01X69722Y20320D03*
G01X59562Y17780D03*
G01X62102Y17780D03*
G01X64642Y17780D03*
G01X67182Y17780D03*
G01X69722Y17780D03*
G01X59562Y15240D03*
G01X62102Y15240D03*
G01X64642Y15240D03*
G01X67182Y15240D03*
G01X69722Y15240D03*
G01X59562Y12700D03*
G01X62102Y12700D03*
G01X64642Y12700D03*
G01X67182Y12700D03*
G01X69722Y12700D03*
G01X59562Y10160D03*
G01X62102Y10160D03*
G01X64642Y10160D03*
G01X67182Y10160D03*
G01X69722Y10160D03*
G01X39242Y20320D03*
G01X41782Y20320D03*
G01X44322Y20320D03*
G01X46862Y20320D03*
G01X49402Y20320D03*
G01X39242Y17780D03*
G01X41782Y17780D03*
G01X44322Y17780D03*
G01X46862Y17780D03*
G01X49402Y17780D03*
G01X39242Y15240D03*
G01X41782Y15240D03*
G01X44322Y15240D03*
G01X46862Y15240D03*
G01X49402Y15240D03*
G01X39242Y12700D03*
G01X41782Y12700D03*
G01X44322Y12700D03*
G01X46862Y12700D03*
G01X49402Y12700D03*
G01X39242Y10160D03*
G01X41782Y10160D03*
G01X44322Y10160D03*
G01X46862Y10160D03*
G01X49402Y10160D03*
G01X29082Y20320D03*
G01X31622Y20320D03*
G01X34162Y20320D03*
G01X36702Y20320D03*
G01X39242Y20320D03*
G01X29082Y17780D03*
G01X31622Y17780D03*
G01X34162Y17780D03*
G01X36702Y17780D03*
G01X39242Y17780D03*
G01X29082Y15240D03*
G01X31622Y15240D03*
G01X34162Y15240D03*
G01X36702Y15240D03*
G01X39242Y15240D03*
G01X29082Y12700D03*
G01X31622Y12700D03*
G01X34162Y12700D03*
G01X36702Y12700D03*
G01X39242Y12700D03*
G01X29082Y10160D03*
G01X31622Y10160D03*
G01X34162Y10160D03*
G01X36702Y10160D03*
G01X39242Y10160D03*
G01X29082Y40640D03*
G01X31622Y40640D03*
G01X34162Y40640D03*
G01X36702Y40640D03*
G01X39242Y40640D03*
G01X29082Y38100D03*
G01X31622Y38100D03*
G01X34162Y38100D03*
G01X36702Y38100D03*
G01X39242Y38100D03*
G01X29082Y35560D03*
G01X31622Y35560D03*
G01X34162Y35560D03*
G01X36702Y35560D03*
G01X39242Y35560D03*
G01X29082Y33020D03*
G01X31622Y33020D03*
G01X34162Y33020D03*
G01X36702Y33020D03*
G01X39242Y33020D03*
G01X29082Y30480D03*
G01X31622Y30480D03*
G01X34162Y30480D03*
G01X36702Y30480D03*
G01X39242Y30480D03*
G01X39242Y40640D03*
G01X41782Y40640D03*
G01X44322Y40640D03*
G01X46862Y40640D03*
G01X49402Y40640D03*
G01X39242Y38100D03*
G01X41782Y38100D03*
G01X44322Y38100D03*
G01X46862Y38100D03*
G01X49402Y38100D03*
G01X39242Y35560D03*
G01X41782Y35560D03*
G01X44322Y35560D03*
G01X46862Y35560D03*
G01X49402Y35560D03*
G01X39242Y33020D03*
G01X41782Y33020D03*
G01X44322Y33020D03*
G01X46862Y33020D03*
G01X49402Y33020D03*
G01X39242Y30480D03*
G01X41782Y30480D03*
G01X44322Y30480D03*
G01X46862Y30480D03*
G01X49402Y30480D03*
G01X59562Y40640D03*
G01X62102Y40640D03*
G01X64642Y40640D03*
G01X67182Y40640D03*
G01X69722Y40640D03*
G01X59562Y38100D03*
G01X62102Y38100D03*
G01X64642Y38100D03*
G01X67182Y38100D03*
G01X69722Y38100D03*
G01X59562Y35560D03*
G01X62102Y35560D03*
G01X64642Y35560D03*
G01X67182Y35560D03*
G01X69722Y35560D03*
G01X59562Y33020D03*
G01X62102Y33020D03*
G01X64642Y33020D03*
G01X67182Y33020D03*
G01X69722Y33020D03*
G01X59562Y30480D03*
G01X62102Y30480D03*
G01X64642Y30480D03*
G01X67182Y30480D03*
G01X69722Y30480D03*
G01X49402Y40640D03*
G01X51942Y40640D03*
G01X54482Y40640D03*
G01X57022Y40640D03*
G01X59562Y40640D03*
G01X49402Y38100D03*
G01X51942Y38100D03*
G01X54482Y38100D03*
G01X57022Y38100D03*
G01X59562Y38100D03*
G01X49402Y35560D03*
G01X51942Y35560D03*
G01X54482Y35560D03*
G01X57022Y35560D03*
G01X59562Y35560D03*
G01X49402Y33020D03*
G01X51942Y33020D03*
G01X54482Y33020D03*
G01X57022Y33020D03*
G01X59562Y33020D03*
G01X49402Y30480D03*
G01X51942Y30480D03*
G01X54482Y30480D03*
G01X57022Y30480D03*
G01X59562Y30480D03*
G01X69722Y40640D03*
G01X72262Y40640D03*
G01X74802Y40640D03*
G01X77342Y40640D03*
G01X79882Y40640D03*
G01X69722Y38100D03*
G01X72262Y38100D03*
G01X74802Y38100D03*
G01X77342Y38100D03*
G01X79882Y38100D03*
G01X69722Y35560D03*
G01X72262Y35560D03*
G01X74802Y35560D03*
G01X77342Y35560D03*
G01X79882Y35560D03*
G01X69722Y33020D03*
G01X72262Y33020D03*
G01X74802Y33020D03*
G01X77342Y33020D03*
G01X79882Y33020D03*
G01X69722Y30480D03*
G01X72262Y30480D03*
G01X74802Y30480D03*
G01X77342Y30480D03*
G01X79882Y30480D03*
G01X79882Y40640D03*
G01X82422Y40640D03*
G01X84962Y40640D03*
G01X87502Y40640D03*
G01X90042Y40640D03*
G01X79882Y38100D03*
G01X82422Y38100D03*
G01X84962Y38100D03*
G01X87502Y38100D03*
G01X90042Y38100D03*
G01X79882Y35560D03*
G01X82422Y35560D03*
G01X84962Y35560D03*
G01X87502Y35560D03*
G01X90042Y35560D03*
G01X79882Y33020D03*
G01X82422Y33020D03*
G01X84962Y33020D03*
G01X87502Y33020D03*
G01X90042Y33020D03*
G01X79882Y30480D03*
G01X82422Y30480D03*
G01X84962Y30480D03*
G01X87502Y30480D03*
G01X90042Y30480D03*
G01X82422Y40640D03*
G01X84962Y40640D03*
G01X87502Y40640D03*
G01X90042Y40640D03*
G01X92582Y40640D03*
G01X82422Y38100D03*
G01X84962Y38100D03*
G01X87502Y38100D03*
G01X90042Y38100D03*
G01X92582Y38100D03*
G01X82422Y35560D03*
G01X84962Y35560D03*
G01X87502Y35560D03*
G01X90042Y35560D03*
G01X92582Y35560D03*
G01X82422Y33020D03*
G01X84962Y33020D03*
G01X87502Y33020D03*
G01X90042Y33020D03*
G01X92582Y33020D03*
G01X82422Y30480D03*
G01X84962Y30480D03*
G01X87502Y30480D03*
G01X90042Y30480D03*
G01X92582Y30480D03*
G01X82422Y50800D03*
G01X84962Y50800D03*
G01X87502Y50800D03*
G01X90042Y50800D03*
G01X92582Y50800D03*
G01X82422Y48260D03*
G01X84962Y48260D03*
G01X87502Y48260D03*
G01X90042Y48260D03*
G01X92582Y48260D03*
G01X82422Y45720D03*
G01X84962Y45720D03*
G01X87502Y45720D03*
G01X90042Y45720D03*
G01X92582Y45720D03*
G01X82422Y43180D03*
G01X84962Y43180D03*
G01X87502Y43180D03*
G01X90042Y43180D03*
G01X92582Y43180D03*
G01X82422Y40640D03*
G01X84962Y40640D03*
G01X87502Y40640D03*
G01X90042Y40640D03*
G01X92582Y40640D03*
G01X79882Y50800D03*
G01X82422Y50800D03*
G01X84962Y50800D03*
G01X87502Y50800D03*
G01X90042Y50800D03*
G01X79882Y48260D03*
G01X82422Y48260D03*
G01X84962Y48260D03*
G01X87502Y48260D03*
G01X90042Y48260D03*
G01X79882Y45720D03*
G01X82422Y45720D03*
G01X84962Y45720D03*
G01X87502Y45720D03*
G01X90042Y45720D03*
G01X79882Y43180D03*
G01X82422Y43180D03*
G01X84962Y43180D03*
G01X87502Y43180D03*
G01X90042Y43180D03*
G01X79882Y40640D03*
G01X82422Y40640D03*
G01X84962Y40640D03*
G01X87502Y40640D03*
G01X90042Y40640D03*
G01X69722Y50800D03*
G01X72262Y50800D03*
G01X74802Y50800D03*
G01X77342Y50800D03*
G01X79882Y50800D03*
G01X69722Y48260D03*
G01X72262Y48260D03*
G01X74802Y48260D03*
G01X77342Y48260D03*
G01X79882Y48260D03*
G01X69722Y45720D03*
G01X72262Y45720D03*
G01X74802Y45720D03*
G01X77342Y45720D03*
G01X79882Y45720D03*
G01X69722Y43180D03*
G01X72262Y43180D03*
G01X74802Y43180D03*
G01X77342Y43180D03*
G01X79882Y43180D03*
G01X69722Y40640D03*
G01X72262Y40640D03*
G01X74802Y40640D03*
G01X77342Y40640D03*
G01X79882Y40640D03*
G01X49402Y50800D03*
G01X51942Y50800D03*
G01X54482Y50800D03*
G01X57022Y50800D03*
G01X59562Y50800D03*
G01X49402Y48260D03*
G01X51942Y48260D03*
G01X54482Y48260D03*
G01X57022Y48260D03*
G01X59562Y48260D03*
G01X49402Y45720D03*
G01X51942Y45720D03*
G01X54482Y45720D03*
G01X57022Y45720D03*
G01X59562Y45720D03*
G01X49402Y43180D03*
G01X51942Y43180D03*
G01X54482Y43180D03*
G01X57022Y43180D03*
G01X59562Y43180D03*
G01X49402Y40640D03*
G01X51942Y40640D03*
G01X54482Y40640D03*
G01X57022Y40640D03*
G01X59562Y40640D03*
G01X59562Y50800D03*
G01X62102Y50800D03*
G01X64642Y50800D03*
G01X67182Y50800D03*
G01X69722Y50800D03*
G01X59562Y48260D03*
G01X62102Y48260D03*
G01X64642Y48260D03*
G01X67182Y48260D03*
G01X69722Y48260D03*
G01X59562Y45720D03*
G01X62102Y45720D03*
G01X64642Y45720D03*
G01X67182Y45720D03*
G01X69722Y45720D03*
G01X59562Y43180D03*
G01X62102Y43180D03*
G01X64642Y43180D03*
G01X67182Y43180D03*
G01X69722Y43180D03*
G01X59562Y40640D03*
G01X62102Y40640D03*
G01X64642Y40640D03*
G01X67182Y40640D03*
G01X69722Y40640D03*
G01X39242Y50800D03*
G01X41782Y50800D03*
G01X44322Y50800D03*
G01X46862Y50800D03*
G01X49402Y50800D03*
G01X39242Y48260D03*
G01X41782Y48260D03*
G01X44322Y48260D03*
G01X46862Y48260D03*
G01X49402Y48260D03*
G01X39242Y45720D03*
G01X41782Y45720D03*
G01X44322Y45720D03*
G01X46862Y45720D03*
G01X49402Y45720D03*
G01X39242Y43180D03*
G01X41782Y43180D03*
G01X44322Y43180D03*
G01X46862Y43180D03*
G01X49402Y43180D03*
G01X39242Y40640D03*
G01X41782Y40640D03*
G01X44322Y40640D03*
G01X46862Y40640D03*
G01X49402Y40640D03*
G01X29082Y50800D03*
G01X31622Y50800D03*
G01X34162Y50800D03*
G01X36702Y50800D03*
G01X39242Y50800D03*
G01X29082Y48260D03*
G01X31622Y48260D03*
G01X34162Y48260D03*
G01X36702Y48260D03*
G01X39242Y48260D03*
G01X29082Y45720D03*
G01X31622Y45720D03*
G01X34162Y45720D03*
G01X36702Y45720D03*
G01X39242Y45720D03*
G01X29082Y43180D03*
G01X31622Y43180D03*
G01X34162Y43180D03*
G01X36702Y43180D03*
G01X39242Y43180D03*
G01X29082Y40640D03*
G01X31622Y40640D03*
G01X34162Y40640D03*
G01X36702Y40640D03*
G01X39242Y40640D03*
G01X29082Y15240D03*
G01X31622Y15240D03*
G01X34162Y15240D03*
G01X36702Y15240D03*
G01X39242Y15240D03*
G01X29082Y12700D03*
G01X31622Y12700D03*
G01X34162Y12700D03*
G01X36702Y12700D03*
G01X39242Y12700D03*
G01X29082Y10160D03*
G01X31622Y10160D03*
G01X34162Y10160D03*
G01X36702Y10160D03*
G01X39242Y10160D03*
G01X29082Y7620D03*
G01X31622Y7620D03*
G01X34162Y7620D03*
G01X36702Y7620D03*
G01X39242Y7620D03*
G01X29082Y5080D03*
G01X31622Y5080D03*
G01X34162Y5080D03*
G01X36702Y5080D03*
G01X39242Y5080D03*
G01X39242Y15240D03*
G01X41782Y15240D03*
G01X44322Y15240D03*
G01X46862Y15240D03*
G01X49402Y15240D03*
G01X39242Y12700D03*
G01X41782Y12700D03*
G01X44322Y12700D03*
G01X46862Y12700D03*
G01X49402Y12700D03*
G01X39242Y10160D03*
G01X41782Y10160D03*
G01X44322Y10160D03*
G01X46862Y10160D03*
G01X49402Y10160D03*
G01X39242Y7620D03*
G01X41782Y7620D03*
G01X44322Y7620D03*
G01X46862Y7620D03*
G01X49402Y7620D03*
G01X39242Y5080D03*
G01X41782Y5080D03*
G01X44322Y5080D03*
G01X46862Y5080D03*
G01X49402Y5080D03*
G01X59562Y15240D03*
G01X62102Y15240D03*
G01X64642Y15240D03*
G01X67182Y15240D03*
G01X69722Y15240D03*
G01X59562Y12700D03*
G01X62102Y12700D03*
G01X64642Y12700D03*
G01X67182Y12700D03*
G01X69722Y12700D03*
G01X59562Y10160D03*
G01X62102Y10160D03*
G01X64642Y10160D03*
G01X67182Y10160D03*
G01X69722Y10160D03*
G01X59562Y7620D03*
G01X62102Y7620D03*
G01X64642Y7620D03*
G01X67182Y7620D03*
G01X69722Y7620D03*
G01X59562Y5080D03*
G01X62102Y5080D03*
G01X64642Y5080D03*
G01X67182Y5080D03*
G01X69722Y5080D03*
G01X49402Y15240D03*
G01X51942Y15240D03*
G01X54482Y15240D03*
G01X57022Y15240D03*
G01X59562Y15240D03*
G01X49402Y12700D03*
G01X51942Y12700D03*
G01X54482Y12700D03*
G01X57022Y12700D03*
G01X59562Y12700D03*
G01X49402Y10160D03*
G01X51942Y10160D03*
G01X54482Y10160D03*
G01X57022Y10160D03*
G01X59562Y10160D03*
G01X49402Y7620D03*
G01X51942Y7620D03*
G01X54482Y7620D03*
G01X57022Y7620D03*
G01X59562Y7620D03*
G01X49402Y5080D03*
G01X51942Y5080D03*
G01X54482Y5080D03*
G01X57022Y5080D03*
G01X59562Y5080D03*
G01X69722Y15240D03*
G01X72262Y15240D03*
G01X74802Y15240D03*
G01X77342Y15240D03*
G01X79882Y15240D03*
G01X69722Y12700D03*
G01X72262Y12700D03*
G01X74802Y12700D03*
G01X77342Y12700D03*
G01X79882Y12700D03*
G01X69722Y10160D03*
G01X72262Y10160D03*
G01X74802Y10160D03*
G01X77342Y10160D03*
G01X79882Y10160D03*
G01X69722Y7620D03*
G01X72262Y7620D03*
G01X74802Y7620D03*
G01X77342Y7620D03*
G01X79882Y7620D03*
G01X69722Y5080D03*
G01X72262Y5080D03*
G01X74802Y5080D03*
G01X77342Y5080D03*
G01X79882Y5080D03*
G01X79882Y15240D03*
G01X82422Y15240D03*
G01X84962Y15240D03*
G01X87502Y15240D03*
G01X90042Y15240D03*
G01X79882Y12700D03*
G01X82422Y12700D03*
G01X84962Y12700D03*
G01X87502Y12700D03*
G01X90042Y12700D03*
G01X79882Y10160D03*
G01X82422Y10160D03*
G01X84962Y10160D03*
G01X87502Y10160D03*
G01X90042Y10160D03*
G01X79882Y7620D03*
G01X82422Y7620D03*
G01X84962Y7620D03*
G01X87502Y7620D03*
G01X90042Y7620D03*
G01X79882Y5080D03*
G01X82422Y5080D03*
G01X84962Y5080D03*
G01X87502Y5080D03*
G01X90042Y5080D03*
G01X82422Y15240D03*
G01X84962Y15240D03*
G01X87502Y15240D03*
G01X90042Y15240D03*
G01X92582Y15240D03*
G01X82422Y12700D03*
G01X84962Y12700D03*
G01X87502Y12700D03*
G01X90042Y12700D03*
G01X92582Y12700D03*
G01X82422Y10160D03*
G01X84962Y10160D03*
G01X87502Y10160D03*
G01X90042Y10160D03*
G01X92582Y10160D03*
G01X82422Y7620D03*
G01X84962Y7620D03*
G01X87502Y7620D03*
G01X90042Y7620D03*
G01X92582Y7620D03*
G01X82422Y5080D03*
G01X84962Y5080D03*
G01X87502Y5080D03*
G01X90042Y5080D03*
G01X92582Y5080D03*
M00*
M02*
