%TF.GenerationSoftware,KiCad,Pcbnew,10.0.2*%
%TF.CreationDate,2026-08-06T12:51:58-04:00*%
%TF.ProjectId,aci,6163692e-6b69-4636-9164-5f7063625858,rev?*%
%TF.SameCoordinates,Original*%
%TF.FileFunction,Copper,L1,Top*%
%TF.FilePolarity,Positive*%
%FSLAX46Y46*%
G04 Gerber Fmt 4.6, Leading zero omitted, Abs format (unit mm)*
G04 Created by KiCad (PCBNEW 10.0.2) date 2026-08-06 12:51:58*
%MOMM*%
%LPD*%
G01*
G04 APERTURE LIST*
G04 Aperture macros list*
%AMFreePoly0*
4,1,27,0.296476,1.234910,0.486008,1.173327,0.663573,1.082853,0.824799,0.965716,0.965716,0.824799,1.082853,0.663573,1.173327,0.486008,1.234910,0.296476,1.266085,0.099643,1.266085,0.000000,1.270000,0.000000,1.270000,-8.890000,-1.270000,-8.890000,-1.270000,0.000000,-1.266085,0.000000,-1.266085,0.099643,-1.234910,0.296476,-1.173327,0.486008,-1.082853,0.663573,-0.965716,0.824799,
-0.824799,0.965716,-0.663573,1.082853,-0.486008,1.173327,-0.296476,1.234910,-0.099643,1.266085,0.099643,1.266085,0.296476,1.234910,0.296476,1.234910,$1*%
G04 Aperture macros list end*
%TA.AperFunction,NonConductor*%
%ADD10C,0.220980*%
%TD*%
%TA.AperFunction,NonConductor*%
%ADD11C,0.203200*%
%TD*%
%ADD12C,0.174625*%
%TA.AperFunction,ComponentPad*%
%ADD13O,2.540000X1.143000*%
%TD*%
%TA.AperFunction,ComponentPad*%
%ADD14C,1.501140*%
%TD*%
%TA.AperFunction,ComponentPad*%
%ADD15O,2.540000X1.270000*%
%TD*%
%TA.AperFunction,ComponentPad*%
%ADD16C,10.160000*%
%TD*%
%TA.AperFunction,ComponentPad*%
%ADD17C,1.524000*%
%TD*%
%TA.AperFunction,ComponentPad*%
%ADD18C,1.651000*%
%TD*%
%TA.AperFunction,ComponentPad*%
%ADD19O,1.143000X2.540000*%
%TD*%
%TA.AperFunction,ConnectorPad*%
%ADD20FreePoly0,0.000000*%
%TD*%
%TA.AperFunction,ViaPad*%
%ADD21C,1.198880*%
%TD*%
%TA.AperFunction,Conductor*%
%ADD22C,0.220980*%
%TD*%
%TA.AperFunction,Conductor*%
%ADD23C,0.200660*%
%TD*%
%TA.AperFunction,Conductor*%
%ADD24C,0.254000*%
%TD*%
%TA.AperFunction,Conductor*%
%ADD25C,0.231140*%
%TD*%
%TA.AperFunction,Conductor*%
%ADD26C,1.501140*%
%TD*%
%TA.AperFunction,Conductor*%
%ADD27C,0.635000*%
%TD*%
%TA.AperFunction,Conductor*%
%ADD28C,0.508000*%
%TD*%
%TA.AperFunction,Conductor*%
%ADD29C,0.701040*%
%TD*%
G04 APERTURE END LIST*
D10*
X25255220Y23334980D02*
X25118060Y23266400D01*
X25460960Y23540720D02*
X25255220Y23334980D01*
X25460960Y22098000D02*
X25460960Y23540720D01*
X32240220Y58204100D02*
X32103060Y58135520D01*
X32445960Y58409840D02*
X32240220Y58204100D01*
X32445960Y56967120D02*
X32445960Y58409840D01*
X43248580Y60805060D02*
X43797220Y62247780D01*
X43454320Y61285120D02*
X44140120Y61285120D01*
X43797220Y62247780D02*
X44348400Y60805060D01*
X44691300Y62247780D02*
X45311060Y62247780D01*
X44691300Y60805060D02*
X44691300Y62230000D01*
X45311060Y62247780D02*
X45516800Y62179200D01*
X45311060Y61493400D02*
X44691300Y61493400D01*
X45516800Y62179200D02*
X45585380Y62110620D01*
X45516800Y61561980D02*
X45311060Y61493400D01*
X45585380Y62110620D02*
X45653960Y61973460D01*
X45585380Y61630560D02*
X45516800Y61561980D01*
X45653960Y61973460D02*
X45653960Y61767720D01*
X45653960Y61767720D02*
X45585380Y61630560D01*
X46134020Y62247780D02*
X46753780Y62247780D01*
X46134020Y60805060D02*
X46134020Y62230000D01*
X46753780Y62247780D02*
X46959520Y62179200D01*
X46753780Y61493400D02*
X46134020Y61493400D01*
X46959520Y62179200D02*
X47028100Y62110620D01*
X46959520Y61561980D02*
X46753780Y61493400D01*
X47028100Y62110620D02*
X47096680Y61973460D01*
X47028100Y61630560D02*
X46959520Y61561980D01*
X47096680Y61973460D02*
X47096680Y61767720D01*
X47096680Y61767720D02*
X47028100Y61630560D01*
X47579280Y62247780D02*
X47579280Y60805060D01*
X47579280Y60805060D02*
X48404780Y60805060D01*
X48747680Y62247780D02*
X48747680Y60805060D01*
X48747680Y60805060D02*
X49641760Y60805060D01*
X49296320Y61561980D02*
X48747680Y61561980D01*
X49641760Y62247780D02*
X48747680Y62247780D01*
X52115720Y62042040D02*
X51978560Y61973460D01*
X52321460Y62247780D02*
X52115720Y62042040D01*
X52321460Y60805060D02*
X52321460Y62247780D01*
X54935120Y61699140D02*
X54935120Y61356240D01*
X54935120Y61356240D02*
X55003700Y61147960D01*
X55003700Y61904880D02*
X54935120Y61699140D01*
X55003700Y61147960D02*
X55072280Y61010800D01*
X55072280Y62042040D02*
X55003700Y61904880D01*
X55072280Y61010800D02*
X55209440Y60873640D01*
X55209440Y62179200D02*
X55072280Y62042040D01*
X55209440Y60873640D02*
X55346600Y60805060D01*
X55346600Y62247780D02*
X55209440Y62179200D01*
X55346600Y60805060D02*
X55623460Y60805060D01*
X55623460Y62247780D02*
X55346600Y62247780D01*
X55623460Y60805060D02*
X55760620Y60873640D01*
X55760620Y62179200D02*
X55623460Y62247780D01*
X55760620Y60873640D02*
X55860251Y60973271D01*
X55860251Y60973271D02*
X55897780Y61010800D01*
X55897780Y62042040D02*
X55760620Y62179200D01*
X55897780Y61010800D02*
X55966360Y61147960D01*
X55966360Y61904880D02*
X55897780Y62042040D01*
X56240680Y60805060D02*
X56789320Y62247780D01*
X56446420Y61285120D02*
X57132220Y61285120D01*
X56789320Y62247780D02*
X57340500Y60805060D01*
X60434220Y62247780D02*
X60434220Y60805060D01*
X60434220Y60805060D02*
X61328300Y60805060D01*
X60982860Y61561980D02*
X60434220Y61561980D01*
X61328300Y62247780D02*
X60434220Y62247780D01*
X61534040Y62247780D02*
X62496700Y62247780D01*
X62016640Y60805060D02*
X62016640Y62247780D01*
X62633860Y62247780D02*
X63596520Y62247780D01*
X63116460Y60805060D02*
X63116460Y62247780D01*
X63941960Y62247780D02*
X63941960Y60805060D01*
X63941960Y60805060D02*
X64836040Y60805060D01*
X64490600Y61561980D02*
X63941960Y61561980D01*
X64836040Y62247780D02*
X63941960Y62247780D01*
X68889880Y62247780D02*
X69852540Y62247780D01*
X69372480Y60805060D02*
X69372480Y62247780D01*
X70197980Y62247780D02*
X70197980Y60805060D01*
X70197980Y60805060D02*
X71092060Y60805060D01*
X70746620Y61561980D02*
X70197980Y61561980D01*
X71092060Y62247780D02*
X70197980Y62247780D01*
D11*
X73855580Y57533540D02*
X74792840Y57533540D01*
D10*
X73980040Y60805060D02*
X74528680Y62247780D01*
X74185780Y61285120D02*
X74871580Y61285120D01*
D11*
X74480420Y58409840D02*
X73855580Y57533540D01*
X74480420Y57096660D02*
X74480420Y58409840D01*
D10*
X74528680Y62247780D02*
X75079860Y60805060D01*
X75354180Y61699140D02*
X75354180Y61356240D01*
X75354180Y61356240D02*
X75422760Y61147960D01*
X75422760Y61904880D02*
X75354180Y61699140D01*
X75422760Y61147960D02*
X75491340Y61010800D01*
X75491340Y62042040D02*
X75422760Y61904880D01*
X75491340Y61010800D02*
X75628500Y60873640D01*
X75628500Y62179200D02*
X75491340Y62042040D01*
X75628500Y60873640D02*
X75765660Y60805060D01*
X75765660Y62247780D02*
X75628500Y62179200D01*
X75765660Y60805060D02*
X76042520Y60805060D01*
X76042520Y62247780D02*
X75765660Y62247780D01*
X76042520Y60805060D02*
X76179680Y60873640D01*
X76179680Y62179200D02*
X76042520Y62247780D01*
X76179680Y60873640D02*
X76279311Y60973271D01*
X76279311Y60973271D02*
X76316840Y61010800D01*
X76316840Y62042040D02*
X76179680Y62179200D01*
X76316840Y61010800D02*
X76385420Y61147960D01*
X76385420Y61904880D02*
X76316840Y62042040D01*
X76865480Y62247780D02*
X76865480Y60805060D01*
X76865480Y60805060D02*
X77759560Y60805060D01*
X77414120Y61561980D02*
X76865480Y61561980D01*
X77759560Y62247780D02*
X76865480Y62247780D01*
X89740740Y61699140D02*
X89740740Y61356240D01*
X89740740Y61356240D02*
X89809320Y61147960D01*
X89809320Y61904880D02*
X89740740Y61699140D01*
X89809320Y61147960D02*
X89877900Y61010800D01*
X89877900Y62042040D02*
X89809320Y61904880D01*
X89877900Y61010800D02*
X90015060Y60873640D01*
X90015060Y62179200D02*
X89877900Y62042040D01*
X90015060Y60873640D02*
X90152220Y60805060D01*
X90152220Y62247780D02*
X90015060Y62179200D01*
X90152220Y60805060D02*
X90429080Y60805060D01*
X90429080Y62247780D02*
X90152220Y62247780D01*
X90429080Y60805060D02*
X90566240Y60873640D01*
X90566240Y62179200D02*
X90429080Y62247780D01*
X90566240Y60873640D02*
X90665871Y60973271D01*
X90665871Y60973271D02*
X90703400Y61010800D01*
X90703400Y62042040D02*
X90566240Y62179200D01*
X90703400Y61010800D02*
X90771980Y61147960D01*
X90771980Y61904880D02*
X90703400Y62042040D01*
X92765880Y62247780D02*
X93385640Y62247780D01*
X92765880Y60805060D02*
X92765880Y62230000D01*
X93385640Y62247780D02*
X93591380Y62179200D01*
X93385640Y61493400D02*
X92765880Y61493400D01*
X93591380Y62179200D02*
X93659960Y62110620D01*
X93591380Y61561980D02*
X93385640Y61493400D01*
X93659960Y62110620D02*
X93728540Y61973460D01*
X93659960Y61630560D02*
X93591380Y61561980D01*
X93728540Y61973460D02*
X93728540Y61767720D01*
X93728540Y61767720D02*
X93659960Y61630560D01*
X100187760Y62247780D02*
X101150420Y62247780D01*
X100670360Y60805060D02*
X100670360Y62247780D01*
X103558340Y62042040D02*
X103421180Y61973460D01*
X103764080Y62247780D02*
X103558340Y62042040D01*
X103764080Y60805060D02*
X103764080Y62247780D01*
X106240580Y60805060D02*
X106926380Y62247780D01*
X106926380Y62247780D02*
X105963720Y62247780D01*
D12*
G36*
X21678230Y47314296D02*
G01*
X21648684Y47294229D01*
X21613230Y47287511D01*
X21577850Y47294225D01*
X21548316Y47314296D01*
X21528310Y47343977D01*
X21521616Y47379467D01*
X21521616Y48605083D01*
X21528936Y48640329D01*
X21551216Y48670168D01*
X21582355Y48690613D01*
X21613230Y48696953D01*
X22377193Y48696953D01*
X22412500Y48690243D01*
X22442023Y48670168D01*
X22462092Y48640551D01*
X22468808Y48605083D01*
X22462095Y48569600D01*
X22442023Y48539912D01*
X22412500Y48519838D01*
X22377193Y48513128D01*
X21705015Y48513128D01*
X21705015Y48121934D01*
X22178014Y48121934D01*
X22213314Y48115205D01*
X22242843Y48095063D01*
X22262846Y48065453D01*
X22269543Y48029978D01*
X22262853Y47994562D01*
X22242843Y47964893D01*
X22213320Y47944818D01*
X22178014Y47938108D01*
X21705015Y47938108D01*
X21705015Y47379381D01*
X21698306Y47343972D01*
X21678230Y47314296D01*
G37*
G36*
X23472631Y48690717D02*
G01*
X23551083Y48672647D01*
X23622346Y48643238D01*
X23687515Y48602353D01*
X23741454Y48550509D01*
X23780397Y48487099D01*
X23804911Y48409718D01*
X23813676Y48314801D01*
X23804247Y48221247D01*
X23777337Y48141894D01*
X23735085Y48073298D01*
X23684700Y48023410D01*
X23624339Y47985934D01*
X23551970Y47957557D01*
X23783138Y47416061D01*
X23786891Y47404545D01*
X23789791Y47393030D01*
X23790730Y47379637D01*
X23786936Y47353740D01*
X23775461Y47329650D01*
X23757776Y47309495D01*
X23735369Y47295188D01*
X23699030Y47287511D01*
X23673299Y47291321D01*
X23649299Y47302866D01*
X23629273Y47320631D01*
X23614923Y47343213D01*
X23362771Y47932649D01*
X22972941Y47932649D01*
X22972941Y47379722D01*
X22966228Y47344152D01*
X22946157Y47314381D01*
X22916603Y47294248D01*
X22881157Y47287511D01*
X22845777Y47294225D01*
X22816242Y47314296D01*
X22796236Y47343977D01*
X22789542Y47379467D01*
X22789542Y48021021D01*
X22789542Y48116474D01*
X22972941Y48116474D01*
X23385717Y48116474D01*
X23467748Y48122424D01*
X23527428Y48138112D01*
X23570054Y48161258D01*
X23601931Y48195718D01*
X23622542Y48245103D01*
X23630277Y48314801D01*
X23622540Y48384497D01*
X23601928Y48433849D01*
X23570054Y48468259D01*
X23527421Y48491451D01*
X23467741Y48507167D01*
X23385717Y48513128D01*
X22972941Y48513128D01*
X22972941Y48116474D01*
X22789542Y48116474D01*
X22789542Y48605083D01*
X22796863Y48640329D01*
X22819142Y48670168D01*
X22850281Y48690613D01*
X22881157Y48696953D01*
X23385631Y48696953D01*
X23472631Y48690717D01*
G37*
G36*
X24290513Y47315234D02*
G01*
X24260966Y47295168D01*
X24225513Y47288450D01*
X24190133Y47295164D01*
X24160598Y47315234D01*
X24140589Y47344904D01*
X24133899Y47380320D01*
X24133899Y48605168D01*
X24141215Y48640341D01*
X24163499Y48670168D01*
X24194638Y48690613D01*
X24225513Y48696953D01*
X24261937Y48696953D01*
X24302029Y48696953D01*
X24329493Y48692491D01*
X24355513Y48678784D01*
X24376369Y48658473D01*
X24387928Y48635706D01*
X24745342Y47650129D01*
X25102672Y48635706D01*
X25116258Y48661250D01*
X25137987Y48680660D01*
X25164171Y48693089D01*
X25188571Y48696953D01*
X25226786Y48696953D01*
X25265086Y48696953D01*
X25300237Y48689616D01*
X25330001Y48667268D01*
X25350448Y48636057D01*
X25356786Y48605168D01*
X25356786Y47380320D01*
X25350077Y47344910D01*
X25330001Y47315234D01*
X25300466Y47295164D01*
X25265086Y47288450D01*
X25229692Y47295161D01*
X25200086Y47315234D01*
X25180077Y47344904D01*
X25173387Y47380320D01*
X25173387Y48293134D01*
X24831327Y47349696D01*
X24813157Y47318135D01*
X24783558Y47296127D01*
X24745428Y47288450D01*
X24706379Y47295484D01*
X24678597Y47315273D01*
X24659358Y47349696D01*
X24317298Y48293134D01*
X24317298Y47380320D01*
X24310589Y47344910D01*
X24290513Y47315234D01*
G37*
G36*
X21455593Y46192952D02*
G01*
X21435520Y46222640D01*
X21428808Y46258123D01*
X21435505Y46293598D01*
X21455507Y46323208D01*
X21485101Y46343285D01*
X21520422Y46349993D01*
X22467187Y46349993D01*
X22502567Y46343279D01*
X22532102Y46323208D01*
X22552171Y46293591D01*
X22558886Y46258123D01*
X22552211Y46222627D01*
X22532272Y46192952D01*
X22502820Y46172881D01*
X22467528Y46166168D01*
X22087167Y46166168D01*
X22087167Y45032507D01*
X22080455Y44997024D01*
X22060383Y44967336D01*
X22030848Y44947265D01*
X21995468Y44940551D01*
X21960073Y44947263D01*
X21930468Y44967336D01*
X21910462Y44997017D01*
X21903768Y45032507D01*
X21903768Y46166168D01*
X21520763Y46166168D01*
X21485281Y46172880D01*
X21455593Y46192952D01*
G37*
G36*
X23296232Y46345531D02*
G01*
X23322252Y46331824D01*
X23343129Y46311516D01*
X23354752Y46288746D01*
X23774693Y45063983D01*
X23780408Y45033360D01*
X23772731Y44996936D01*
X23750809Y44966398D01*
X23719332Y44947205D01*
X23688794Y44941490D01*
X23661411Y44945749D01*
X23636248Y44958635D01*
X23615931Y44978317D01*
X23602895Y45002480D01*
X23528427Y45216247D01*
X22902311Y45216247D01*
X22827843Y45002480D01*
X22814791Y44978323D01*
X22794405Y44958635D01*
X22769254Y44945745D01*
X22741944Y44941490D01*
X22711321Y44947205D01*
X22686583Y44960597D01*
X22667476Y44981667D01*
X22655107Y45006489D01*
X22650330Y45033360D01*
X22656045Y45063983D01*
X22771282Y45400072D01*
X22965264Y45400072D01*
X23465474Y45400072D01*
X23215369Y46131706D01*
X22965264Y45400072D01*
X22771282Y45400072D01*
X23075986Y46288746D01*
X23089227Y46312975D01*
X23110363Y46332762D01*
X23136055Y46345818D01*
X23161885Y46349993D01*
X23215284Y46349993D01*
X23268768Y46349993D01*
X23296232Y46345531D01*
G37*
G36*
X24600375Y46342866D02*
G01*
X24678408Y46322102D01*
X24749865Y46287955D01*
X24815887Y46239783D01*
X24870207Y46180571D01*
X24909162Y46111619D01*
X24933360Y46030995D01*
X24941878Y45935938D01*
X24933361Y45840927D01*
X24909166Y45760331D01*
X24870211Y45691391D01*
X24815887Y45632178D01*
X24749906Y45584006D01*
X24678491Y45549859D01*
X24600501Y45529095D01*
X24514430Y45521968D01*
X24148059Y45521968D01*
X24148059Y45032421D01*
X24141344Y44996953D01*
X24121274Y44967336D01*
X24091728Y44947269D01*
X24056274Y44940551D01*
X24020894Y44947265D01*
X23991360Y44967336D01*
X23971354Y44997017D01*
X23964660Y45032507D01*
X23964660Y45612644D01*
X23964660Y45705794D01*
X24148059Y45705794D01*
X24514345Y45705794D01*
X24588551Y45712879D01*
X24647164Y45732459D01*
X24693564Y45763287D01*
X24728377Y45805877D01*
X24750425Y45862008D01*
X24758479Y45935938D01*
X24750421Y46009924D01*
X24728369Y46066048D01*
X24693564Y46108589D01*
X24647157Y46139466D01*
X24588545Y46159073D01*
X24514345Y46166168D01*
X24148059Y46166168D01*
X24148059Y45705794D01*
X23964660Y45705794D01*
X23964660Y46258123D01*
X23971980Y46293369D01*
X23994260Y46323208D01*
X24025388Y46343657D01*
X24056189Y46349993D01*
X24514260Y46349993D01*
X24600375Y46342866D01*
G37*
G36*
X26213045Y46323208D02*
G01*
X26233115Y46293591D01*
X26239830Y46258123D01*
X26233136Y46222634D01*
X26213131Y46192952D01*
X26183596Y46172882D01*
X26148216Y46166168D01*
X25446012Y46166168D01*
X25446012Y45774974D01*
X25905021Y45774974D01*
X25940482Y45768240D01*
X25970106Y45748103D01*
X25990175Y45718486D01*
X25996891Y45683018D01*
X25990182Y45647609D01*
X25970106Y45617933D01*
X25940489Y45597863D01*
X25905021Y45591148D01*
X25446012Y45591148D01*
X25446012Y45125315D01*
X26178328Y45125315D01*
X26213627Y45118586D01*
X26243157Y45098445D01*
X26263160Y45068834D01*
X26269856Y45033360D01*
X26263166Y44997944D01*
X26243157Y44968274D01*
X26213622Y44948204D01*
X26178242Y44941490D01*
X25354141Y44941490D01*
X25323266Y44947830D01*
X25292127Y44968274D01*
X25269908Y44998165D01*
X25262613Y45033360D01*
X25262613Y46258208D01*
X25268933Y46289103D01*
X25289312Y46320308D01*
X25319064Y46342661D01*
X25354141Y46349993D01*
X26148216Y46349993D01*
X26183523Y46343283D01*
X26213045Y46323208D01*
G37*
G36*
X21709593Y62001912D02*
G01*
X21689520Y62031600D01*
X21682808Y62067083D01*
X21689505Y62102558D01*
X21709507Y62132168D01*
X21739101Y62152245D01*
X21774422Y62158953D01*
X22721187Y62158953D01*
X22756567Y62152239D01*
X22786102Y62132168D01*
X22806171Y62102551D01*
X22812886Y62067083D01*
X22806211Y62031587D01*
X22786272Y62001912D01*
X22756820Y61981841D01*
X22721528Y61975128D01*
X22341167Y61975128D01*
X22341167Y60841467D01*
X22334455Y60805984D01*
X22314383Y60776296D01*
X22284848Y60756225D01*
X22249468Y60749511D01*
X22214073Y60756223D01*
X22184468Y60776296D01*
X22164462Y60805977D01*
X22157768Y60841467D01*
X22157768Y61975128D01*
X21774763Y61975128D01*
X21739281Y61981840D01*
X21709593Y62001912D01*
G37*
G36*
X23623816Y62167158D02*
G01*
X23698438Y62148291D01*
X23769367Y62116840D01*
X23837446Y62072031D01*
X23917152Y61998265D01*
X23984146Y61910174D01*
X24038844Y61805974D01*
X24077890Y61694411D01*
X24101483Y61577392D01*
X24109474Y61453763D01*
X24101485Y61330190D01*
X24077895Y61213169D01*
X24038844Y61101552D01*
X23984154Y60997403D01*
X23917161Y60909309D01*
X23837446Y60835495D01*
X23769372Y60790726D01*
X23698444Y60759301D01*
X23623820Y60740448D01*
X23544435Y60734072D01*
X23465049Y60740448D01*
X23390425Y60759301D01*
X23319497Y60790726D01*
X23251423Y60835495D01*
X23171708Y60909309D01*
X23104716Y60997403D01*
X23050025Y61101552D01*
X23010975Y61213169D01*
X22987384Y61330190D01*
X22979395Y61453763D01*
X23162794Y61453763D01*
X23170665Y61339488D01*
X23193211Y61238948D01*
X23229428Y61150028D01*
X23279146Y61071014D01*
X23343448Y61000326D01*
X23408258Y60953576D01*
X23474630Y60926762D01*
X23544349Y60917897D01*
X23614113Y60926764D01*
X23680514Y60953582D01*
X23745337Y61000333D01*
X23809638Y61071014D01*
X23859395Y61150033D01*
X23895639Y61238955D01*
X23918199Y61339493D01*
X23926075Y61453763D01*
X23918198Y61568079D01*
X23895636Y61668645D01*
X23859392Y61757579D01*
X23809638Y61836598D01*
X23745337Y61907278D01*
X23680514Y61954030D01*
X23614113Y61980847D01*
X23544349Y61989714D01*
X23474630Y61980849D01*
X23408258Y61954035D01*
X23343448Y61907285D01*
X23279146Y61836598D01*
X23229431Y61757584D01*
X23193213Y61668652D01*
X23170666Y61568084D01*
X23162794Y61453763D01*
X22979395Y61453763D01*
X22987386Y61577392D01*
X23010979Y61694411D01*
X23050025Y61805974D01*
X23104724Y61910174D01*
X23171717Y61998265D01*
X23251423Y62072031D01*
X23319502Y62116840D01*
X23390431Y62148291D01*
X23465053Y62167158D01*
X23544435Y62173540D01*
X23623816Y62167158D01*
G37*
G36*
X21709593Y59654952D02*
G01*
X21689520Y59684640D01*
X21682808Y59720123D01*
X21689505Y59755598D01*
X21709507Y59785208D01*
X21739101Y59805285D01*
X21774422Y59811993D01*
X22721187Y59811993D01*
X22756567Y59805279D01*
X22786102Y59785208D01*
X22806171Y59755591D01*
X22812886Y59720123D01*
X22806211Y59684627D01*
X22786272Y59654952D01*
X22756820Y59634881D01*
X22721528Y59628168D01*
X22341167Y59628168D01*
X22341167Y58494507D01*
X22334455Y58459024D01*
X22314383Y58429336D01*
X22284848Y58409265D01*
X22249468Y58402551D01*
X22214073Y58409263D01*
X22184468Y58429336D01*
X22164462Y58459017D01*
X22157768Y58494507D01*
X22157768Y59628168D01*
X21774763Y59628168D01*
X21739281Y59634880D01*
X21709593Y59654952D01*
G37*
G36*
X23550232Y59807531D02*
G01*
X23576252Y59793824D01*
X23597129Y59773516D01*
X23608752Y59750746D01*
X24028693Y58525983D01*
X24034408Y58495360D01*
X24026731Y58458936D01*
X24004809Y58428398D01*
X23973332Y58409205D01*
X23942794Y58403490D01*
X23915411Y58407749D01*
X23890248Y58420635D01*
X23869931Y58440317D01*
X23856895Y58464480D01*
X23782427Y58678247D01*
X23156311Y58678247D01*
X23081843Y58464480D01*
X23068791Y58440323D01*
X23048405Y58420635D01*
X23023254Y58407745D01*
X22995944Y58403490D01*
X22965321Y58409205D01*
X22940583Y58422597D01*
X22921476Y58443667D01*
X22909107Y58468489D01*
X22904330Y58495360D01*
X22910045Y58525983D01*
X23025282Y58862072D01*
X23219264Y58862072D01*
X23719474Y58862072D01*
X23469369Y59593706D01*
X23219264Y58862072D01*
X23025282Y58862072D01*
X23329986Y59750746D01*
X23343227Y59774975D01*
X23364363Y59794762D01*
X23390055Y59807818D01*
X23415885Y59811993D01*
X23469284Y59811993D01*
X23522768Y59811993D01*
X23550232Y59807531D01*
G37*
G36*
X24854375Y59804866D02*
G01*
X24932408Y59784102D01*
X25003865Y59749955D01*
X25069887Y59701783D01*
X25124207Y59642571D01*
X25163162Y59573619D01*
X25187360Y59492995D01*
X25195878Y59397938D01*
X25187361Y59302927D01*
X25163166Y59222331D01*
X25124211Y59153391D01*
X25069887Y59094178D01*
X25003906Y59046006D01*
X24932491Y59011859D01*
X24854501Y58991095D01*
X24768430Y58983968D01*
X24402059Y58983968D01*
X24402059Y58494421D01*
X24395344Y58458953D01*
X24375274Y58429336D01*
X24345728Y58409269D01*
X24310274Y58402551D01*
X24274894Y58409265D01*
X24245360Y58429336D01*
X24225354Y58459017D01*
X24218660Y58494507D01*
X24218660Y59074644D01*
X24218660Y59167794D01*
X24402059Y59167794D01*
X24768345Y59167794D01*
X24842551Y59174879D01*
X24901164Y59194459D01*
X24947564Y59225287D01*
X24982377Y59267877D01*
X25004425Y59324008D01*
X25012479Y59397938D01*
X25004421Y59471924D01*
X24982369Y59528048D01*
X24947564Y59570589D01*
X24901157Y59601466D01*
X24842545Y59621073D01*
X24768345Y59628168D01*
X24402059Y59628168D01*
X24402059Y59167794D01*
X24218660Y59167794D01*
X24218660Y59720123D01*
X24225980Y59755369D01*
X24248260Y59785208D01*
X24279388Y59805657D01*
X24310189Y59811993D01*
X24768260Y59811993D01*
X24854375Y59804866D01*
G37*
G36*
X26467045Y59785208D02*
G01*
X26487115Y59755591D01*
X26493830Y59720123D01*
X26487136Y59684634D01*
X26467131Y59654952D01*
X26437596Y59634882D01*
X26402216Y59628168D01*
X25700012Y59628168D01*
X25700012Y59236974D01*
X26159021Y59236974D01*
X26194482Y59230240D01*
X26224106Y59210103D01*
X26244175Y59180486D01*
X26250891Y59145018D01*
X26244182Y59109609D01*
X26224106Y59079933D01*
X26194489Y59059863D01*
X26159021Y59053148D01*
X25700012Y59053148D01*
X25700012Y58587315D01*
X26432328Y58587315D01*
X26467627Y58580586D01*
X26497157Y58560445D01*
X26517160Y58530834D01*
X26523856Y58495360D01*
X26517166Y58459944D01*
X26497157Y58430274D01*
X26467622Y58410204D01*
X26432242Y58403490D01*
X25608141Y58403490D01*
X25577266Y58409830D01*
X25546127Y58430274D01*
X25523908Y58460165D01*
X25516613Y58495360D01*
X25516613Y59720208D01*
X25522933Y59751103D01*
X25543312Y59782308D01*
X25573064Y59804661D01*
X25608141Y59811993D01*
X26402216Y59811993D01*
X26437523Y59805283D01*
X26467045Y59785208D01*
G37*
D13*
%TO.P,R3,1*%
%TO.N,+5V*%
X27940000Y45085000D03*
%TO.P,R3,2*%
%TO.N,Net-(A1-+)*%
X38100000Y45085000D03*
%TD*%
D14*
%TO.P,Q1,1,E_1*%
%TO.N,Net-(Q1-E)*%
X19050000Y31115000D03*
%TO.P,Q1,2,B_2*%
%TO.N,Net-(Q1-B)*%
X17780000Y32964120D03*
%TO.P,Q1,3,C_3*%
%TO.N,Net-(D1-K)*%
X16510000Y31115000D03*
%TD*%
D13*
%TO.P,R2,1*%
%TO.N,Net-(A1--)*%
X38100000Y50165000D03*
%TO.P,R2,2*%
%TO.N,GND*%
X27940000Y50165000D03*
%TD*%
D14*
%TO.P,Q2,1,E_1*%
%TO.N,GND*%
X19050000Y25400000D03*
%TO.P,Q2,2,B_2*%
%TO.N,Net-(Q1-E)*%
X17780000Y27249120D03*
%TO.P,Q2,3,C_3*%
%TO.N,Net-(D1-K)*%
X16510000Y25400000D03*
%TD*%
D15*
%TO.P,A1,1,GND_1*%
%TO.N,GND*%
X36830000Y31115000D03*
%TO.P,A1,2,+_2*%
%TO.N,Net-(A1-+)*%
X36830000Y33655000D03*
%TO.P,A1,3,-_3*%
%TO.N,Net-(A1--)*%
X36830000Y36195000D03*
%TO.P,A1,4,V-_4*%
%TO.N,-12V*%
X36830000Y38735000D03*
%TO.P,A1,5,BAL_5*%
%TO.N,unconnected-(A1-BAL-Pad5)*%
X29210000Y38735000D03*
%TO.P,A1,6,STRB_6*%
%TO.N,unconnected-(A1-STRB-Pad6)*%
X29210000Y36195000D03*
%TO.P,A1,7*%
%TO.N,Net-(A1-Pad7)*%
X29210000Y33655000D03*
%TO.P,A1,8,V+_8*%
%TO.N,+5V*%
X29210000Y31115000D03*
%TD*%
D13*
%TO.P,R6,1*%
%TO.N,Net-(A1-Pad7)*%
X27940000Y42545000D03*
%TO.P,R6,2*%
%TO.N,Net-(A1-+)*%
X38100000Y42545000D03*
%TD*%
D15*
%TO.P,A4,1,A6_1*%
%TO.N,Net-(A3-A6)*%
X78105000Y31115000D03*
%TO.P,A4,2,A5_2*%
%TO.N,Net-(A3-A5)*%
X78105000Y33655000D03*
%TO.P,A4,3,A4_3*%
%TO.N,Net-(A3-A4)*%
X78105000Y36195000D03*
%TO.P,A4,4,A3_4*%
%TO.N,Net-(A3-A3)*%
X78105000Y38735000D03*
%TO.P,A4,5,A0_5*%
%TO.N,Net-(A3-A0)*%
X78105000Y41275000D03*
%TO.P,A4,6,A1_6*%
%TO.N,Net-(A3-A1)*%
X78105000Y43815000D03*
%TO.P,A4,7,A2_7*%
%TO.N,Net-(A3-A2)*%
X78105000Y46355000D03*
%TO.P,A4,8,GND_8*%
%TO.N,GND*%
X78105000Y48895000D03*
%TO.P,A4,9,O4_9*%
%TO.N,Net-(A4-O4)*%
X70485000Y48895000D03*
%TO.P,A4,10,O3_10*%
%TO.N,Net-(A4-O3)*%
X70485000Y46355000D03*
%TO.P,A4,11,O2_11*%
%TO.N,Net-(A4-O2)*%
X70485000Y43815000D03*
%TO.P,A4,12,O1_12*%
%TO.N,Net-(A4-O1)*%
X70485000Y41275000D03*
%TO.P,A4,13,~{CE1}_13*%
%TO.N,Net-(A3-~{CE1})*%
X70485000Y38735000D03*
%TO.P,A4,14,~{CE2}_14*%
X70485000Y36195000D03*
%TO.P,A4,15,A7_15*%
%TO.N,Net-(A3-A7)*%
X70485000Y33655000D03*
%TO.P,A4,16,VCC_16*%
%TO.N,+5V*%
X70485000Y31115000D03*
%TD*%
D16*
%TO.P,J2,S,~_S*%
%TO.N,GND*%
X16510000Y55245000D03*
D17*
%TO.P,J2,T,~_T*%
%TO.N,Net-(J2-~-PadT)*%
X22225000Y52705000D03*
%TD*%
D18*
%TO.P,R8,1*%
%TO.N,Net-(D1-A)*%
X27940000Y25400000D03*
%TO.P,R8,2*%
%TO.N,+5V*%
X38100000Y25400000D03*
%TD*%
D13*
%TO.P,R1,1*%
%TO.N,+5V*%
X27940000Y52705000D03*
%TO.P,R1,2*%
%TO.N,Net-(A1--)*%
X38100000Y52705000D03*
%TD*%
D15*
%TO.P,A2,1,~{R}_1*%
%TO.N,unconnected-(A2A-~{R}-Pad1)*%
X50165000Y31115000D03*
%TO.P,A2,2,D_2*%
%TO.N,Net-(A2A-D)*%
X50165000Y33655000D03*
%TO.P,A2,3,C_3*%
%TO.N,Net-(A2A-C)*%
X50165000Y36195000D03*
%TO.P,A2,4,~{S}_4*%
%TO.N,unconnected-(A2A-~{S}-Pad4)*%
X50165000Y38735000D03*
%TO.P,A2,5,Q_5*%
%TO.N,Net-(A2A-Q)*%
X50165000Y41275000D03*
%TO.P,A2,6,~{Q}_6*%
%TO.N,Net-(A2A-D)*%
X50165000Y43815000D03*
%TO.P,A2,7,GND_7*%
%TO.N,GND*%
X50165000Y46355000D03*
%TO.P,A2,8*%
%TO.N,N/C*%
X42545000Y46355000D03*
%TO.P,A2,9*%
X42545000Y43815000D03*
%TO.P,A2,10*%
X42545000Y41275000D03*
%TO.P,A2,11*%
X42545000Y38735000D03*
%TO.P,A2,12*%
X42545000Y36195000D03*
%TO.P,A2,13*%
X42545000Y33655000D03*
%TO.P,A2,14,VCC_14*%
%TO.N,+5V*%
X42545000Y31115000D03*
%TD*%
D19*
%TO.P,R5,1*%
%TO.N,+5V*%
X24765000Y31750000D03*
%TO.P,R5,2*%
%TO.N,Net-(A1-Pad7)*%
X24765000Y41910000D03*
%TD*%
D20*
%TO.P,J3,1*%
%TO.N,N/C*%
X25400000Y19685000D03*
%TO.P,J3,2*%
X29362400Y19685000D03*
%TO.P,J3,3*%
X33324800Y19685000D03*
%TO.P,J3,4*%
X37287200Y19685000D03*
%TO.P,J3,5*%
X41249600Y19685000D03*
%TO.P,J3,6,D6_6*%
%TO.N,Net-(A3-O3)*%
X45212000Y19685000D03*
%TO.P,J3,7,D4_7*%
%TO.N,Net-(A3-O1)*%
X49174400Y19685000D03*
%TO.P,J3,8,D2_8*%
%TO.N,Net-(A4-O3)*%
X53136800Y19685000D03*
%TO.P,J3,9,D0_9*%
%TO.N,Net-(A4-O1)*%
X57099200Y19685000D03*
%TO.P,J3,10*%
%TO.N,N/C*%
X61061600Y19685000D03*
%TO.P,J3,11*%
X65024000Y19685000D03*
%TO.P,J3,12*%
X68986400Y19685000D03*
%TO.P,J3,13*%
X72948800Y19685000D03*
%TO.P,J3,14,A11_14*%
%TO.N,Net-(J3A-A11)*%
X76911200Y19685000D03*
%TO.P,J3,15,A9_15*%
%TO.N,Net-(J3A-A9)*%
X80873600Y19685000D03*
%TO.P,J3,16,A7_16*%
%TO.N,Net-(A3-A7)*%
X84836000Y19685000D03*
%TO.P,J3,17,A5_17*%
%TO.N,Net-(A3-A5)*%
X88798400Y19685000D03*
%TO.P,J3,18,A3_18*%
%TO.N,Net-(A3-A3)*%
X92760800Y19685000D03*
%TO.P,J3,19,A1_19*%
%TO.N,Net-(A3-A1)*%
X96723200Y19685000D03*
%TO.P,J3,20,GND_20*%
%TO.N,GND*%
X100685600Y19685000D03*
%TO.P,J3,21,~{4KCS}_21*%
%TO.N,Net-(J3A-~{4KCS})*%
X104648000Y19685000D03*
%TO.P,J3,22,+5V_22*%
%TO.N,+5V*%
X108610400Y19685000D03*
%TD*%
D15*
%TO.P,A3,1,A6_1*%
%TO.N,Net-(A3-A6)*%
X64135000Y31115000D03*
%TO.P,A3,2,A5_2*%
%TO.N,Net-(A3-A5)*%
X64135000Y33655000D03*
%TO.P,A3,3,A4_3*%
%TO.N,Net-(A3-A4)*%
X64135000Y36195000D03*
%TO.P,A3,4,A3_4*%
%TO.N,Net-(A3-A3)*%
X64135000Y38735000D03*
%TO.P,A3,5,A0_5*%
%TO.N,Net-(A3-A0)*%
X64135000Y41275000D03*
%TO.P,A3,6,A1_6*%
%TO.N,Net-(A3-A1)*%
X64135000Y43815000D03*
%TO.P,A3,7,A2_7*%
%TO.N,Net-(A3-A2)*%
X64135000Y46355000D03*
%TO.P,A3,8,GND_8*%
%TO.N,GND*%
X64135000Y48895000D03*
%TO.P,A3,9,O4_9*%
%TO.N,Net-(A3-O4)*%
X56515000Y48895000D03*
%TO.P,A3,10,O3_10*%
%TO.N,Net-(A3-O3)*%
X56515000Y46355000D03*
%TO.P,A3,11,O2_11*%
%TO.N,Net-(A3-O2)*%
X56515000Y43815000D03*
%TO.P,A3,12,O1_12*%
%TO.N,Net-(A3-O1)*%
X56515000Y41275000D03*
%TO.P,A3,13,~{CE1}_13*%
%TO.N,Net-(A3-~{CE1})*%
X56515000Y38735000D03*
%TO.P,A3,14,~{CE2}_14*%
X56515000Y36195000D03*
%TO.P,A3,15,A7_15*%
%TO.N,Net-(A3-A7)*%
X56515000Y33655000D03*
%TO.P,A3,16,VCC_16*%
%TO.N,+5V*%
X56515000Y31115000D03*
%TD*%
%TO.P,A5,1*%
%TO.N,Net-(A5-Pad1)*%
X92075000Y31115000D03*
%TO.P,A5,2*%
%TO.N,Net-(J3A-~{4KCS})*%
X92075000Y33655000D03*
%TO.P,A5,3*%
%TO.N,Net-(J3A-A11)*%
X92075000Y36195000D03*
%TO.P,A5,4*%
%TO.N,Net-(A3-A0)*%
X92075000Y38735000D03*
%TO.P,A5,5*%
%TO.N,Net-(A5-Pad5)*%
X92075000Y41275000D03*
%TO.P,A5,6*%
X92075000Y43815000D03*
%TO.P,A5,7,GND_7*%
%TO.N,GND*%
X92075000Y46355000D03*
%TO.P,A5,8*%
%TO.N,Net-(J3A-A10)*%
X84455000Y46355000D03*
%TO.P,A5,9*%
%TO.N,Net-(J3A-A9)*%
X84455000Y43815000D03*
%TO.P,A5,10*%
%TO.N,Net-(A5-Pad10)*%
X84455000Y41275000D03*
%TO.P,A5,11*%
%TO.N,Net-(A3-~{CE1})*%
X84455000Y38735000D03*
%TO.P,A5,12*%
%TO.N,Net-(J3A-A8)*%
X84455000Y36195000D03*
%TO.P,A5,13*%
%TO.N,Net-(A2A-C)*%
X84455000Y33655000D03*
%TO.P,A5,14,VCC_14*%
%TO.N,+5V*%
X84455000Y31115000D03*
%TD*%
D13*
%TO.P,R4,1*%
%TO.N,Net-(A1-+)*%
X38100000Y47625000D03*
%TO.P,R4,2*%
%TO.N,GND*%
X27940000Y47625000D03*
%TD*%
D18*
%TO.P,D1,1,K_1*%
%TO.N,Net-(D1-K)*%
X22225000Y25400000D03*
%TO.P,D1,2,A_2*%
%TO.N,Net-(D1-A)*%
X24765000Y25400000D03*
%TD*%
D13*
%TO.P,C1,1,~_1*%
%TO.N,Net-(A1--)*%
X37465000Y55245000D03*
%TO.P,C1,2,~_2*%
%TO.N,Net-(C1-~-Pad2)*%
X28575000Y55245000D03*
%TD*%
D18*
%TO.P,R9,1*%
%TO.N,Net-(A2A-Q)*%
X55245000Y55245000D03*
%TO.P,R9,2*%
%TO.N,Net-(J2-~-PadT)*%
X65405000Y55245000D03*
%TD*%
D15*
%TO.P,A6,1*%
%TO.N,Net-(A1-Pad7)*%
X106045000Y31115000D03*
%TO.P,A6,2*%
%TO.N,Net-(A2A-C)*%
X106045000Y33655000D03*
%TO.P,A6,3*%
%TO.N,Net-(A5-Pad1)*%
X106045000Y36195000D03*
%TO.P,A6,4*%
%TO.N,Net-(J3A-\u02782)*%
X106045000Y38735000D03*
%TO.P,A6,5*%
%TO.N,Net-(A5-Pad10)*%
X106045000Y41275000D03*
%TO.P,A6,6*%
%TO.N,Net-(A3-~{CE1})*%
X106045000Y43815000D03*
%TO.P,A6,7,GND_7*%
%TO.N,GND*%
X106045000Y46355000D03*
%TO.P,A6,8*%
%TO.N,Net-(A5-Pad5)*%
X98425000Y46355000D03*
%TO.P,A6,9*%
%TO.N,Net-(J3A-A0)*%
X98425000Y43815000D03*
%TO.P,A6,10*%
%TO.N,Net-(A6-Pad10)*%
X98425000Y41275000D03*
%TO.P,A6,11*%
X98425000Y38735000D03*
%TO.P,A6,12*%
X98425000Y36195000D03*
%TO.P,A6,13*%
%TO.N,Net-(A3-A7)*%
X98425000Y33655000D03*
%TO.P,A6,14,VCC_14*%
%TO.N,+5V*%
X98425000Y31115000D03*
%TD*%
D18*
%TO.P,R10,1*%
%TO.N,Net-(J2-~-PadT)*%
X68580000Y55245000D03*
%TO.P,R10,2*%
%TO.N,GND*%
X78740000Y55245000D03*
%TD*%
%TO.P,R7,1*%
%TO.N,Net-(Q1-B)*%
X12065000Y36195000D03*
%TO.P,R7,2*%
%TO.N,Net-(C1-~-Pad2)*%
X22225000Y36195000D03*
%TD*%
D16*
%TO.P,J1,S,~_S*%
%TO.N,GND*%
X16510000Y43815000D03*
D17*
%TO.P,J1,T,~_T*%
%TO.N,Net-(C1-~-Pad2)*%
X22225000Y40005000D03*
%TD*%
D21*
%TO.N,+5V*%
X107315000Y22860000D03*
%TO.N,GND*%
X99060000Y22225000D03*
%TO.N,Net-(A3-A6)*%
X71755000Y23495000D03*
X86360000Y21971000D03*
%TO.N,Net-(A3-A5)*%
X69215000Y23495000D03*
%TO.N,Net-(A3-A4)*%
X90170000Y21971000D03*
X70485000Y26670000D03*
%TO.N,Net-(A3-A3)*%
X95250000Y24130000D03*
%TO.N,Net-(A3-A1)*%
X95250000Y21971000D03*
%TO.N,Net-(A4-O3)*%
X51435000Y21971000D03*
%TO.N,Net-(A4-O1)*%
X55372000Y21971000D03*
%TO.N,Net-(A3-A7)*%
X66675000Y23495000D03*
%TO.N,Net-(A3-O3)*%
X43815000Y21971000D03*
%TO.N,Net-(A3-O1)*%
X47625000Y21971000D03*
%TO.N,Net-(J3A-~{4KCS})*%
X90170000Y26670000D03*
%TO.N,Net-(J3A-A11)*%
X75565000Y21971000D03*
%TO.N,Net-(J3A-A9)*%
X79375000Y21971000D03*
%TO.N,Net-(J3A-\u02782)*%
X33020000Y48260000D03*
%TD*%
%TO.N,*%
D22*
X105277920Y60873640D02*
X105072180Y60805060D01*
X95445580Y61561980D02*
X96065340Y61561980D01*
D23*
X45979080Y58097420D02*
X45979080Y58158380D01*
X101920040Y58158380D02*
X101859080Y57845960D01*
D22*
X107957620Y62247780D02*
X107820460Y62247780D01*
X97439480Y61904880D02*
X97370900Y61699140D01*
D23*
X102295960Y57096660D02*
X102483920Y57157620D01*
D22*
X104589580Y61836300D02*
X104658160Y62042040D01*
D23*
X60761880Y57597040D02*
X60761880Y57470040D01*
D22*
X107408980Y61630560D02*
X107408980Y61285120D01*
X57617360Y61904880D02*
X57685940Y61767720D01*
X105003600Y62247780D02*
X105072180Y62247780D01*
D23*
X101859080Y57845960D02*
X101859080Y57533540D01*
X65455800Y23484840D02*
X65455800Y22171660D01*
X109989620Y24119840D02*
X110114080Y24056340D01*
X46040040Y58282840D02*
X46103540Y58346340D01*
D22*
X72329040Y61630560D02*
X72397620Y61699140D01*
X105277920Y61424820D02*
X105072180Y61356240D01*
X58440320Y62179200D02*
X58234580Y62247780D01*
D23*
X88138000Y57970420D02*
X88325960Y57970420D01*
X60510420Y57909460D02*
X60637420Y57845960D01*
D22*
X107477560Y61493400D02*
X107408980Y61285120D01*
X58991500Y62042040D02*
X58991500Y61904880D01*
D23*
X109425740Y22806660D02*
X110302040Y22806660D01*
D22*
X96271080Y62179200D02*
X96065340Y62247780D01*
X105415080Y61079380D02*
X105277920Y60873640D01*
D23*
X65143380Y23233380D02*
X65267840Y23296880D01*
D22*
X59608720Y62247780D02*
X59334400Y62247780D01*
X72329040Y62179200D02*
X72123300Y62247780D01*
X71986140Y61561980D02*
X72466200Y60805060D01*
X72946260Y62247780D02*
X72946260Y60805060D01*
D23*
X45915580Y57096660D02*
X46791880Y57096660D01*
D22*
X105415080Y61561980D02*
X105277920Y61424820D01*
D23*
X102047040Y58346340D02*
X101920040Y58158380D01*
D22*
X59679840Y61493400D02*
X59817000Y61424820D01*
D23*
X109738160Y24119840D02*
X109989620Y24119840D01*
X60698380Y57284620D02*
X60573920Y57157620D01*
D22*
X67584320Y62247780D02*
X67584320Y60805060D01*
X91597480Y62247780D02*
X91457780Y62179200D01*
D23*
X60698380Y58409840D02*
X60325000Y57909460D01*
D22*
X96408240Y61973460D02*
X96339660Y62110620D01*
X108303060Y61285120D02*
X108234480Y61493400D01*
X97370900Y61699140D02*
X97370900Y61356240D01*
X59265820Y61630560D02*
X59679840Y61493400D01*
X107614720Y61630560D02*
X107477560Y61493400D01*
X91183460Y61699140D02*
X91183460Y61356240D01*
D23*
X22860000Y27305000D02*
X22860000Y28575000D01*
D22*
X98884740Y61561980D02*
X99847400Y61561980D01*
D23*
X46603920Y58346340D02*
X46667420Y58282840D01*
D22*
X58440320Y61424820D02*
X58508900Y61356240D01*
D23*
X110738920Y23807420D02*
X110738920Y23868380D01*
D24*
X24003000Y28369260D02*
X23141940Y27937460D01*
D23*
X110863380Y24056340D02*
X110987840Y24119840D01*
X46540420Y57721500D02*
X45915580Y57096660D01*
X102608380Y58221880D02*
X102547420Y58346340D01*
D22*
X57891680Y61630560D02*
X58303160Y61493400D01*
D23*
X111427260Y23992840D02*
X111488220Y23868380D01*
D22*
X57617360Y62042040D02*
X57617360Y61904880D01*
X107477560Y61010800D02*
X107614720Y60873640D01*
D23*
X102608380Y57721500D02*
X102483920Y57845960D01*
X87950040Y57909460D02*
X88138000Y57970420D01*
X60198000Y57096660D02*
X60010040Y57157620D01*
X88577420Y58409840D02*
X87950040Y58409840D01*
D24*
X23561040Y28006040D02*
X23876000Y28006040D01*
D23*
X46728380Y58158380D02*
X46728380Y58033920D01*
X60010040Y58409840D02*
X60698380Y58409840D01*
X101859080Y57533540D02*
X101920040Y57284620D01*
X26405840Y38046660D02*
X25908000Y39359840D01*
X111427260Y23619460D02*
X111300260Y23431500D01*
X25908000Y39359840D02*
X25407620Y38046660D01*
D22*
X72123300Y61561980D02*
X72329040Y61630560D01*
X59954160Y62042040D02*
X59817000Y62179200D01*
X92146120Y62042040D02*
X92008960Y62179200D01*
X105415080Y62042040D02*
X105483660Y61767720D01*
D23*
X64206120Y23484840D02*
X64206120Y22171660D01*
D22*
X104658160Y62042040D02*
X104795320Y62179200D01*
D23*
X110238540Y23868380D02*
X110238540Y23743920D01*
D22*
X96890840Y62247780D02*
X96890840Y60805060D01*
D23*
X65267840Y23296880D02*
X65455800Y23484840D01*
X102608380Y57284620D02*
X102671880Y57470040D01*
D22*
X59954160Y61216540D02*
X59954160Y61010800D01*
X105483660Y61424820D02*
X105415080Y61079380D01*
X105072180Y62247780D02*
X105277920Y62179200D01*
D23*
X88638380Y57284620D02*
X88513920Y57157620D01*
D22*
X105003600Y61356240D02*
X104795320Y61424820D01*
D23*
X24130000Y28575000D02*
X22860000Y27940000D01*
X110175040Y23619460D02*
X110050580Y23431500D01*
D22*
X91320620Y62042040D02*
X91252040Y61904880D01*
X98402140Y61904880D02*
X98333560Y62042040D01*
D23*
X111488220Y23868380D02*
X111488220Y23743920D01*
X60010040Y57157620D02*
X59949080Y57221120D01*
X102483920Y57845960D02*
X102295960Y57909460D01*
X102671880Y57533540D02*
X102608380Y57721500D01*
D22*
X59817000Y62179200D02*
X59608720Y62247780D01*
X91183460Y61356240D02*
X91252040Y61147960D01*
D23*
X60573920Y57157620D02*
X60385960Y57096660D01*
D22*
X58440320Y60873640D02*
X58234580Y60805060D01*
X58991500Y61904880D02*
X59060080Y61767720D01*
D23*
X109550200Y23992840D02*
X109613700Y24056340D01*
D22*
X105483660Y61767720D02*
X105415080Y61561980D01*
X98059240Y62247780D02*
X97784920Y62247780D01*
X107889040Y61699140D02*
X107820460Y61699140D01*
X59128660Y60873640D02*
X58991500Y61010800D01*
D23*
X101920040Y57284620D02*
X102047040Y57157620D01*
D22*
X98196400Y62179200D02*
X98059240Y62247780D01*
X98402140Y61147960D02*
X98402140Y61356240D01*
D23*
X88701880Y57470040D02*
X88638380Y57284620D01*
D24*
X23680420Y27810460D02*
X23876000Y27810460D01*
D22*
X107889040Y60805060D02*
X108097320Y60873640D01*
D23*
X87950040Y58409840D02*
X87889080Y57845960D01*
D22*
X59060080Y61767720D02*
X59128660Y61699140D01*
X92008960Y60873640D02*
X92146120Y61010800D01*
X108097320Y60873640D02*
X108234480Y61010800D01*
X98333560Y62042040D02*
X98196400Y62179200D01*
X108234480Y61010800D02*
X108303060Y61216540D01*
X58234580Y62247780D02*
X57960260Y62247780D01*
X91320620Y61010800D02*
X91457780Y60873640D01*
X98884740Y62247780D02*
X98884740Y60805060D01*
D23*
X46667420Y58282840D02*
X46728380Y58158380D01*
D22*
X91871800Y62247780D02*
X91597480Y62247780D01*
X59334400Y62247780D02*
X59128660Y62179200D01*
X92214700Y61904880D02*
X92146120Y62042040D01*
X58508900Y61356240D02*
X58577480Y61216540D01*
D23*
X24130000Y27305000D02*
X22860000Y27940000D01*
D24*
X24003000Y27508200D02*
X24003000Y28369260D01*
X23487380Y27909520D02*
X23876000Y27909520D01*
D22*
X91597480Y60805060D02*
X91871800Y60805060D01*
X71503540Y62247780D02*
X71503540Y60805060D01*
X59817000Y60873640D02*
X59608720Y60805060D01*
X59608720Y60805060D02*
X59334400Y60805060D01*
X107614720Y62179200D02*
X107477560Y61973460D01*
X92146120Y61010800D02*
X92214700Y61147960D01*
D23*
X45979080Y58158380D02*
X46040040Y58282840D01*
D22*
X107477560Y61973460D02*
X107408980Y61630560D01*
X91252040Y61147960D02*
X91320620Y61010800D01*
X57960260Y62247780D02*
X57754520Y62179200D01*
X71503540Y61561980D02*
X72123300Y61561980D01*
X94002860Y62247780D02*
X94551500Y61561980D01*
X72946260Y61561980D02*
X73497440Y61561980D01*
D23*
X46479460Y58409840D02*
X46603920Y58346340D01*
D22*
X107820460Y61699140D02*
X107614720Y61630560D01*
D23*
X88325960Y57096660D02*
X88138000Y57096660D01*
D22*
X95445580Y62247780D02*
X95445580Y60805060D01*
D23*
X46228000Y58409840D02*
X46479460Y58409840D01*
D22*
X59334400Y60805060D02*
X59128660Y60873640D01*
X104932480Y60805060D02*
X104726740Y60873640D01*
D23*
X109489240Y23807420D02*
X109489240Y23868380D01*
X102483920Y57157620D02*
X102608380Y57284620D01*
D22*
X99847400Y62247780D02*
X99847400Y60805060D01*
D23*
X63893700Y23233380D02*
X64018160Y23296880D01*
X110802420Y23992840D02*
X110863380Y24056340D01*
X110175040Y23992840D02*
X110238540Y23868380D01*
X102047040Y57845960D02*
X101920040Y57721500D01*
D22*
X97784920Y62247780D02*
X97645220Y62179200D01*
X59885580Y61356240D02*
X59954160Y61216540D01*
D23*
X110987840Y24119840D02*
X111239300Y24119840D01*
D22*
X91252040Y61904880D02*
X91183460Y61699140D01*
D23*
X102047040Y57157620D02*
X102235000Y57096660D01*
X111239300Y24119840D02*
X111363760Y24056340D01*
D22*
X95102680Y62247780D02*
X94551500Y61561980D01*
D24*
X23141940Y27937460D02*
X24003000Y27508200D01*
D22*
X72397620Y62110620D02*
X72329040Y62179200D01*
X58234580Y60805060D02*
X57960260Y60805060D01*
X58577480Y61010800D02*
X58440320Y60873640D01*
D23*
X87889080Y57845960D02*
X87950040Y57909460D01*
D22*
X107408980Y61285120D02*
X107477560Y61010800D01*
X91457780Y60873640D02*
X91597480Y60805060D01*
X104658160Y61561980D02*
X104589580Y61767720D01*
X105072180Y60805060D02*
X104932480Y60805060D01*
X107614720Y60873640D02*
X107820460Y60805060D01*
X96408240Y61836300D02*
X96408240Y61973460D01*
D23*
X25593040Y38483540D02*
X26220420Y38483540D01*
X110114080Y24056340D02*
X110175040Y23992840D01*
D22*
X92214700Y61147960D02*
X92283280Y61356240D01*
X97439480Y61147960D02*
X97508060Y61010800D01*
D23*
X109613700Y24056340D02*
X109738160Y24119840D01*
X110050580Y23431500D02*
X109425740Y22806660D01*
D22*
X107820460Y62247780D02*
X107614720Y62179200D01*
X72397620Y61699140D02*
X72466200Y61836300D01*
X72466200Y61836300D02*
X72466200Y61973460D01*
D23*
X111300260Y23431500D02*
X110675420Y22806660D01*
D22*
X72123300Y62247780D02*
X71503540Y62247780D01*
X59954160Y61010800D02*
X59817000Y60873640D01*
D23*
X24130000Y27305000D02*
X24130000Y28575000D01*
D22*
X59128660Y61699140D02*
X59265820Y61630560D01*
D23*
X110238540Y23743920D02*
X110175040Y23619460D01*
D22*
X68546980Y62247780D02*
X68546980Y60805060D01*
D23*
X64018160Y23296880D02*
X64206120Y23484840D01*
X60325000Y57909460D02*
X60510420Y57909460D01*
D22*
X96339660Y62110620D02*
X96271080Y62179200D01*
X108165900Y62179200D02*
X107957620Y62247780D01*
D23*
X88701880Y57597040D02*
X88701880Y57470040D01*
D22*
X58577480Y61216540D02*
X58577480Y61010800D01*
D23*
X111488220Y23743920D02*
X111427260Y23619460D01*
D22*
X57754520Y60873640D02*
X57617360Y61010800D01*
D23*
X110675420Y22806660D02*
X111551720Y22806660D01*
D22*
X57754520Y62179200D02*
X57617360Y62042040D01*
D23*
X60761880Y57470040D02*
X60698380Y57284620D01*
X88138000Y57096660D02*
X87950040Y57157620D01*
X60637420Y57845960D02*
X60698380Y57785000D01*
X87889080Y57221120D02*
X87825580Y57345580D01*
D22*
X95928180Y61561980D02*
X96408240Y60805060D01*
X105072180Y61356240D02*
X105003600Y61356240D01*
X72466200Y61973460D02*
X72397620Y62110620D01*
X104726740Y60873640D02*
X104658160Y61010800D01*
D23*
X59949080Y57221120D02*
X59885580Y57345580D01*
X102547420Y58346340D02*
X102359460Y58409840D01*
D22*
X58303160Y61493400D02*
X58440320Y61424820D01*
D23*
X87950040Y57157620D02*
X87889080Y57221120D01*
D22*
X105277920Y62179200D02*
X105415080Y62042040D01*
X108234480Y61493400D02*
X108097320Y61630560D01*
D24*
X23754080Y28102560D02*
X23876000Y28102560D01*
D22*
X59817000Y61424820D02*
X59885580Y61356240D01*
X58577480Y62042040D02*
X58440320Y62179200D01*
X67035680Y62247780D02*
X67035680Y60805060D01*
X92283280Y61356240D02*
X92283280Y61699140D01*
D23*
X88638380Y57785000D02*
X88701880Y57597040D01*
D22*
X97508060Y62042040D02*
X97439480Y61904880D01*
X98333560Y61010800D02*
X98402140Y61147960D01*
X96065340Y62247780D02*
X95445580Y62247780D01*
D23*
X101920040Y57721500D02*
X101859080Y57533540D01*
D22*
X57685940Y61767720D02*
X57754520Y61699140D01*
X96271080Y61630560D02*
X96339660Y61699140D01*
X94551500Y61561980D02*
X94551500Y60805060D01*
X105483660Y61767720D02*
X105483660Y61424820D01*
D23*
X46103540Y58346340D02*
X46228000Y58409840D01*
D22*
X98402140Y61356240D02*
X98059240Y61356240D01*
D23*
X46667420Y57909460D02*
X46540420Y57721500D01*
D22*
X97508060Y61010800D02*
X97645220Y60873640D01*
X98059240Y60805060D02*
X98196400Y60873640D01*
D23*
X46728380Y58033920D02*
X46667420Y57909460D01*
X111363760Y24056340D02*
X111427260Y23992840D01*
D22*
X91871800Y60805060D02*
X92008960Y60873640D01*
D23*
X109489240Y23868380D02*
X109550200Y23992840D01*
D22*
X108303060Y61216540D02*
X108303060Y61285120D01*
X57960260Y60805060D02*
X57754520Y60873640D01*
X92008960Y62179200D02*
X91871800Y62247780D01*
D23*
X102235000Y58409840D02*
X102047040Y58346340D01*
X102235000Y57096660D02*
X102295960Y57096660D01*
D22*
X108097320Y61630560D02*
X107889040Y61699140D01*
X59128660Y62179200D02*
X58991500Y62042040D01*
D23*
X102295960Y57909460D02*
X102235000Y57909460D01*
X60385960Y57096660D02*
X60198000Y57096660D01*
D22*
X73840340Y62247780D02*
X72946260Y62247780D01*
X104589580Y61767720D02*
X104589580Y61836300D01*
X97645220Y62179200D02*
X97508060Y62042040D01*
X104795320Y61424820D02*
X104658160Y61561980D01*
X68546980Y60805060D02*
X67584320Y62247780D01*
D23*
X102671880Y57470040D02*
X102671880Y57533540D01*
X102359460Y58409840D02*
X102235000Y58409840D01*
X60698380Y57785000D02*
X60761880Y57597040D01*
D22*
X97645220Y60873640D02*
X97784920Y60805060D01*
X91457780Y62179200D02*
X91320620Y62042040D01*
D23*
X110738920Y23868380D02*
X110802420Y23992840D01*
X88325960Y57970420D02*
X88513920Y57909460D01*
D22*
X96339660Y61699140D02*
X96408240Y61836300D01*
X104795320Y62179200D02*
X105003600Y62247780D01*
D23*
X88513920Y57909460D02*
X88638380Y57785000D01*
X102235000Y57909460D02*
X102047040Y57845960D01*
D22*
X108234480Y62042040D02*
X108165900Y62179200D01*
X97370900Y61356240D02*
X97439480Y61147960D01*
X98196400Y60873640D02*
X98333560Y61010800D01*
X97784920Y60805060D02*
X98059240Y60805060D01*
X92283280Y61699140D02*
X92214700Y61904880D01*
X96065340Y61561980D02*
X96271080Y61630560D01*
D23*
X88513920Y57157620D02*
X88325960Y57096660D01*
D22*
X57754520Y61699140D02*
X57891680Y61630560D01*
X107820460Y60805060D02*
X107889040Y60805060D01*
%TO.N,+5V*%
D25*
X28321000Y29090620D02*
X29591000Y29090620D01*
X29591000Y29210000D02*
X28956000Y29845000D01*
X28321000Y28575000D02*
X29591000Y28575000D01*
D26*
X69850000Y29210000D02*
X83820000Y29210000D01*
D25*
X28956000Y29845000D02*
X28956000Y30861000D01*
X28321000Y28745180D02*
X29591000Y28745180D01*
X28321000Y29436060D02*
X29362400Y29436060D01*
X28321000Y30472380D02*
X28956000Y30472380D01*
D27*
X25417780Y31163260D02*
X25661620Y31115000D01*
D26*
X107315000Y22860000D02*
X108585000Y21590000D01*
D27*
X28702000Y30734000D02*
X29210000Y31115000D01*
X41910000Y29210000D02*
X41910000Y30876240D01*
D25*
X28321000Y28917900D02*
X29591000Y28917900D01*
X28956000Y30861000D02*
X28321000Y30861000D01*
X28321000Y30642560D02*
X28956000Y30642560D01*
X28321000Y28575000D02*
X29591000Y28575000D01*
X28321000Y29608780D02*
X29189680Y29608780D01*
D26*
X38100000Y29210000D02*
X41910000Y29210000D01*
X55880000Y29210000D02*
X69850000Y29210000D01*
D27*
X97790000Y29210000D02*
X97790000Y31115000D01*
X83820000Y31115000D02*
X84455000Y31115000D01*
D26*
X100965000Y29210000D02*
X107315000Y22860000D01*
D27*
X83820000Y29210000D02*
X83820000Y31115000D01*
X55880000Y29210000D02*
X55880000Y31115000D01*
D25*
X28321000Y30815280D02*
X28956000Y30815280D01*
D27*
X41910000Y30876240D02*
X41910000Y31115000D01*
X38100000Y25400000D02*
X38100000Y29210000D01*
D25*
X28321000Y29263340D02*
X29535120Y29263340D01*
D26*
X108585000Y21590000D02*
X108585000Y15240000D01*
D27*
X25661620Y31115000D02*
X29210000Y31115000D01*
X24765000Y31750000D02*
X25212040Y31300420D01*
X25212040Y31300420D02*
X25417780Y31163260D01*
D25*
X29591000Y28575000D02*
X29591000Y29210000D01*
X28321000Y29954220D02*
X28956000Y29954220D01*
D26*
X83820000Y29210000D02*
X97790000Y29210000D01*
D25*
X28321000Y30299660D02*
X28956000Y30299660D01*
D27*
X42545000Y31115000D02*
X41910000Y30876240D01*
X69850000Y29210000D02*
X69850000Y31115000D01*
D26*
X41910000Y29210000D02*
X55880000Y29210000D01*
X97790000Y29210000D02*
X100965000Y29210000D01*
D27*
X69850000Y31115000D02*
X70485000Y31115000D01*
D25*
X28321000Y30126940D02*
X28956000Y30126940D01*
D27*
X55880000Y31115000D02*
X56515000Y31115000D01*
X41910000Y31115000D02*
X42545000Y31115000D01*
D26*
X29083000Y29210000D02*
X38100000Y29210000D01*
D25*
X28321000Y29781500D02*
X29016960Y29781500D01*
X28321000Y30861000D02*
X28321000Y28575000D01*
D27*
X97790000Y31115000D02*
X98425000Y31115000D01*
%TO.N,Net-(A1-+)*%
D28*
X38732460Y35186620D02*
X38732460Y41645840D01*
X37465000Y33655000D02*
X38547040Y34737040D01*
X38684200Y34942780D02*
X38732460Y35186620D01*
X38547040Y34737040D02*
X38684200Y34942780D01*
X38732460Y41645840D02*
X38684200Y41889680D01*
X38547040Y42095420D02*
X38100000Y42545000D01*
X36830000Y33655000D02*
X37465000Y33655000D01*
X38684200Y41889680D02*
X38547040Y42095420D01*
%TO.N,Net-(Q1-E)*%
D27*
X19050000Y31115000D02*
X17780000Y27305000D01*
%TO.N,Net-(Q1-B)*%
X12065000Y36195000D02*
X17780000Y33020000D01*
%TO.N,Net-(D1-K)*%
X16510000Y25397460D02*
X18227040Y23680420D01*
X15425420Y26482040D02*
X16507460Y25400000D01*
X16507460Y25400000D02*
X16510000Y25400000D01*
X18432780Y23543260D02*
X18676620Y23495000D01*
X15288260Y29824680D02*
X15240000Y29580840D01*
X20299680Y23543260D02*
X20505420Y23680420D01*
X16510000Y31115000D02*
X15425420Y30030420D01*
X15240000Y26931620D02*
X15288260Y26687780D01*
X18227040Y23680420D02*
X18432780Y23543260D01*
X20055840Y23495000D02*
X20299680Y23543260D01*
X15288260Y26687780D02*
X15425420Y26482040D01*
X16510000Y25400000D02*
X16510000Y25397460D01*
X18676620Y23495000D02*
X20055840Y23495000D01*
X15240000Y29580840D02*
X15240000Y26931620D01*
X15425420Y30030420D02*
X15288260Y29824680D01*
X20505420Y23680420D02*
X22225000Y25400000D01*
%TO.N,GND*%
D25*
X40657780Y48658780D02*
X41275000Y48658780D01*
X105664000Y48115220D02*
X106807000Y48115220D01*
D27*
X50800000Y46355000D02*
X50165000Y46355000D01*
X64770000Y48895000D02*
X64135000Y48895000D01*
D26*
X52705000Y48260000D02*
X55245000Y50800000D01*
D25*
X105664000Y47942500D02*
X106807000Y47942500D01*
D26*
X80645000Y50800000D02*
X78740000Y50800000D01*
D25*
X40005000Y47795180D02*
X41275000Y47795180D01*
X105664000Y47625000D02*
X106299000Y47625000D01*
X106299000Y46906180D02*
X106807000Y46906180D01*
X105664000Y47769780D02*
X106807000Y47769780D01*
D26*
X50800000Y48260000D02*
X52705000Y48260000D01*
D25*
X105664000Y48803560D02*
X106133900Y48803560D01*
D27*
X92710000Y46355000D02*
X92710000Y48260000D01*
D29*
X40259000Y47625000D02*
X40256460Y33535620D01*
D25*
X40005000Y47625000D02*
X41275000Y47625000D01*
X105664000Y48895000D02*
X105664000Y47625000D01*
X40139620Y48140620D02*
X41275000Y48140620D01*
X105664000Y48460660D02*
X106476800Y48460660D01*
X41275000Y47625000D02*
X41275000Y48895000D01*
D29*
X20767040Y27117040D02*
X20904200Y27322780D01*
D26*
X99060000Y22225000D02*
X100685600Y20599400D01*
X64770000Y50800000D02*
X55245000Y50800000D01*
D29*
X37835840Y31115000D02*
X38079680Y31163260D01*
D25*
X40894000Y48895000D02*
X40005000Y48006000D01*
X106299000Y47251620D02*
X106807000Y47251620D01*
D29*
X20955000Y34147760D02*
X20939760Y34284920D01*
D25*
X40005000Y47967900D02*
X41275000Y47967900D01*
D27*
X78740000Y48895000D02*
X78740000Y50800000D01*
D25*
X106299000Y47597060D02*
X106807000Y47597060D01*
D29*
X38285420Y31300420D02*
X40071040Y33086040D01*
D26*
X83185000Y48260000D02*
X92710000Y48260000D01*
D25*
X106045000Y48895000D02*
X105664000Y48895000D01*
D29*
X20894040Y34417000D02*
X16510000Y43815000D01*
X20939760Y34284920D02*
X20894040Y34417000D01*
D25*
X106299000Y47424340D02*
X106807000Y47424340D01*
D26*
X78740000Y50800000D02*
X64770000Y50800000D01*
X92710000Y48260000D02*
X105664000Y48260000D01*
D25*
X106299000Y46736000D02*
X106807000Y46736000D01*
X40312340Y48313340D02*
X41275000Y48313340D01*
D29*
X20904200Y27322780D02*
X20952460Y27566620D01*
X19050000Y25400000D02*
X20767040Y27117040D01*
D25*
X106299000Y46736000D02*
X106807000Y46736000D01*
X41275000Y48895000D02*
X40894000Y48895000D01*
X106299000Y47078900D02*
X106807000Y47078900D01*
X40005000Y48006000D02*
X40005000Y47625000D01*
D29*
X20952460Y27566620D02*
X20955000Y34147760D01*
D25*
X106807000Y46736000D02*
X106807000Y48133000D01*
X40830500Y48831500D02*
X41275000Y48831500D01*
X105664000Y48633380D02*
X106304080Y48633380D01*
D26*
X80645000Y50800000D02*
X83185000Y48260000D01*
D27*
X78740000Y48895000D02*
X78105000Y48895000D01*
D25*
X106807000Y48133000D02*
X106045000Y48895000D01*
X40485060Y48486060D02*
X41275000Y48486060D01*
D27*
X50800000Y46355000D02*
X50800000Y48260000D01*
D29*
X38079680Y31163260D02*
X38285420Y31300420D01*
D26*
X100685600Y20599400D02*
X100685600Y19685000D01*
D27*
X64770000Y48895000D02*
X64770000Y50800000D01*
X106426000Y46736000D02*
X106045000Y46355000D01*
D25*
X106299000Y47625000D02*
X106299000Y46736000D01*
D27*
X92710000Y46355000D02*
X92075000Y46355000D01*
D26*
X41275000Y48260000D02*
X50800000Y48260000D01*
D29*
X16510000Y43815000D02*
X16510000Y55245000D01*
X40071040Y33086040D02*
X40208200Y33291780D01*
X40208200Y33291780D02*
X40256460Y33535620D01*
X36830000Y31115000D02*
X37835840Y31115000D01*
D25*
X105664000Y48287940D02*
X106649520Y48287940D01*
X40005000Y47625000D02*
X41275000Y47625000D01*
%TO.N,Net-(A1-Pad7)*%
D28*
X29845000Y48630840D02*
X29893260Y48874680D01*
X29657040Y42992040D02*
X29794200Y43197780D01*
X110487460Y33916620D02*
X110487460Y47741840D01*
X32197040Y51247040D02*
X32402780Y51384200D01*
X39984680Y51384200D02*
X39740840Y51435000D01*
X106045000Y31115000D02*
X107685840Y31115000D01*
X107929680Y31163260D02*
X107685840Y31115000D01*
X108135420Y31300420D02*
X110302040Y33467040D01*
X110302040Y48191420D02*
X107246420Y51247040D01*
X53738780Y53670200D02*
X53982620Y53721000D01*
X110302040Y48191420D02*
X110439200Y47985680D01*
X27940000Y42545000D02*
X28945840Y42545000D01*
X51239420Y51239420D02*
X51033680Y51102260D01*
X32197040Y51247040D02*
X30030420Y49080420D01*
X110439200Y47985680D02*
X110487460Y47741840D01*
X82354420Y53533040D02*
X82148680Y53670200D01*
X29395420Y42730420D02*
X29657040Y42992040D01*
X82148680Y53670200D02*
X81904840Y53721000D01*
X27305000Y41910000D02*
X27305000Y35186620D01*
X110302040Y33467040D02*
X110439200Y33672780D01*
X40198040Y51239420D02*
X40190420Y51247040D01*
X27305000Y41910000D02*
X24765000Y41910000D01*
X29794200Y43197780D02*
X29845000Y43441620D01*
X32402780Y51384200D02*
X32646620Y51435000D01*
X81904840Y53721000D02*
X53982620Y53721000D01*
X28575000Y33655000D02*
X29210000Y33655000D01*
X29395420Y42730420D02*
X29189680Y42593260D01*
X53533040Y53533040D02*
X51239420Y51239420D01*
X82354420Y53533040D02*
X84267040Y51620420D01*
X40647620Y51054000D02*
X50789840Y51054000D01*
X40190420Y51247040D02*
X39984680Y51384200D01*
X27305000Y41910000D02*
X27940000Y42545000D01*
X84472780Y51483260D02*
X84267040Y51620420D01*
X29893260Y48874680D02*
X30030420Y49080420D01*
X53533040Y53533040D02*
X53738780Y53670200D01*
X51033680Y51102260D02*
X50789840Y51054000D01*
X40647620Y51054000D02*
X40403780Y51102260D01*
X106796840Y51435000D02*
X107040680Y51384200D01*
X27353260Y34942780D02*
X27305000Y35186620D01*
X29845000Y43441620D02*
X29845000Y48630840D01*
X110439200Y33672780D02*
X110487460Y33916620D01*
X27490420Y34737040D02*
X28575000Y33655000D01*
X107040680Y51384200D02*
X107246420Y51247040D01*
X84716620Y51435000D02*
X84472780Y51483260D01*
X106796840Y51435000D02*
X84716620Y51435000D01*
X29189680Y42593260D02*
X28945840Y42545000D01*
X27490420Y34737040D02*
X27353260Y34942780D01*
X39740840Y51435000D02*
X32646620Y51435000D01*
X40403780Y51102260D02*
X40198040Y51239420D01*
X108135420Y31300420D02*
X107929680Y31163260D01*
%TO.N,Net-(A3-A6)*%
X64135000Y31115000D02*
X65140840Y31115000D01*
X66487040Y32197040D02*
X66692780Y32334200D01*
X66487040Y32197040D02*
X65590420Y31300420D01*
X66692780Y32334200D02*
X66936620Y32385000D01*
X75377040Y31300420D02*
X75582780Y31163260D01*
X75826620Y31115000D02*
X78105000Y31115000D01*
X72788780Y24460200D02*
X73032620Y24511000D01*
X74480420Y32197040D02*
X74274680Y32334200D01*
X75582780Y31163260D02*
X75826620Y31115000D01*
X74274680Y32334200D02*
X74030840Y32385000D01*
X83799680Y24460200D02*
X84005420Y24323040D01*
X86360000Y21971000D02*
X84005420Y24323040D01*
X72583040Y24323040D02*
X72788780Y24460200D01*
X65384680Y31163260D02*
X65590420Y31300420D01*
X65140840Y31115000D02*
X65384680Y31163260D01*
X83555840Y24511000D02*
X73032620Y24511000D01*
X83555840Y24511000D02*
X83799680Y24460200D01*
X75377040Y31300420D02*
X74480420Y32197040D01*
X74030840Y32385000D02*
X66936620Y32385000D01*
X72583040Y24323040D02*
X71755000Y23495000D01*
%TO.N,Net-(A3-A5)*%
X72153780Y25476200D02*
X72397620Y25527000D01*
X84942680Y25476200D02*
X84698840Y25527000D01*
X75826620Y33655000D02*
X78105000Y33655000D01*
X74030840Y34925000D02*
X66936620Y34925000D01*
X71109840Y24765000D02*
X71353680Y24813260D01*
X74480420Y34737040D02*
X74274680Y34874200D01*
X65384680Y33703260D02*
X65590420Y33840420D01*
X71353680Y24813260D02*
X71559420Y24950420D01*
X66487040Y34737040D02*
X65590420Y33840420D01*
X75377040Y33840420D02*
X75582780Y33703260D01*
X88722200Y21696680D02*
X88585040Y21902420D01*
X84698840Y25527000D02*
X72397620Y25527000D01*
X66692780Y34874200D02*
X66936620Y34925000D01*
X70297040Y24577040D02*
X69215000Y23495000D01*
X75582780Y33703260D02*
X75826620Y33655000D01*
X70502780Y24714200D02*
X70746620Y24765000D01*
X75377040Y33840420D02*
X74480420Y34737040D01*
X88585040Y21902420D02*
X85148420Y25339040D01*
X64135000Y33655000D02*
X65140840Y33655000D01*
X66487040Y34737040D02*
X66692780Y34874200D01*
X71948040Y25339040D02*
X71559420Y24950420D01*
X70746620Y24765000D02*
X71109840Y24765000D01*
X65140840Y33655000D02*
X65384680Y33703260D01*
X71948040Y25339040D02*
X72153780Y25476200D01*
X74274680Y34874200D02*
X74030840Y34925000D01*
X85148420Y25339040D02*
X84942680Y25476200D01*
X88770460Y21452840D02*
X88722200Y21696680D01*
X70297040Y24577040D02*
X70502780Y24714200D01*
X88773000Y15240000D02*
X88770460Y21452840D01*
%TO.N,Net-(A3-A4)*%
X85450680Y26619200D02*
X85656420Y26482040D01*
X75377040Y36380420D02*
X75582780Y36243260D01*
X75377040Y36380420D02*
X74480420Y37277040D01*
X85206840Y26670000D02*
X85450680Y26619200D01*
X75582780Y36243260D02*
X75826620Y36195000D01*
X75826620Y36195000D02*
X78105000Y36195000D01*
X66487040Y37277040D02*
X65590420Y36380420D01*
X85206840Y26670000D02*
X70485000Y26670000D01*
X66692780Y37414200D02*
X66936620Y37465000D01*
X65140840Y36195000D02*
X65384680Y36243260D01*
X65384680Y36243260D02*
X65590420Y36380420D01*
X74030840Y37465000D02*
X66936620Y37465000D01*
X64135000Y36195000D02*
X65140840Y36195000D01*
X74274680Y37414200D02*
X74030840Y37465000D01*
X74480420Y37277040D02*
X74274680Y37414200D01*
X90170000Y21971000D02*
X85656420Y26482040D01*
X66487040Y37277040D02*
X66692780Y37414200D01*
%TO.N,Net-(A3-A3)*%
X74480420Y39817040D02*
X74274680Y39954200D01*
X92758260Y21569680D02*
X92895420Y21775420D01*
X65140840Y38735000D02*
X65384680Y38783260D01*
X92710000Y21325840D02*
X92758260Y21569680D01*
X92710000Y21325840D02*
X92710000Y15240000D01*
X66692780Y39954200D02*
X66936620Y40005000D01*
X75582780Y38783260D02*
X75826620Y38735000D01*
X75377040Y38920420D02*
X75582780Y38783260D01*
X64135000Y38735000D02*
X65140840Y38735000D01*
X66487040Y39817040D02*
X65590420Y38920420D01*
X66487040Y39817040D02*
X66692780Y39954200D01*
X65384680Y38783260D02*
X65590420Y38920420D01*
X74274680Y39954200D02*
X74030840Y40005000D01*
X75826620Y38735000D02*
X78105000Y38735000D01*
X95250000Y24130000D02*
X92895420Y21775420D01*
X74030840Y40005000D02*
X66936620Y40005000D01*
X75377040Y38920420D02*
X74480420Y39817040D01*
%TO.N,Net-(A3-A0)*%
X65384680Y41323260D02*
X65590420Y41460420D01*
X79822040Y40190420D02*
X80027780Y40053260D01*
X90805000Y38735000D02*
X92075000Y38735000D01*
X75377040Y41460420D02*
X74480420Y42357040D01*
X66487040Y42357040D02*
X65590420Y41460420D01*
X75826620Y41275000D02*
X78105000Y41275000D01*
X64135000Y41275000D02*
X65140840Y41275000D01*
X66487040Y42357040D02*
X66692780Y42494200D01*
X78740000Y41275000D02*
X79822040Y40190420D01*
X89270840Y40005000D02*
X80271620Y40005000D01*
X90805000Y38735000D02*
X89720420Y39817040D01*
X78105000Y41275000D02*
X78740000Y41275000D01*
X80027780Y40053260D02*
X80271620Y40005000D01*
X74480420Y42357040D02*
X74274680Y42494200D01*
X75582780Y41323260D02*
X75826620Y41275000D01*
X66692780Y42494200D02*
X66936620Y42545000D01*
X65140840Y41275000D02*
X65384680Y41323260D01*
X89720420Y39817040D02*
X89514680Y39954200D01*
X89514680Y39954200D02*
X89270840Y40005000D01*
X74030840Y42545000D02*
X66936620Y42545000D01*
X75377040Y41460420D02*
X75582780Y41323260D01*
X74274680Y42494200D02*
X74030840Y42545000D01*
%TO.N,Net-(A3-A1)*%
X95250000Y21971000D02*
X96647000Y19939000D01*
X66487040Y44897040D02*
X65590420Y44000420D01*
X75826620Y43815000D02*
X78105000Y43815000D01*
X66692780Y45034200D02*
X66936620Y45085000D01*
X96647000Y19939000D02*
X96647000Y14605000D01*
X66487040Y44897040D02*
X66692780Y45034200D01*
X74480420Y44897040D02*
X74274680Y45034200D01*
X74274680Y45034200D02*
X74030840Y45085000D01*
X75582780Y43863260D02*
X75826620Y43815000D01*
X65140840Y43815000D02*
X65384680Y43863260D01*
X75377040Y44000420D02*
X74480420Y44897040D01*
X64135000Y43815000D02*
X65140840Y43815000D01*
X74030840Y45085000D02*
X66936620Y45085000D01*
X65384680Y43863260D02*
X65590420Y44000420D01*
X75377040Y44000420D02*
X75582780Y43863260D01*
%TO.N,Net-(A3-A2)*%
X74030840Y47625000D02*
X66936620Y47625000D01*
X66692780Y47574200D02*
X66936620Y47625000D01*
X75582780Y46403260D02*
X75826620Y46355000D01*
X74274680Y47574200D02*
X74030840Y47625000D01*
X64135000Y46355000D02*
X65140840Y46355000D01*
X75377040Y46540420D02*
X74480420Y47437040D01*
X75377040Y46540420D02*
X75582780Y46403260D01*
X75826620Y46355000D02*
X78105000Y46355000D01*
X65140840Y46355000D02*
X65384680Y46403260D01*
X65384680Y46403260D02*
X65590420Y46540420D01*
X66487040Y47437040D02*
X66692780Y47574200D01*
X74480420Y47437040D02*
X74274680Y47574200D01*
X66487040Y47437040D02*
X65590420Y46540420D01*
%TO.N,Net-(A4-O3)*%
X51435000Y21971000D02*
X53086000Y19939000D01*
%TO.N,Net-(A4-O1)*%
X55372000Y21971000D02*
X57150000Y19939000D01*
%TO.N,Net-(A3-~{CE1})*%
X83370420Y37650420D02*
X84455000Y38735000D01*
X96332040Y39817040D02*
X94165420Y37650420D01*
X82920840Y37465000D02*
X83164680Y37513260D01*
X107500420Y40190420D02*
X107294680Y40053260D01*
X61221620Y37465000D02*
X60977780Y37513260D01*
X60977780Y37513260D02*
X60772040Y37650420D01*
X75377040Y37650420D02*
X74480420Y38547040D01*
X75377040Y37650420D02*
X75582780Y37513260D01*
X88282780Y37513260D02*
X88077040Y37650420D01*
X94165420Y37650420D02*
X93959680Y37513260D01*
X107762040Y40452040D02*
X107899200Y40657780D01*
X93959680Y37513260D02*
X93715840Y37465000D01*
X107899200Y42524680D02*
X107762040Y42730420D01*
X66487040Y38547040D02*
X66692780Y38684200D01*
X60772040Y37650420D02*
X59875420Y38547040D01*
X87180420Y38547040D02*
X88077040Y37650420D01*
X86730840Y38735000D02*
X84455000Y38735000D01*
X74480420Y38547040D02*
X74274680Y38684200D01*
X86974680Y38684200D02*
X87180420Y38547040D01*
X88526620Y37465000D02*
X93715840Y37465000D01*
X65140840Y37465000D02*
X65384680Y37513260D01*
X70485000Y38735000D02*
X74030840Y38735000D01*
X96781620Y40005000D02*
X107050840Y40005000D01*
X88526620Y37465000D02*
X88282780Y37513260D01*
X86730840Y38735000D02*
X86974680Y38684200D01*
X59425840Y38735000D02*
X59669680Y38684200D01*
X83164680Y37513260D02*
X83370420Y37650420D01*
X107950000Y40901620D02*
X107947460Y42280840D01*
X61221620Y37465000D02*
X65140840Y37465000D01*
X107500420Y40190420D02*
X107762040Y40452040D01*
X66936620Y38735000D02*
X70485000Y38735000D01*
X106045000Y43815000D02*
X106680000Y43815000D01*
X59669680Y38684200D02*
X59875420Y38547040D01*
X96537780Y39954200D02*
X96781620Y40005000D01*
X66487040Y38547040D02*
X65590420Y37650420D01*
X65384680Y37513260D02*
X65590420Y37650420D01*
X75582780Y37513260D02*
X75826620Y37465000D01*
X107294680Y40053260D02*
X107050840Y40005000D01*
X107899200Y40657780D02*
X107950000Y40901620D01*
X74274680Y38684200D02*
X74030840Y38735000D01*
X107762040Y42730420D02*
X106680000Y43815000D01*
X59425840Y38735000D02*
X56515000Y38735000D01*
X96332040Y39817040D02*
X96537780Y39954200D01*
X66692780Y38684200D02*
X66936620Y38735000D01*
X107947460Y42280840D02*
X107899200Y42524680D01*
X75826620Y37465000D02*
X82920840Y37465000D01*
%TO.N,Net-(A3-A7)*%
X66936620Y33655000D02*
X70485000Y33655000D01*
X98425000Y33655000D02*
X97416620Y33655000D01*
X68470780Y21765260D02*
X68265040Y21902420D01*
X81211420Y23307040D02*
X81005680Y23444200D01*
X59425840Y33655000D02*
X59669680Y33604200D01*
X60977780Y32433260D02*
X61221620Y32385000D01*
X75582780Y32433260D02*
X75826620Y32385000D01*
X75377040Y32570420D02*
X75582780Y32433260D01*
X74312780Y23444200D02*
X74556620Y23495000D01*
X59875420Y33467040D02*
X60772040Y32570420D01*
X96967040Y33467040D02*
X96070420Y32570420D01*
X68714620Y21717000D02*
X72252840Y21717000D01*
X74274680Y33604200D02*
X74030840Y33655000D01*
X74107040Y23307040D02*
X72702420Y21902420D01*
X97172780Y33604200D02*
X97416620Y33655000D01*
X96070420Y32570420D02*
X95864680Y32433260D01*
X65140840Y32385000D02*
X65384680Y32433260D01*
X65384680Y32433260D02*
X65590420Y32570420D01*
X81005680Y23444200D02*
X80761840Y23495000D01*
X74107040Y23307040D02*
X74312780Y23444200D01*
X66692780Y33604200D02*
X66936620Y33655000D01*
X66487040Y33467040D02*
X66692780Y33604200D01*
X59425840Y33655000D02*
X56515000Y33655000D01*
X66675000Y23495000D02*
X68265040Y21902420D01*
X72702420Y21902420D02*
X72496680Y21765260D01*
X74480420Y33467040D02*
X74274680Y33604200D01*
X80761840Y23495000D02*
X74556620Y23495000D01*
X66487040Y33467040D02*
X65590420Y32570420D01*
X70485000Y33655000D02*
X74030840Y33655000D01*
X59669680Y33604200D02*
X59875420Y33467040D01*
X75377040Y32570420D02*
X74480420Y33467040D01*
X68714620Y21717000D02*
X68470780Y21765260D01*
X60772040Y32570420D02*
X60977780Y32433260D01*
X61221620Y32385000D02*
X65140840Y32385000D01*
X75826620Y32385000D02*
X95620840Y32385000D01*
X72496680Y21765260D02*
X72252840Y21717000D01*
X84709000Y19812000D02*
X81211420Y23307040D01*
X95864680Y32433260D02*
X95620840Y32385000D01*
X96967040Y33467040D02*
X97172780Y33604200D01*
%TO.N,Net-(D1-A)*%
D27*
X24765000Y25400000D02*
X27940000Y25400000D01*
%TO.N,Net-(A2A-D)*%
D28*
X50165000Y43815000D02*
X50800000Y43815000D01*
X52019200Y34942780D02*
X52067460Y35186620D01*
X51882040Y34737040D02*
X52019200Y34942780D01*
X52019200Y42524680D02*
X52067460Y42280840D01*
X50800000Y33655000D02*
X51882040Y34737040D01*
X51882040Y42730420D02*
X52019200Y42524680D01*
X51882040Y42730420D02*
X50800000Y43815000D01*
X52067460Y35186620D02*
X52067460Y42280840D01*
X50800000Y33655000D02*
X50165000Y33655000D01*
%TO.N,Net-(A2A-C)*%
X102887780Y33703260D02*
X102682040Y33840420D01*
X84455000Y33655000D02*
X87365840Y33655000D01*
X87609680Y33703260D02*
X87365840Y33655000D01*
X89161620Y34925000D02*
X88917780Y34874200D01*
X87815420Y33840420D02*
X88712040Y34737040D01*
X101785420Y34737040D02*
X101579680Y34874200D01*
X87815420Y33840420D02*
X87609680Y33703260D01*
X103131620Y33655000D02*
X102887780Y33703260D01*
X101579680Y34874200D02*
X101335840Y34925000D01*
X103131620Y33655000D02*
X106045000Y33655000D01*
X88917780Y34874200D02*
X88712040Y34737040D01*
X101335840Y34925000D02*
X89161620Y34925000D01*
X101785420Y34737040D02*
X102682040Y33840420D01*
%TO.N,Net-(A3-O3)*%
X43815000Y21971000D02*
X45212000Y19939000D01*
%TO.N,Net-(A3-O1)*%
X47625000Y21971000D02*
X49149000Y19939000D01*
%TO.N,Net-(A5-Pad1)*%
X107294680Y32433260D02*
X107050840Y32385000D01*
X107500420Y32570420D02*
X107294680Y32433260D01*
X107950000Y33281620D02*
X107947460Y34660840D01*
X97172780Y32334200D02*
X97416620Y32385000D01*
X107899200Y34904680D02*
X107762040Y35110420D01*
X96967040Y32197040D02*
X96070420Y31300420D01*
X107899200Y33037780D02*
X107950000Y33281620D01*
X107947460Y34660840D02*
X107899200Y34904680D01*
X95620840Y31115000D02*
X95864680Y31163260D01*
X106680000Y36195000D02*
X106045000Y36195000D01*
X95864680Y31163260D02*
X96070420Y31300420D01*
X96967040Y32197040D02*
X97172780Y32334200D01*
X107762040Y32832040D02*
X107899200Y33037780D01*
X107500420Y32570420D02*
X107762040Y32832040D01*
X107762040Y35110420D02*
X106680000Y36195000D01*
X97416620Y32385000D02*
X107050840Y32385000D01*
X92075000Y31115000D02*
X95620840Y31115000D01*
%TO.N,Net-(J3A-~{4KCS})*%
X99293680Y26619200D02*
X99499420Y26482040D01*
X90170000Y26670000D02*
X99049840Y26670000D01*
X99049840Y26670000D02*
X99293680Y26619200D01*
X104648000Y20912619D02*
X104648000Y19685000D01*
X99499420Y26482040D02*
X104350421Y21631039D01*
X104648000Y20912619D02*
G75*
G03*
X104350411Y21631029I-1016000J-19D01*
G01*
%TO.N,Net-(J3A-A11)*%
X75565000Y21971000D02*
X76835000Y20193000D01*
%TO.N,Net-(A5-Pad5)*%
X96992440Y46245780D02*
X93505020Y43921680D01*
X93151960Y43815000D02*
X93334840Y43840400D01*
X93334840Y43840400D02*
X93505020Y43921680D01*
X92075000Y43815000D02*
X93151960Y43815000D01*
X97345500Y46355000D02*
X97162620Y46327060D01*
X97162620Y46327060D02*
X96992440Y46245780D01*
X98425000Y46355000D02*
X97345500Y46355000D01*
%TO.N,Net-(J3A-A9)*%
X79375000Y21971000D02*
X80772000Y20193000D01*
%TO.N,Net-(A5-Pad10)*%
X88282780Y42494200D02*
X88526620Y42545000D01*
X103522780Y41323260D02*
X103317040Y41460420D01*
X87180420Y41460420D02*
X86974680Y41323260D01*
X87180420Y41460420D02*
X88077040Y42357040D01*
X101970840Y42545000D02*
X88526620Y42545000D01*
X102420420Y42357040D02*
X103317040Y41460420D01*
X88077040Y42357040D02*
X88282780Y42494200D01*
X86974680Y41323260D02*
X86730840Y41275000D01*
X102420420Y42357040D02*
X102214680Y42494200D01*
X103766620Y41275000D02*
X103522780Y41323260D01*
X102214680Y42494200D02*
X101970840Y42545000D01*
X103766620Y41275000D02*
X106045000Y41275000D01*
X84455000Y41275000D02*
X86730840Y41275000D01*
%TO.N,Net-(J2-~-PadT)*%
X56240680Y56718200D02*
X56446420Y56581040D01*
X23512780Y53924200D02*
X23307040Y53787040D01*
X54041040Y56581040D02*
X54246780Y56718200D01*
X58046620Y55245000D02*
X65405000Y55245000D01*
X51414680Y54023260D02*
X51620420Y54160420D01*
X55996840Y56769000D02*
X56240680Y56718200D01*
X54041040Y56581040D02*
X51620420Y54160420D01*
X65405000Y55245000D02*
X68580000Y55245000D01*
X57802780Y55293260D02*
X58046620Y55245000D01*
X23307040Y53787040D02*
X22225000Y52705000D01*
X54246780Y56718200D02*
X54490620Y56769000D01*
X23756620Y53975000D02*
X51170840Y53975000D01*
X56446420Y56581040D02*
X57597040Y55430420D01*
X51170840Y53975000D02*
X51414680Y54023260D01*
X55996840Y56769000D02*
X54490620Y56769000D01*
X23756620Y53975000D02*
X23512780Y53924200D01*
X57597040Y55430420D02*
X57802780Y55293260D01*
%TO.N,Net-(J3A-\u02782)*%
X54168040Y52390040D02*
X54373780Y52527200D01*
X81142840Y52578000D02*
X81386680Y52527200D01*
X109032040Y47556420D02*
X106611420Y49977040D01*
X40647620Y49911000D02*
X51424840Y49911000D01*
X40198040Y49723040D02*
X40403780Y49860200D01*
X109169200Y40022780D02*
X109217460Y40266620D01*
X54373780Y52527200D02*
X54617620Y52578000D01*
X106611420Y49977040D02*
X106405680Y50114200D01*
X33655000Y48895000D02*
X39105840Y48895000D01*
X39349680Y48943260D02*
X39555420Y49080420D01*
X107685840Y38735000D02*
X107929680Y38783260D01*
X109032040Y39817040D02*
X109169200Y40022780D01*
X40198040Y49723040D02*
X39555420Y49080420D01*
X39105840Y48895000D02*
X39349680Y48943260D01*
X81386680Y52527200D02*
X81592420Y52390040D01*
X107929680Y38783260D02*
X108135420Y38920420D01*
X106161840Y50165000D02*
X84081620Y50165000D01*
X109169200Y47350680D02*
X109032040Y47556420D01*
X109217460Y47106840D02*
X109169200Y47350680D01*
X40403780Y49860200D02*
X40647620Y49911000D01*
X108135420Y38920420D02*
X109032040Y39817040D01*
X51424840Y49911000D02*
X51668680Y49959260D01*
X106405680Y50114200D02*
X106161840Y50165000D01*
X33655000Y48895000D02*
X33020000Y48260000D01*
X54168040Y52390040D02*
X51874420Y50096420D01*
X106045000Y38735000D02*
X107685840Y38735000D01*
X83632040Y50350420D02*
X83837780Y50213260D01*
X83837780Y50213260D02*
X84081620Y50165000D01*
X81142840Y52578000D02*
X54617620Y52578000D01*
X51668680Y49959260D02*
X51874420Y50096420D01*
X109217460Y40266620D02*
X109217460Y47106840D01*
X81592420Y52390040D02*
X83632040Y50350420D01*
%TO.N,Net-(C1-~-Pad2)*%
X22225000Y36195000D02*
X22225000Y40005000D01*
%TD*%
M02*
