M48
; DRILL file KiCad 10.0.2 date 2026-08-06T12:53:29
; FORMAT={-:-/ absolute / metric / decimal}
; #@! TF.CreationDate,2026-08-06T12:53:29-04:00
; #@! TF.GenerationSoftware,Kicad,Pcbnew,10.0.2
; #@! TF.FileFunction,Plated,1,2,PTH
FMAT,2
METRIC
; #@! TA.AperFunction,Plated,PTH,ViaDrill
T1C0.610
; #@! TA.AperFunction,Plated,PTH,ComponentDrill
T2C0.889
; #@! TA.AperFunction,Plated,PTH,ComponentDrill
T3C6.502
%
G90
G05
T1
X33.02Y48.26
X43.815Y21.971
X47.625Y21.971
X51.435Y21.971
X55.372Y21.971
X66.675Y23.495
X69.215Y23.495
X70.485Y26.67
X71.755Y23.495
X75.565Y21.971
X79.375Y21.971
X86.36Y21.971
X90.17Y26.67
X90.17Y21.971
X95.25Y24.13
X95.25Y21.971
X99.06Y22.225
X107.315Y22.86
T2
X12.065Y36.195
X16.51Y31.115
X16.51Y25.4
X17.78Y32.964
X17.78Y27.249
X19.05Y31.115
X19.05Y25.4
X22.225Y52.705
X22.225Y40.005
X22.225Y36.195
X22.225Y25.4
X24.765Y41.91
X24.765Y31.75
X24.765Y25.4
X27.94Y52.705
X27.94Y50.165
X27.94Y47.625
X27.94Y45.085
X27.94Y42.545
X27.94Y25.4
X28.575Y55.245
X29.21Y38.735
X29.21Y36.195
X29.21Y33.655
X29.21Y31.115
X36.83Y38.735
X36.83Y36.195
X36.83Y33.655
X36.83Y31.115
X37.465Y55.245
X38.1Y52.705
X38.1Y50.165
X38.1Y47.625
X38.1Y45.085
X38.1Y42.545
X38.1Y25.4
X42.545Y46.355
X42.545Y43.815
X42.545Y41.275
X42.545Y38.735
X42.545Y36.195
X42.545Y33.655
X42.545Y31.115
X50.165Y46.355
X50.165Y43.815
X50.165Y41.275
X50.165Y38.735
X50.165Y36.195
X50.165Y33.655
X50.165Y31.115
X55.245Y55.245
X56.515Y48.895
X56.515Y46.355
X56.515Y43.815
X56.515Y41.275
X56.515Y38.735
X56.515Y36.195
X56.515Y33.655
X56.515Y31.115
X64.135Y48.895
X64.135Y46.355
X64.135Y43.815
X64.135Y41.275
X64.135Y38.735
X64.135Y36.195
X64.135Y33.655
X64.135Y31.115
X65.405Y55.245
X68.58Y55.245
X70.485Y48.895
X70.485Y46.355
X70.485Y43.815
X70.485Y41.275
X70.485Y38.735
X70.485Y36.195
X70.485Y33.655
X70.485Y31.115
X78.105Y48.895
X78.105Y46.355
X78.105Y43.815
X78.105Y41.275
X78.105Y38.735
X78.105Y36.195
X78.105Y33.655
X78.105Y31.115
X78.74Y55.245
X84.455Y46.355
X84.455Y43.815
X84.455Y41.275
X84.455Y38.735
X84.455Y36.195
X84.455Y33.655
X84.455Y31.115
X92.075Y46.355
X92.075Y43.815
X92.075Y41.275
X92.075Y38.735
X92.075Y36.195
X92.075Y33.655
X92.075Y31.115
X98.425Y46.355
X98.425Y43.815
X98.425Y41.275
X98.425Y38.735
X98.425Y36.195
X98.425Y33.655
X98.425Y31.115
X106.045Y46.355
X106.045Y43.815
X106.045Y41.275
X106.045Y38.735
X106.045Y36.195
X106.045Y33.655
X106.045Y31.115
T3
X16.51Y55.245
X16.51Y43.815
M30
