%TF.GenerationSoftware,KiCad,Pcbnew,10.0.2*%
%TF.CreationDate,2026-08-06T12:51:58-04:00*%
%TF.ProjectId,aci,6163692e-6b69-4636-9164-5f7063625858,rev?*%
%TF.SameCoordinates,Original*%
%TF.FileFunction,Copper,L2,Bot*%
%TF.FilePolarity,Positive*%
%FSLAX46Y46*%
G04 Gerber Fmt 4.6, Leading zero omitted, Abs format (unit mm)*
G04 Created by KiCad (PCBNEW 10.0.2) date 2026-08-06 12:51:58*
%MOMM*%
%LPD*%
G01*
G04 APERTURE LIST*
G04 Aperture macros list*
%AMFreePoly0*
4,1,39,1.351384,0.842698,1.406789,0.746540,1.455363,0.646758,1.496871,0.543835,1.531110,0.438271,1.557914,0.330579,1.577153,0.221282,1.588734,0.110910,1.592601,0.000000,1.588734,-0.110910,1.577153,-0.221282,1.557914,-0.330579,1.531110,-0.438271,1.496871,-0.543835,1.455363,-0.646758,1.406789,-0.746540,1.351384,-0.842698,1.320800,-0.889000,-1.320800,-0.889000,-1.351384,-0.842698,
-1.406789,-0.746540,-1.455363,-0.646758,-1.496871,-0.543835,-1.531110,-0.438271,-1.557914,-0.330579,-1.577153,-0.221282,-1.588734,-0.110910,-1.592601,0.000000,-1.588734,0.110910,-1.577153,0.221282,-1.557914,0.330579,-1.531110,0.438271,-1.496871,0.543835,-1.455363,0.646758,-1.406789,0.746540,-1.351384,0.842698,-1.320800,0.889000,1.320800,0.889000,1.351384,0.842698,1.351384,0.842698,
$1*%
%AMFreePoly1*
4,1,27,0.296476,1.234910,0.486008,1.173327,0.663573,1.082853,0.824799,0.965716,0.965716,0.824799,1.082853,0.663573,1.173327,0.486008,1.234910,0.296476,1.266085,0.099643,1.266085,0.000000,1.270000,0.000000,1.270000,-8.890000,-1.270000,-8.890000,-1.270000,0.000000,-1.266085,0.000000,-1.266085,0.099643,-1.234910,0.296476,-1.173327,0.486008,-1.082853,0.663573,-0.965716,0.824799,
-0.824799,0.965716,-0.663573,1.082853,-0.486008,1.173327,-0.296476,1.234910,-0.099643,1.266085,0.099643,1.266085,0.296476,1.234910,0.296476,1.234910,$1*%
G04 Aperture macros list end*
%TA.AperFunction,ComponentPad*%
%ADD10O,2.540000X1.143000*%
%TD*%
%TA.AperFunction,ComponentPad*%
%ADD11C,1.501140*%
%TD*%
%TA.AperFunction,ComponentPad*%
%ADD12FreePoly0,180.000000*%
%TD*%
%TA.AperFunction,ComponentPad*%
%ADD13C,10.160000*%
%TD*%
%TA.AperFunction,ComponentPad*%
%ADD14C,1.524000*%
%TD*%
%TA.AperFunction,ComponentPad*%
%ADD15C,1.651000*%
%TD*%
%TA.AperFunction,ComponentPad*%
%ADD16O,1.143000X2.540000*%
%TD*%
%TA.AperFunction,ConnectorPad*%
%ADD17FreePoly1,0.000000*%
%TD*%
%TA.AperFunction,ViaPad*%
%ADD18C,1.198880*%
%TD*%
%TA.AperFunction,Conductor*%
%ADD19C,0.220980*%
%TD*%
%TA.AperFunction,Conductor*%
%ADD20C,0.200660*%
%TD*%
%TA.AperFunction,Conductor*%
%ADD21C,0.508000*%
%TD*%
%TA.AperFunction,Conductor*%
%ADD22C,1.399540*%
%TD*%
%TA.AperFunction,Conductor*%
%ADD23C,0.701040*%
%TD*%
%TA.AperFunction,Conductor*%
%ADD24C,0.635000*%
%TD*%
G04 APERTURE END LIST*
D10*
%TO.P,R3,1*%
%TO.N,+5V*%
X27940000Y45085000D03*
%TO.P,R3,2*%
%TO.N,Net-(A1-+)*%
X38100000Y45085000D03*
%TD*%
D11*
%TO.P,Q1,1,E_1*%
%TO.N,Net-(Q1-E)*%
X19050000Y31115000D03*
%TO.P,Q1,2,B_2*%
%TO.N,Net-(Q1-B)*%
X17780000Y32964120D03*
%TO.P,Q1,3,C_3*%
%TO.N,Net-(D1-K)*%
X16510000Y31115000D03*
%TD*%
D10*
%TO.P,R2,1*%
%TO.N,Net-(A1--)*%
X38100000Y50165000D03*
%TO.P,R2,2*%
%TO.N,GND*%
X27940000Y50165000D03*
%TD*%
D11*
%TO.P,Q2,1,E_1*%
%TO.N,GND*%
X19050000Y25400000D03*
%TO.P,Q2,2,B_2*%
%TO.N,Net-(Q1-E)*%
X17780000Y27249120D03*
%TO.P,Q2,3,C_3*%
%TO.N,Net-(D1-K)*%
X16510000Y25400000D03*
%TD*%
D12*
%TO.P,A1,1,GND_1*%
%TO.N,GND*%
X36830000Y31115000D03*
%TO.P,A1,2,+_2*%
%TO.N,Net-(A1-+)*%
X36830000Y33655000D03*
%TO.P,A1,3,-_3*%
%TO.N,Net-(A1--)*%
X36830000Y36195000D03*
%TO.P,A1,4,V-_4*%
%TO.N,-12V*%
X36830000Y38735000D03*
%TO.P,A1,5,BAL_5*%
%TO.N,unconnected-(A1-BAL-Pad5)*%
X29210000Y38735000D03*
%TO.P,A1,6,STRB_6*%
%TO.N,unconnected-(A1-STRB-Pad6)*%
X29210000Y36195000D03*
%TO.P,A1,7*%
%TO.N,Net-(A1-Pad7)*%
X29210000Y33655000D03*
%TO.P,A1,8,V+_8*%
%TO.N,+5V*%
X29210000Y31115000D03*
%TD*%
D10*
%TO.P,R6,1*%
%TO.N,Net-(A1-Pad7)*%
X27940000Y42545000D03*
%TO.P,R6,2*%
%TO.N,Net-(A1-+)*%
X38100000Y42545000D03*
%TD*%
D12*
%TO.P,A4,1,A6_1*%
%TO.N,Net-(A3-A6)*%
X78105000Y31115000D03*
%TO.P,A4,2,A5_2*%
%TO.N,Net-(A3-A5)*%
X78105000Y33655000D03*
%TO.P,A4,3,A4_3*%
%TO.N,Net-(A3-A4)*%
X78105000Y36195000D03*
%TO.P,A4,4,A3_4*%
%TO.N,Net-(A3-A3)*%
X78105000Y38735000D03*
%TO.P,A4,5,A0_5*%
%TO.N,Net-(A3-A0)*%
X78105000Y41275000D03*
%TO.P,A4,6,A1_6*%
%TO.N,Net-(A3-A1)*%
X78105000Y43815000D03*
%TO.P,A4,7,A2_7*%
%TO.N,Net-(A3-A2)*%
X78105000Y46355000D03*
%TO.P,A4,8,GND_8*%
%TO.N,GND*%
X78105000Y48895000D03*
%TO.P,A4,9,O4_9*%
%TO.N,Net-(A4-O4)*%
X70485000Y48895000D03*
%TO.P,A4,10,O3_10*%
%TO.N,Net-(A4-O3)*%
X70485000Y46355000D03*
%TO.P,A4,11,O2_11*%
%TO.N,Net-(A4-O2)*%
X70485000Y43815000D03*
%TO.P,A4,12,O1_12*%
%TO.N,Net-(A4-O1)*%
X70485000Y41275000D03*
%TO.P,A4,13,~{CE1}_13*%
%TO.N,Net-(A3-~{CE1})*%
X70485000Y38735000D03*
%TO.P,A4,14,~{CE2}_14*%
X70485000Y36195000D03*
%TO.P,A4,15,A7_15*%
%TO.N,Net-(A3-A7)*%
X70485000Y33655000D03*
%TO.P,A4,16,VCC_16*%
%TO.N,+5V*%
X70485000Y31115000D03*
%TD*%
D13*
%TO.P,J2,S,~_S*%
%TO.N,GND*%
X16510000Y55245000D03*
D14*
%TO.P,J2,T,~_T*%
%TO.N,Net-(J2-~-PadT)*%
X22225000Y52705000D03*
%TD*%
D15*
%TO.P,R8,1*%
%TO.N,Net-(D1-A)*%
X27940000Y25400000D03*
%TO.P,R8,2*%
%TO.N,+5V*%
X38100000Y25400000D03*
%TD*%
D10*
%TO.P,R1,1*%
%TO.N,+5V*%
X27940000Y52705000D03*
%TO.P,R1,2*%
%TO.N,Net-(A1--)*%
X38100000Y52705000D03*
%TD*%
D12*
%TO.P,A2,1,~{R}_1*%
%TO.N,unconnected-(A2A-~{R}-Pad1)*%
X50165000Y31115000D03*
%TO.P,A2,2,D_2*%
%TO.N,Net-(A2A-D)*%
X50165000Y33655000D03*
%TO.P,A2,3,C_3*%
%TO.N,Net-(A2A-C)*%
X50165000Y36195000D03*
%TO.P,A2,4,~{S}_4*%
%TO.N,unconnected-(A2A-~{S}-Pad4)*%
X50165000Y38735000D03*
%TO.P,A2,5,Q_5*%
%TO.N,Net-(A2A-Q)*%
X50165000Y41275000D03*
%TO.P,A2,6,~{Q}_6*%
%TO.N,Net-(A2A-D)*%
X50165000Y43815000D03*
%TO.P,A2,7,GND_7*%
%TO.N,GND*%
X50165000Y46355000D03*
%TO.P,A2,8*%
%TO.N,N/C*%
X42545000Y46355000D03*
%TO.P,A2,9*%
X42545000Y43815000D03*
%TO.P,A2,10*%
X42545000Y41275000D03*
%TO.P,A2,11*%
X42545000Y38735000D03*
%TO.P,A2,12*%
X42545000Y36195000D03*
%TO.P,A2,13*%
X42545000Y33655000D03*
%TO.P,A2,14,VCC_14*%
%TO.N,+5V*%
X42545000Y31115000D03*
%TD*%
D16*
%TO.P,R5,1*%
%TO.N,+5V*%
X24765000Y31750000D03*
%TO.P,R5,2*%
%TO.N,Net-(A1-Pad7)*%
X24765000Y41910000D03*
%TD*%
D17*
%TO.P,J3,A,\u02782_A*%
%TO.N,Net-(J3A-\u02782)*%
X25400000Y19685000D03*
%TO.P,J3,B*%
%TO.N,N/C*%
X29362400Y19685000D03*
%TO.P,J3,C*%
X33324800Y19685000D03*
%TO.P,J3,D*%
X37287200Y19685000D03*
%TO.P,J3,E,D7_E*%
%TO.N,Net-(A3-O4)*%
X41249600Y19685000D03*
%TO.P,J3,F,D5_F*%
%TO.N,Net-(A3-O2)*%
X45212000Y19685000D03*
%TO.P,J3,H,D3_H*%
%TO.N,Net-(A4-O4)*%
X49174400Y19685000D03*
%TO.P,J3,J,D1_J*%
%TO.N,Net-(A4-O2)*%
X53136800Y19685000D03*
%TO.P,J3,K*%
%TO.N,N/C*%
X57099200Y19685000D03*
%TO.P,J3,L*%
X61061600Y19685000D03*
%TO.P,J3,M*%
X65024000Y19685000D03*
%TO.P,J3,N*%
X68986400Y19685000D03*
%TO.P,J3,P*%
X72948800Y19685000D03*
%TO.P,J3,R,A10_R*%
%TO.N,Net-(J3A-A10)*%
X76911200Y19685000D03*
%TO.P,J3,S,A8_S*%
%TO.N,Net-(J3A-A8)*%
X80873600Y19685000D03*
%TO.P,J3,T,A6_T*%
%TO.N,Net-(A3-A6)*%
X84836000Y19685000D03*
%TO.P,J3,U,A4_U*%
%TO.N,Net-(A3-A4)*%
X88798400Y19685000D03*
%TO.P,J3,V,A2_V*%
%TO.N,Net-(A3-A2)*%
X92760800Y19685000D03*
%TO.P,J3,W,A0_W*%
%TO.N,Net-(J3A-A0)*%
X96723200Y19685000D03*
%TO.P,J3,X*%
%TO.N,N/C*%
X100685600Y19685000D03*
%TO.P,J3,Y*%
X104648000Y19685000D03*
%TO.P,J3,Z,-12V_Z*%
%TO.N,-12V*%
X108610400Y19685000D03*
%TD*%
D12*
%TO.P,A3,1,A6_1*%
%TO.N,Net-(A3-A6)*%
X64135000Y31115000D03*
%TO.P,A3,2,A5_2*%
%TO.N,Net-(A3-A5)*%
X64135000Y33655000D03*
%TO.P,A3,3,A4_3*%
%TO.N,Net-(A3-A4)*%
X64135000Y36195000D03*
%TO.P,A3,4,A3_4*%
%TO.N,Net-(A3-A3)*%
X64135000Y38735000D03*
%TO.P,A3,5,A0_5*%
%TO.N,Net-(A3-A0)*%
X64135000Y41275000D03*
%TO.P,A3,6,A1_6*%
%TO.N,Net-(A3-A1)*%
X64135000Y43815000D03*
%TO.P,A3,7,A2_7*%
%TO.N,Net-(A3-A2)*%
X64135000Y46355000D03*
%TO.P,A3,8,GND_8*%
%TO.N,GND*%
X64135000Y48895000D03*
%TO.P,A3,9,O4_9*%
%TO.N,Net-(A3-O4)*%
X56515000Y48895000D03*
%TO.P,A3,10,O3_10*%
%TO.N,Net-(A3-O3)*%
X56515000Y46355000D03*
%TO.P,A3,11,O2_11*%
%TO.N,Net-(A3-O2)*%
X56515000Y43815000D03*
%TO.P,A3,12,O1_12*%
%TO.N,Net-(A3-O1)*%
X56515000Y41275000D03*
%TO.P,A3,13,~{CE1}_13*%
%TO.N,Net-(A3-~{CE1})*%
X56515000Y38735000D03*
%TO.P,A3,14,~{CE2}_14*%
X56515000Y36195000D03*
%TO.P,A3,15,A7_15*%
%TO.N,Net-(A3-A7)*%
X56515000Y33655000D03*
%TO.P,A3,16,VCC_16*%
%TO.N,+5V*%
X56515000Y31115000D03*
%TD*%
%TO.P,A5,1*%
%TO.N,Net-(A5-Pad1)*%
X92075000Y31115000D03*
%TO.P,A5,2*%
%TO.N,Net-(J3A-~{4KCS})*%
X92075000Y33655000D03*
%TO.P,A5,3*%
%TO.N,Net-(J3A-A11)*%
X92075000Y36195000D03*
%TO.P,A5,4*%
%TO.N,Net-(A3-A0)*%
X92075000Y38735000D03*
%TO.P,A5,5*%
%TO.N,Net-(A5-Pad5)*%
X92075000Y41275000D03*
%TO.P,A5,6*%
X92075000Y43815000D03*
%TO.P,A5,7,GND_7*%
%TO.N,GND*%
X92075000Y46355000D03*
%TO.P,A5,8*%
%TO.N,Net-(J3A-A10)*%
X84455000Y46355000D03*
%TO.P,A5,9*%
%TO.N,Net-(J3A-A9)*%
X84455000Y43815000D03*
%TO.P,A5,10*%
%TO.N,Net-(A5-Pad10)*%
X84455000Y41275000D03*
%TO.P,A5,11*%
%TO.N,Net-(A3-~{CE1})*%
X84455000Y38735000D03*
%TO.P,A5,12*%
%TO.N,Net-(J3A-A8)*%
X84455000Y36195000D03*
%TO.P,A5,13*%
%TO.N,Net-(A2A-C)*%
X84455000Y33655000D03*
%TO.P,A5,14,VCC_14*%
%TO.N,+5V*%
X84455000Y31115000D03*
%TD*%
D10*
%TO.P,R4,1*%
%TO.N,Net-(A1-+)*%
X38100000Y47625000D03*
%TO.P,R4,2*%
%TO.N,GND*%
X27940000Y47625000D03*
%TD*%
D15*
%TO.P,D1,1,K_1*%
%TO.N,Net-(D1-K)*%
X22225000Y25400000D03*
%TO.P,D1,2,A_2*%
%TO.N,Net-(D1-A)*%
X24765000Y25400000D03*
%TD*%
D10*
%TO.P,C1,1,~_1*%
%TO.N,Net-(A1--)*%
X37465000Y55245000D03*
%TO.P,C1,2,~_2*%
%TO.N,Net-(C1-~-Pad2)*%
X28575000Y55245000D03*
%TD*%
D15*
%TO.P,R9,1*%
%TO.N,Net-(A2A-Q)*%
X55245000Y55245000D03*
%TO.P,R9,2*%
%TO.N,Net-(J2-~-PadT)*%
X65405000Y55245000D03*
%TD*%
D12*
%TO.P,A6,1*%
%TO.N,Net-(A1-Pad7)*%
X106045000Y31115000D03*
%TO.P,A6,2*%
%TO.N,Net-(A2A-C)*%
X106045000Y33655000D03*
%TO.P,A6,3*%
%TO.N,Net-(A5-Pad1)*%
X106045000Y36195000D03*
%TO.P,A6,4*%
%TO.N,Net-(J3A-\u02782)*%
X106045000Y38735000D03*
%TO.P,A6,5*%
%TO.N,Net-(A5-Pad10)*%
X106045000Y41275000D03*
%TO.P,A6,6*%
%TO.N,Net-(A3-~{CE1})*%
X106045000Y43815000D03*
%TO.P,A6,7,GND_7*%
%TO.N,GND*%
X106045000Y46355000D03*
%TO.P,A6,8*%
%TO.N,Net-(A5-Pad5)*%
X98425000Y46355000D03*
%TO.P,A6,9*%
%TO.N,Net-(J3A-A0)*%
X98425000Y43815000D03*
%TO.P,A6,10*%
%TO.N,Net-(A6-Pad10)*%
X98425000Y41275000D03*
%TO.P,A6,11*%
X98425000Y38735000D03*
%TO.P,A6,12*%
X98425000Y36195000D03*
%TO.P,A6,13*%
%TO.N,Net-(A3-A7)*%
X98425000Y33655000D03*
%TO.P,A6,14,VCC_14*%
%TO.N,+5V*%
X98425000Y31115000D03*
%TD*%
D15*
%TO.P,R10,1*%
%TO.N,Net-(J2-~-PadT)*%
X68580000Y55245000D03*
%TO.P,R10,2*%
%TO.N,GND*%
X78740000Y55245000D03*
%TD*%
%TO.P,R7,1*%
%TO.N,Net-(Q1-B)*%
X12065000Y36195000D03*
%TO.P,R7,2*%
%TO.N,Net-(C1-~-Pad2)*%
X22225000Y36195000D03*
%TD*%
D13*
%TO.P,J1,S,~_S*%
%TO.N,GND*%
X16510000Y43815000D03*
D14*
%TO.P,J1,T,~_T*%
%TO.N,Net-(C1-~-Pad2)*%
X22225000Y40005000D03*
%TD*%
D18*
%TO.N,+5V*%
X107315000Y22860000D03*
%TO.N,GND*%
X99060000Y22225000D03*
%TO.N,Net-(A3-A6)*%
X71755000Y23495000D03*
X86360000Y21971000D03*
%TO.N,Net-(A3-A5)*%
X69215000Y23495000D03*
%TO.N,Net-(A3-A4)*%
X90170000Y21971000D03*
X70485000Y26670000D03*
%TO.N,Net-(A3-A3)*%
X95250000Y24130000D03*
%TO.N,Net-(A3-A1)*%
X95250000Y21971000D03*
%TO.N,Net-(A4-O3)*%
X51435000Y21971000D03*
%TO.N,Net-(A4-O1)*%
X55372000Y21971000D03*
%TO.N,Net-(A3-A7)*%
X66675000Y23495000D03*
%TO.N,Net-(A3-O3)*%
X43815000Y21971000D03*
%TO.N,Net-(A3-O1)*%
X47625000Y21971000D03*
%TO.N,Net-(J3A-~{4KCS})*%
X90170000Y26670000D03*
%TO.N,Net-(J3A-A11)*%
X75565000Y21971000D03*
%TO.N,Net-(J3A-A9)*%
X79375000Y21971000D03*
%TO.N,Net-(J3A-\u02782)*%
X33020000Y48260000D03*
%TD*%
%TO.N,*%
D19*
X45511720Y59451240D02*
X45443140Y59242960D01*
X44000420Y60342780D02*
X44000420Y58900060D01*
X44686220Y58968640D02*
X44549060Y59105800D01*
D20*
X36995100Y22448520D02*
X36995100Y22760940D01*
X25400000Y23230840D02*
X25897840Y21917660D01*
X108386880Y23949660D02*
X107510580Y23949660D01*
X37868860Y23261320D02*
X37868860Y21948140D01*
D19*
X41523920Y60068460D02*
X41386760Y60137040D01*
D20*
X37244020Y22011640D02*
X37119560Y22136100D01*
X37119560Y23073360D02*
X37244020Y23197820D01*
D19*
X44480480Y59999880D02*
X44549060Y60137040D01*
D20*
X36995100Y22760940D02*
X37058600Y22948900D01*
X37119560Y22136100D02*
X37058600Y22260560D01*
X84709000Y22849840D02*
X84709000Y21536660D01*
D19*
X45237400Y58968640D02*
X45100240Y58900060D01*
X45374560Y60137040D02*
X45443140Y59999880D01*
X45443140Y59242960D02*
X45374560Y59105800D01*
X44549060Y60137040D02*
X44686220Y60274200D01*
X41181020Y60342780D02*
X41181020Y58900060D01*
X45443140Y59999880D02*
X45511720Y59794140D01*
D20*
X107510580Y25262840D02*
X108386880Y23949660D01*
X24899620Y21917660D02*
X25400000Y23230840D01*
X37431980Y23261320D02*
X37868860Y23261320D01*
D19*
X44549060Y59105800D02*
X44480480Y59242960D01*
D20*
X85145880Y22849840D02*
X84269580Y22849840D01*
D19*
X45100240Y58900060D02*
X44825920Y58900060D01*
X44825920Y58900060D02*
X44686220Y58968640D01*
X45100240Y60342780D02*
X45237400Y60274200D01*
X43449240Y59519820D02*
X42212260Y59519820D01*
D20*
X25712420Y22354540D02*
X25085040Y22354540D01*
X37244020Y23197820D02*
X37431980Y23261320D01*
X37058600Y22260560D02*
X36995100Y22448520D01*
D19*
X45374560Y59105800D02*
X45237400Y58968640D01*
X41386760Y60137040D02*
X41181020Y60342780D01*
X45237400Y60274200D02*
X45374560Y60137040D01*
D20*
X108386880Y25262840D02*
X107510580Y25262840D01*
D19*
X44825920Y60342780D02*
X45100240Y60342780D01*
X45511720Y59794140D02*
X45511720Y59451240D01*
X44686220Y60274200D02*
X44825920Y60342780D01*
D20*
X37431980Y21948140D02*
X37244020Y22011640D01*
X37058600Y22948900D02*
X37119560Y23073360D01*
X37868860Y21948140D02*
X37431980Y21948140D01*
%TO.N,+5V*%
D21*
X26162000Y51297840D02*
X26162000Y45085000D01*
X26210260Y51541680D02*
X26162000Y51297840D01*
X26162000Y45085000D02*
X27940000Y45085000D01*
X26162000Y45085000D02*
X26162000Y33789620D01*
X27305000Y52705000D02*
X26347420Y51747420D01*
X26210260Y33545780D02*
X26162000Y33789620D01*
X26347420Y51747420D02*
X26210260Y51541680D01*
X26347420Y33340040D02*
X28575000Y31115000D01*
X26347420Y33340040D02*
X26210260Y33545780D01*
X27940000Y52705000D02*
X27305000Y52705000D01*
X28575000Y31115000D02*
X29210000Y31115000D01*
%TO.N,Net-(A1-+)*%
D22*
X38100000Y45085000D02*
X38100000Y47625000D01*
X38100000Y42545000D02*
X38100000Y45085000D01*
%TO.N,Net-(A1--)*%
D21*
X36195000Y41536620D02*
X36195000Y48630840D01*
X36144200Y41292780D02*
X36195000Y41536620D01*
X34778402Y38159439D02*
X34778402Y39437561D01*
X36380420Y49080420D02*
X37465000Y50165000D01*
X36243260Y48874680D02*
X36380420Y49080420D01*
D22*
X38100000Y53975000D02*
X38100000Y52705000D01*
D21*
X36830000Y36195000D02*
X36322000Y36195000D01*
X36195000Y48630840D02*
X36243260Y48874680D01*
X37465000Y50165000D02*
X38100000Y50165000D01*
X36007040Y41087040D02*
X36144200Y41292780D01*
X36322000Y36195000D02*
X35075981Y37441019D01*
D22*
X38100000Y52705000D02*
X38100000Y50165000D01*
X37465000Y55245000D02*
X38100000Y53975000D01*
D21*
X35075982Y40155982D02*
X36007040Y41087040D01*
X35075981Y37441019D02*
G75*
G02*
X34778429Y38159439I718419J718381D01*
G01*
X35075982Y40155982D02*
G75*
G03*
X34778429Y39437561I718418J-718382D01*
G01*
%TO.N,GND*%
D23*
X34925000Y50165000D02*
X34922460Y53075840D01*
X22725380Y58351420D02*
X16510000Y55245000D01*
X34925000Y50165000D02*
X27940000Y50165000D01*
X34922460Y42171620D02*
X34925000Y50165000D01*
X33703260Y33037780D02*
X33840420Y32832040D01*
D22*
X104775000Y46355000D02*
X102870000Y44450000D01*
X27940000Y50165000D02*
X27940000Y47625000D01*
D23*
X33840420Y32832040D02*
X35372040Y31300420D01*
D22*
X102870000Y26035000D02*
X99060000Y22225000D01*
D24*
X78740000Y49530000D02*
X78105000Y48895000D01*
D22*
X102870000Y44450000D02*
X102870000Y26035000D01*
D23*
X22862540Y58402220D02*
X23009860Y58420000D01*
D22*
X106045000Y46355000D02*
X104775000Y46355000D01*
D23*
X33655000Y33281620D02*
X33703260Y33037780D01*
X35821620Y31115000D02*
X36830000Y31115000D01*
X33703260Y40619680D02*
X33652460Y40375840D01*
X33652460Y40375840D02*
X33655000Y33281620D01*
X34737040Y41722040D02*
X34874200Y41927780D01*
X35577780Y31163260D02*
X35372040Y31300420D01*
X34874200Y53319680D02*
X34737040Y53525420D01*
X33840420Y40825420D02*
X33703260Y40619680D01*
X29824680Y58369200D02*
X29580840Y58420000D01*
X35821620Y31115000D02*
X35577780Y31163260D01*
X34922460Y53075840D02*
X34874200Y53319680D01*
X34874200Y41927780D02*
X34922460Y42171620D01*
X34737040Y53525420D02*
X30030420Y58232040D01*
X29580840Y58420000D02*
X23009860Y58420000D01*
X34737040Y41722040D02*
X33840420Y40825420D01*
X30030420Y58232040D02*
X29824680Y58369200D01*
D24*
X78740000Y55245000D02*
X78740000Y49530000D01*
%TO.N,-12V*%
D23*
X109852460Y22105620D02*
X109852460Y47360840D01*
X108966000Y15008860D02*
X108966000Y20690840D01*
X96578420Y60899040D02*
X96372680Y61036200D01*
X40307260Y48493680D02*
X40444420Y48699420D01*
X109804200Y47604680D02*
X109852460Y47360840D01*
X52644040Y60899040D02*
X52849780Y61036200D01*
X40259000Y48249840D02*
X40307260Y48493680D01*
X52644040Y60899040D02*
X40444420Y48699420D01*
X109014260Y20934680D02*
X108966000Y20690840D01*
X40208200Y41546780D02*
X40256460Y41790620D01*
X109667040Y47810420D02*
X109804200Y47604680D01*
X96372680Y61036200D02*
X96128840Y61087000D01*
X37465000Y38735000D02*
X40071040Y41341040D01*
X52849780Y61036200D02*
X53093620Y61087000D01*
X109151420Y21140420D02*
X109014260Y20934680D01*
X96128840Y61087000D02*
X53093620Y61087000D01*
X109804200Y21861780D02*
X109667040Y21656040D01*
X109852460Y22105620D02*
X109804200Y21861780D01*
X40071040Y41341040D02*
X40208200Y41546780D01*
X37465000Y38735000D02*
X36830000Y38735000D01*
X40259000Y48249840D02*
X40256460Y41790620D01*
X109667040Y21656040D02*
X109151420Y21140420D01*
X109667040Y47810420D02*
X96578420Y60899040D01*
%TO.N,Net-(A3-A6)*%
D21*
X71755000Y23495000D02*
X77282040Y29022040D01*
X77467460Y29471620D02*
X77470000Y31115000D01*
X77419200Y29227780D02*
X77282040Y29022040D01*
X77467460Y29471620D02*
X77419200Y29227780D01*
X78105000Y31115000D02*
X77470000Y31115000D01*
X86360000Y21971000D02*
X84709000Y19558000D01*
%TO.N,Net-(A3-A5)*%
X70932040Y25212040D02*
X71137780Y25349200D01*
X71137780Y25349200D02*
X71381620Y25400000D01*
X70932040Y25212040D02*
X69215000Y23495000D01*
X75514200Y29227780D02*
X75565000Y29471620D01*
X75565000Y32120840D02*
X75613260Y32364680D01*
X71940420Y25585420D02*
X75377040Y29022040D01*
X75565000Y29471620D02*
X75565000Y32120840D01*
X77096620Y33655000D02*
X76852780Y33604200D01*
X71734680Y25448260D02*
X71940420Y25585420D01*
X71490840Y25400000D02*
X71734680Y25448260D01*
X71381620Y25400000D02*
X71490840Y25400000D01*
X76852780Y33604200D02*
X76647040Y33467040D01*
X78105000Y33655000D02*
X77096620Y33655000D01*
X76647040Y33467040D02*
X75750420Y32570420D01*
X75613260Y32364680D02*
X75750420Y32570420D01*
X75377040Y29022040D02*
X75514200Y29227780D01*
%TO.N,Net-(A3-A4)*%
X73708260Y32364680D02*
X73845420Y32570420D01*
X73657460Y32120840D02*
X73708260Y32364680D01*
X73472040Y29657040D02*
X73609200Y29862780D01*
X70485000Y26670000D02*
X73472040Y29657040D01*
X77470000Y36195000D02*
X73845420Y32570420D01*
X78105000Y36195000D02*
X77470000Y36195000D01*
X73657460Y32120840D02*
X73657460Y30106620D01*
X90170000Y21971000D02*
X88773000Y19812000D01*
X73609200Y29862780D02*
X73657460Y30106620D01*
%TO.N,Net-(A3-A3)*%
X96373402Y25674243D02*
X96373402Y53698217D01*
X92260420Y58232040D02*
X92054680Y58369200D01*
X95250000Y24130000D02*
X96075823Y24955823D01*
X75115420Y41087040D02*
X77470000Y38735000D01*
X74978260Y55224680D02*
X74930000Y54980840D01*
X77470000Y38735000D02*
X78105000Y38735000D01*
X75115420Y55430420D02*
X74978260Y55224680D01*
X92054680Y58369200D02*
X91810840Y58420000D01*
X96075822Y54416638D02*
X92260420Y58232040D01*
X77917040Y58232040D02*
X75115420Y55430420D01*
X74930000Y41536620D02*
X74978260Y41292780D01*
X91810840Y58420000D02*
X78366620Y58420000D01*
X74978260Y41292780D02*
X75115420Y41087040D01*
X78366620Y58420000D02*
X78122780Y58369200D01*
X74930000Y54980840D02*
X74930000Y41536620D01*
X78122780Y58369200D02*
X77917040Y58232040D01*
X96075823Y24955823D02*
G75*
G03*
X96373371Y25674243I-718423J718377D01*
G01*
X96075822Y54416638D02*
G75*
G02*
X96373413Y53698217I-718422J-718438D01*
G01*
%TO.N,Net-(A3-A1)*%
X94165420Y28760420D02*
X95062040Y29657040D01*
X94028260Y23258780D02*
X93977460Y23502620D01*
X91625420Y56962040D02*
X91419680Y57099200D01*
X77597000Y43815000D02*
X78105000Y43815000D01*
X95250000Y21971000D02*
X94165420Y23053040D01*
X93977460Y23502620D02*
X93977460Y28310840D01*
X76053402Y54042561D02*
X76053402Y45779439D01*
X95062040Y29657040D02*
X95199200Y29862780D01*
X78198644Y56852420D02*
X76350981Y55004757D01*
X91419680Y57099200D02*
X91175840Y57150000D01*
X95062040Y53525420D02*
X91625420Y56962040D01*
X94165420Y23053040D02*
X94028260Y23258780D01*
X94028260Y28554680D02*
X94165420Y28760420D01*
X76350981Y45061019D02*
X77597000Y43815000D01*
X91175840Y57150000D02*
X78917065Y57150000D01*
X95199200Y29862780D02*
X95247460Y30106620D01*
X95199200Y53319680D02*
X95062040Y53525420D01*
X95247460Y30106620D02*
X95247460Y53075840D01*
X76053402Y54286337D02*
X76053402Y54042561D01*
X95247460Y53075840D02*
X95199200Y53319680D01*
X93977460Y28310840D02*
X94028260Y28554680D01*
X78917065Y57150000D02*
G75*
G03*
X78198662Y56852402I35J-1016000D01*
G01*
X76350981Y55004757D02*
G75*
G03*
X76053375Y54286337I718419J-718457D01*
G01*
X76053402Y45779439D02*
G75*
G03*
X76350962Y45061000I1015998J-39D01*
G01*
%TO.N,Net-(A3-A2)*%
X79110840Y46355000D02*
X79354680Y46403260D01*
X79560420Y46540420D02*
X82362040Y49342040D01*
X82567780Y49479200D02*
X82811620Y49530000D01*
X82362040Y49342040D02*
X82567780Y49479200D01*
X92056506Y49232420D02*
X93829019Y47459907D01*
X92707460Y28310840D02*
X92710000Y15240000D01*
X78105000Y46355000D02*
X79110840Y46355000D01*
X92758260Y28554680D02*
X92707460Y28310840D01*
X82811620Y49530000D02*
X91338085Y49530000D01*
X92895420Y28760420D02*
X92758260Y28554680D01*
X93829018Y29694018D02*
X92895420Y28760420D01*
X79354680Y46403260D02*
X79560420Y46540420D01*
X94126598Y46741487D02*
X94126598Y30412439D01*
X94126598Y46741487D02*
G75*
G03*
X93829025Y47459913I-1015998J13D01*
G01*
X94126598Y30412439D02*
G75*
G02*
X93829037Y29693999I-1015998J-39D01*
G01*
X91338085Y49530000D02*
G75*
G02*
X92056513Y49232427I15J-1016000D01*
G01*
%TO.N,Net-(A4-O4)*%
X50563780Y25603200D02*
X50358040Y25466040D01*
X50807620Y25654000D02*
X50563780Y25603200D01*
X50358040Y25466040D02*
X49334420Y24442420D01*
X49334420Y24442420D02*
X49197260Y24236680D01*
X66186598Y45126975D02*
X66186598Y30728657D01*
X61111941Y25654000D02*
X50807620Y25654000D01*
X69533782Y48895000D02*
X66484177Y45845395D01*
X61830361Y25951579D02*
X65889018Y30010236D01*
X49149000Y23992840D02*
X49149000Y15113000D01*
X49197260Y24236680D02*
X49149000Y23992840D01*
X70485000Y48895000D02*
X69533782Y48895000D01*
X66186598Y45126975D02*
G75*
G02*
X66484164Y45845408I1016002J25D01*
G01*
X66186598Y30728657D02*
G75*
G02*
X65888996Y30010258I-1015998J43D01*
G01*
X61111941Y25654000D02*
G75*
G03*
X61830340Y25951600I-41J1016000D01*
G01*
%TO.N,Net-(A4-O3)*%
X53220620Y24765000D02*
X61584840Y24765000D01*
X70485000Y46355000D02*
X69977000Y46355000D01*
X66894598Y42851757D02*
X66894598Y30231439D01*
X52976780Y24714200D02*
X53220620Y24765000D01*
X51483260Y23220680D02*
X51620420Y23426420D01*
X62034420Y24950420D02*
X66597019Y29513019D01*
X61584840Y24765000D02*
X61828680Y24813260D01*
X51435000Y22976840D02*
X51483260Y23220680D01*
X52771040Y24577040D02*
X52976780Y24714200D01*
X61828680Y24813260D02*
X62034420Y24950420D01*
X51435000Y21971000D02*
X51435000Y22976840D01*
X51620420Y23426420D02*
X52771040Y24577040D01*
X69977000Y46355000D02*
X67192177Y43570177D01*
X66597019Y29513019D02*
G75*
G03*
X66894571Y30231439I-718419J718381D01*
G01*
X67192177Y43570177D02*
G75*
G03*
X66894629Y42851757I718423J-718377D01*
G01*
%TO.N,Net-(A4-O2)*%
X55008780Y23825200D02*
X54803040Y23688040D01*
X67602598Y40830539D02*
X67602598Y29415439D01*
X53134260Y21950680D02*
X53086000Y21706840D01*
X54803040Y23688040D02*
X53271420Y22156420D01*
X53086000Y21706840D02*
X53086000Y15113000D01*
X53271420Y22156420D02*
X53134260Y21950680D01*
X67305018Y28697018D02*
X62669420Y24061420D01*
X70485000Y43815000D02*
X70166218Y43815000D01*
X70166218Y43815000D02*
X67900177Y41548959D01*
X62463680Y23924260D02*
X62219840Y23876000D01*
X62669420Y24061420D02*
X62463680Y23924260D01*
X62219840Y23876000D02*
X55252620Y23876000D01*
X55252620Y23876000D02*
X55008780Y23825200D01*
X67305018Y28697018D02*
G75*
G03*
X67602571Y29415439I-718418J718382D01*
G01*
X67602598Y40830539D02*
G75*
G02*
X67900196Y41548940I1016002J-39D01*
G01*
%TO.N,Net-(A4-O1)*%
X63304420Y23172420D02*
X68013019Y27881019D01*
X63098680Y23035260D02*
X63304420Y23172420D01*
X62854840Y22987000D02*
X63098680Y23035260D01*
X56405780Y22936200D02*
X56649620Y22987000D01*
D20*
X60579000Y21498560D02*
X61341000Y21498560D01*
D21*
X68310598Y39187757D02*
X68310598Y28599439D01*
X56200040Y22799040D02*
X55372000Y21971000D01*
X69977000Y41275000D02*
X68608177Y39906177D01*
X56649620Y22987000D02*
X62854840Y22987000D01*
X56200040Y22799040D02*
X56405780Y22936200D01*
D20*
X61341000Y21498560D02*
X61341000Y22860000D01*
D21*
X70485000Y41275000D02*
X69977000Y41275000D01*
X68013019Y27881019D02*
G75*
G03*
X68310571Y28599439I-718419J718381D01*
G01*
X68608177Y39906177D02*
G75*
G03*
X68310629Y39187757I718423J-718377D01*
G01*
%TO.N,Net-(A3-~{CE1})*%
D22*
X56515000Y36195000D02*
X56515000Y38735000D01*
X70485000Y36195000D02*
X70485000Y38735000D01*
%TO.N,Net-(A3-A7)*%
D21*
X71607680Y29131260D02*
X71363840Y29083000D01*
X66675000Y24881840D02*
X66675000Y23495000D01*
X70993000Y33655000D02*
X72239019Y32408981D01*
X70629780Y29032200D02*
X70424040Y28895040D01*
X72536598Y31690561D02*
X72536598Y30412439D01*
X66860420Y25331420D02*
X66723260Y25125680D01*
X70424040Y28895040D02*
X66860420Y25331420D01*
X66723260Y25125680D02*
X66675000Y24881840D01*
X70485000Y33655000D02*
X70993000Y33655000D01*
X71813420Y29268420D02*
X71607680Y29131260D01*
X72239018Y29694018D02*
X71813420Y29268420D01*
X71363840Y29083000D02*
X70873620Y29083000D01*
X70873620Y29083000D02*
X70629780Y29032200D01*
X72239019Y32408981D02*
G75*
G02*
X72536571Y31690561I-718419J-718381D01*
G01*
X72536598Y30412439D02*
G75*
G02*
X72239037Y29693999I-1015998J-39D01*
G01*
%TO.N,Net-(A2A-C)*%
X96070420Y59502040D02*
X95864680Y59639200D01*
X108582460Y35821620D02*
X108582460Y46725840D01*
X108534200Y35577780D02*
X108582460Y35821620D01*
X57548780Y59639200D02*
X57792620Y59690000D01*
X46990000Y48884840D02*
X46990000Y38996620D01*
X106680000Y33655000D02*
X106045000Y33655000D01*
X47038260Y49128680D02*
X47175420Y49334420D01*
X47038260Y38752780D02*
X47175420Y38547040D01*
X57343040Y59502040D02*
X47175420Y49334420D01*
X108397040Y35372040D02*
X108534200Y35577780D01*
X108582460Y46725840D02*
X108534200Y46969680D01*
X50165000Y36195000D02*
X49530000Y36195000D01*
X108534200Y46969680D02*
X108397040Y47175420D01*
X106680000Y33655000D02*
X108397040Y35372040D01*
X95864680Y59639200D02*
X95620840Y59690000D01*
X46990000Y48884840D02*
X47038260Y49128680D01*
X46990000Y38996620D02*
X47038260Y38752780D01*
X108397040Y47175420D02*
X96070420Y59502040D01*
X47175420Y38547040D02*
X49530000Y36195000D01*
X95620840Y59690000D02*
X57792620Y59690000D01*
X57343040Y59502040D02*
X57548780Y59639200D01*
%TO.N,Net-(A2A-Q)*%
X48410982Y48410982D02*
X55245000Y55245000D01*
X50165000Y41275000D02*
X49657000Y41275000D01*
X49657000Y41275000D02*
X48410981Y42521019D01*
X48113402Y43239439D02*
X48113402Y47692561D01*
X48113402Y47692561D02*
G75*
G02*
X48410963Y48411001I1015998J39D01*
G01*
X48410981Y42521019D02*
G75*
G02*
X48113429Y43239439I718419J718381D01*
G01*
%TO.N,Net-(A3-O4)*%
X52216598Y44683757D02*
X52216598Y30728657D01*
X51499782Y29591000D02*
X47632620Y29591000D01*
X41460420Y23680420D02*
X41323260Y23474680D01*
X41323260Y23474680D02*
X41275000Y23230840D01*
X56515000Y48895000D02*
X56007000Y48895000D01*
X56007000Y48895000D02*
X52514177Y45402177D01*
X41275000Y23230840D02*
X41275000Y15240000D01*
X47183040Y29403040D02*
X41460420Y23680420D01*
X47632620Y29591000D02*
X47388780Y29540200D01*
X47388780Y29540200D02*
X47183040Y29403040D01*
X51919018Y30010236D02*
X51499782Y29591000D01*
X52216598Y30728657D02*
G75*
G02*
X51918996Y30010258I-1015998J43D01*
G01*
X52216598Y44683757D02*
G75*
G02*
X52514155Y45402199I1016002J43D01*
G01*
%TO.N,Net-(A3-O3)*%
X56007000Y46355000D02*
X53222177Y43570177D01*
X52627018Y29716973D02*
X51782624Y28872579D01*
X56515000Y46355000D02*
X56007000Y46355000D01*
X47691040Y28387040D02*
X44000420Y24696420D01*
X51064204Y28575000D02*
X48140620Y28575000D01*
X48140620Y28575000D02*
X47896780Y28524200D01*
X47896780Y28524200D02*
X47691040Y28387040D01*
X43863260Y24490680D02*
X43815000Y24246840D01*
X43815000Y24246840D02*
X43815000Y21971000D01*
X44000420Y24696420D02*
X43863260Y24490680D01*
X52924598Y42851757D02*
X52924598Y30435394D01*
X52924598Y30435394D02*
G75*
G02*
X52627015Y29716976I-1015998J6D01*
G01*
X51064204Y28575000D02*
G75*
G03*
X51782622Y28872581I-4J1016000D01*
G01*
X53222177Y43570177D02*
G75*
G03*
X52924629Y42851757I718423J-718377D01*
G01*
%TO.N,Net-(A3-O2)*%
X45212000Y24119840D02*
X45212000Y15240000D01*
X48404780Y27508200D02*
X48199040Y27371040D01*
X48648620Y27559000D02*
X48404780Y27508200D01*
X53634598Y39714644D02*
X53632598Y39712644D01*
X53335018Y29423709D02*
X51767888Y27856579D01*
X45260260Y24363680D02*
X45212000Y24119840D01*
X45397420Y24569420D02*
X45260260Y24363680D01*
X53632598Y39712644D02*
X53632598Y30142130D01*
X56515000Y43815000D02*
X56007000Y43815000D01*
X51049468Y27559000D02*
X48648620Y27559000D01*
X48199040Y27371040D02*
X45397420Y24569420D01*
X56007000Y43815000D02*
X53932177Y41740177D01*
X53634598Y41021757D02*
X53634598Y39714644D01*
X53932177Y41740177D02*
G75*
G03*
X53634629Y41021757I718423J-718377D01*
G01*
X51767888Y27856579D02*
G75*
G02*
X51049468Y27559023I-718388J718421D01*
G01*
X53335018Y29423709D02*
G75*
G03*
X53632577Y30142130I-718418J718391D01*
G01*
%TO.N,Net-(A3-O1)*%
X47625000Y25008840D02*
X47625000Y21971000D01*
X52059840Y26543000D02*
X52303680Y26591260D01*
X54463402Y39121343D02*
X54463402Y29103243D01*
X47673260Y25252680D02*
X47625000Y25008840D01*
X52509420Y26728420D02*
X54165823Y28384823D01*
X52303680Y26591260D02*
X52509420Y26728420D01*
X56515000Y41275000D02*
X56196218Y41275000D01*
X47810420Y25458420D02*
X47673260Y25252680D01*
X48912780Y26492200D02*
X49156620Y26543000D01*
X48707040Y26355040D02*
X47810420Y25458420D01*
X49156620Y26543000D02*
X52059840Y26543000D01*
X48707040Y26355040D02*
X48912780Y26492200D01*
X56196218Y41275000D02*
X54760981Y39839763D01*
X54463402Y39121343D02*
G75*
G02*
X54761003Y39839741I1015998J-43D01*
G01*
X54463402Y29103243D02*
G75*
G02*
X54165845Y28384801I-1016002J-43D01*
G01*
%TO.N,Net-(J3A-~{4KCS})*%
X91567000Y33655000D02*
X90320981Y32408981D01*
X92075000Y33655000D02*
X91567000Y33655000D01*
X90023402Y26816598D02*
X90170000Y26670000D01*
X90023402Y31690561D02*
X90023402Y26816598D01*
X90023402Y31690561D02*
G75*
G02*
X90320962Y32409000I1015998J39D01*
G01*
%TO.N,Net-(J3A-A11)*%
X88265000Y39631620D02*
X88262460Y46090840D01*
X80156598Y44494539D02*
X80156598Y30728657D01*
X88450420Y39182040D02*
X88313260Y39387780D01*
X88262460Y46090840D02*
X88214200Y46334680D01*
X83203638Y47962420D02*
X80454177Y45212959D01*
X91440000Y36195000D02*
X88450420Y39182040D01*
X88077040Y46540420D02*
X86545420Y48072040D01*
X86545420Y48072040D02*
X86339680Y48209200D01*
X79859018Y30010236D02*
X75565000Y25716218D01*
X86095840Y48260000D02*
X83922059Y48260000D01*
X92075000Y36195000D02*
X91440000Y36195000D01*
X75565000Y25716218D02*
X75565000Y21971000D01*
X88214200Y46334680D02*
X88077040Y46540420D01*
X88313260Y39387780D02*
X88265000Y39631620D01*
X86339680Y48209200D02*
X86095840Y48260000D01*
X80156598Y44494539D02*
G75*
G02*
X80454196Y45212940I1016002J-39D01*
G01*
X80156598Y30728657D02*
G75*
G02*
X79858996Y30010258I-1015998J43D01*
G01*
X83922059Y48260000D02*
G75*
G03*
X83203659Y47962399I41J-1016000D01*
G01*
%TO.N,Net-(A5-Pad5)*%
D22*
X92075000Y41275000D02*
X92075000Y43815000D01*
%TO.N,Net-(J3A-A10)*%
D21*
X81229200Y30243780D02*
X81280000Y30487620D01*
X77020420Y25966420D02*
X76883260Y25760680D01*
X77020420Y25966420D02*
X81092040Y30038040D01*
X81280000Y43550840D02*
X81280000Y30487620D01*
X81092040Y30038040D02*
X81229200Y30243780D01*
X76883260Y25760680D02*
X76835000Y25516840D01*
X83820000Y46355000D02*
X81465420Y44000420D01*
X84455000Y46355000D02*
X83820000Y46355000D01*
X76835000Y25516840D02*
X76835000Y15240000D01*
X81328260Y43794680D02*
X81280000Y43550840D01*
X81465420Y44000420D02*
X81328260Y43794680D01*
%TO.N,Net-(J3A-A9)*%
X84455000Y43815000D02*
X84136218Y43815000D01*
X84136218Y43815000D02*
X82659619Y42338401D01*
X82362040Y41619981D02*
X82362040Y30077881D01*
X79375000Y26405840D02*
X79375000Y21971000D01*
X79375000Y26405840D02*
X79423260Y26649680D01*
X79423260Y26649680D02*
X79560420Y26855420D01*
X79560420Y26855420D02*
X82064461Y29359461D01*
X82362040Y41619981D02*
G75*
G02*
X82659618Y42338402I1015960J19D01*
G01*
X82362040Y30077881D02*
G75*
G02*
X82064460Y29359462I-1016040J19D01*
G01*
%TO.N,Net-(J3A-A8)*%
X80820260Y23601680D02*
X80772000Y23357840D01*
X86209018Y29059018D02*
X80957420Y23807420D01*
X86506598Y34230561D02*
X86506598Y29777439D01*
X80957420Y23807420D02*
X80820260Y23601680D01*
X84455000Y36195000D02*
X84963000Y36195000D01*
X80772000Y23357840D02*
X80772000Y15113000D01*
X84963000Y36195000D02*
X86209019Y34948981D01*
X86209019Y34948981D02*
G75*
G02*
X86506571Y34230561I-718419J-718381D01*
G01*
X86209018Y29059018D02*
G75*
G03*
X86506571Y29777439I-718418J718382D01*
G01*
%TO.N,Net-(J3A-\u02782)*%
X32359600Y26776680D02*
X32288480Y26614120D01*
X32385000Y26949400D02*
X32359600Y26776680D01*
X32288480Y26614120D02*
X32176720Y26479500D01*
X25400000Y19685000D02*
X32176720Y26479500D01*
X32570420Y47810420D02*
X32433260Y47604680D01*
X32433260Y47604680D02*
X32385000Y47360840D01*
X32385000Y47360840D02*
X32385000Y26949400D01*
X33020000Y48260000D02*
X32570420Y47810420D01*
%TO.N,Net-(J3A-A0)*%
X100914200Y27957780D02*
X100777040Y27752040D01*
X100962460Y41645840D02*
X100914200Y41889680D01*
X96647000Y23357840D02*
X96647000Y15113000D01*
X96832420Y23807420D02*
X100777040Y27752040D01*
X100965000Y28201620D02*
X100914200Y27957780D01*
X100777040Y42095420D02*
X99060000Y43815000D01*
X96695260Y23601680D02*
X96832420Y23807420D01*
X100914200Y41889680D02*
X100777040Y42095420D01*
X96647000Y23357840D02*
X96695260Y23601680D01*
X100965000Y28201620D02*
X100962460Y41645840D01*
X98425000Y43815000D02*
X99060000Y43815000D01*
%TO.N,Net-(A6-Pad10)*%
D22*
X98425000Y38735000D02*
X98425000Y41275000D01*
X98425000Y36195000D02*
X98425000Y38735000D01*
%TO.N,Net-(C1-~-Pad2)*%
D21*
X27940000Y55245000D02*
X23045420Y50350420D01*
X22809200Y40657780D02*
X22857460Y40901620D01*
X22908260Y50144680D02*
X23045420Y50350420D01*
X22672040Y40452040D02*
X22809200Y40657780D01*
X22225000Y40005000D02*
X22672040Y40452040D01*
X22860000Y49900840D02*
X22908260Y50144680D01*
X22860000Y49900840D02*
X22857460Y40901620D01*
X27940000Y55245000D02*
X28575000Y55245000D01*
%TD*%
M02*
