%TF.GenerationSoftware,KiCad,Pcbnew,10.0.2*%
%TF.CreationDate,2026-08-06T12:52:24-04:00*%
%TF.ProjectId,aci,6163692e-6b69-4636-9164-5f7063625858,rev?*%
%TF.SameCoordinates,Original*%
%TF.FileFunction,Plated,1,2,PTH,Drill*%
%TF.FilePolarity,Positive*%
%FSLAX46Y46*%
G04 Gerber Fmt 4.6, Leading zero omitted, Abs format (unit mm)*
G04 Created by KiCad (PCBNEW 10.0.2) date 2026-08-06 12:52:24*
%MOMM*%
%LPD*%
G01*
G04 APERTURE LIST*
%TA.AperFunction,ViaDrill*%
%ADD10C,0.609600*%
%TD*%
%TA.AperFunction,ComponentDrill*%
%ADD11C,0.889000*%
%TD*%
%TA.AperFunction,ComponentDrill*%
%ADD12C,6.502400*%
%TD*%
G04 APERTURE END LIST*
D10*
X33020000Y48260000D03*
X43815000Y21971000D03*
X47625000Y21971000D03*
X51435000Y21971000D03*
X55372000Y21971000D03*
X66675000Y23495000D03*
X69215000Y23495000D03*
X70485000Y26670000D03*
X71755000Y23495000D03*
X75565000Y21971000D03*
X79375000Y21971000D03*
X86360000Y21971000D03*
X90170000Y26670000D03*
X90170000Y21971000D03*
X95250000Y24130000D03*
X95250000Y21971000D03*
X99060000Y22225000D03*
X107315000Y22860000D03*
D11*
%TO.C,R7*%
X12065000Y36195000D03*
%TO.C,Q1*%
X16510000Y31115000D03*
%TO.C,Q2*%
X16510000Y25400000D03*
%TO.C,Q1*%
X17780000Y32964120D03*
%TO.C,Q2*%
X17780000Y27249120D03*
%TO.C,Q1*%
X19050000Y31115000D03*
%TO.C,Q2*%
X19050000Y25400000D03*
%TO.C,J2*%
X22225000Y52705000D03*
%TO.C,J1*%
X22225000Y40005000D03*
%TO.C,R7*%
X22225000Y36195000D03*
%TO.C,D1*%
X22225000Y25400000D03*
%TO.C,R5*%
X24765000Y41910000D03*
X24765000Y31750000D03*
%TO.C,D1*%
X24765000Y25400000D03*
%TO.C,R1*%
X27940000Y52705000D03*
%TO.C,R2*%
X27940000Y50165000D03*
%TO.C,R4*%
X27940000Y47625000D03*
%TO.C,R3*%
X27940000Y45085000D03*
%TO.C,R6*%
X27940000Y42545000D03*
%TO.C,R8*%
X27940000Y25400000D03*
%TO.C,C1*%
X28575000Y55245000D03*
%TO.C,A1*%
X29210000Y38735000D03*
X29210000Y36195000D03*
X29210000Y33655000D03*
X29210000Y31115000D03*
X36830000Y38735000D03*
X36830000Y36195000D03*
X36830000Y33655000D03*
X36830000Y31115000D03*
%TO.C,C1*%
X37465000Y55245000D03*
%TO.C,R1*%
X38100000Y52705000D03*
%TO.C,R2*%
X38100000Y50165000D03*
%TO.C,R4*%
X38100000Y47625000D03*
%TO.C,R3*%
X38100000Y45085000D03*
%TO.C,R6*%
X38100000Y42545000D03*
%TO.C,R8*%
X38100000Y25400000D03*
%TO.C,A2*%
X42545000Y46355000D03*
X42545000Y43815000D03*
X42545000Y41275000D03*
X42545000Y38735000D03*
X42545000Y36195000D03*
X42545000Y33655000D03*
X42545000Y31115000D03*
X50165000Y46355000D03*
X50165000Y43815000D03*
X50165000Y41275000D03*
X50165000Y38735000D03*
X50165000Y36195000D03*
X50165000Y33655000D03*
X50165000Y31115000D03*
%TO.C,R9*%
X55245000Y55245000D03*
%TO.C,A3*%
X56515000Y48895000D03*
X56515000Y46355000D03*
X56515000Y43815000D03*
X56515000Y41275000D03*
X56515000Y38735000D03*
X56515000Y36195000D03*
X56515000Y33655000D03*
X56515000Y31115000D03*
X64135000Y48895000D03*
X64135000Y46355000D03*
X64135000Y43815000D03*
X64135000Y41275000D03*
X64135000Y38735000D03*
X64135000Y36195000D03*
X64135000Y33655000D03*
X64135000Y31115000D03*
%TO.C,R9*%
X65405000Y55245000D03*
%TO.C,R10*%
X68580000Y55245000D03*
%TO.C,A4*%
X70485000Y48895000D03*
X70485000Y46355000D03*
X70485000Y43815000D03*
X70485000Y41275000D03*
X70485000Y38735000D03*
X70485000Y36195000D03*
X70485000Y33655000D03*
X70485000Y31115000D03*
X78105000Y48895000D03*
X78105000Y46355000D03*
X78105000Y43815000D03*
X78105000Y41275000D03*
X78105000Y38735000D03*
X78105000Y36195000D03*
X78105000Y33655000D03*
X78105000Y31115000D03*
%TO.C,R10*%
X78740000Y55245000D03*
%TO.C,A5*%
X84455000Y46355000D03*
X84455000Y43815000D03*
X84455000Y41275000D03*
X84455000Y38735000D03*
X84455000Y36195000D03*
X84455000Y33655000D03*
X84455000Y31115000D03*
X92075000Y46355000D03*
X92075000Y43815000D03*
X92075000Y41275000D03*
X92075000Y38735000D03*
X92075000Y36195000D03*
X92075000Y33655000D03*
X92075000Y31115000D03*
%TO.C,A6*%
X98425000Y46355000D03*
X98425000Y43815000D03*
X98425000Y41275000D03*
X98425000Y38735000D03*
X98425000Y36195000D03*
X98425000Y33655000D03*
X98425000Y31115000D03*
X106045000Y46355000D03*
X106045000Y43815000D03*
X106045000Y41275000D03*
X106045000Y38735000D03*
X106045000Y36195000D03*
X106045000Y33655000D03*
X106045000Y31115000D03*
D12*
%TO.C,J2*%
X16510000Y55245000D03*
%TO.C,J1*%
X16510000Y43815000D03*
M02*
