M48
FMAT,2
INCH,LZ
T1C0.0260
T2C0.0320
T3C0.0360
T4C0.0420
T5C0.0620
T6C0.0750
T7C0.0930
T8C0.1000
%
T1
X01425Y04431
X0055Y04431
X01425Y04581
X01425Y04731
X01425Y04881
X0055Y04581
X0055Y04731
X0055Y04881
X00675Y04431
X00675Y04581
X00675Y04731
X00675Y04881
X008Y04431
X008Y04581
X008Y04731
X008Y04881
X00925Y04431
X00925Y04581
X00925Y04731
X00925Y04881
X013Y04431
X013Y04581
X013Y04731
X013Y04881
X0105Y04431
X0105Y04581
X0105Y04731
X0105Y04881
X01175Y04431
X01175Y04581
X01175Y04731
X01175Y04881
X0155Y04431
X0155Y04581
X0155Y04731
X0155Y04881
X00425Y04431
X00425Y04581
X00425Y04731
X00425Y04881
X028Y04506
X028Y04656
X028Y04806
X028Y04956
X018Y04506
X018Y04656
X018Y04806
X018Y04956
X01925Y04506
X01925Y04656
X01925Y04806
X01925Y04956
X0205Y04506
X0205Y04656
X0205Y04806
X0205Y04956
X02175Y04506
X02175Y04656
X02175Y04806
X02175Y04956
X023Y04506
X023Y04656
X023Y04806
X023Y04956
X02425Y04506
X02425Y04656
X02425Y04806
X02425Y04956
X0255Y04506
X0255Y04656
X0255Y04806
X0255Y04956
X02675Y04506
X02675Y04656
X02675Y04806
X02675Y04956
T2
X0717Y04476
X0717Y04676
X0598Y05076
X0598Y05351
X0792Y04926
X0792Y04426
X0621Y04356
X0571Y04356
X062Y04531
X057Y04531
X0703Y04936
X0703Y04436
X0691Y04936
X0691Y04436
X0804Y04926
X0804Y04426
X104Y04931
X104Y04431
X0815Y04456
X0815Y04676
X03525Y04431
X03625Y04431
X03725Y04431
X03825Y04431
X03925Y04431
X04025Y04431
X04125Y04431
X04225Y04431
X04325Y04431
X04425Y04431
X04525Y04431
X04625Y04431
X04725Y04431
X04825Y04431
X04925Y04431
X05225Y05031
X05125Y05031
X05025Y05031
X04925Y05031
X04825Y05031
X04725Y05031
X04625Y05031
X04525Y05031
X04425Y05031
X05225Y04431
X05325Y04431
X05425Y04431
X05425Y05031
X05325Y05031
X05125Y04431
X05025Y04431
X04325Y05031
X04225Y05031
X04125Y05031
X04025Y05031
X03925Y05031
X03825Y05031
X03725Y05031
X03625Y05031
X03525Y05031
X07425Y04431
X07525Y04431
X07625Y04431
X07725Y04431
X07725Y04731
X07625Y04731
X07525Y04731
X07425Y04731
X06425Y04431
X06525Y04431
X06625Y04431
X06725Y04431
X06725Y04731
X06625Y04731
X06525Y04731
X06425Y04731
X10575Y04431
X10675Y04431
X10775Y04431
X10875Y04431
X10975Y04431
X11075Y04431
X11175Y04431
X11175Y04731
X11075Y04731
X10975Y04731
X10875Y04731
X10775Y04731
X10675Y04731
X10575Y04731
X0942Y04436
X0952Y04436
X0962Y04436
X0972Y04436
X0982Y04436
X0992Y04436
X1002Y04436
X1002Y04736
X0992Y04736
X0982Y04736
X0972Y04736
X0962Y04736
X0952Y04736
X0942Y04736
T3
X0055Y04981
X00675Y05056
X008Y05131
X00925Y05206
X013Y05331
X0105Y05281
X01175Y05331
X0893Y04526
X0883Y04576
X08705Y04651
X08795Y04686
X0058Y03776
X0204Y02796
X017Y03431
X044Y03231
X0515Y03231
X03575Y05381
X037Y05306
X0364Y05246
X015Y04031
X018Y04016
X0207Y02956
X0556Y02456
X0855Y02526
X0354Y05216
X0166Y05196
X0088Y03476
X022Y03231
X0225Y02231
X0495Y02331
X00775Y03381
X025Y02531
X0258Y01476
X0159Y05096
X007Y02281
X0147Y02466
X0185Y01066
X0575Y00946
X00675Y03531
X00675Y02156
X0724Y02526
X039Y03956
X0325Y05106
X0317Y05136
X0409Y00636
X0313Y03296
X0778Y03266
X0181Y00606
X00225Y04631
X1073Y01266
X1084Y01176
X00225Y04706
X00275Y04556
X00325Y04431
X1164Y04846
X1158Y04766
X1154Y04696
X1149Y04626
X1143Y04516
X11375Y04456
X1129Y04376
X0275Y03976
X03075Y05156
X023Y05206
X02175Y05181
X0625Y03216
X02775Y03056
X0245Y03656
X03925Y03581
X0205Y05131
X01925Y05081
X018Y05031
X024Y03526
X029Y03296
X0193Y03996
X0133Y02876
X0612Y04756
X0598Y04446
X0572Y05206
X0572Y05281
X0572Y05381
X0455Y05156
X04225Y04931
X0454Y04876
X0442Y04836
X0428Y04776
X0441Y04706
X0461Y04606
X0473Y04526
X071Y01581
X0521Y01796
X0878Y02546
X0345Y05156
X095Y05081
X0864Y05386
X0853Y05376
X0847Y05316
X0846Y05096
X0906Y04926
X0893Y04926
X0879Y04936
X0926Y04456
X0925Y04546
X0926Y04376
X10175Y04481
X10175Y04381
X097Y05006
X09575Y04956
X0616Y03951
X0541Y03936
X1121Y04306
T4
X01525Y03631
X014Y03631
X02275Y03631
X0215Y03631
X03025Y03631
X029Y03631
X04525Y03631
X044Y03631
X06775Y03631
X0665Y03631
X07525Y03631
X074Y03631
X08275Y03631
X0815Y03631
X09025Y03631
X089Y03631
X09775Y03631
X0965Y03631
X10525Y03631
X104Y03631
X0115Y02881
X01025Y02881
X021Y02131
X01975Y02131
X0285Y02131
X02725Y02131
X036Y02131
X03475Y02131
X0435Y02131
X04225Y02131
X051Y02131
X04975Y02131
X0735Y02131
X07225Y02131
X0865Y02881
X08525Y02881
X094Y02881
X09275Y02881
X019Y02881
X01775Y02881
X0415Y02881
X04025Y02881
X034Y02881
X03275Y02881
X0265Y02881
X02525Y02881
X049Y02881
X04775Y02881
X0715Y02881
X07025Y02881
X079Y02881
X07775Y02881
X0135Y02131
X01225Y02131
X081Y02131
X07975Y02131
X0885Y02131
X08725Y02131
X096Y02131
X09475Y02131
X1035Y02131
X10225Y02131
X02475Y01381
X0235Y01381
X03225Y01381
X031Y01381
X03975Y01381
X0385Y01381
X04725Y01381
X046Y01381
X05475Y01381
X0535Y01381
X06225Y01381
X061Y01381
X06975Y01381
X0685Y01381
X07725Y01381
X076Y01381
X08475Y01381
X0835Y01381
X09225Y01381
X091Y01381
X111Y02131
X10975Y02131
X01725Y01381
X016Y01381
X09975Y01381
X0985Y01381
X1015Y02881
X10025Y02881
X109Y02881
X10775Y02881
X0585Y00631
X05725Y00631
X06025Y03631
X059Y03631
X05275Y03631
X0515Y03631
X03775Y03631
X0365Y03631
X0585Y02131
X05725Y02131
X066Y02131
X06475Y02131
X0565Y02881
X05525Y02881
X064Y02881
X06275Y02881
X02475Y00631
X0235Y00631
X09225Y00631
X091Y00631
T5
X01025Y03881
X01525Y03381
X01775Y03881
X02275Y03381
X02525Y03881
X03025Y03381
X04025Y03881
X04525Y03381
X06275Y03881
X06775Y03381
X07025Y03881
X07525Y03381
X07775Y03881
X08275Y03381
X08525Y03881
X09025Y03381
X09275Y03881
X09775Y03381
X10025Y03881
X10525Y03381
X0065Y03131
X0115Y02631
X016Y02381
X021Y01881
X0235Y02381
X0285Y01881
X031Y02381
X036Y01881
X0385Y02381
X0435Y01881
X046Y02381
X051Y01881
X0685Y02381
X0735Y01881
X0815Y03131
X0865Y02631
X089Y03131
X094Y02631
X014Y03131
X019Y02631
X0365Y03131
X0415Y02631
X029Y03131
X034Y02631
X0215Y03131
X0265Y02631
X044Y03131
X049Y02631
X0665Y03131
X0715Y02631
X074Y03131
X079Y02631
X0085Y02381
X0135Y01881
X076Y02381
X081Y01881
X0835Y02381
X0885Y01881
X091Y02381
X096Y01881
X0985Y02381
X1035Y01881
X01975Y01631
X02475Y01131
X02725Y01631
X03225Y01131
X03475Y01631
X03975Y01131
X04225Y01631
X04725Y01131
X04975Y01631
X05475Y01131
X05725Y01631
X06225Y01131
X06475Y01631
X06975Y01131
X07225Y01631
X07725Y01131
X07975Y01631
X08475Y01131
X08725Y01631
X09225Y01131
X106Y02381
X111Y01881
X01225Y01631
X01725Y01131
X09475Y01631
X09975Y01131
X0965Y03131
X1015Y02631
X104Y03131
X109Y02631
X0535Y00881
X0585Y00381
X05525Y03881
X06025Y03381
X04775Y03881
X05275Y03381
X03275Y03881
X03775Y03381
X0535Y02381
X0585Y01881
X061Y02381
X066Y01881
X0515Y03131
X0565Y02631
X059Y03131
X064Y02631
X01975Y00881
X02475Y00381
X08725Y00881
X09225Y00381
T6
X0014Y04136
X01135Y04131
X00135Y03631
X0011Y02131
X00135Y00631
X00135Y00131
X01135Y00131
X11635Y00126
X10635Y00131
X11635Y00631
X11635Y02131
X11635Y03631
X11635Y04131
X10635Y04131
X0301Y04131
X04916Y04131
X06854Y04131
X0876Y04131
X0301Y00131
X04916Y00131
X06854Y00131
X0876Y00131
T7
X0085Y03256
X0085Y02506
X0085Y01756
X03375Y03256
X03375Y02506
X03375Y01756
X05875Y03256
X05875Y02506
X05875Y01756
X08375Y03256
X08375Y02506
X08375Y01756
X1085Y03256
X1085Y02506
X1085Y01756
X01155Y03471
X01905Y03471
X02655Y03471
X04155Y03471
X06405Y03471
X07155Y03471
X07905Y03471
X08655Y03471
X09405Y03471
X10155Y03471
X0078Y02721
X0173Y01971
X0248Y01971
X0323Y01971
X0398Y01971
X0473Y01971
X0698Y01971
X0828Y02721
X0903Y02721
X0153Y02721
X0378Y02721
X0303Y02721
X0228Y02721
X0453Y02721
X0678Y02721
X0753Y02721
X0098Y01971
X0773Y01971
X0848Y01971
X0923Y01971
X0998Y01971
X02105Y01221
X02855Y01221
X03605Y01221
X04355Y01221
X05105Y01221
X05855Y01221
X06605Y01221
X07355Y01221
X08105Y01221
X08855Y01221
X1073Y01971
X01355Y01221
X09605Y01221
X0978Y02721
X1053Y02721
X0548Y00471
X05655Y03471
X04905Y03471
X03405Y03471
X0548Y01971
X0623Y01971
X0528Y02721
X0603Y02721
X02105Y00471
X08855Y00471
T8
X0795Y00931
X0795Y00631
X03225Y00931
X03225Y00631
M30
